%TF.GenerationSoftware,KiCad,Pcbnew,9.0.7*%
%TF.CreationDate,2026-08-16T14:43:19-02:30*%
%TF.ProjectId,worlds-worst-audio-interface,776f726c-6473-42d7-976f-7273742d6175,rev?*%
%TF.SameCoordinates,PX5916363PY6f94740*%
%TF.FileFunction,Copper,L3,Inr*%
%TF.FilePolarity,Positive*%
%FSLAX46Y46*%
G04 Gerber Fmt 4.6, Leading zero omitted, Abs format (unit mm)*
G04 Created by KiCad (PCBNEW 9.0.7) date 2026-08-16 14:43:19*
%MOMM*%
%LPD*%
G01*
G04 APERTURE LIST*
%TA.AperFunction,ComponentPad*%
%ADD10C,1.600000*%
%TD*%
%TA.AperFunction,ComponentPad*%
%ADD11C,3.000000*%
%TD*%
%TA.AperFunction,HeatsinkPad*%
%ADD12O,1.100000X1.700000*%
%TD*%
%TA.AperFunction,HeatsinkPad*%
%ADD13O,1.350000X1.700000*%
%TD*%
%TA.AperFunction,HeatsinkPad*%
%ADD14O,1.100000X1.500000*%
%TD*%
%TA.AperFunction,ViaPad*%
%ADD15C,0.600000*%
%TD*%
%TA.AperFunction,ViaPad*%
%ADD16C,0.700000*%
%TD*%
%TA.AperFunction,Conductor*%
%ADD17C,0.250000*%
%TD*%
G04 APERTURE END LIST*
D10*
%TO.N,GND*%
%TO.C,HEADPHONE*%
X31060757Y13180736D03*
%TO.N,Net-(U7-Tip)*%
X26660757Y12180736D03*
%TO.N,Net-(U7-Ring1)*%
X26660757Y8180736D03*
%TO.N,unconnected-(U7-Ring2-Pad4)*%
X26660757Y5180736D03*
%TD*%
D11*
%TO.N,GND*%
%TO.C,INPUT*%
X18600757Y13524553D03*
X2370757Y13524553D03*
X18600757Y7174553D03*
X2370757Y7174553D03*
%TO.N,Net-(C56-Pad2)*%
X18600757Y19874553D03*
%TO.N,Net-(J4-PadTN)*%
X2370757Y19874553D03*
%TD*%
D12*
%TO.N,GND*%
%TO.C,PWR*%
X59765757Y6428533D03*
X59765757Y2628533D03*
X68405757Y6428533D03*
X68405757Y2628533D03*
%TD*%
D13*
%TO.N,GND*%
%TO.C,DATA*%
X76605757Y1754733D03*
D14*
X76915757Y4754733D03*
X81755757Y4754733D03*
D13*
X82065757Y1754733D03*
%TD*%
D15*
%TO.N,GND*%
X21085757Y32275000D03*
D16*
X56085757Y49500000D03*
D15*
X46533186Y23752571D03*
X12210757Y40850000D03*
D16*
X34585757Y46500000D03*
D15*
X26860757Y41550000D03*
X12135757Y45675000D03*
X86376814Y19746268D03*
X62478988Y13004210D03*
X21485757Y48725000D03*
D16*
X37085757Y26000000D03*
X38335757Y2000000D03*
D15*
X45960757Y44525000D03*
X29210757Y41000000D03*
X58833186Y24752571D03*
X56585757Y21750000D03*
D16*
X42835757Y18250000D03*
X82810757Y37250000D03*
D15*
X64083186Y37247429D03*
X43391895Y38223845D03*
D16*
X41835757Y16750000D03*
X71085757Y25250000D03*
D15*
X47333186Y50997429D03*
X66085757Y24500000D03*
X40960757Y36500000D03*
X43335757Y36000000D03*
D16*
X46085757Y51250000D03*
D15*
X22211795Y43233931D03*
X63010757Y21750000D03*
X56585757Y44500000D03*
X62085757Y22000000D03*
X33585757Y37750000D03*
D16*
X84935757Y37250000D03*
X57335757Y1250000D03*
D15*
X7610757Y39351931D03*
X40585757Y53250000D03*
D16*
X59122784Y16855892D03*
D15*
X11960757Y34000000D03*
X54484970Y5135440D03*
X31835757Y28550000D03*
X43435757Y37275000D03*
X39835757Y20725000D03*
X31835757Y41750000D03*
X53585757Y21750000D03*
D16*
X87010757Y37250000D03*
X71835757Y38143750D03*
X52835757Y15500000D03*
D15*
X44085757Y53250000D03*
X78085757Y11000000D03*
X65083186Y13002571D03*
D16*
X38229507Y41250000D03*
D15*
X66439200Y18292353D03*
D16*
X36835757Y46500000D03*
D15*
X46338328Y27002571D03*
D16*
X71085757Y37250000D03*
D15*
X12335757Y50050000D03*
X35835757Y37750000D03*
D16*
X78504869Y37250000D03*
D15*
X52585757Y44500000D03*
D16*
X80660757Y37250000D03*
D15*
X65085757Y47175000D03*
D16*
X38660757Y33500000D03*
D15*
X28959842Y53948349D03*
X29710757Y49508883D03*
D16*
X37085757Y34000000D03*
D15*
X5035757Y41500000D03*
D16*
X43835757Y51250000D03*
D15*
X66085757Y31000000D03*
D16*
X49835757Y15500000D03*
X71085757Y29250000D03*
X70335757Y47250000D03*
D15*
X14335757Y40850000D03*
D16*
X31085757Y15000000D03*
D15*
X63568258Y44784310D03*
X75335757Y11000000D03*
D16*
X51835757Y51250000D03*
D15*
X21460757Y50975000D03*
X37585757Y20725000D03*
X66085757Y28000000D03*
X14085757Y34000000D03*
D16*
X61048035Y16834193D03*
D15*
X43460757Y26375000D03*
X9410757Y19875000D03*
X5860757Y43950000D03*
X46088328Y37002571D03*
D16*
X71085757Y33250000D03*
D15*
X26285757Y47924000D03*
D16*
X28085757Y15000000D03*
D15*
X8010757Y48000000D03*
D16*
X76335757Y37250000D03*
D15*
X65083186Y49652571D03*
X24585757Y43250000D03*
X37085757Y53250000D03*
X46088328Y43002571D03*
X37235757Y31450000D03*
D16*
X41585757Y51250000D03*
D15*
X66235757Y34000000D03*
X62983186Y24345098D03*
X50835757Y18250000D03*
X61489493Y42250000D03*
X37085757Y51000000D03*
D16*
X38335757Y7250000D03*
D15*
X61736923Y39747429D03*
%TO.N,/USB_VIN*%
X56260757Y12825000D03*
X57335757Y6625000D03*
X66535757Y8000000D03*
X63921242Y11950000D03*
X65610757Y7475000D03*
X62568235Y7615655D03*
X56235757Y11550000D03*
X1710757Y44125000D03*
X58460757Y9250000D03*
%TO.N,/RESET*%
X81295757Y14500000D03*
X65835757Y26000000D03*
X46085757Y28250000D03*
X44585757Y16500000D03*
%TO.N,+1V8*%
X64810757Y14250000D03*
X33018815Y43183058D03*
X41810757Y14500000D03*
X76585757Y14250000D03*
X71085757Y14250000D03*
%TO.N,+3V3*%
X71244136Y27210948D03*
X45047048Y44583112D03*
X36285757Y52250000D03*
X38610757Y31450000D03*
X38185757Y39225000D03*
X54060757Y49575000D03*
X40260757Y47950000D03*
X64085757Y47250000D03*
X64875588Y43527384D03*
X64335757Y18250000D03*
X43585757Y39000000D03*
X43260757Y22500000D03*
X66310757Y41000000D03*
X46156315Y16954442D03*
X64710757Y21825000D03*
X69799597Y40567981D03*
X54127757Y16860560D03*
X33585757Y7250000D03*
X27335757Y39750000D03*
X55835757Y18250000D03*
X31127075Y23484766D03*
X37235757Y40950000D03*
X43585757Y41000000D03*
X71335757Y31250000D03*
X64585757Y44500000D03*
X71290810Y23205054D03*
X31835757Y53450000D03*
X64010757Y35225000D03*
X36610757Y8450000D03*
X50510757Y47925000D03*
X46585757Y9250000D03*
X43485757Y24975000D03*
X71335757Y35250000D03*
%TO.N,+3.3VA*%
X13710757Y46825000D03*
X28085757Y23750000D03*
X20735757Y46475000D03*
X14085757Y38500000D03*
%TO.N,Net-(C23-Pad1)*%
X61210757Y21875000D03*
%TO.N,/USB_D-*%
X78645757Y7000000D03*
%TO.N,/USB_D+*%
X79375757Y7000000D03*
%TO.N,Net-(J2-CC2)*%
X64585757Y8250000D03*
%TO.N,Net-(J2-CC1)*%
X63335757Y8250000D03*
%TO.N,Net-(U5-BOOT0)*%
X48460757Y47750000D03*
%TO.N,/VBIAS*%
X23085757Y38000000D03*
X9535757Y34075000D03*
X9985757Y30100000D03*
%TO.N,/RESET_CODEC*%
X30335757Y35500000D03*
X48085757Y27250000D03*
%TO.N,/SAI1_SD_B*%
X38835757Y44625000D03*
X38335757Y43125000D03*
%TO.N,/CODEC_GPIO*%
X49085757Y27250000D03*
X32334757Y35500000D03*
%TO.N,/SAI1_SCK_A*%
X39585757Y43125000D03*
X39335757Y45250000D03*
%TD*%
D17*
%TO.N,+3.3VA*%
X14060757Y38475000D02*
X14085757Y38500000D01*
%TD*%
%TA.AperFunction,Conductor*%
%TO.N,+3V3*%
G36*
X28422482Y54454815D02*
G01*
X28468237Y54402011D01*
X28478181Y54332853D01*
X28462830Y54288500D01*
X28400266Y54180136D01*
X28400265Y54180133D01*
X28359342Y54027406D01*
X28359342Y53869292D01*
X28396525Y53730525D01*
X28400265Y53716566D01*
X28400268Y53716559D01*
X28479317Y53579640D01*
X28479321Y53579635D01*
X28479322Y53579633D01*
X28591126Y53467829D01*
X28591128Y53467828D01*
X28591132Y53467825D01*
X28728051Y53388776D01*
X28728058Y53388772D01*
X28880785Y53347849D01*
X28880787Y53347849D01*
X29038897Y53347849D01*
X29038899Y53347849D01*
X29191626Y53388772D01*
X29328558Y53467829D01*
X29440362Y53579633D01*
X29519419Y53716565D01*
X29560342Y53869292D01*
X29560342Y54027406D01*
X29519419Y54180133D01*
X29456854Y54288500D01*
X29440381Y54356401D01*
X29463234Y54422428D01*
X29518155Y54465618D01*
X29564241Y54474500D01*
X86580395Y54474500D01*
X86589552Y54474162D01*
X86817573Y54457275D01*
X86835043Y54454721D01*
X86981889Y54422428D01*
X87054202Y54406526D01*
X87071135Y54401516D01*
X87281233Y54322674D01*
X87297282Y54315308D01*
X87494036Y54207426D01*
X87508877Y54197855D01*
X87688322Y54063108D01*
X87701652Y54051525D01*
X87860123Y53892666D01*
X87871674Y53879307D01*
X88005981Y53699533D01*
X88015516Y53684668D01*
X88122916Y53487648D01*
X88130243Y53471580D01*
X88208568Y53261296D01*
X88213538Y53244349D01*
X88261196Y53025071D01*
X88263708Y53007591D01*
X88280033Y52779557D01*
X88280350Y52770714D01*
X88285256Y2004441D01*
X88284940Y1995583D01*
X88268591Y1766982D01*
X88266073Y1749470D01*
X88218302Y1529868D01*
X88213318Y1512892D01*
X88134774Y1302310D01*
X88127424Y1286217D01*
X88019717Y1088965D01*
X88010152Y1074082D01*
X87875468Y894165D01*
X87863882Y880794D01*
X87704964Y721876D01*
X87691593Y710290D01*
X87511676Y575606D01*
X87496793Y566041D01*
X87299539Y458331D01*
X87283445Y450981D01*
X87072868Y372441D01*
X87055893Y367457D01*
X86836286Y319684D01*
X86818774Y317166D01*
X86590174Y300816D01*
X86581328Y300500D01*
X68093473Y300500D01*
X68026434Y320185D01*
X67980679Y372989D01*
X67969475Y425192D01*
X67969619Y450981D01*
X67974927Y1401531D01*
X67994986Y1468457D01*
X68048044Y1513916D01*
X68117257Y1523473D01*
X68146376Y1515397D01*
X68157675Y1510717D01*
X68321985Y1478034D01*
X68321989Y1478033D01*
X68321990Y1478033D01*
X68489525Y1478033D01*
X68489526Y1478034D01*
X68653839Y1510717D01*
X68808620Y1574830D01*
X68947919Y1667907D01*
X69066383Y1786371D01*
X69159460Y1925670D01*
X69200942Y2025816D01*
X75630257Y2025816D01*
X75630257Y1483651D01*
X75667743Y1295198D01*
X75667746Y1295186D01*
X75741277Y1117665D01*
X75741278Y1117663D01*
X75848036Y957889D01*
X75848039Y957885D01*
X75983908Y822016D01*
X75983912Y822013D01*
X76143684Y715256D01*
X76143685Y715256D01*
X76143686Y715255D01*
X76143688Y715254D01*
X76321209Y641723D01*
X76321214Y641721D01*
X76509674Y604234D01*
X76509677Y604233D01*
X76509679Y604233D01*
X76701837Y604233D01*
X76701838Y604234D01*
X76890300Y641721D01*
X77067830Y715256D01*
X77227602Y822013D01*
X77363477Y957888D01*
X77470234Y1117660D01*
X77543769Y1295190D01*
X77581257Y1483655D01*
X77581257Y2025811D01*
X77581257Y2025814D01*
X77581256Y2025816D01*
X81090257Y2025816D01*
X81090257Y1483651D01*
X81127743Y1295198D01*
X81127746Y1295186D01*
X81201277Y1117665D01*
X81201278Y1117663D01*
X81308036Y957889D01*
X81308039Y957885D01*
X81443908Y822016D01*
X81443912Y822013D01*
X81603684Y715256D01*
X81603685Y715256D01*
X81603686Y715255D01*
X81603688Y715254D01*
X81781209Y641723D01*
X81781214Y641721D01*
X81969674Y604234D01*
X81969677Y604233D01*
X81969679Y604233D01*
X82161837Y604233D01*
X82161838Y604234D01*
X82350300Y641721D01*
X82527830Y715256D01*
X82687602Y822013D01*
X82823477Y957888D01*
X82930234Y1117660D01*
X83003769Y1295190D01*
X83041257Y1483655D01*
X83041257Y2025811D01*
X83041257Y2025814D01*
X83041256Y2025816D01*
X83003770Y2214269D01*
X83003769Y2214276D01*
X82930234Y2391806D01*
X82823477Y2551578D01*
X82823474Y2551582D01*
X82687605Y2687451D01*
X82687601Y2687454D01*
X82527827Y2794212D01*
X82527825Y2794213D01*
X82350304Y2867744D01*
X82350292Y2867747D01*
X82161838Y2905233D01*
X82161835Y2905233D01*
X81969679Y2905233D01*
X81969676Y2905233D01*
X81781221Y2867747D01*
X81781209Y2867744D01*
X81603688Y2794213D01*
X81603686Y2794212D01*
X81443912Y2687454D01*
X81443908Y2687451D01*
X81308039Y2551582D01*
X81308036Y2551578D01*
X81201278Y2391804D01*
X81201277Y2391802D01*
X81127746Y2214281D01*
X81127743Y2214269D01*
X81090257Y2025816D01*
X77581256Y2025816D01*
X77543770Y2214269D01*
X77543769Y2214276D01*
X77470234Y2391806D01*
X77363477Y2551578D01*
X77363474Y2551582D01*
X77227605Y2687451D01*
X77227601Y2687454D01*
X77067827Y2794212D01*
X77067825Y2794213D01*
X76890304Y2867744D01*
X76890292Y2867747D01*
X76701838Y2905233D01*
X76701835Y2905233D01*
X76509679Y2905233D01*
X76509676Y2905233D01*
X76321221Y2867747D01*
X76321209Y2867744D01*
X76143688Y2794213D01*
X76143686Y2794212D01*
X75983912Y2687454D01*
X75983908Y2687451D01*
X75848039Y2551582D01*
X75848036Y2551578D01*
X75741278Y2391804D01*
X75741277Y2391802D01*
X75667746Y2214281D01*
X75667743Y2214269D01*
X75630257Y2025816D01*
X69200942Y2025816D01*
X69223573Y2080451D01*
X69256257Y2244766D01*
X69256257Y3012300D01*
X69223573Y3176615D01*
X69159460Y3331396D01*
X69128294Y3378039D01*
X69066383Y3470696D01*
X68947919Y3589160D01*
X68808617Y3682238D01*
X68653839Y3746349D01*
X68653831Y3746351D01*
X68489528Y3779033D01*
X68489524Y3779033D01*
X68321990Y3779033D01*
X68321985Y3779033D01*
X68157682Y3746351D01*
X68151848Y3744581D01*
X68151293Y3746409D01*
X68090621Y3739904D01*
X68028152Y3771198D01*
X67992517Y3831297D01*
X67988677Y3862616D01*
X67995246Y5038505D01*
X76065257Y5038505D01*
X76065257Y4470962D01*
X76097939Y4306659D01*
X76097941Y4306651D01*
X76162052Y4151873D01*
X76255130Y4012571D01*
X76373594Y3894107D01*
X76420718Y3862620D01*
X76512894Y3801030D01*
X76667675Y3736917D01*
X76831985Y3704234D01*
X76831989Y3704233D01*
X76831990Y3704233D01*
X76999525Y3704233D01*
X76999526Y3704234D01*
X77163839Y3736917D01*
X77318620Y3801030D01*
X77457919Y3894107D01*
X77576383Y4012571D01*
X77669460Y4151870D01*
X77733573Y4306651D01*
X77766257Y4470966D01*
X77766257Y5038500D01*
X77766256Y5038505D01*
X80905257Y5038505D01*
X80905257Y4470962D01*
X80937939Y4306659D01*
X80937941Y4306651D01*
X81002052Y4151873D01*
X81095130Y4012571D01*
X81213594Y3894107D01*
X81260718Y3862620D01*
X81352894Y3801030D01*
X81507675Y3736917D01*
X81671985Y3704234D01*
X81671989Y3704233D01*
X81671990Y3704233D01*
X81839525Y3704233D01*
X81839526Y3704234D01*
X82003839Y3736917D01*
X82158620Y3801030D01*
X82297919Y3894107D01*
X82416383Y4012571D01*
X82509460Y4151870D01*
X82573573Y4306651D01*
X82606257Y4470966D01*
X82606257Y5038500D01*
X82573573Y5202815D01*
X82509460Y5357596D01*
X82478294Y5404239D01*
X82416383Y5496896D01*
X82297919Y5615360D01*
X82158617Y5708438D01*
X82003839Y5772549D01*
X82003831Y5772551D01*
X81839528Y5805233D01*
X81839524Y5805233D01*
X81671990Y5805233D01*
X81671985Y5805233D01*
X81507682Y5772551D01*
X81507674Y5772549D01*
X81352896Y5708438D01*
X81213594Y5615360D01*
X81095130Y5496896D01*
X81002052Y5357594D01*
X80937941Y5202816D01*
X80937939Y5202808D01*
X80905257Y5038505D01*
X77766256Y5038505D01*
X77733573Y5202815D01*
X77669460Y5357596D01*
X77638294Y5404239D01*
X77576383Y5496896D01*
X77457919Y5615360D01*
X77318617Y5708438D01*
X77163839Y5772549D01*
X77163831Y5772551D01*
X76999528Y5805233D01*
X76999524Y5805233D01*
X76831990Y5805233D01*
X76831985Y5805233D01*
X76667682Y5772551D01*
X76667674Y5772549D01*
X76512896Y5708438D01*
X76373594Y5615360D01*
X76255130Y5496896D01*
X76162052Y5357594D01*
X76097941Y5202816D01*
X76097939Y5202808D01*
X76065257Y5038505D01*
X67995246Y5038505D01*
X67996110Y5193227D01*
X68016168Y5260155D01*
X68069227Y5305614D01*
X68138440Y5315171D01*
X68156117Y5311190D01*
X68157667Y5310721D01*
X68157675Y5310717D01*
X68321985Y5278034D01*
X68321989Y5278033D01*
X68321990Y5278033D01*
X68489525Y5278033D01*
X68489526Y5278034D01*
X68653839Y5310717D01*
X68808620Y5374830D01*
X68947919Y5467907D01*
X69066383Y5586371D01*
X69159460Y5725670D01*
X69223573Y5880451D01*
X69256257Y6044766D01*
X69256257Y6812300D01*
X69223573Y6976615D01*
X69181140Y7079057D01*
X78045257Y7079057D01*
X78045257Y6920943D01*
X78081857Y6784352D01*
X78086180Y6768217D01*
X78086183Y6768210D01*
X78165232Y6631291D01*
X78165236Y6631286D01*
X78165237Y6631284D01*
X78277041Y6519480D01*
X78277043Y6519479D01*
X78277047Y6519476D01*
X78413966Y6440427D01*
X78413973Y6440423D01*
X78566700Y6399500D01*
X78566702Y6399500D01*
X78724812Y6399500D01*
X78724814Y6399500D01*
X78877541Y6440423D01*
X78948758Y6481541D01*
X79016657Y6498013D01*
X79072754Y6481541D01*
X79143973Y6440423D01*
X79296700Y6399500D01*
X79296702Y6399500D01*
X79454812Y6399500D01*
X79454814Y6399500D01*
X79607541Y6440423D01*
X79744473Y6519480D01*
X79856277Y6631284D01*
X79935334Y6768216D01*
X79976257Y6920943D01*
X79976257Y7079057D01*
X79935334Y7231784D01*
X79912869Y7270695D01*
X79856281Y7368710D01*
X79856275Y7368718D01*
X79744474Y7480519D01*
X79744466Y7480525D01*
X79607547Y7559574D01*
X79607543Y7559576D01*
X79607541Y7559577D01*
X79454814Y7600500D01*
X79296700Y7600500D01*
X79143973Y7559577D01*
X79143968Y7559575D01*
X79072755Y7518461D01*
X79004855Y7501990D01*
X78948759Y7518461D01*
X78877545Y7559575D01*
X78877543Y7559576D01*
X78877541Y7559577D01*
X78724814Y7600500D01*
X78566700Y7600500D01*
X78413973Y7559577D01*
X78413966Y7559574D01*
X78277047Y7480525D01*
X78277039Y7480519D01*
X78165238Y7368718D01*
X78165232Y7368710D01*
X78086183Y7231791D01*
X78086180Y7231784D01*
X78045257Y7079057D01*
X69181140Y7079057D01*
X69159461Y7131395D01*
X69066383Y7270696D01*
X68947919Y7389160D01*
X68808617Y7482238D01*
X68653839Y7546349D01*
X68653831Y7546351D01*
X68489528Y7579033D01*
X68489524Y7579033D01*
X68321990Y7579033D01*
X68285511Y7571778D01*
X68158129Y7546440D01*
X68088538Y7552669D01*
X68033361Y7595532D01*
X68010117Y7661422D01*
X68009941Y7668751D01*
X68021343Y9709669D01*
X68028993Y11079057D01*
X74735257Y11079057D01*
X74735257Y10920944D01*
X74776180Y10768217D01*
X74776183Y10768210D01*
X74855232Y10631291D01*
X74855236Y10631286D01*
X74855237Y10631284D01*
X74967041Y10519480D01*
X74967043Y10519479D01*
X74967047Y10519476D01*
X75103966Y10440427D01*
X75103973Y10440423D01*
X75256700Y10399500D01*
X75256702Y10399500D01*
X75414812Y10399500D01*
X75414814Y10399500D01*
X75567541Y10440423D01*
X75704473Y10519480D01*
X75816277Y10631284D01*
X75895334Y10768216D01*
X75936257Y10920943D01*
X75936257Y11079057D01*
X77485257Y11079057D01*
X77485257Y10920944D01*
X77526180Y10768217D01*
X77526183Y10768210D01*
X77605232Y10631291D01*
X77605236Y10631286D01*
X77605237Y10631284D01*
X77717041Y10519480D01*
X77717043Y10519479D01*
X77717047Y10519476D01*
X77853966Y10440427D01*
X77853973Y10440423D01*
X78006700Y10399500D01*
X78006702Y10399500D01*
X78164812Y10399500D01*
X78164814Y10399500D01*
X78317541Y10440423D01*
X78454473Y10519480D01*
X78566277Y10631284D01*
X78645334Y10768216D01*
X78686257Y10920943D01*
X78686257Y11079057D01*
X78645334Y11231784D01*
X78645330Y11231791D01*
X78566281Y11368710D01*
X78566275Y11368718D01*
X78454474Y11480519D01*
X78454466Y11480525D01*
X78317547Y11559574D01*
X78317543Y11559576D01*
X78317541Y11559577D01*
X78164814Y11600500D01*
X78006700Y11600500D01*
X77853973Y11559577D01*
X77853966Y11559574D01*
X77717047Y11480525D01*
X77717039Y11480519D01*
X77605238Y11368718D01*
X77605232Y11368710D01*
X77526183Y11231791D01*
X77526180Y11231784D01*
X77485257Y11079057D01*
X75936257Y11079057D01*
X75895334Y11231784D01*
X75895330Y11231791D01*
X75816281Y11368710D01*
X75816275Y11368718D01*
X75704474Y11480519D01*
X75704466Y11480525D01*
X75567547Y11559574D01*
X75567543Y11559576D01*
X75567541Y11559577D01*
X75414814Y11600500D01*
X75256700Y11600500D01*
X75103973Y11559577D01*
X75103966Y11559574D01*
X74967047Y11480525D01*
X74967039Y11480519D01*
X74855238Y11368718D01*
X74855232Y11368710D01*
X74776183Y11231791D01*
X74776180Y11231784D01*
X74735257Y11079057D01*
X68028993Y11079057D01*
X68039005Y12871194D01*
X68059064Y12938121D01*
X68112122Y12983580D01*
X68163003Y12994500D01*
X79112495Y12994500D01*
X79112503Y12994500D01*
X79176541Y13001287D01*
X79227371Y13012184D01*
X79264741Y13022719D01*
X79361995Y13078812D01*
X79415074Y13124247D01*
X79457523Y13168726D01*
X79509012Y13268494D01*
X79529101Y13335413D01*
X79541995Y13421407D01*
X79548984Y14579057D01*
X80695257Y14579057D01*
X80695257Y14420943D01*
X80732692Y14281236D01*
X80736180Y14268217D01*
X80736183Y14268210D01*
X80815232Y14131291D01*
X80815236Y14131286D01*
X80815237Y14131284D01*
X80927041Y14019480D01*
X80927043Y14019479D01*
X80927047Y14019476D01*
X80946878Y14008027D01*
X81063973Y13940423D01*
X81216700Y13899500D01*
X81216702Y13899500D01*
X81374812Y13899500D01*
X81374814Y13899500D01*
X81527541Y13940423D01*
X81664473Y14019480D01*
X81776277Y14131284D01*
X81855334Y14268216D01*
X81896257Y14420943D01*
X81896257Y14579057D01*
X81855334Y14731784D01*
X81810025Y14810262D01*
X81776281Y14868710D01*
X81776275Y14868718D01*
X81664474Y14980519D01*
X81664466Y14980525D01*
X81527547Y15059574D01*
X81527543Y15059576D01*
X81527541Y15059577D01*
X81374814Y15100500D01*
X81216700Y15100500D01*
X81063973Y15059577D01*
X81063966Y15059574D01*
X80927047Y14980525D01*
X80927039Y14980519D01*
X80815238Y14868718D01*
X80815232Y14868710D01*
X80736183Y14731791D01*
X80736180Y14731784D01*
X80695257Y14579057D01*
X79548984Y14579057D01*
X79558599Y16171695D01*
X79558599Y16171696D01*
X79559816Y16373409D01*
X79553035Y16439289D01*
X79541832Y16491548D01*
X79530679Y16530658D01*
X79474000Y16627571D01*
X79428245Y16680375D01*
X79428243Y16680377D01*
X79428233Y16680388D01*
X79383517Y16722549D01*
X79383514Y16722551D01*
X79383512Y16722553D01*
X79283436Y16773439D01*
X79283435Y16773440D01*
X79283434Y16773440D01*
X79216403Y16793123D01*
X79216397Y16793124D01*
X79130325Y16805500D01*
X79130322Y16805500D01*
X61818751Y16805500D01*
X61751712Y16825185D01*
X61705957Y16877989D01*
X61697134Y16905308D01*
X61673537Y17023932D01*
X61673536Y17023933D01*
X61673536Y17023937D01*
X61624500Y17142320D01*
X61624499Y17142321D01*
X61624496Y17142327D01*
X61553311Y17248862D01*
X61553308Y17248866D01*
X61462707Y17339467D01*
X61462703Y17339470D01*
X61356168Y17410655D01*
X61356159Y17410660D01*
X61237779Y17459694D01*
X61237773Y17459696D01*
X61112106Y17484693D01*
X61112104Y17484693D01*
X60983966Y17484693D01*
X60983964Y17484693D01*
X60858296Y17459696D01*
X60858290Y17459694D01*
X60739910Y17410660D01*
X60739901Y17410655D01*
X60633366Y17339470D01*
X60633362Y17339467D01*
X60542761Y17248866D01*
X60542758Y17248862D01*
X60471573Y17142327D01*
X60471568Y17142318D01*
X60422534Y17023938D01*
X60422532Y17023932D01*
X60398936Y16905308D01*
X60366551Y16843397D01*
X60305835Y16808823D01*
X60277319Y16805500D01*
X59896945Y16805500D01*
X59829906Y16825185D01*
X59784151Y16877989D01*
X59773542Y16917342D01*
X59773284Y16919956D01*
X59773284Y16919961D01*
X59748285Y17045636D01*
X59699249Y17164019D01*
X59699248Y17164020D01*
X59699245Y17164026D01*
X59628060Y17270561D01*
X59628057Y17270565D01*
X59537456Y17361166D01*
X59537452Y17361169D01*
X59430917Y17432354D01*
X59430908Y17432359D01*
X59312528Y17481393D01*
X59312522Y17481395D01*
X59186855Y17506392D01*
X59186853Y17506392D01*
X59058715Y17506392D01*
X59058713Y17506392D01*
X58933045Y17481395D01*
X58933039Y17481393D01*
X58814659Y17432359D01*
X58814650Y17432354D01*
X58708115Y17361169D01*
X58708111Y17361166D01*
X58617510Y17270565D01*
X58617507Y17270561D01*
X58546322Y17164026D01*
X58546317Y17164017D01*
X58497283Y17045637D01*
X58497281Y17045631D01*
X58472284Y16919966D01*
X58472026Y16917342D01*
X58471506Y16916057D01*
X58471095Y16913986D01*
X58470702Y16914065D01*
X58445863Y16852555D01*
X58388827Y16812198D01*
X58348623Y16805500D01*
X54667795Y16805500D01*
X54635150Y16803750D01*
X54635141Y16803750D01*
X54635136Y16803749D01*
X54635129Y16803749D01*
X54635102Y16803746D01*
X54608801Y16800918D01*
X54601781Y16800082D01*
X54495031Y16765300D01*
X54433707Y16731816D01*
X54364098Y16679707D01*
X54364083Y16679693D01*
X54320434Y16636045D01*
X54294754Y16616340D01*
X54255756Y16593825D01*
X54225854Y16581439D01*
X54214092Y16578288D01*
X54182365Y16569786D01*
X54150272Y16565560D01*
X54105249Y16565560D01*
X54073156Y16569785D01*
X54029649Y16581443D01*
X53999753Y16593827D01*
X53960756Y16616342D01*
X53935080Y16636044D01*
X53891424Y16679699D01*
X53891420Y16679703D01*
X53891419Y16679704D01*
X53867081Y16701565D01*
X53867077Y16701569D01*
X53867054Y16701588D01*
X53846475Y16718170D01*
X53840905Y16722553D01*
X53767961Y16759643D01*
X53740829Y16773439D01*
X53740828Y16773440D01*
X53740827Y16773440D01*
X53673796Y16793123D01*
X53673790Y16793124D01*
X53587718Y16805500D01*
X46601109Y16805500D01*
X46601107Y16805500D01*
X46588368Y16805235D01*
X46578076Y16804806D01*
X46578067Y16804805D01*
X46480644Y16784523D01*
X46480635Y16784520D01*
X46463662Y16777959D01*
X46463663Y16777958D01*
X46422442Y16762023D01*
X46416286Y16759643D01*
X46416284Y16759643D01*
X46403674Y16754768D01*
X46399928Y16754456D01*
X46390638Y16749092D01*
X46390637Y16749091D01*
X46384319Y16745443D01*
X46384317Y16745446D01*
X46384306Y16745435D01*
X46329070Y16713551D01*
X46329018Y16713517D01*
X46284315Y16687708D01*
X46254412Y16675322D01*
X46210923Y16663668D01*
X46178830Y16659442D01*
X46133806Y16659442D01*
X46101713Y16663667D01*
X46058215Y16675322D01*
X46028309Y16687709D01*
X45917998Y16751396D01*
X45912871Y16751520D01*
X45896843Y16757913D01*
X45864634Y16773439D01*
X45864630Y16773440D01*
X45797599Y16793123D01*
X45797593Y16793124D01*
X45711521Y16805500D01*
X45302588Y16805500D01*
X45291535Y16805040D01*
X45277154Y16804441D01*
X45256611Y16802725D01*
X45256606Y16802725D01*
X45256604Y16802724D01*
X45256602Y16802724D01*
X45256599Y16802723D01*
X45217515Y16792001D01*
X45147656Y16793249D01*
X45089562Y16832067D01*
X45077324Y16849582D01*
X45066277Y16868716D01*
X44954474Y16980519D01*
X44954466Y16980525D01*
X44817547Y17059574D01*
X44817543Y17059576D01*
X44817541Y17059577D01*
X44664814Y17100500D01*
X44506700Y17100500D01*
X44353973Y17059577D01*
X44353966Y17059574D01*
X44217047Y16980525D01*
X44217039Y16980519D01*
X44105239Y16868719D01*
X44105234Y16868713D01*
X44094899Y16850811D01*
X44044331Y16802596D01*
X43975723Y16789375D01*
X43959409Y16792517D01*
X43959337Y16792181D01*
X43955013Y16793122D01*
X43932062Y16796422D01*
X43868926Y16805500D01*
X42589725Y16805500D01*
X42522686Y16825185D01*
X42476931Y16877989D01*
X42468108Y16905309D01*
X42461259Y16939737D01*
X42461258Y16939744D01*
X42412222Y17058127D01*
X42412221Y17058128D01*
X42412218Y17058134D01*
X42341033Y17164669D01*
X42341030Y17164673D01*
X42250429Y17255274D01*
X42250425Y17255277D01*
X42143890Y17326462D01*
X42143881Y17326467D01*
X42025501Y17375501D01*
X42025495Y17375503D01*
X41899828Y17400500D01*
X41899826Y17400500D01*
X41771688Y17400500D01*
X41771686Y17400500D01*
X41646018Y17375503D01*
X41646012Y17375501D01*
X41527632Y17326467D01*
X41527623Y17326462D01*
X41421088Y17255277D01*
X41421084Y17255274D01*
X41330483Y17164673D01*
X41330480Y17164669D01*
X41259295Y17058134D01*
X41259290Y17058125D01*
X41210256Y16939745D01*
X41210254Y16939737D01*
X41203406Y16905309D01*
X41171021Y16843398D01*
X41110306Y16808824D01*
X41081789Y16805500D01*
X37265257Y16805500D01*
X37198218Y16825185D01*
X37152463Y16877989D01*
X37141257Y16929500D01*
X37141257Y18185929D01*
X42185256Y18185929D01*
X42210254Y18060262D01*
X42210256Y18060256D01*
X42259290Y17941876D01*
X42259295Y17941867D01*
X42330480Y17835332D01*
X42330483Y17835328D01*
X42421084Y17744727D01*
X42421088Y17744724D01*
X42527623Y17673539D01*
X42527629Y17673536D01*
X42527630Y17673535D01*
X42646013Y17624499D01*
X42646017Y17624499D01*
X42646018Y17624498D01*
X42771685Y17599500D01*
X42771688Y17599500D01*
X42899828Y17599500D01*
X42984372Y17616318D01*
X43025501Y17624499D01*
X43143884Y17673535D01*
X43250426Y17744724D01*
X43341033Y17835331D01*
X43412222Y17941873D01*
X43461258Y18060256D01*
X43486257Y18185931D01*
X43486257Y18314069D01*
X43486257Y18314072D01*
X43486256Y18314075D01*
X43483276Y18329057D01*
X50235257Y18329057D01*
X50235257Y18170943D01*
X50264916Y18060256D01*
X50276180Y18018217D01*
X50276183Y18018210D01*
X50355232Y17881291D01*
X50355236Y17881286D01*
X50355237Y17881284D01*
X50467041Y17769480D01*
X50467043Y17769479D01*
X50467047Y17769476D01*
X50601494Y17691854D01*
X50603973Y17690423D01*
X50756700Y17649500D01*
X50756702Y17649500D01*
X50914812Y17649500D01*
X50914814Y17649500D01*
X51067541Y17690423D01*
X51204473Y17769480D01*
X51316277Y17881284D01*
X51395334Y18018216D01*
X51436257Y18170943D01*
X51436257Y18329057D01*
X51424909Y18371410D01*
X65838700Y18371410D01*
X65838700Y18213296D01*
X65850049Y18170943D01*
X65879623Y18060570D01*
X65879626Y18060563D01*
X65958675Y17923644D01*
X65958679Y17923639D01*
X65958680Y17923637D01*
X66070484Y17811833D01*
X66070486Y17811832D01*
X66070490Y17811829D01*
X66143842Y17769480D01*
X66207416Y17732776D01*
X66360143Y17691853D01*
X66360145Y17691853D01*
X66518255Y17691853D01*
X66518257Y17691853D01*
X66670984Y17732776D01*
X66807916Y17811833D01*
X66919720Y17923637D01*
X66998777Y18060569D01*
X67039700Y18213296D01*
X67039700Y18371410D01*
X66998777Y18524137D01*
X66944176Y18618710D01*
X66919724Y18661063D01*
X66919718Y18661071D01*
X66807917Y18772872D01*
X66807909Y18772878D01*
X66670990Y18851927D01*
X66670986Y18851929D01*
X66670984Y18851930D01*
X66518257Y18892853D01*
X66360143Y18892853D01*
X66207416Y18851930D01*
X66207409Y18851927D01*
X66070490Y18772878D01*
X66070482Y18772872D01*
X65958681Y18661071D01*
X65958675Y18661063D01*
X65879626Y18524144D01*
X65879623Y18524137D01*
X65838700Y18371410D01*
X51424909Y18371410D01*
X51395334Y18481784D01*
X51351254Y18558134D01*
X51316281Y18618710D01*
X51316275Y18618718D01*
X51204474Y18730519D01*
X51204466Y18730525D01*
X51067547Y18809574D01*
X51067543Y18809576D01*
X51067541Y18809577D01*
X50914814Y18850500D01*
X50756700Y18850500D01*
X50603973Y18809577D01*
X50603966Y18809574D01*
X50467047Y18730525D01*
X50467039Y18730519D01*
X50355238Y18618718D01*
X50355232Y18618710D01*
X50276183Y18481791D01*
X50276181Y18481786D01*
X50276180Y18481784D01*
X50235257Y18329057D01*
X43483276Y18329057D01*
X43461259Y18439739D01*
X43461258Y18439740D01*
X43461258Y18439744D01*
X43412222Y18558127D01*
X43412221Y18558128D01*
X43412218Y18558134D01*
X43341033Y18664669D01*
X43341030Y18664673D01*
X43250429Y18755274D01*
X43250425Y18755277D01*
X43143890Y18826462D01*
X43143881Y18826467D01*
X43025501Y18875501D01*
X43025495Y18875503D01*
X42899828Y18900500D01*
X42899826Y18900500D01*
X42771688Y18900500D01*
X42771686Y18900500D01*
X42646018Y18875503D01*
X42646012Y18875501D01*
X42527632Y18826467D01*
X42527623Y18826462D01*
X42421088Y18755277D01*
X42421084Y18755274D01*
X42330483Y18664673D01*
X42330480Y18664669D01*
X42259295Y18558134D01*
X42259290Y18558125D01*
X42210256Y18439745D01*
X42210254Y18439739D01*
X42185257Y18314072D01*
X42185257Y18314069D01*
X42185257Y18185931D01*
X42185257Y18185929D01*
X42185256Y18185929D01*
X37141257Y18185929D01*
X37141257Y19825325D01*
X85776314Y19825325D01*
X85776314Y19667212D01*
X85817237Y19514485D01*
X85817240Y19514478D01*
X85896289Y19377559D01*
X85896293Y19377554D01*
X85896294Y19377552D01*
X86008098Y19265748D01*
X86008100Y19265747D01*
X86008104Y19265744D01*
X86145023Y19186695D01*
X86145030Y19186691D01*
X86297757Y19145768D01*
X86297759Y19145768D01*
X86455869Y19145768D01*
X86455871Y19145768D01*
X86608598Y19186691D01*
X86745530Y19265748D01*
X86857334Y19377552D01*
X86936391Y19514484D01*
X86977314Y19667211D01*
X86977314Y19825325D01*
X86936391Y19978052D01*
X86881307Y20073461D01*
X86857338Y20114978D01*
X86857332Y20114986D01*
X86745531Y20226787D01*
X86745523Y20226793D01*
X86608604Y20305842D01*
X86608600Y20305844D01*
X86608598Y20305845D01*
X86455871Y20346768D01*
X86297757Y20346768D01*
X86145030Y20305845D01*
X86145023Y20305842D01*
X86008104Y20226793D01*
X86008096Y20226787D01*
X85896295Y20114986D01*
X85896289Y20114978D01*
X85817240Y19978059D01*
X85817237Y19978052D01*
X85776314Y19825325D01*
X37141257Y19825325D01*
X37141257Y20073461D01*
X37160942Y20140500D01*
X37213746Y20186255D01*
X37282904Y20196199D01*
X37327257Y20180848D01*
X37353973Y20165423D01*
X37506700Y20124500D01*
X37506702Y20124500D01*
X37664812Y20124500D01*
X37664814Y20124500D01*
X37817541Y20165423D01*
X37954473Y20244480D01*
X38066277Y20356284D01*
X38145334Y20493216D01*
X38186257Y20645943D01*
X38186257Y20804057D01*
X39235257Y20804057D01*
X39235257Y20645944D01*
X39276180Y20493217D01*
X39276183Y20493210D01*
X39355232Y20356291D01*
X39355236Y20356286D01*
X39355237Y20356284D01*
X39467041Y20244480D01*
X39467043Y20244479D01*
X39467047Y20244476D01*
X39603966Y20165427D01*
X39603973Y20165423D01*
X39756700Y20124500D01*
X39756702Y20124500D01*
X39914812Y20124500D01*
X39914814Y20124500D01*
X40067541Y20165423D01*
X40204473Y20244480D01*
X40316277Y20356284D01*
X40395334Y20493216D01*
X40436257Y20645943D01*
X40436257Y20804057D01*
X40395334Y20956784D01*
X40395330Y20956791D01*
X40316281Y21093710D01*
X40316275Y21093718D01*
X40204474Y21205519D01*
X40204466Y21205525D01*
X40067547Y21284574D01*
X40067543Y21284576D01*
X40067541Y21284577D01*
X39914814Y21325500D01*
X39756700Y21325500D01*
X39603973Y21284577D01*
X39603966Y21284574D01*
X39467047Y21205525D01*
X39467039Y21205519D01*
X39355238Y21093718D01*
X39355232Y21093710D01*
X39276183Y20956791D01*
X39276180Y20956784D01*
X39235257Y20804057D01*
X38186257Y20804057D01*
X38145334Y20956784D01*
X38145330Y20956791D01*
X38066281Y21093710D01*
X38066275Y21093718D01*
X37954474Y21205519D01*
X37954466Y21205525D01*
X37817547Y21284574D01*
X37817543Y21284576D01*
X37817541Y21284577D01*
X37664814Y21325500D01*
X37506700Y21325500D01*
X37353973Y21284577D01*
X37353972Y21284577D01*
X37336519Y21274500D01*
X37327828Y21269482D01*
X37327256Y21269152D01*
X37259356Y21252681D01*
X37193329Y21275533D01*
X37150139Y21330455D01*
X37141257Y21376540D01*
X37141257Y21829057D01*
X52985257Y21829057D01*
X52985257Y21670943D01*
X53025842Y21519480D01*
X53026180Y21518217D01*
X53026183Y21518210D01*
X53105232Y21381291D01*
X53105236Y21381286D01*
X53105237Y21381284D01*
X53217041Y21269480D01*
X53217043Y21269479D01*
X53217047Y21269476D01*
X53353966Y21190427D01*
X53353973Y21190423D01*
X53506700Y21149500D01*
X53506702Y21149500D01*
X53664812Y21149500D01*
X53664814Y21149500D01*
X53817541Y21190423D01*
X53954473Y21269480D01*
X54066277Y21381284D01*
X54145334Y21518216D01*
X54186257Y21670943D01*
X54186257Y21829057D01*
X55985257Y21829057D01*
X55985257Y21670943D01*
X56025842Y21519480D01*
X56026180Y21518217D01*
X56026183Y21518210D01*
X56105232Y21381291D01*
X56105236Y21381286D01*
X56105237Y21381284D01*
X56217041Y21269480D01*
X56217043Y21269479D01*
X56217047Y21269476D01*
X56353966Y21190427D01*
X56353973Y21190423D01*
X56506700Y21149500D01*
X56506702Y21149500D01*
X56664812Y21149500D01*
X56664814Y21149500D01*
X56817541Y21190423D01*
X56954473Y21269480D01*
X57066277Y21381284D01*
X57145334Y21518216D01*
X57186257Y21670943D01*
X57186257Y21829057D01*
X57152763Y21954057D01*
X60610257Y21954057D01*
X60610257Y21795943D01*
X60643751Y21670944D01*
X60651180Y21643217D01*
X60651183Y21643210D01*
X60730232Y21506291D01*
X60730236Y21506286D01*
X60730237Y21506284D01*
X60842041Y21394480D01*
X60842043Y21394479D01*
X60842047Y21394476D01*
X60961519Y21325500D01*
X60978973Y21315423D01*
X61131700Y21274500D01*
X61131702Y21274500D01*
X61289812Y21274500D01*
X61289814Y21274500D01*
X61442541Y21315423D01*
X61579473Y21394480D01*
X61641793Y21456800D01*
X61703116Y21490285D01*
X61772808Y21485301D01*
X61791473Y21476507D01*
X61853973Y21440423D01*
X62006700Y21399500D01*
X62006702Y21399500D01*
X62164812Y21399500D01*
X62164814Y21399500D01*
X62317541Y21440423D01*
X62344067Y21455738D01*
X62411962Y21472212D01*
X62477990Y21449362D01*
X62513454Y21410352D01*
X62530234Y21381288D01*
X62530236Y21381285D01*
X62530237Y21381284D01*
X62642041Y21269480D01*
X62642043Y21269479D01*
X62642047Y21269476D01*
X62778966Y21190427D01*
X62778973Y21190423D01*
X62931700Y21149500D01*
X62931702Y21149500D01*
X63089812Y21149500D01*
X63089814Y21149500D01*
X63242541Y21190423D01*
X63379473Y21269480D01*
X63491277Y21381284D01*
X63570334Y21518216D01*
X63611257Y21670943D01*
X63611257Y21829057D01*
X63570334Y21981784D01*
X63498162Y22106791D01*
X63491281Y22118710D01*
X63491275Y22118718D01*
X63379474Y22230519D01*
X63379466Y22230525D01*
X63242547Y22309574D01*
X63242543Y22309576D01*
X63242541Y22309577D01*
X63089814Y22350500D01*
X62931700Y22350500D01*
X62778973Y22309577D01*
X62778972Y22309577D01*
X62752445Y22294261D01*
X62684545Y22277789D01*
X62618518Y22300642D01*
X62583059Y22339650D01*
X62566281Y22368710D01*
X62566275Y22368718D01*
X62454474Y22480519D01*
X62454466Y22480525D01*
X62317547Y22559574D01*
X62317543Y22559576D01*
X62317541Y22559577D01*
X62164814Y22600500D01*
X62006700Y22600500D01*
X61853973Y22559577D01*
X61853966Y22559574D01*
X61717047Y22480525D01*
X61717043Y22480522D01*
X61654720Y22418199D01*
X61593396Y22384715D01*
X61523705Y22389700D01*
X61505039Y22398494D01*
X61442543Y22434576D01*
X61442542Y22434577D01*
X61442541Y22434577D01*
X61289814Y22475500D01*
X61131700Y22475500D01*
X60978973Y22434577D01*
X60978966Y22434574D01*
X60842047Y22355525D01*
X60842039Y22355519D01*
X60730238Y22243718D01*
X60730232Y22243710D01*
X60651183Y22106791D01*
X60651180Y22106784D01*
X60610257Y21954057D01*
X57152763Y21954057D01*
X57145334Y21981784D01*
X57073162Y22106791D01*
X57066281Y22118710D01*
X57066275Y22118718D01*
X56954474Y22230519D01*
X56954466Y22230525D01*
X56817547Y22309574D01*
X56817543Y22309576D01*
X56817541Y22309577D01*
X56664814Y22350500D01*
X56506700Y22350500D01*
X56353973Y22309577D01*
X56353966Y22309574D01*
X56217047Y22230525D01*
X56217039Y22230519D01*
X56105238Y22118718D01*
X56105232Y22118710D01*
X56026183Y21981791D01*
X56026181Y21981786D01*
X56026180Y21981784D01*
X55985257Y21829057D01*
X54186257Y21829057D01*
X54145334Y21981784D01*
X54073162Y22106791D01*
X54066281Y22118710D01*
X54066275Y22118718D01*
X53954474Y22230519D01*
X53954466Y22230525D01*
X53817547Y22309574D01*
X53817543Y22309576D01*
X53817541Y22309577D01*
X53664814Y22350500D01*
X53506700Y22350500D01*
X53353973Y22309577D01*
X53353966Y22309574D01*
X53217047Y22230525D01*
X53217039Y22230519D01*
X53105238Y22118718D01*
X53105232Y22118710D01*
X53026183Y21981791D01*
X53026181Y21981786D01*
X53026180Y21981784D01*
X52985257Y21829057D01*
X37141257Y21829057D01*
X37141257Y23831628D01*
X45932686Y23831628D01*
X45932686Y23673515D01*
X45973609Y23520788D01*
X45973612Y23520781D01*
X46052661Y23383862D01*
X46052665Y23383857D01*
X46052666Y23383855D01*
X46164470Y23272051D01*
X46164472Y23272050D01*
X46164476Y23272047D01*
X46301395Y23192998D01*
X46301402Y23192994D01*
X46454129Y23152071D01*
X46454131Y23152071D01*
X46612241Y23152071D01*
X46612243Y23152071D01*
X46764970Y23192994D01*
X46901902Y23272051D01*
X47013706Y23383855D01*
X47092763Y23520787D01*
X47133686Y23673514D01*
X47133686Y23831628D01*
X47092763Y23984355D01*
X47018313Y24113308D01*
X47013710Y24121281D01*
X47013704Y24121289D01*
X46901903Y24233090D01*
X46901895Y24233096D01*
X46764976Y24312145D01*
X46764972Y24312147D01*
X46764970Y24312148D01*
X46612243Y24353071D01*
X46454129Y24353071D01*
X46301402Y24312148D01*
X46301395Y24312145D01*
X46164476Y24233096D01*
X46164468Y24233090D01*
X46052667Y24121289D01*
X46052661Y24121281D01*
X45973612Y23984362D01*
X45973609Y23984355D01*
X45932686Y23831628D01*
X37141257Y23831628D01*
X37141257Y24831628D01*
X58232686Y24831628D01*
X58232686Y24673514D01*
X58264418Y24555091D01*
X58273609Y24520788D01*
X58273612Y24520781D01*
X58352661Y24383862D01*
X58352665Y24383857D01*
X58352666Y24383855D01*
X58464470Y24272051D01*
X58464472Y24272050D01*
X58464476Y24272047D01*
X58531951Y24233091D01*
X58601402Y24192994D01*
X58754129Y24152071D01*
X58754131Y24152071D01*
X58912241Y24152071D01*
X58912243Y24152071D01*
X59064970Y24192994D01*
X59201902Y24272051D01*
X59313706Y24383855D01*
X59336973Y24424155D01*
X62382686Y24424155D01*
X62382686Y24266041D01*
X62421475Y24121281D01*
X62423609Y24113315D01*
X62423612Y24113308D01*
X62502661Y23976389D01*
X62502665Y23976384D01*
X62502666Y23976382D01*
X62614470Y23864578D01*
X62614472Y23864577D01*
X62614476Y23864574D01*
X62751395Y23785525D01*
X62751402Y23785521D01*
X62904129Y23744598D01*
X62904131Y23744598D01*
X63062241Y23744598D01*
X63062243Y23744598D01*
X63214970Y23785521D01*
X63351902Y23864578D01*
X63463706Y23976382D01*
X63542763Y24113314D01*
X63583686Y24266041D01*
X63583686Y24424155D01*
X63548602Y24555091D01*
X63548602Y24555093D01*
X63542764Y24576878D01*
X63542763Y24576882D01*
X63541507Y24579057D01*
X65485257Y24579057D01*
X65485257Y24420943D01*
X65525154Y24272047D01*
X65526180Y24268217D01*
X65526183Y24268210D01*
X65605232Y24131291D01*
X65605236Y24131286D01*
X65605237Y24131284D01*
X65717041Y24019480D01*
X65717043Y24019479D01*
X65717047Y24019476D01*
X65791691Y23976381D01*
X65853973Y23940423D01*
X66006700Y23899500D01*
X66006702Y23899500D01*
X66164812Y23899500D01*
X66164814Y23899500D01*
X66317541Y23940423D01*
X66454473Y24019480D01*
X66566277Y24131284D01*
X66645334Y24268216D01*
X66686257Y24420943D01*
X66686257Y24579057D01*
X66645334Y24731784D01*
X66637863Y24744724D01*
X66566281Y24868710D01*
X66566275Y24868718D01*
X66454474Y24980519D01*
X66454466Y24980525D01*
X66317547Y25059574D01*
X66317543Y25059576D01*
X66317541Y25059577D01*
X66164814Y25100500D01*
X66006700Y25100500D01*
X65853973Y25059577D01*
X65853966Y25059574D01*
X65717047Y24980525D01*
X65717039Y24980519D01*
X65605238Y24868718D01*
X65605232Y24868710D01*
X65526183Y24731791D01*
X65526180Y24731784D01*
X65485257Y24579057D01*
X63541507Y24579057D01*
X63486973Y24673514D01*
X63463710Y24713808D01*
X63463704Y24713816D01*
X63351903Y24825617D01*
X63351895Y24825623D01*
X63214976Y24904672D01*
X63214972Y24904674D01*
X63214970Y24904675D01*
X63062243Y24945598D01*
X62904129Y24945598D01*
X62751402Y24904675D01*
X62751395Y24904672D01*
X62614476Y24825623D01*
X62614468Y24825617D01*
X62502667Y24713816D01*
X62502661Y24713808D01*
X62423612Y24576889D01*
X62423609Y24576882D01*
X62382686Y24424155D01*
X59336973Y24424155D01*
X59337258Y24424649D01*
X59377461Y24494282D01*
X59377461Y24494283D01*
X59392763Y24520787D01*
X59433686Y24673514D01*
X59433686Y24831628D01*
X59392763Y24984355D01*
X59348942Y25060256D01*
X59313710Y25121281D01*
X59313704Y25121289D01*
X59249064Y25185929D01*
X70435256Y25185929D01*
X70460254Y25060262D01*
X70460256Y25060256D01*
X70509290Y24941876D01*
X70509295Y24941867D01*
X70580480Y24835332D01*
X70580483Y24835328D01*
X70671084Y24744727D01*
X70671088Y24744724D01*
X70777623Y24673539D01*
X70777632Y24673534D01*
X70804449Y24662426D01*
X70896013Y24624499D01*
X70896017Y24624499D01*
X70896018Y24624498D01*
X71021685Y24599500D01*
X71021688Y24599500D01*
X71149828Y24599500D01*
X71234372Y24616318D01*
X71275501Y24624499D01*
X71393884Y24673535D01*
X71500426Y24744724D01*
X71591033Y24835331D01*
X71662222Y24941873D01*
X71711258Y25060256D01*
X71736257Y25185931D01*
X71736257Y25314069D01*
X71736257Y25314072D01*
X71711259Y25439739D01*
X71711258Y25439740D01*
X71711258Y25439744D01*
X71662222Y25558127D01*
X71662221Y25558128D01*
X71662218Y25558134D01*
X71591033Y25664669D01*
X71591030Y25664673D01*
X71500429Y25755274D01*
X71500425Y25755277D01*
X71393890Y25826462D01*
X71393881Y25826467D01*
X71275501Y25875501D01*
X71275495Y25875503D01*
X71149828Y25900500D01*
X71149826Y25900500D01*
X71021688Y25900500D01*
X71021686Y25900500D01*
X70896018Y25875503D01*
X70896012Y25875501D01*
X70777632Y25826467D01*
X70777623Y25826462D01*
X70671088Y25755277D01*
X70671084Y25755274D01*
X70580483Y25664673D01*
X70580480Y25664669D01*
X70509295Y25558134D01*
X70509290Y25558125D01*
X70460256Y25439745D01*
X70460254Y25439739D01*
X70435257Y25314072D01*
X70435257Y25314069D01*
X70435257Y25185931D01*
X70435257Y25185929D01*
X70435256Y25185929D01*
X59249064Y25185929D01*
X59201903Y25233090D01*
X59201895Y25233096D01*
X59064976Y25312145D01*
X59064972Y25312147D01*
X59064970Y25312148D01*
X58912243Y25353071D01*
X58754129Y25353071D01*
X58601402Y25312148D01*
X58601395Y25312145D01*
X58464476Y25233096D01*
X58464468Y25233090D01*
X58352667Y25121289D01*
X58352661Y25121281D01*
X58273612Y24984362D01*
X58273609Y24984355D01*
X58232686Y24831628D01*
X37141257Y24831628D01*
X37141257Y25246032D01*
X37160942Y25313071D01*
X37213746Y25358826D01*
X37241066Y25367649D01*
X37251693Y25369764D01*
X37275501Y25374499D01*
X37393884Y25423535D01*
X37500426Y25494724D01*
X37591033Y25585331D01*
X37662222Y25691873D01*
X37711258Y25810256D01*
X37719439Y25851385D01*
X37736257Y25935929D01*
X37736257Y26064072D01*
X37711259Y26189739D01*
X37711258Y26189740D01*
X37711258Y26189744D01*
X37662222Y26308127D01*
X37662221Y26308128D01*
X37662218Y26308134D01*
X37605316Y26393293D01*
X37605315Y26393294D01*
X37591031Y26414672D01*
X37551646Y26454057D01*
X42860257Y26454057D01*
X42860257Y26295943D01*
X42877449Y26231784D01*
X42901180Y26143217D01*
X42901183Y26143210D01*
X42980232Y26006291D01*
X42980236Y26006286D01*
X42980237Y26006284D01*
X43092041Y25894480D01*
X43092043Y25894479D01*
X43092047Y25894476D01*
X43209853Y25826462D01*
X43228973Y25815423D01*
X43381700Y25774500D01*
X43381702Y25774500D01*
X43539812Y25774500D01*
X43539814Y25774500D01*
X43692541Y25815423D01*
X43829473Y25894480D01*
X43941277Y26006284D01*
X43983292Y26079057D01*
X65235257Y26079057D01*
X65235257Y25920943D01*
X65264916Y25810256D01*
X65276180Y25768217D01*
X65276183Y25768210D01*
X65355232Y25631291D01*
X65355236Y25631286D01*
X65355237Y25631284D01*
X65467041Y25519480D01*
X65467043Y25519479D01*
X65467047Y25519476D01*
X65551687Y25470610D01*
X65603973Y25440423D01*
X65756700Y25399500D01*
X65756702Y25399500D01*
X65914811Y25399500D01*
X65914814Y25399500D01*
X66067541Y25440423D01*
X66204473Y25519480D01*
X66316277Y25631284D01*
X66395334Y25768216D01*
X66436257Y25920943D01*
X66436257Y26079057D01*
X66395334Y26231784D01*
X66351254Y26308134D01*
X66316281Y26368710D01*
X66316275Y26368718D01*
X66204474Y26480519D01*
X66204466Y26480525D01*
X66067547Y26559574D01*
X66067543Y26559576D01*
X66067541Y26559577D01*
X65914814Y26600500D01*
X65756700Y26600500D01*
X65603973Y26559577D01*
X65603966Y26559574D01*
X65467047Y26480525D01*
X65467039Y26480519D01*
X65355238Y26368718D01*
X65355232Y26368710D01*
X65276183Y26231791D01*
X65276180Y26231784D01*
X65235257Y26079057D01*
X43983292Y26079057D01*
X44020334Y26143216D01*
X44061257Y26295943D01*
X44061257Y26454057D01*
X44020334Y26606784D01*
X44009527Y26625502D01*
X43941281Y26743710D01*
X43941275Y26743718D01*
X43829474Y26855519D01*
X43829466Y26855525D01*
X43692547Y26934574D01*
X43692543Y26934576D01*
X43692541Y26934577D01*
X43539814Y26975500D01*
X43381700Y26975500D01*
X43228973Y26934577D01*
X43228966Y26934574D01*
X43092047Y26855525D01*
X43092039Y26855519D01*
X42980238Y26743718D01*
X42980232Y26743710D01*
X42901183Y26606791D01*
X42901180Y26606784D01*
X42860257Y26454057D01*
X37551646Y26454057D01*
X37500429Y26505274D01*
X37500425Y26505277D01*
X37393890Y26576462D01*
X37393881Y26576467D01*
X37275501Y26625501D01*
X37275498Y26625502D01*
X37241063Y26632352D01*
X37179153Y26664739D01*
X37144580Y26725455D01*
X37141257Y26753969D01*
X37141257Y28329057D01*
X45485257Y28329057D01*
X45485257Y28170943D01*
X45512444Y28069482D01*
X45526180Y28018217D01*
X45526183Y28018210D01*
X45605232Y27881291D01*
X45605236Y27881286D01*
X45605237Y27881284D01*
X45717041Y27769480D01*
X45717043Y27769479D01*
X45717047Y27769476D01*
X45784522Y27730520D01*
X45853973Y27690423D01*
X45901237Y27677759D01*
X45960896Y27641396D01*
X45991426Y27578549D01*
X45983132Y27509174D01*
X45956825Y27470304D01*
X45857806Y27371285D01*
X45857803Y27371281D01*
X45778754Y27234362D01*
X45778751Y27234355D01*
X45737828Y27081628D01*
X45737828Y26923514D01*
X45749144Y26881284D01*
X45778751Y26770788D01*
X45778754Y26770781D01*
X45857803Y26633862D01*
X45857807Y26633857D01*
X45857808Y26633855D01*
X45969612Y26522051D01*
X45969614Y26522050D01*
X45969618Y26522047D01*
X46106537Y26442998D01*
X46106544Y26442994D01*
X46259271Y26402071D01*
X46259273Y26402071D01*
X46417383Y26402071D01*
X46417385Y26402071D01*
X46570112Y26442994D01*
X46707044Y26522051D01*
X46818848Y26633855D01*
X46897905Y26770787D01*
X46938828Y26923514D01*
X46938828Y27081628D01*
X46897905Y27234355D01*
X46851678Y27314423D01*
X46843229Y27329057D01*
X47485257Y27329057D01*
X47485257Y27170943D01*
X47509190Y27081626D01*
X47526180Y27018217D01*
X47526183Y27018210D01*
X47605232Y26881291D01*
X47605236Y26881286D01*
X47605237Y26881284D01*
X47717041Y26769480D01*
X47717043Y26769479D01*
X47717047Y26769476D01*
X47761676Y26743710D01*
X47853973Y26690423D01*
X48006700Y26649500D01*
X48006702Y26649500D01*
X48164812Y26649500D01*
X48164814Y26649500D01*
X48317541Y26690423D01*
X48454473Y26769480D01*
X48498076Y26813083D01*
X48559399Y26846568D01*
X48629091Y26841584D01*
X48673438Y26813083D01*
X48717041Y26769480D01*
X48717043Y26769479D01*
X48717047Y26769476D01*
X48761676Y26743710D01*
X48853973Y26690423D01*
X49006700Y26649500D01*
X49006702Y26649500D01*
X49164812Y26649500D01*
X49164814Y26649500D01*
X49317541Y26690423D01*
X49454473Y26769480D01*
X49566277Y26881284D01*
X49645334Y27018216D01*
X49686257Y27170943D01*
X49686257Y27329057D01*
X49645334Y27481784D01*
X49623573Y27519476D01*
X49566281Y27618710D01*
X49566275Y27618718D01*
X49454474Y27730519D01*
X49454466Y27730525D01*
X49317547Y27809574D01*
X49317543Y27809576D01*
X49317541Y27809577D01*
X49164814Y27850500D01*
X49006700Y27850500D01*
X48853973Y27809577D01*
X48853966Y27809574D01*
X48717047Y27730525D01*
X48717039Y27730519D01*
X48673438Y27686917D01*
X48612115Y27653432D01*
X48542423Y27658416D01*
X48498076Y27686917D01*
X48454474Y27730519D01*
X48454466Y27730525D01*
X48317547Y27809574D01*
X48317543Y27809576D01*
X48317541Y27809577D01*
X48164814Y27850500D01*
X48006700Y27850500D01*
X47853973Y27809577D01*
X47853966Y27809574D01*
X47717047Y27730525D01*
X47717039Y27730519D01*
X47605238Y27618718D01*
X47605232Y27618710D01*
X47526183Y27481791D01*
X47526180Y27481784D01*
X47485257Y27329057D01*
X46843229Y27329057D01*
X46818850Y27371284D01*
X46818846Y27371289D01*
X46707045Y27483090D01*
X46707037Y27483096D01*
X46570118Y27562145D01*
X46570115Y27562147D01*
X46570112Y27562148D01*
X46522845Y27574814D01*
X46463187Y27611177D01*
X46432658Y27674024D01*
X46440953Y27743400D01*
X46467255Y27782263D01*
X46566277Y27881284D01*
X46645334Y28018216D01*
X46661636Y28079057D01*
X65485257Y28079057D01*
X65485257Y27920943D01*
X65525843Y27769476D01*
X65526180Y27768217D01*
X65526183Y27768210D01*
X65605232Y27631291D01*
X65605236Y27631286D01*
X65605237Y27631284D01*
X65717041Y27519480D01*
X65717043Y27519479D01*
X65717047Y27519476D01*
X65802217Y27470304D01*
X65853973Y27440423D01*
X66006700Y27399500D01*
X66006702Y27399500D01*
X66164812Y27399500D01*
X66164814Y27399500D01*
X66317541Y27440423D01*
X66454473Y27519480D01*
X66566277Y27631284D01*
X66645334Y27768216D01*
X66686257Y27920943D01*
X66686257Y28079057D01*
X66645334Y28231784D01*
X66645330Y28231791D01*
X66566281Y28368710D01*
X66566275Y28368718D01*
X66454474Y28480519D01*
X66454466Y28480525D01*
X66317547Y28559574D01*
X66317543Y28559576D01*
X66317541Y28559577D01*
X66164814Y28600500D01*
X66006700Y28600500D01*
X65853973Y28559577D01*
X65853966Y28559574D01*
X65717047Y28480525D01*
X65717039Y28480519D01*
X65605238Y28368718D01*
X65605232Y28368710D01*
X65526183Y28231791D01*
X65526180Y28231784D01*
X65485257Y28079057D01*
X46661636Y28079057D01*
X46686257Y28170943D01*
X46686257Y28329057D01*
X46645334Y28481784D01*
X46645330Y28481791D01*
X46566281Y28618710D01*
X46566275Y28618718D01*
X46454474Y28730519D01*
X46454466Y28730525D01*
X46317547Y28809574D01*
X46317543Y28809576D01*
X46317541Y28809577D01*
X46164814Y28850500D01*
X46006700Y28850500D01*
X45853973Y28809577D01*
X45853966Y28809574D01*
X45717047Y28730525D01*
X45717039Y28730519D01*
X45605238Y28618718D01*
X45605232Y28618710D01*
X45526183Y28481791D01*
X45526180Y28481784D01*
X45485257Y28329057D01*
X37141257Y28329057D01*
X37141257Y29185929D01*
X70435256Y29185929D01*
X70460254Y29060262D01*
X70460256Y29060256D01*
X70509290Y28941876D01*
X70509295Y28941867D01*
X70580480Y28835332D01*
X70580483Y28835328D01*
X70671084Y28744727D01*
X70671088Y28744724D01*
X70777623Y28673539D01*
X70777629Y28673536D01*
X70777630Y28673535D01*
X70896013Y28624499D01*
X70896017Y28624499D01*
X70896018Y28624498D01*
X71021685Y28599500D01*
X71021688Y28599500D01*
X71149828Y28599500D01*
X71234372Y28616318D01*
X71275501Y28624499D01*
X71393884Y28673535D01*
X71500426Y28744724D01*
X71591033Y28835331D01*
X71662222Y28941873D01*
X71711258Y29060256D01*
X71729209Y29150500D01*
X71736257Y29185929D01*
X71736257Y29314072D01*
X71711259Y29439739D01*
X71711258Y29439740D01*
X71711258Y29439744D01*
X71662222Y29558127D01*
X71662221Y29558128D01*
X71662218Y29558134D01*
X71591033Y29664669D01*
X71591030Y29664673D01*
X71500429Y29755274D01*
X71500425Y29755277D01*
X71393890Y29826462D01*
X71393881Y29826467D01*
X71275501Y29875501D01*
X71275495Y29875503D01*
X71149828Y29900500D01*
X71149826Y29900500D01*
X71021688Y29900500D01*
X71021686Y29900500D01*
X70896018Y29875503D01*
X70896012Y29875501D01*
X70777632Y29826467D01*
X70777623Y29826462D01*
X70671088Y29755277D01*
X70671084Y29755274D01*
X70580483Y29664673D01*
X70580480Y29664669D01*
X70509295Y29558134D01*
X70509290Y29558125D01*
X70460256Y29439745D01*
X70460254Y29439739D01*
X70435257Y29314072D01*
X70435257Y29314069D01*
X70435257Y29185931D01*
X70435257Y29185929D01*
X70435256Y29185929D01*
X37141257Y29185929D01*
X37141257Y30725500D01*
X37160942Y30792539D01*
X37213746Y30838294D01*
X37265257Y30849500D01*
X37314812Y30849500D01*
X37314814Y30849500D01*
X37467541Y30890423D01*
X37604473Y30969480D01*
X37714050Y31079057D01*
X65485257Y31079057D01*
X65485257Y30920943D01*
X65503292Y30853638D01*
X65526180Y30768217D01*
X65526183Y30768210D01*
X65605232Y30631291D01*
X65605236Y30631286D01*
X65605237Y30631284D01*
X65717041Y30519480D01*
X65717043Y30519479D01*
X65717047Y30519476D01*
X65853966Y30440427D01*
X65853973Y30440423D01*
X66006700Y30399500D01*
X66006702Y30399500D01*
X66164812Y30399500D01*
X66164814Y30399500D01*
X66317541Y30440423D01*
X66454473Y30519480D01*
X66566277Y30631284D01*
X66645334Y30768216D01*
X66686257Y30920943D01*
X66686257Y31079057D01*
X66645334Y31231784D01*
X66645330Y31231791D01*
X66566281Y31368710D01*
X66566275Y31368718D01*
X66454474Y31480519D01*
X66454466Y31480525D01*
X66317547Y31559574D01*
X66317543Y31559576D01*
X66317541Y31559577D01*
X66164814Y31600500D01*
X66006700Y31600500D01*
X65853973Y31559577D01*
X65853966Y31559574D01*
X65717047Y31480525D01*
X65717039Y31480519D01*
X65605238Y31368718D01*
X65605232Y31368710D01*
X65526183Y31231791D01*
X65526180Y31231784D01*
X65485257Y31079057D01*
X37714050Y31079057D01*
X37716277Y31081284D01*
X37795334Y31218216D01*
X37836257Y31370943D01*
X37836257Y31529057D01*
X37795334Y31681784D01*
X37795330Y31681791D01*
X37716281Y31818710D01*
X37716275Y31818718D01*
X37604474Y31930519D01*
X37604466Y31930525D01*
X37467547Y32009574D01*
X37467543Y32009576D01*
X37467541Y32009577D01*
X37314814Y32050500D01*
X37265257Y32050500D01*
X37198218Y32070185D01*
X37152463Y32122989D01*
X37141257Y32174500D01*
X37141257Y33246032D01*
X37160942Y33313071D01*
X37213746Y33358826D01*
X37241066Y33367649D01*
X37251693Y33369764D01*
X37275501Y33374499D01*
X37393884Y33423535D01*
X37412433Y33435929D01*
X38010256Y33435929D01*
X38035254Y33310262D01*
X38035256Y33310256D01*
X38084290Y33191876D01*
X38084295Y33191867D01*
X38155480Y33085332D01*
X38155483Y33085328D01*
X38246084Y32994727D01*
X38246088Y32994724D01*
X38352623Y32923539D01*
X38352629Y32923536D01*
X38352630Y32923535D01*
X38471013Y32874499D01*
X38471017Y32874499D01*
X38471018Y32874498D01*
X38596685Y32849500D01*
X38596688Y32849500D01*
X38724828Y32849500D01*
X38809372Y32866318D01*
X38850501Y32874499D01*
X38968884Y32923535D01*
X39075426Y32994724D01*
X39166033Y33085331D01*
X39233250Y33185929D01*
X70435256Y33185929D01*
X70460254Y33060262D01*
X70460256Y33060256D01*
X70509290Y32941876D01*
X70509295Y32941867D01*
X70580480Y32835332D01*
X70580483Y32835328D01*
X70671084Y32744727D01*
X70671088Y32744724D01*
X70777623Y32673539D01*
X70777629Y32673536D01*
X70777630Y32673535D01*
X70896013Y32624499D01*
X70896017Y32624499D01*
X70896018Y32624498D01*
X71021685Y32599500D01*
X71021688Y32599500D01*
X71149828Y32599500D01*
X71234372Y32616318D01*
X71275501Y32624499D01*
X71393884Y32673535D01*
X71500426Y32744724D01*
X71591033Y32835331D01*
X71662222Y32941873D01*
X71711258Y33060256D01*
X71736257Y33185931D01*
X71736257Y33314069D01*
X71736257Y33314072D01*
X71711259Y33439739D01*
X71711258Y33439740D01*
X71711258Y33439744D01*
X71662222Y33558127D01*
X71662221Y33558128D01*
X71662218Y33558134D01*
X71591033Y33664669D01*
X71591030Y33664673D01*
X71500429Y33755274D01*
X71500425Y33755277D01*
X71393890Y33826462D01*
X71393881Y33826467D01*
X71275501Y33875501D01*
X71275495Y33875503D01*
X71149828Y33900500D01*
X71149826Y33900500D01*
X71021688Y33900500D01*
X71021686Y33900500D01*
X70896018Y33875503D01*
X70896012Y33875501D01*
X70777632Y33826467D01*
X70777623Y33826462D01*
X70671088Y33755277D01*
X70671084Y33755274D01*
X70580483Y33664673D01*
X70580480Y33664669D01*
X70509295Y33558134D01*
X70509290Y33558125D01*
X70460256Y33439745D01*
X70460254Y33439739D01*
X70435257Y33314072D01*
X70435257Y33314069D01*
X70435257Y33185931D01*
X70435257Y33185929D01*
X70435256Y33185929D01*
X39233250Y33185929D01*
X39237222Y33191873D01*
X39286258Y33310256D01*
X39295919Y33358826D01*
X39311257Y33435929D01*
X39311257Y33564072D01*
X39286259Y33689739D01*
X39286258Y33689740D01*
X39286258Y33689744D01*
X39237222Y33808127D01*
X39237221Y33808128D01*
X39237218Y33808134D01*
X39166033Y33914669D01*
X39166030Y33914673D01*
X39075429Y34005274D01*
X39075425Y34005277D01*
X38968890Y34076462D01*
X38968881Y34076467D01*
X38962628Y34079057D01*
X65635257Y34079057D01*
X65635257Y33920943D01*
X65665487Y33808125D01*
X65676180Y33768217D01*
X65676183Y33768210D01*
X65755232Y33631291D01*
X65755236Y33631286D01*
X65755237Y33631284D01*
X65867041Y33519480D01*
X65867043Y33519479D01*
X65867047Y33519476D01*
X66003966Y33440427D01*
X66003973Y33440423D01*
X66156700Y33399500D01*
X66156702Y33399500D01*
X66314811Y33399500D01*
X66314814Y33399500D01*
X66467541Y33440423D01*
X66604473Y33519480D01*
X66716277Y33631284D01*
X66795334Y33768216D01*
X66836257Y33920943D01*
X66836257Y34079057D01*
X66795334Y34231784D01*
X66751254Y34308134D01*
X66716281Y34368710D01*
X66716275Y34368718D01*
X66604474Y34480519D01*
X66604466Y34480525D01*
X66467547Y34559574D01*
X66467543Y34559576D01*
X66467541Y34559577D01*
X66314814Y34600500D01*
X66156700Y34600500D01*
X66003973Y34559577D01*
X66003966Y34559574D01*
X65867047Y34480525D01*
X65867039Y34480519D01*
X65755238Y34368718D01*
X65755232Y34368710D01*
X65676183Y34231791D01*
X65676180Y34231784D01*
X65635257Y34079057D01*
X38962628Y34079057D01*
X38850501Y34125501D01*
X38850495Y34125503D01*
X38724828Y34150500D01*
X38724826Y34150500D01*
X38596688Y34150500D01*
X38596686Y34150500D01*
X38471018Y34125503D01*
X38471012Y34125501D01*
X38352632Y34076467D01*
X38352623Y34076462D01*
X38246088Y34005277D01*
X38246084Y34005274D01*
X38155483Y33914673D01*
X38155480Y33914669D01*
X38084295Y33808134D01*
X38084290Y33808125D01*
X38035256Y33689745D01*
X38035254Y33689739D01*
X38010257Y33564072D01*
X38010257Y33564069D01*
X38010257Y33435931D01*
X38010257Y33435929D01*
X38010256Y33435929D01*
X37412433Y33435929D01*
X37500426Y33494724D01*
X37591033Y33585331D01*
X37607150Y33609452D01*
X37626929Y33639052D01*
X37626930Y33639054D01*
X37662215Y33691862D01*
X37662217Y33691866D01*
X37662222Y33691873D01*
X37711258Y33810256D01*
X37719439Y33851385D01*
X37736257Y33935929D01*
X37736257Y34064072D01*
X37711259Y34189739D01*
X37711258Y34189740D01*
X37711258Y34189744D01*
X37662222Y34308127D01*
X37662221Y34308128D01*
X37662218Y34308134D01*
X37591033Y34414669D01*
X37591030Y34414673D01*
X37500429Y34505274D01*
X37500425Y34505277D01*
X37393890Y34576462D01*
X37393881Y34576467D01*
X37275501Y34625501D01*
X37275498Y34625502D01*
X37241063Y34632352D01*
X37179153Y34664739D01*
X37144580Y34725455D01*
X37141257Y34753969D01*
X37141257Y36579057D01*
X40360257Y36579057D01*
X40360257Y36420943D01*
X40365314Y36402072D01*
X40401180Y36268217D01*
X40401183Y36268210D01*
X40480232Y36131291D01*
X40480236Y36131286D01*
X40480237Y36131284D01*
X40592041Y36019480D01*
X40592043Y36019479D01*
X40592047Y36019476D01*
X40659517Y35980523D01*
X40728973Y35940423D01*
X40881700Y35899500D01*
X40881702Y35899500D01*
X41039812Y35899500D01*
X41039814Y35899500D01*
X41192541Y35940423D01*
X41329473Y36019480D01*
X41389050Y36079057D01*
X42735257Y36079057D01*
X42735257Y35920943D01*
X42741003Y35899501D01*
X42776180Y35768217D01*
X42776183Y35768210D01*
X42855232Y35631291D01*
X42855236Y35631286D01*
X42855237Y35631284D01*
X42967041Y35519480D01*
X42967043Y35519479D01*
X42967047Y35519476D01*
X43103966Y35440427D01*
X43103973Y35440423D01*
X43256700Y35399500D01*
X43256702Y35399500D01*
X43414812Y35399500D01*
X43414814Y35399500D01*
X43567541Y35440423D01*
X43704473Y35519480D01*
X43816277Y35631284D01*
X43895334Y35768216D01*
X43936257Y35920943D01*
X43936257Y36079057D01*
X43895334Y36231784D01*
X43874300Y36268217D01*
X43816281Y36368710D01*
X43816275Y36368718D01*
X43704472Y36480521D01*
X43688535Y36489722D01*
X43668573Y36501247D01*
X43620359Y36551812D01*
X43607135Y36620418D01*
X43633102Y36685284D01*
X43668571Y36716018D01*
X43804473Y36794480D01*
X43916277Y36906284D01*
X43995334Y37043216D01*
X44005626Y37081628D01*
X45487828Y37081628D01*
X45487828Y36923514D01*
X45527956Y36773756D01*
X45528751Y36770788D01*
X45528754Y36770781D01*
X45607803Y36633862D01*
X45607807Y36633857D01*
X45607808Y36633855D01*
X45719612Y36522051D01*
X45719614Y36522050D01*
X45719618Y36522047D01*
X45791546Y36480520D01*
X45856544Y36442994D01*
X46009271Y36402071D01*
X46009273Y36402071D01*
X46167383Y36402071D01*
X46167385Y36402071D01*
X46320112Y36442994D01*
X46457044Y36522051D01*
X46568848Y36633855D01*
X46647905Y36770787D01*
X46688828Y36923514D01*
X46688828Y37081628D01*
X46647905Y37234355D01*
X46594714Y37326486D01*
X63482686Y37326486D01*
X63482686Y37168372D01*
X63516222Y37043216D01*
X63523609Y37015646D01*
X63523612Y37015639D01*
X63602661Y36878720D01*
X63602665Y36878715D01*
X63602666Y36878713D01*
X63714470Y36766909D01*
X63714472Y36766908D01*
X63714476Y36766905D01*
X63790194Y36723190D01*
X63851402Y36687852D01*
X64004129Y36646929D01*
X64004131Y36646929D01*
X64162241Y36646929D01*
X64162243Y36646929D01*
X64314970Y36687852D01*
X64451902Y36766909D01*
X64563706Y36878713D01*
X64642763Y37015645D01*
X64683686Y37168372D01*
X64683686Y37185929D01*
X70435256Y37185929D01*
X70460254Y37060262D01*
X70460256Y37060256D01*
X70509290Y36941876D01*
X70509295Y36941867D01*
X70580480Y36835332D01*
X70580483Y36835328D01*
X70671084Y36744727D01*
X70671088Y36744724D01*
X70777623Y36673539D01*
X70777629Y36673536D01*
X70777630Y36673535D01*
X70896013Y36624499D01*
X70896017Y36624499D01*
X70896018Y36624498D01*
X71021685Y36599500D01*
X71021688Y36599500D01*
X71149828Y36599500D01*
X71254985Y36620418D01*
X71275501Y36624499D01*
X71393884Y36673535D01*
X71500426Y36744724D01*
X71591033Y36835331D01*
X71662222Y36941873D01*
X71711258Y37060256D01*
X71723510Y37121848D01*
X71736257Y37185929D01*
X75685256Y37185929D01*
X75710254Y37060262D01*
X75710256Y37060256D01*
X75759290Y36941876D01*
X75759295Y36941867D01*
X75830480Y36835332D01*
X75830483Y36835328D01*
X75921084Y36744727D01*
X75921088Y36744724D01*
X76027623Y36673539D01*
X76027629Y36673536D01*
X76027630Y36673535D01*
X76146013Y36624499D01*
X76146017Y36624499D01*
X76146018Y36624498D01*
X76271685Y36599500D01*
X76271688Y36599500D01*
X76399828Y36599500D01*
X76504985Y36620418D01*
X76525501Y36624499D01*
X76643884Y36673535D01*
X76750426Y36744724D01*
X76841033Y36835331D01*
X76912222Y36941873D01*
X76961258Y37060256D01*
X76973510Y37121848D01*
X76986257Y37185929D01*
X77854368Y37185929D01*
X77879366Y37060262D01*
X77879368Y37060256D01*
X77928402Y36941876D01*
X77928407Y36941867D01*
X77999592Y36835332D01*
X77999595Y36835328D01*
X78090196Y36744727D01*
X78090200Y36744724D01*
X78196735Y36673539D01*
X78196741Y36673536D01*
X78196742Y36673535D01*
X78315125Y36624499D01*
X78315129Y36624499D01*
X78315130Y36624498D01*
X78440797Y36599500D01*
X78440800Y36599500D01*
X78568940Y36599500D01*
X78674097Y36620418D01*
X78694613Y36624499D01*
X78812996Y36673535D01*
X78919538Y36744724D01*
X79010145Y36835331D01*
X79081334Y36941873D01*
X79130370Y37060256D01*
X79142622Y37121848D01*
X79155369Y37185929D01*
X80010256Y37185929D01*
X80035254Y37060262D01*
X80035256Y37060256D01*
X80084290Y36941876D01*
X80084295Y36941867D01*
X80155480Y36835332D01*
X80155483Y36835328D01*
X80246084Y36744727D01*
X80246088Y36744724D01*
X80352623Y36673539D01*
X80352629Y36673536D01*
X80352630Y36673535D01*
X80471013Y36624499D01*
X80471017Y36624499D01*
X80471018Y36624498D01*
X80596685Y36599500D01*
X80596688Y36599500D01*
X80724828Y36599500D01*
X80829985Y36620418D01*
X80850501Y36624499D01*
X80968884Y36673535D01*
X81075426Y36744724D01*
X81166033Y36835331D01*
X81237222Y36941873D01*
X81286258Y37060256D01*
X81298510Y37121848D01*
X81311257Y37185929D01*
X82160256Y37185929D01*
X82185254Y37060262D01*
X82185256Y37060256D01*
X82234290Y36941876D01*
X82234295Y36941867D01*
X82305480Y36835332D01*
X82305483Y36835328D01*
X82396084Y36744727D01*
X82396088Y36744724D01*
X82502623Y36673539D01*
X82502629Y36673536D01*
X82502630Y36673535D01*
X82621013Y36624499D01*
X82621017Y36624499D01*
X82621018Y36624498D01*
X82746685Y36599500D01*
X82746688Y36599500D01*
X82874828Y36599500D01*
X82979985Y36620418D01*
X83000501Y36624499D01*
X83118884Y36673535D01*
X83225426Y36744724D01*
X83316033Y36835331D01*
X83387222Y36941873D01*
X83436258Y37060256D01*
X83448510Y37121848D01*
X83461257Y37185929D01*
X84285256Y37185929D01*
X84310254Y37060262D01*
X84310256Y37060256D01*
X84359290Y36941876D01*
X84359295Y36941867D01*
X84430480Y36835332D01*
X84430483Y36835328D01*
X84521084Y36744727D01*
X84521088Y36744724D01*
X84627623Y36673539D01*
X84627629Y36673536D01*
X84627630Y36673535D01*
X84746013Y36624499D01*
X84746017Y36624499D01*
X84746018Y36624498D01*
X84871685Y36599500D01*
X84871688Y36599500D01*
X84999828Y36599500D01*
X85104985Y36620418D01*
X85125501Y36624499D01*
X85243884Y36673535D01*
X85350426Y36744724D01*
X85441033Y36835331D01*
X85512222Y36941873D01*
X85561258Y37060256D01*
X85573510Y37121848D01*
X85586257Y37185929D01*
X86360256Y37185929D01*
X86385254Y37060262D01*
X86385256Y37060256D01*
X86434290Y36941876D01*
X86434295Y36941867D01*
X86505480Y36835332D01*
X86505483Y36835328D01*
X86596084Y36744727D01*
X86596088Y36744724D01*
X86702623Y36673539D01*
X86702629Y36673536D01*
X86702630Y36673535D01*
X86821013Y36624499D01*
X86821017Y36624499D01*
X86821018Y36624498D01*
X86946685Y36599500D01*
X86946688Y36599500D01*
X87074828Y36599500D01*
X87179985Y36620418D01*
X87200501Y36624499D01*
X87318884Y36673535D01*
X87425426Y36744724D01*
X87516033Y36835331D01*
X87587222Y36941873D01*
X87636258Y37060256D01*
X87648510Y37121848D01*
X87661257Y37185929D01*
X87661257Y37314072D01*
X87636259Y37439739D01*
X87636258Y37439740D01*
X87636258Y37439744D01*
X87587222Y37558127D01*
X87587221Y37558128D01*
X87587218Y37558134D01*
X87516033Y37664669D01*
X87516030Y37664673D01*
X87425429Y37755274D01*
X87425425Y37755277D01*
X87318890Y37826462D01*
X87318881Y37826467D01*
X87200501Y37875501D01*
X87200495Y37875503D01*
X87074828Y37900500D01*
X87074826Y37900500D01*
X86946688Y37900500D01*
X86946686Y37900500D01*
X86821018Y37875503D01*
X86821012Y37875501D01*
X86702632Y37826467D01*
X86702623Y37826462D01*
X86596088Y37755277D01*
X86596084Y37755274D01*
X86505483Y37664673D01*
X86505480Y37664669D01*
X86434295Y37558134D01*
X86434290Y37558125D01*
X86385256Y37439745D01*
X86385254Y37439739D01*
X86360257Y37314072D01*
X86360257Y37314069D01*
X86360257Y37185931D01*
X86360257Y37185929D01*
X86360256Y37185929D01*
X85586257Y37185929D01*
X85586257Y37314072D01*
X85561259Y37439739D01*
X85561258Y37439740D01*
X85561258Y37439744D01*
X85512222Y37558127D01*
X85512221Y37558128D01*
X85512218Y37558134D01*
X85441033Y37664669D01*
X85441030Y37664673D01*
X85350429Y37755274D01*
X85350425Y37755277D01*
X85243890Y37826462D01*
X85243881Y37826467D01*
X85125501Y37875501D01*
X85125495Y37875503D01*
X84999828Y37900500D01*
X84999826Y37900500D01*
X84871688Y37900500D01*
X84871686Y37900500D01*
X84746018Y37875503D01*
X84746012Y37875501D01*
X84627632Y37826467D01*
X84627623Y37826462D01*
X84521088Y37755277D01*
X84521084Y37755274D01*
X84430483Y37664673D01*
X84430480Y37664669D01*
X84359295Y37558134D01*
X84359290Y37558125D01*
X84310256Y37439745D01*
X84310254Y37439739D01*
X84285257Y37314072D01*
X84285257Y37314069D01*
X84285257Y37185931D01*
X84285257Y37185929D01*
X84285256Y37185929D01*
X83461257Y37185929D01*
X83461257Y37314072D01*
X83436259Y37439739D01*
X83436258Y37439740D01*
X83436258Y37439744D01*
X83387222Y37558127D01*
X83387221Y37558128D01*
X83387218Y37558134D01*
X83316033Y37664669D01*
X83316030Y37664673D01*
X83225429Y37755274D01*
X83225425Y37755277D01*
X83118890Y37826462D01*
X83118881Y37826467D01*
X83000501Y37875501D01*
X83000495Y37875503D01*
X82874828Y37900500D01*
X82874826Y37900500D01*
X82746688Y37900500D01*
X82746686Y37900500D01*
X82621018Y37875503D01*
X82621012Y37875501D01*
X82502632Y37826467D01*
X82502623Y37826462D01*
X82396088Y37755277D01*
X82396084Y37755274D01*
X82305483Y37664673D01*
X82305480Y37664669D01*
X82234295Y37558134D01*
X82234290Y37558125D01*
X82185256Y37439745D01*
X82185254Y37439739D01*
X82160257Y37314072D01*
X82160257Y37314069D01*
X82160257Y37185931D01*
X82160257Y37185929D01*
X82160256Y37185929D01*
X81311257Y37185929D01*
X81311257Y37314072D01*
X81286259Y37439739D01*
X81286258Y37439740D01*
X81286258Y37439744D01*
X81237222Y37558127D01*
X81237221Y37558128D01*
X81237218Y37558134D01*
X81166033Y37664669D01*
X81166030Y37664673D01*
X81075429Y37755274D01*
X81075425Y37755277D01*
X80968890Y37826462D01*
X80968881Y37826467D01*
X80850501Y37875501D01*
X80850495Y37875503D01*
X80724828Y37900500D01*
X80724826Y37900500D01*
X80596688Y37900500D01*
X80596686Y37900500D01*
X80471018Y37875503D01*
X80471012Y37875501D01*
X80352632Y37826467D01*
X80352623Y37826462D01*
X80246088Y37755277D01*
X80246084Y37755274D01*
X80155483Y37664673D01*
X80155480Y37664669D01*
X80084295Y37558134D01*
X80084290Y37558125D01*
X80035256Y37439745D01*
X80035254Y37439739D01*
X80010257Y37314072D01*
X80010257Y37314069D01*
X80010257Y37185931D01*
X80010257Y37185929D01*
X80010256Y37185929D01*
X79155369Y37185929D01*
X79155369Y37314072D01*
X79130371Y37439739D01*
X79130370Y37439740D01*
X79130370Y37439744D01*
X79081334Y37558127D01*
X79081333Y37558128D01*
X79081330Y37558134D01*
X79010145Y37664669D01*
X79010142Y37664673D01*
X78919541Y37755274D01*
X78919537Y37755277D01*
X78813002Y37826462D01*
X78812993Y37826467D01*
X78694613Y37875501D01*
X78694607Y37875503D01*
X78568940Y37900500D01*
X78568938Y37900500D01*
X78440800Y37900500D01*
X78440798Y37900500D01*
X78315130Y37875503D01*
X78315124Y37875501D01*
X78196744Y37826467D01*
X78196735Y37826462D01*
X78090200Y37755277D01*
X78090196Y37755274D01*
X77999595Y37664673D01*
X77999592Y37664669D01*
X77928407Y37558134D01*
X77928402Y37558125D01*
X77879368Y37439745D01*
X77879366Y37439739D01*
X77854369Y37314072D01*
X77854369Y37314069D01*
X77854369Y37185931D01*
X77854369Y37185929D01*
X77854368Y37185929D01*
X76986257Y37185929D01*
X76986257Y37314072D01*
X76961259Y37439739D01*
X76961258Y37439740D01*
X76961258Y37439744D01*
X76912222Y37558127D01*
X76912221Y37558128D01*
X76912218Y37558134D01*
X76841033Y37664669D01*
X76841030Y37664673D01*
X76750429Y37755274D01*
X76750425Y37755277D01*
X76643890Y37826462D01*
X76643881Y37826467D01*
X76525501Y37875501D01*
X76525495Y37875503D01*
X76399828Y37900500D01*
X76399826Y37900500D01*
X76271688Y37900500D01*
X76271686Y37900500D01*
X76146018Y37875503D01*
X76146012Y37875501D01*
X76027632Y37826467D01*
X76027623Y37826462D01*
X75921088Y37755277D01*
X75921084Y37755274D01*
X75830483Y37664673D01*
X75830480Y37664669D01*
X75759295Y37558134D01*
X75759290Y37558125D01*
X75710256Y37439745D01*
X75710254Y37439739D01*
X75685257Y37314072D01*
X75685257Y37314069D01*
X75685257Y37185931D01*
X75685257Y37185929D01*
X75685256Y37185929D01*
X71736257Y37185929D01*
X71736257Y37309448D01*
X71736257Y37314069D01*
X71729804Y37346509D01*
X71729548Y37347980D01*
X71733334Y37381283D01*
X71736320Y37414649D01*
X71737266Y37415868D01*
X71737441Y37417402D01*
X71758630Y37443371D01*
X71779182Y37469827D01*
X71780637Y37470341D01*
X71781614Y37471537D01*
X71813486Y37481929D01*
X71845072Y37493072D01*
X71847893Y37493148D01*
X71848042Y37493196D01*
X71848195Y37493156D01*
X71851710Y37493250D01*
X71899828Y37493250D01*
X71989838Y37511155D01*
X72025501Y37518249D01*
X72143884Y37567285D01*
X72250426Y37638474D01*
X72341033Y37729081D01*
X72412222Y37835623D01*
X72461258Y37954006D01*
X72486257Y38079681D01*
X72486257Y38207819D01*
X72486257Y38207822D01*
X72461259Y38333489D01*
X72461258Y38333490D01*
X72461258Y38333494D01*
X72412222Y38451877D01*
X72412221Y38451878D01*
X72412218Y38451884D01*
X72341033Y38558419D01*
X72341030Y38558423D01*
X72250429Y38649024D01*
X72250425Y38649027D01*
X72143890Y38720212D01*
X72143881Y38720217D01*
X72025501Y38769251D01*
X72025495Y38769253D01*
X71899828Y38794250D01*
X71899826Y38794250D01*
X71771688Y38794250D01*
X71771686Y38794250D01*
X71646018Y38769253D01*
X71646012Y38769251D01*
X71527632Y38720217D01*
X71527623Y38720212D01*
X71421088Y38649027D01*
X71421084Y38649024D01*
X71330483Y38558423D01*
X71330480Y38558419D01*
X71259295Y38451884D01*
X71259290Y38451875D01*
X71210256Y38333495D01*
X71210254Y38333489D01*
X71185257Y38207822D01*
X71185257Y38079679D01*
X71191421Y38048692D01*
X71185194Y37979101D01*
X71142332Y37923923D01*
X71076442Y37900678D01*
X71069804Y37900500D01*
X71021686Y37900500D01*
X70896018Y37875503D01*
X70896012Y37875501D01*
X70777632Y37826467D01*
X70777623Y37826462D01*
X70671088Y37755277D01*
X70671084Y37755274D01*
X70580483Y37664673D01*
X70580480Y37664669D01*
X70509295Y37558134D01*
X70509290Y37558125D01*
X70460256Y37439745D01*
X70460254Y37439739D01*
X70435257Y37314072D01*
X70435257Y37314069D01*
X70435257Y37185931D01*
X70435257Y37185929D01*
X70435256Y37185929D01*
X64683686Y37185929D01*
X64683686Y37326486D01*
X64642763Y37479213D01*
X64626841Y37506791D01*
X64563710Y37616139D01*
X64563704Y37616147D01*
X64451903Y37727948D01*
X64451895Y37727954D01*
X64314976Y37807003D01*
X64314972Y37807005D01*
X64314970Y37807006D01*
X64162243Y37847929D01*
X64004129Y37847929D01*
X63851402Y37807006D01*
X63851395Y37807003D01*
X63714476Y37727954D01*
X63714468Y37727948D01*
X63602667Y37616147D01*
X63602661Y37616139D01*
X63523612Y37479220D01*
X63523609Y37479213D01*
X63482686Y37326486D01*
X46594714Y37326486D01*
X46568848Y37371287D01*
X46457044Y37483091D01*
X46457042Y37483092D01*
X46457037Y37483096D01*
X46320118Y37562145D01*
X46320114Y37562147D01*
X46320112Y37562148D01*
X46167385Y37603071D01*
X46009271Y37603071D01*
X45856544Y37562148D01*
X45856537Y37562145D01*
X45719618Y37483096D01*
X45719610Y37483090D01*
X45607809Y37371289D01*
X45607803Y37371281D01*
X45528754Y37234362D01*
X45528751Y37234355D01*
X45487828Y37081628D01*
X44005626Y37081628D01*
X44036257Y37195943D01*
X44036257Y37354057D01*
X43995334Y37506784D01*
X43965693Y37558125D01*
X43916281Y37643710D01*
X43916275Y37643718D01*
X43876320Y37683674D01*
X43842836Y37744997D01*
X43847821Y37814689D01*
X43868943Y37847546D01*
X43867466Y37848679D01*
X43872411Y37855126D01*
X43872415Y37855129D01*
X43951472Y37992061D01*
X43992395Y38144788D01*
X43992395Y38302902D01*
X43951472Y38455629D01*
X43892127Y38558419D01*
X43872419Y38592555D01*
X43872413Y38592563D01*
X43760612Y38704364D01*
X43760604Y38704370D01*
X43623685Y38783419D01*
X43623681Y38783421D01*
X43623679Y38783422D01*
X43470952Y38824345D01*
X43312838Y38824345D01*
X43160111Y38783422D01*
X43160104Y38783419D01*
X43023185Y38704370D01*
X43023177Y38704364D01*
X42911376Y38592563D01*
X42911370Y38592555D01*
X42832321Y38455636D01*
X42832318Y38455629D01*
X42791395Y38302902D01*
X42791395Y38144788D01*
X42808841Y38079681D01*
X42832318Y37992062D01*
X42832321Y37992055D01*
X42911370Y37855136D01*
X42911376Y37855128D01*
X42951331Y37815172D01*
X42984815Y37753849D01*
X42979830Y37684157D01*
X42958715Y37651294D01*
X42960185Y37650166D01*
X42955236Y37643717D01*
X42876183Y37506791D01*
X42876180Y37506784D01*
X42835257Y37354057D01*
X42835257Y37195943D01*
X42842645Y37168373D01*
X42876180Y37043217D01*
X42876183Y37043210D01*
X42955232Y36906291D01*
X42955236Y36906286D01*
X42955237Y36906284D01*
X43067041Y36794480D01*
X43102937Y36773756D01*
X43151153Y36723190D01*
X43164378Y36654583D01*
X43138411Y36589718D01*
X43102939Y36558981D01*
X42967044Y36480523D01*
X42967039Y36480519D01*
X42855238Y36368718D01*
X42855232Y36368710D01*
X42776183Y36231791D01*
X42776180Y36231784D01*
X42735257Y36079057D01*
X41389050Y36079057D01*
X41441277Y36131284D01*
X41450097Y36146560D01*
X41451612Y36149184D01*
X41499304Y36231791D01*
X41520334Y36268216D01*
X41561257Y36420943D01*
X41561257Y36579057D01*
X41520334Y36731784D01*
X41512863Y36744724D01*
X41441281Y36868710D01*
X41441275Y36868718D01*
X41329474Y36980519D01*
X41329466Y36980525D01*
X41192547Y37059574D01*
X41192543Y37059576D01*
X41192541Y37059577D01*
X41039814Y37100500D01*
X40881700Y37100500D01*
X40728973Y37059577D01*
X40728966Y37059574D01*
X40592047Y36980525D01*
X40592039Y36980519D01*
X40480238Y36868718D01*
X40480232Y36868710D01*
X40401183Y36731791D01*
X40401180Y36731784D01*
X40360257Y36579057D01*
X37141257Y36579057D01*
X37141257Y39826486D01*
X61136423Y39826486D01*
X61136423Y39668373D01*
X61177346Y39515646D01*
X61177349Y39515639D01*
X61256398Y39378720D01*
X61256402Y39378715D01*
X61256403Y39378713D01*
X61368207Y39266909D01*
X61368209Y39266908D01*
X61368213Y39266905D01*
X61505132Y39187856D01*
X61505139Y39187852D01*
X61657866Y39146929D01*
X61657868Y39146929D01*
X61815978Y39146929D01*
X61815980Y39146929D01*
X61968707Y39187852D01*
X62105639Y39266909D01*
X62217443Y39378713D01*
X62296500Y39515645D01*
X62337423Y39668372D01*
X62337423Y39826486D01*
X62296500Y39979213D01*
X62296496Y39979220D01*
X62217447Y40116139D01*
X62217441Y40116147D01*
X62105640Y40227948D01*
X62105632Y40227954D01*
X61968713Y40307003D01*
X61968709Y40307005D01*
X61968707Y40307006D01*
X61815980Y40347929D01*
X61657866Y40347929D01*
X61505139Y40307006D01*
X61505132Y40307003D01*
X61368213Y40227954D01*
X61368205Y40227948D01*
X61256404Y40116147D01*
X61256398Y40116139D01*
X61177349Y39979220D01*
X61177346Y39979213D01*
X61136423Y39826486D01*
X37141257Y39826486D01*
X37141257Y40449403D01*
X37141147Y40451444D01*
X37139506Y40482061D01*
X37136672Y40508419D01*
X37135837Y40515424D01*
X37101054Y40622171D01*
X37101053Y40622172D01*
X37101052Y40622176D01*
X37067567Y40683498D01*
X37015467Y40753094D01*
X37015452Y40753112D01*
X37011246Y40757317D01*
X36991533Y40783006D01*
X36969022Y40821998D01*
X36956635Y40851904D01*
X36944982Y40895396D01*
X36940757Y40927488D01*
X36940757Y40972515D01*
X36944982Y41004607D01*
X36956635Y41048099D01*
X36969019Y41078001D01*
X36991534Y41116998D01*
X37011247Y41142684D01*
X37015457Y41146893D01*
X37037315Y41171228D01*
X37049162Y41185929D01*
X37579006Y41185929D01*
X37604004Y41060262D01*
X37604006Y41060256D01*
X37653040Y40941876D01*
X37653045Y40941867D01*
X37724230Y40835332D01*
X37724233Y40835328D01*
X37814834Y40744727D01*
X37814838Y40744724D01*
X37921373Y40673539D01*
X37921379Y40673536D01*
X37921380Y40673535D01*
X38039763Y40624499D01*
X38039767Y40624499D01*
X38039768Y40624498D01*
X38165435Y40599500D01*
X38165438Y40599500D01*
X38293578Y40599500D01*
X38378122Y40616318D01*
X38419251Y40624499D01*
X38537634Y40673535D01*
X38644176Y40744724D01*
X38734783Y40835331D01*
X38805972Y40941873D01*
X38855008Y41060256D01*
X38866294Y41116992D01*
X38880007Y41185929D01*
X38880007Y41314072D01*
X38855009Y41439739D01*
X38855008Y41439740D01*
X38855008Y41439744D01*
X38805972Y41558127D01*
X38805971Y41558128D01*
X38805968Y41558134D01*
X38734783Y41664669D01*
X38734780Y41664673D01*
X38644179Y41755274D01*
X38644175Y41755277D01*
X38537640Y41826462D01*
X38537631Y41826467D01*
X38419251Y41875501D01*
X38419245Y41875503D01*
X38293578Y41900500D01*
X38293576Y41900500D01*
X38165438Y41900500D01*
X38165436Y41900500D01*
X38039768Y41875503D01*
X38039762Y41875501D01*
X37921382Y41826467D01*
X37921373Y41826462D01*
X37814838Y41755277D01*
X37814834Y41755274D01*
X37724233Y41664673D01*
X37724230Y41664669D01*
X37653045Y41558134D01*
X37653040Y41558125D01*
X37604006Y41439745D01*
X37604004Y41439739D01*
X37579007Y41314072D01*
X37579007Y41314069D01*
X37579007Y41185931D01*
X37579007Y41185929D01*
X37579006Y41185929D01*
X37049162Y41185929D01*
X37053949Y41191870D01*
X37058310Y41197411D01*
X37109196Y41297487D01*
X37128881Y41364526D01*
X37141257Y41450598D01*
X37141257Y42329057D01*
X60888993Y42329057D01*
X60888993Y42170943D01*
X60926620Y42030519D01*
X60929916Y42018217D01*
X60929919Y42018210D01*
X61008968Y41881291D01*
X61008972Y41881286D01*
X61008973Y41881284D01*
X61120777Y41769480D01*
X61120779Y41769479D01*
X61120783Y41769476D01*
X61257702Y41690427D01*
X61257709Y41690423D01*
X61410436Y41649500D01*
X61410438Y41649500D01*
X61568548Y41649500D01*
X61568550Y41649500D01*
X61721277Y41690423D01*
X61858209Y41769480D01*
X61970013Y41881284D01*
X62049070Y42018216D01*
X62089993Y42170943D01*
X62089993Y42329057D01*
X62049070Y42481784D01*
X62049066Y42481791D01*
X61970017Y42618710D01*
X61970011Y42618718D01*
X61858210Y42730519D01*
X61858202Y42730525D01*
X61721283Y42809574D01*
X61721279Y42809576D01*
X61721277Y42809577D01*
X61568550Y42850500D01*
X61410436Y42850500D01*
X61257709Y42809577D01*
X61257702Y42809574D01*
X61120783Y42730525D01*
X61120775Y42730519D01*
X61008974Y42618718D01*
X61008968Y42618710D01*
X60929919Y42481791D01*
X60929916Y42481784D01*
X60888993Y42329057D01*
X37141257Y42329057D01*
X37141257Y43204057D01*
X37735257Y43204057D01*
X37735257Y43045943D01*
X37768062Y42923515D01*
X37776180Y42893217D01*
X37776183Y42893210D01*
X37855232Y42756291D01*
X37855236Y42756286D01*
X37855237Y42756284D01*
X37967041Y42644480D01*
X37967043Y42644479D01*
X37967047Y42644476D01*
X38011676Y42618710D01*
X38103973Y42565423D01*
X38256700Y42524500D01*
X38256702Y42524500D01*
X38414812Y42524500D01*
X38414814Y42524500D01*
X38567541Y42565423D01*
X38704473Y42644480D01*
X38816277Y42756284D01*
X38853370Y42820533D01*
X38903936Y42868747D01*
X38972543Y42881971D01*
X39037408Y42856003D01*
X39068142Y42820534D01*
X39105237Y42756284D01*
X39217041Y42644480D01*
X39217043Y42644479D01*
X39217047Y42644476D01*
X39261676Y42618710D01*
X39353973Y42565423D01*
X39506700Y42524500D01*
X39506702Y42524500D01*
X39664812Y42524500D01*
X39664814Y42524500D01*
X39817541Y42565423D01*
X39954473Y42644480D01*
X40066277Y42756284D01*
X40145334Y42893216D01*
X40186257Y43045943D01*
X40186257Y43081628D01*
X45487828Y43081628D01*
X45487828Y42923514D01*
X45518358Y42809577D01*
X45528751Y42770788D01*
X45528754Y42770781D01*
X45607803Y42633862D01*
X45607807Y42633857D01*
X45607808Y42633855D01*
X45719612Y42522051D01*
X45719614Y42522050D01*
X45719618Y42522047D01*
X45789345Y42481791D01*
X45856544Y42442994D01*
X46009271Y42402071D01*
X46009273Y42402071D01*
X46167383Y42402071D01*
X46167385Y42402071D01*
X46320112Y42442994D01*
X46457044Y42522051D01*
X46568848Y42633855D01*
X46647905Y42770787D01*
X46688828Y42923514D01*
X46688828Y43081628D01*
X46647905Y43234355D01*
X46647901Y43234362D01*
X46568852Y43371281D01*
X46568846Y43371289D01*
X46457045Y43483090D01*
X46457037Y43483096D01*
X46320118Y43562145D01*
X46320114Y43562147D01*
X46320112Y43562148D01*
X46167385Y43603071D01*
X46009271Y43603071D01*
X45856544Y43562148D01*
X45856537Y43562145D01*
X45719618Y43483096D01*
X45719610Y43483090D01*
X45607809Y43371289D01*
X45607803Y43371281D01*
X45528754Y43234362D01*
X45528751Y43234355D01*
X45487828Y43081628D01*
X40186257Y43081628D01*
X40186257Y43204057D01*
X40145334Y43356784D01*
X40072412Y43483090D01*
X40066281Y43493710D01*
X40066275Y43493718D01*
X39954474Y43605519D01*
X39954466Y43605525D01*
X39817547Y43684574D01*
X39817543Y43684576D01*
X39817541Y43684577D01*
X39664814Y43725500D01*
X39506700Y43725500D01*
X39353973Y43684577D01*
X39353966Y43684574D01*
X39217047Y43605525D01*
X39217039Y43605519D01*
X39105238Y43493718D01*
X39105234Y43493713D01*
X39068144Y43429469D01*
X39017578Y43381254D01*
X38948971Y43368030D01*
X38884106Y43393998D01*
X38853370Y43429469D01*
X38816279Y43493713D01*
X38816275Y43493718D01*
X38704474Y43605519D01*
X38704466Y43605525D01*
X38567547Y43684574D01*
X38567543Y43684576D01*
X38567541Y43684577D01*
X38414814Y43725500D01*
X38256700Y43725500D01*
X38103973Y43684577D01*
X38103966Y43684574D01*
X37967047Y43605525D01*
X37967039Y43605519D01*
X37855238Y43493718D01*
X37855232Y43493710D01*
X37776183Y43356791D01*
X37776180Y43356784D01*
X37735257Y43204057D01*
X37141257Y43204057D01*
X37141257Y43876000D01*
X37134275Y43940941D01*
X37123069Y43992452D01*
X37112111Y44030658D01*
X37055432Y44127571D01*
X37009677Y44180375D01*
X37009675Y44180377D01*
X37009665Y44180388D01*
X36964949Y44222549D01*
X36964946Y44222551D01*
X36964944Y44222553D01*
X36864868Y44273439D01*
X36864867Y44273440D01*
X36864866Y44273440D01*
X36797835Y44293123D01*
X36797829Y44293124D01*
X36711757Y44305500D01*
X32584019Y44305500D01*
X32584013Y44305500D01*
X32519981Y44298713D01*
X32519958Y44298709D01*
X32469161Y44287818D01*
X32469133Y44287811D01*
X32439774Y44279533D01*
X32431753Y44277271D01*
X32431752Y44277271D01*
X32431750Y44277270D01*
X32334503Y44221171D01*
X32281421Y44175727D01*
X32238986Y44131257D01*
X32238984Y44131254D01*
X32187500Y44031481D01*
X32187500Y44031480D01*
X32167418Y43964570D01*
X32167413Y43964550D01*
X32154526Y43878575D01*
X32154526Y43878570D01*
X32145993Y42449415D01*
X32125908Y42382494D01*
X32072832Y42337055D01*
X32003615Y42327525D01*
X31989906Y42330380D01*
X31914814Y42350500D01*
X31756700Y42350500D01*
X31603973Y42309577D01*
X31603966Y42309574D01*
X31467047Y42230525D01*
X31467039Y42230519D01*
X31355238Y42118718D01*
X31355232Y42118710D01*
X31276183Y41981791D01*
X31276180Y41981784D01*
X31235257Y41829057D01*
X31235257Y41670943D01*
X31265487Y41558125D01*
X31276180Y41518217D01*
X31276183Y41518210D01*
X31355232Y41381291D01*
X31355236Y41381286D01*
X31355237Y41381284D01*
X31467041Y41269480D01*
X31467043Y41269479D01*
X31467047Y41269476D01*
X31532790Y41231520D01*
X31603973Y41190423D01*
X31756700Y41149500D01*
X31756702Y41149500D01*
X31914810Y41149500D01*
X31914814Y41149500D01*
X31981531Y41167377D01*
X32051376Y41165714D01*
X32109239Y41126552D01*
X32136744Y41062324D01*
X32137619Y41046862D01*
X32118420Y37830881D01*
X32118169Y37788839D01*
X32108671Y36198101D01*
X32109652Y36171757D01*
X32111363Y36150529D01*
X32111688Y36146560D01*
X32097541Y36078138D01*
X32050102Y36029053D01*
X31966044Y35980523D01*
X31966039Y35980519D01*
X31854238Y35868718D01*
X31854232Y35868710D01*
X31775183Y35731791D01*
X31775180Y35731784D01*
X31734257Y35579057D01*
X31734257Y35420943D01*
X31740003Y35399501D01*
X31775180Y35268217D01*
X31775183Y35268210D01*
X31854232Y35131291D01*
X31854236Y35131286D01*
X31854237Y35131284D01*
X31966041Y35019480D01*
X31966042Y35019479D01*
X31966044Y35019478D01*
X32046122Y34973245D01*
X32094338Y34922678D01*
X32107561Y34854071D01*
X32106752Y34847479D01*
X32100355Y34804799D01*
X32100354Y34804788D01*
X32067312Y29270498D01*
X32047227Y29203577D01*
X31994151Y29158138D01*
X31924934Y29148608D01*
X31917623Y29150130D01*
X31914815Y29150500D01*
X31914814Y29150500D01*
X31756700Y29150500D01*
X31603973Y29109577D01*
X31603966Y29109574D01*
X31467047Y29030525D01*
X31467039Y29030519D01*
X31355238Y28918718D01*
X31355232Y28918710D01*
X31276183Y28781791D01*
X31276180Y28781784D01*
X31235257Y28629057D01*
X31235257Y28470944D01*
X31276180Y28318217D01*
X31276183Y28318210D01*
X31355232Y28181291D01*
X31355236Y28181286D01*
X31355237Y28181284D01*
X31467041Y28069480D01*
X31467043Y28069479D01*
X31467047Y28069476D01*
X31555835Y28018215D01*
X31603973Y27990423D01*
X31756700Y27949500D01*
X31756702Y27949500D01*
X31914808Y27949500D01*
X31914814Y27949500D01*
X31914819Y27949502D01*
X31918497Y27949986D01*
X31921615Y27949500D01*
X31922941Y27949500D01*
X31922941Y27949294D01*
X31987533Y27939226D01*
X32039793Y27892850D01*
X32058690Y27826308D01*
X32055840Y27348831D01*
X32050756Y27314423D01*
X32031456Y27249129D01*
X32018926Y27163078D01*
X32018926Y27163075D01*
X31998161Y15533981D01*
X31997987Y15436476D01*
X31997987Y15436475D01*
X31995602Y14101373D01*
X31975798Y14034369D01*
X31922912Y13988709D01*
X31853736Y13978889D01*
X31790232Y14008027D01*
X31783921Y14013914D01*
X31777687Y14020148D01*
X31777685Y14020150D01*
X31637545Y14121968D01*
X31619261Y14131284D01*
X31483206Y14200608D01*
X31457366Y14209004D01*
X31441769Y14214072D01*
X31384095Y14253510D01*
X31356897Y14317868D01*
X31368812Y14386715D01*
X31411197Y14435104D01*
X31500426Y14494724D01*
X31591033Y14585331D01*
X31662222Y14691873D01*
X31711258Y14810256D01*
X31736257Y14935931D01*
X31736257Y15064069D01*
X31736257Y15064072D01*
X31711259Y15189739D01*
X31711258Y15189740D01*
X31711258Y15189744D01*
X31662222Y15308127D01*
X31662221Y15308128D01*
X31662218Y15308134D01*
X31591033Y15414669D01*
X31591030Y15414673D01*
X31500429Y15505274D01*
X31500425Y15505277D01*
X31393890Y15576462D01*
X31393881Y15576467D01*
X31275501Y15625501D01*
X31275495Y15625503D01*
X31149828Y15650500D01*
X31149826Y15650500D01*
X31021688Y15650500D01*
X31021686Y15650500D01*
X30896018Y15625503D01*
X30896012Y15625501D01*
X30777632Y15576467D01*
X30777623Y15576462D01*
X30671088Y15505277D01*
X30671084Y15505274D01*
X30580483Y15414673D01*
X30580480Y15414669D01*
X30509295Y15308134D01*
X30509290Y15308125D01*
X30460256Y15189745D01*
X30460254Y15189739D01*
X30435257Y15064072D01*
X30435257Y15064069D01*
X30435257Y14935931D01*
X30435257Y14935929D01*
X30435256Y14935929D01*
X30460254Y14810262D01*
X30460256Y14810256D01*
X30509290Y14691876D01*
X30509295Y14691867D01*
X30580480Y14585332D01*
X30580483Y14585328D01*
X30671087Y14494724D01*
X30743956Y14446035D01*
X30788761Y14392423D01*
X30797468Y14323098D01*
X30767314Y14260071D01*
X30713385Y14225003D01*
X30638311Y14200609D01*
X30483968Y14121968D01*
X30404013Y14063877D01*
X30343829Y14020150D01*
X30343827Y14020148D01*
X30343826Y14020148D01*
X30221345Y13897667D01*
X30221345Y13897666D01*
X30221343Y13897664D01*
X30177616Y13837480D01*
X30119525Y13757525D01*
X30040885Y13603184D01*
X29987354Y13438434D01*
X29960257Y13267347D01*
X29960257Y13094126D01*
X29984965Y12938121D01*
X29987355Y12923035D01*
X30040884Y12758291D01*
X30119525Y12603948D01*
X30221343Y12463808D01*
X30343829Y12341322D01*
X30483969Y12239504D01*
X30638312Y12160863D01*
X30803056Y12107334D01*
X30974146Y12080236D01*
X30974147Y12080236D01*
X31147367Y12080236D01*
X31147368Y12080236D01*
X31318458Y12107334D01*
X31483202Y12160863D01*
X31637545Y12239504D01*
X31777685Y12341322D01*
X31900171Y12463808D01*
X32001989Y12603948D01*
X32080630Y12758291D01*
X32124688Y12893890D01*
X32164126Y12951564D01*
X32228484Y12978762D01*
X32277556Y12974546D01*
X32337722Y12956879D01*
X32337723Y12956879D01*
X32337733Y12956876D01*
X32423805Y12944500D01*
X32423808Y12944500D01*
X41585696Y12944500D01*
X41585757Y12944500D01*
X41586428Y12944501D01*
X55405984Y12974875D01*
X55473067Y12955338D01*
X55518938Y12902634D01*
X55530257Y12850875D01*
X55530257Y6904500D01*
X55510572Y6837461D01*
X55457768Y6791706D01*
X55406257Y6780500D01*
X39030958Y6780500D01*
X38963919Y6800185D01*
X38918164Y6852989D01*
X38908220Y6922147D01*
X38916397Y6951953D01*
X38961258Y7060256D01*
X38986257Y7185931D01*
X38986257Y7314069D01*
X38986257Y7314072D01*
X38961259Y7439739D01*
X38961258Y7439740D01*
X38961258Y7439744D01*
X38912222Y7558127D01*
X38912221Y7558128D01*
X38912218Y7558134D01*
X38841033Y7664669D01*
X38841030Y7664673D01*
X38750429Y7755274D01*
X38750425Y7755277D01*
X38643890Y7826462D01*
X38643881Y7826467D01*
X38525501Y7875501D01*
X38525495Y7875503D01*
X38399828Y7900500D01*
X38399826Y7900500D01*
X38271688Y7900500D01*
X38271686Y7900500D01*
X38146018Y7875503D01*
X38146012Y7875501D01*
X38027632Y7826467D01*
X38027623Y7826462D01*
X37921088Y7755277D01*
X37921084Y7755274D01*
X37830483Y7664673D01*
X37830480Y7664669D01*
X37759295Y7558134D01*
X37759290Y7558125D01*
X37710256Y7439745D01*
X37710254Y7439739D01*
X37685257Y7314072D01*
X37685257Y7314069D01*
X37685257Y7185931D01*
X37685257Y7185929D01*
X37685256Y7185929D01*
X37710254Y7060262D01*
X37710256Y7060256D01*
X37744901Y6976615D01*
X37755117Y6951953D01*
X37762586Y6882484D01*
X37731311Y6820004D01*
X37671222Y6784352D01*
X37640556Y6780500D01*
X28926831Y6780500D01*
X28859792Y6800185D01*
X28814037Y6852989D01*
X28802832Y6904110D01*
X28794360Y9595846D01*
X28813833Y9662947D01*
X28866493Y9708868D01*
X28918359Y9720236D01*
X28960285Y9720236D01*
X28960286Y9720237D01*
X29155509Y9759069D01*
X29339408Y9835243D01*
X29504913Y9945830D01*
X29645663Y10086580D01*
X29756250Y10252085D01*
X29832424Y10435984D01*
X29871257Y10631210D01*
X29871257Y10830262D01*
X29871257Y10830265D01*
X29871256Y10830267D01*
X29832425Y11025481D01*
X29832424Y11025488D01*
X29756250Y11209387D01*
X29756248Y11209390D01*
X29756246Y11209394D01*
X29645663Y11374892D01*
X29645660Y11374896D01*
X29504916Y11515640D01*
X29504912Y11515643D01*
X29339414Y11626226D01*
X29339404Y11626231D01*
X29155509Y11702403D01*
X29155501Y11702405D01*
X28960286Y11741236D01*
X28960283Y11741236D01*
X28911218Y11741236D01*
X28844179Y11760921D01*
X28798424Y11813725D01*
X28787219Y11864846D01*
X28786541Y12080236D01*
X28779642Y14272553D01*
X28777201Y14310146D01*
X28773349Y14340425D01*
X28771597Y14352325D01*
X28733024Y14457762D01*
X28697371Y14517850D01*
X28669569Y14555480D01*
X28645566Y14621094D01*
X28659953Y14687630D01*
X28662213Y14691861D01*
X28662222Y14691873D01*
X28711258Y14810256D01*
X28736257Y14935931D01*
X28736257Y15064069D01*
X28736257Y15064072D01*
X28711259Y15189739D01*
X28711258Y15189740D01*
X28711258Y15189744D01*
X28662222Y15308127D01*
X28662221Y15308128D01*
X28659349Y15313502D01*
X28660808Y15314282D01*
X28642308Y15373358D01*
X28660790Y15440739D01*
X28675792Y15460349D01*
X28692903Y15478610D01*
X28743473Y15578846D01*
X28762946Y15645947D01*
X28775049Y15732053D01*
X28771960Y16713517D01*
X28745864Y25006440D01*
X28740197Y25059574D01*
X28739195Y25068972D01*
X28739193Y25068982D01*
X28728644Y25118635D01*
X28718673Y25154597D01*
X28718669Y25154605D01*
X28663241Y25252232D01*
X28663237Y25252238D01*
X28618166Y25305620D01*
X28573980Y25348366D01*
X28573977Y25348368D01*
X28573975Y25348370D01*
X28524175Y25374500D01*
X28474559Y25400534D01*
X28474556Y25400535D01*
X28444166Y25409883D01*
X28407778Y25421076D01*
X28407774Y25421077D01*
X28407770Y25421078D01*
X28321884Y25434553D01*
X28321875Y25434554D01*
X28321873Y25434554D01*
X28117515Y25437174D01*
X27111545Y25450068D01*
X27044763Y25470610D01*
X26999689Y25523996D01*
X26989136Y25573436D01*
X26938983Y35579057D01*
X29735257Y35579057D01*
X29735257Y35420943D01*
X29741003Y35399501D01*
X29776180Y35268217D01*
X29776183Y35268210D01*
X29855232Y35131291D01*
X29855236Y35131286D01*
X29855237Y35131284D01*
X29967041Y35019480D01*
X29967043Y35019479D01*
X29967047Y35019476D01*
X30047123Y34973245D01*
X30103973Y34940423D01*
X30256700Y34899500D01*
X30256702Y34899500D01*
X30414812Y34899500D01*
X30414814Y34899500D01*
X30567541Y34940423D01*
X30704473Y35019480D01*
X30816277Y35131284D01*
X30895334Y35268216D01*
X30936257Y35420943D01*
X30936257Y35579057D01*
X30895334Y35731784D01*
X30874300Y35768217D01*
X30816281Y35868710D01*
X30816275Y35868718D01*
X30704474Y35980519D01*
X30704466Y35980525D01*
X30567547Y36059574D01*
X30567543Y36059576D01*
X30567541Y36059577D01*
X30414814Y36100500D01*
X30256700Y36100500D01*
X30103973Y36059577D01*
X30103966Y36059574D01*
X29967047Y35980525D01*
X29967039Y35980519D01*
X29855238Y35868718D01*
X29855232Y35868710D01*
X29776183Y35731791D01*
X29776180Y35731784D01*
X29735257Y35579057D01*
X26938983Y35579057D01*
X26912580Y40846435D01*
X26931928Y40913571D01*
X26984502Y40959590D01*
X27004473Y40966826D01*
X27092541Y40990423D01*
X27229473Y41069480D01*
X27239050Y41079057D01*
X28610257Y41079057D01*
X28610257Y40920943D01*
X28633198Y40835328D01*
X28651180Y40768217D01*
X28651183Y40768210D01*
X28730232Y40631291D01*
X28730236Y40631286D01*
X28730237Y40631284D01*
X28842041Y40519480D01*
X28842043Y40519479D01*
X28842047Y40519476D01*
X28906787Y40482099D01*
X28978973Y40440423D01*
X29131700Y40399500D01*
X29131702Y40399500D01*
X29289812Y40399500D01*
X29289814Y40399500D01*
X29442541Y40440423D01*
X29579473Y40519480D01*
X29691277Y40631284D01*
X29770334Y40768216D01*
X29811257Y40920943D01*
X29811257Y41079057D01*
X29770334Y41231784D01*
X29748573Y41269476D01*
X29691281Y41368710D01*
X29691275Y41368718D01*
X29579474Y41480519D01*
X29579466Y41480525D01*
X29442547Y41559574D01*
X29442543Y41559576D01*
X29442541Y41559577D01*
X29289814Y41600500D01*
X29131700Y41600500D01*
X28978973Y41559577D01*
X28978966Y41559574D01*
X28842047Y41480525D01*
X28842039Y41480519D01*
X28730238Y41368718D01*
X28730232Y41368710D01*
X28651183Y41231791D01*
X28651180Y41231784D01*
X28610257Y41079057D01*
X27239050Y41079057D01*
X27341277Y41181284D01*
X27420334Y41318216D01*
X27461257Y41470943D01*
X27461257Y41629057D01*
X27420334Y41781784D01*
X27420330Y41781791D01*
X27341281Y41918710D01*
X27341275Y41918718D01*
X27229474Y42030519D01*
X27229466Y42030525D01*
X27092547Y42109574D01*
X27092542Y42109577D01*
X27029461Y42126480D01*
X26997428Y42135063D01*
X26937769Y42171427D01*
X26907240Y42234275D01*
X26905525Y42254215D01*
X26905248Y42309574D01*
X26893245Y44704057D01*
X38235257Y44704057D01*
X38235257Y44545943D01*
X38268751Y44420944D01*
X38276180Y44393217D01*
X38276183Y44393210D01*
X38355232Y44256291D01*
X38355236Y44256286D01*
X38355237Y44256284D01*
X38467041Y44144480D01*
X38467043Y44144479D01*
X38467047Y44144476D01*
X38603966Y44065427D01*
X38603973Y44065423D01*
X38756700Y44024500D01*
X38756702Y44024500D01*
X38914812Y44024500D01*
X38914814Y44024500D01*
X39067541Y44065423D01*
X39204473Y44144480D01*
X39316277Y44256284D01*
X39395334Y44393216D01*
X39436257Y44545943D01*
X39436257Y44560098D01*
X39449165Y44604057D01*
X45360257Y44604057D01*
X45360257Y44445943D01*
X45368390Y44415593D01*
X45401180Y44293217D01*
X45401183Y44293210D01*
X45480232Y44156291D01*
X45480236Y44156286D01*
X45480237Y44156284D01*
X45592041Y44044480D01*
X45592043Y44044479D01*
X45592047Y44044476D01*
X45682157Y43992452D01*
X45728973Y43965423D01*
X45881700Y43924500D01*
X45881702Y43924500D01*
X46039812Y43924500D01*
X46039814Y43924500D01*
X46192541Y43965423D01*
X46329473Y44044480D01*
X46441277Y44156284D01*
X46520334Y44293216D01*
X46561257Y44445943D01*
X46561257Y44579057D01*
X51985257Y44579057D01*
X51985257Y44420943D01*
X52024781Y44273440D01*
X52026180Y44268217D01*
X52026183Y44268210D01*
X52105232Y44131291D01*
X52105236Y44131286D01*
X52105237Y44131284D01*
X52217041Y44019480D01*
X52217043Y44019479D01*
X52217047Y44019476D01*
X52312183Y43964550D01*
X52353973Y43940423D01*
X52506700Y43899500D01*
X52506702Y43899500D01*
X52664812Y43899500D01*
X52664814Y43899500D01*
X52817541Y43940423D01*
X52954473Y44019480D01*
X53066277Y44131284D01*
X53145334Y44268216D01*
X53186257Y44420943D01*
X53186257Y44579057D01*
X55985257Y44579057D01*
X55985257Y44420943D01*
X56024781Y44273440D01*
X56026180Y44268217D01*
X56026183Y44268210D01*
X56105232Y44131291D01*
X56105236Y44131286D01*
X56105237Y44131284D01*
X56217041Y44019480D01*
X56217043Y44019479D01*
X56217047Y44019476D01*
X56312183Y43964550D01*
X56353973Y43940423D01*
X56506700Y43899500D01*
X56506702Y43899500D01*
X56664812Y43899500D01*
X56664814Y43899500D01*
X56817541Y43940423D01*
X56954473Y44019480D01*
X57066277Y44131284D01*
X57145334Y44268216D01*
X57186257Y44420943D01*
X57186257Y44579057D01*
X57145334Y44731784D01*
X57073162Y44856791D01*
X57069365Y44863367D01*
X62967758Y44863367D01*
X62967758Y44705253D01*
X62994874Y44604057D01*
X63008681Y44552527D01*
X63008684Y44552520D01*
X63087733Y44415601D01*
X63087737Y44415596D01*
X63087738Y44415594D01*
X63199542Y44303790D01*
X63199544Y44303789D01*
X63199548Y44303786D01*
X63281827Y44256283D01*
X63336474Y44224733D01*
X63489201Y44183810D01*
X63489203Y44183810D01*
X63647313Y44183810D01*
X63647315Y44183810D01*
X63800042Y44224733D01*
X63936974Y44303790D01*
X64048778Y44415594D01*
X64127835Y44552526D01*
X64168758Y44705253D01*
X64168758Y44863367D01*
X64127835Y45016094D01*
X64102732Y45059574D01*
X64048782Y45153020D01*
X64048776Y45153028D01*
X63936975Y45264829D01*
X63936967Y45264835D01*
X63800048Y45343884D01*
X63800044Y45343886D01*
X63800042Y45343887D01*
X63647315Y45384810D01*
X63489201Y45384810D01*
X63336474Y45343887D01*
X63336467Y45343884D01*
X63199548Y45264835D01*
X63199540Y45264829D01*
X63087739Y45153028D01*
X63087733Y45153020D01*
X63008684Y45016101D01*
X63008681Y45016094D01*
X62967758Y44863367D01*
X57069365Y44863367D01*
X57066279Y44868713D01*
X57066275Y44868718D01*
X56954474Y44980519D01*
X56954466Y44980525D01*
X56817547Y45059574D01*
X56817543Y45059576D01*
X56817541Y45059577D01*
X56664814Y45100500D01*
X56506700Y45100500D01*
X56353973Y45059577D01*
X56353966Y45059574D01*
X56217047Y44980525D01*
X56217039Y44980519D01*
X56105238Y44868718D01*
X56105232Y44868710D01*
X56026183Y44731791D01*
X56026180Y44731784D01*
X55985257Y44579057D01*
X53186257Y44579057D01*
X53145334Y44731784D01*
X53145330Y44731791D01*
X53066281Y44868710D01*
X53066275Y44868718D01*
X52954474Y44980519D01*
X52954466Y44980525D01*
X52817547Y45059574D01*
X52817543Y45059576D01*
X52817541Y45059577D01*
X52664814Y45100500D01*
X52506700Y45100500D01*
X52353973Y45059577D01*
X52353966Y45059574D01*
X52217047Y44980525D01*
X52217039Y44980519D01*
X52105238Y44868718D01*
X52105232Y44868710D01*
X52026183Y44731791D01*
X52026180Y44731784D01*
X51985257Y44579057D01*
X46561257Y44579057D01*
X46561257Y44604057D01*
X46520334Y44756784D01*
X46489902Y44809495D01*
X46441281Y44893710D01*
X46441275Y44893718D01*
X46329474Y45005519D01*
X46329466Y45005525D01*
X46192547Y45084574D01*
X46192543Y45084576D01*
X46192541Y45084577D01*
X46039814Y45125500D01*
X45881700Y45125500D01*
X45728973Y45084577D01*
X45728966Y45084574D01*
X45592047Y45005525D01*
X45592039Y45005519D01*
X45480238Y44893718D01*
X45480232Y44893710D01*
X45401183Y44756791D01*
X45401180Y44756784D01*
X45360257Y44604057D01*
X39449165Y44604057D01*
X39455942Y44627137D01*
X39508746Y44672892D01*
X39510806Y44673811D01*
X39519252Y44677485D01*
X39567541Y44690423D01*
X39704473Y44769480D01*
X39816277Y44881284D01*
X39895334Y45018216D01*
X39936257Y45170943D01*
X39936257Y45329057D01*
X39895334Y45481784D01*
X39895330Y45481791D01*
X39816281Y45618710D01*
X39816275Y45618718D01*
X39704474Y45730519D01*
X39704466Y45730525D01*
X39567547Y45809574D01*
X39567543Y45809576D01*
X39567541Y45809577D01*
X39414814Y45850500D01*
X39256700Y45850500D01*
X39103973Y45809577D01*
X39103966Y45809574D01*
X38967047Y45730525D01*
X38967039Y45730519D01*
X38855238Y45618718D01*
X38855232Y45618710D01*
X38776183Y45481791D01*
X38776180Y45481784D01*
X38735257Y45329057D01*
X38735257Y45314904D01*
X38715572Y45247865D01*
X38662768Y45202110D01*
X38643354Y45195130D01*
X38603974Y45184578D01*
X38603966Y45184574D01*
X38467047Y45105525D01*
X38467039Y45105519D01*
X38355238Y44993718D01*
X38355232Y44993710D01*
X38276183Y44856791D01*
X38276180Y44856784D01*
X38235257Y44704057D01*
X26893245Y44704057D01*
X26890112Y45329057D01*
X26884564Y46435929D01*
X33935256Y46435929D01*
X33960254Y46310262D01*
X33960256Y46310256D01*
X34009290Y46191876D01*
X34009295Y46191867D01*
X34080480Y46085332D01*
X34080483Y46085328D01*
X34171084Y45994727D01*
X34171088Y45994724D01*
X34277623Y45923539D01*
X34277629Y45923536D01*
X34277630Y45923535D01*
X34396013Y45874499D01*
X34396017Y45874499D01*
X34396018Y45874498D01*
X34521685Y45849500D01*
X34521688Y45849500D01*
X34649828Y45849500D01*
X34734372Y45866318D01*
X34775501Y45874499D01*
X34893884Y45923535D01*
X35000426Y45994724D01*
X35091033Y46085331D01*
X35162222Y46191873D01*
X35211258Y46310256D01*
X35236257Y46435929D01*
X36185256Y46435929D01*
X36210254Y46310262D01*
X36210256Y46310256D01*
X36259290Y46191876D01*
X36259295Y46191867D01*
X36330480Y46085332D01*
X36330483Y46085328D01*
X36421084Y45994727D01*
X36421088Y45994724D01*
X36527623Y45923539D01*
X36527629Y45923536D01*
X36527630Y45923535D01*
X36646013Y45874499D01*
X36646017Y45874499D01*
X36646018Y45874498D01*
X36771685Y45849500D01*
X36771688Y45849500D01*
X36899828Y45849500D01*
X36984372Y45866318D01*
X37025501Y45874499D01*
X37143884Y45923535D01*
X37250426Y45994724D01*
X37341033Y46085331D01*
X37412222Y46191873D01*
X37461258Y46310256D01*
X37486257Y46435931D01*
X37486257Y46564069D01*
X37486257Y46564072D01*
X37461259Y46689739D01*
X37461258Y46689740D01*
X37461258Y46689744D01*
X37412986Y46806283D01*
X37412223Y46808125D01*
X37412218Y46808134D01*
X37341033Y46914669D01*
X37341030Y46914673D01*
X37250429Y47005274D01*
X37250425Y47005277D01*
X37143890Y47076462D01*
X37143881Y47076467D01*
X37025501Y47125501D01*
X37025495Y47125503D01*
X36899828Y47150500D01*
X36899826Y47150500D01*
X36771688Y47150500D01*
X36771686Y47150500D01*
X36646018Y47125503D01*
X36646012Y47125501D01*
X36527632Y47076467D01*
X36527623Y47076462D01*
X36421088Y47005277D01*
X36421084Y47005274D01*
X36330483Y46914673D01*
X36330480Y46914669D01*
X36259295Y46808134D01*
X36259290Y46808125D01*
X36210256Y46689745D01*
X36210254Y46689739D01*
X36185257Y46564072D01*
X36185257Y46564069D01*
X36185257Y46435931D01*
X36185257Y46435929D01*
X36185256Y46435929D01*
X35236257Y46435929D01*
X35236257Y46435931D01*
X35236257Y46564069D01*
X35236257Y46564072D01*
X35211259Y46689739D01*
X35211258Y46689740D01*
X35211258Y46689744D01*
X35162986Y46806283D01*
X35162223Y46808125D01*
X35162218Y46808134D01*
X35091033Y46914669D01*
X35091030Y46914673D01*
X35000429Y47005274D01*
X35000425Y47005277D01*
X34893890Y47076462D01*
X34893881Y47076467D01*
X34775501Y47125501D01*
X34775495Y47125503D01*
X34649828Y47150500D01*
X34649826Y47150500D01*
X34521688Y47150500D01*
X34521686Y47150500D01*
X34396018Y47125503D01*
X34396012Y47125501D01*
X34277632Y47076467D01*
X34277623Y47076462D01*
X34171088Y47005277D01*
X34171084Y47005274D01*
X34080483Y46914673D01*
X34080480Y46914669D01*
X34009295Y46808134D01*
X34009290Y46808125D01*
X33960256Y46689745D01*
X33960254Y46689739D01*
X33935257Y46564072D01*
X33935257Y46564069D01*
X33935257Y46435931D01*
X33935257Y46435929D01*
X33935256Y46435929D01*
X26884564Y46435929D01*
X26883894Y46569539D01*
X26883894Y46569540D01*
X26880631Y47220403D01*
X26880048Y47237794D01*
X26879173Y47251897D01*
X26879173Y47251898D01*
X26879173Y47251901D01*
X26855093Y47353241D01*
X26827588Y47417470D01*
X26797817Y47471271D01*
X26797816Y47471272D01*
X26793523Y47479031D01*
X26796401Y47480624D01*
X26777298Y47530936D01*
X26791748Y47599295D01*
X26793492Y47602424D01*
X26845334Y47692216D01*
X26882000Y47829057D01*
X47860257Y47829057D01*
X47860257Y47670943D01*
X47894348Y47543716D01*
X47901180Y47518217D01*
X47901183Y47518210D01*
X47980232Y47381291D01*
X47980236Y47381286D01*
X47980237Y47381284D01*
X48092041Y47269480D01*
X48092043Y47269479D01*
X48092047Y47269476D01*
X48228966Y47190427D01*
X48228973Y47190423D01*
X48381700Y47149500D01*
X48381702Y47149500D01*
X48539812Y47149500D01*
X48539814Y47149500D01*
X48692541Y47190423D01*
X48802759Y47254057D01*
X64485257Y47254057D01*
X64485257Y47095943D01*
X64494820Y47060256D01*
X64526180Y46943217D01*
X64526183Y46943210D01*
X64605232Y46806291D01*
X64605236Y46806286D01*
X64605237Y46806284D01*
X64717041Y46694480D01*
X64717043Y46694479D01*
X64717047Y46694476D01*
X64838251Y46624500D01*
X64853973Y46615423D01*
X65006700Y46574500D01*
X65006702Y46574500D01*
X65164812Y46574500D01*
X65164814Y46574500D01*
X65317541Y46615423D01*
X65454473Y46694480D01*
X65566277Y46806284D01*
X65645334Y46943216D01*
X65686257Y47095943D01*
X65686257Y47185929D01*
X69685256Y47185929D01*
X69710254Y47060262D01*
X69710256Y47060256D01*
X69759290Y46941876D01*
X69759295Y46941867D01*
X69830480Y46835332D01*
X69830483Y46835328D01*
X69921084Y46744727D01*
X69921088Y46744724D01*
X70027623Y46673539D01*
X70027629Y46673536D01*
X70027630Y46673535D01*
X70146013Y46624499D01*
X70146017Y46624499D01*
X70146018Y46624498D01*
X70271685Y46599500D01*
X70271688Y46599500D01*
X70399828Y46599500D01*
X70484372Y46616318D01*
X70525501Y46624499D01*
X70643884Y46673535D01*
X70750426Y46744724D01*
X70841033Y46835331D01*
X70912222Y46941873D01*
X70961258Y47060256D01*
X70969439Y47101385D01*
X70986257Y47185929D01*
X70986257Y47314072D01*
X70961259Y47439739D01*
X70961258Y47439740D01*
X70961258Y47439744D01*
X70918191Y47543716D01*
X70912223Y47558125D01*
X70912218Y47558134D01*
X70841033Y47664669D01*
X70841030Y47664673D01*
X70750429Y47755274D01*
X70750425Y47755277D01*
X70643890Y47826462D01*
X70643881Y47826467D01*
X70525501Y47875501D01*
X70525495Y47875503D01*
X70399828Y47900500D01*
X70399826Y47900500D01*
X70271688Y47900500D01*
X70271686Y47900500D01*
X70146018Y47875503D01*
X70146012Y47875501D01*
X70027632Y47826467D01*
X70027623Y47826462D01*
X69921088Y47755277D01*
X69921084Y47755274D01*
X69830483Y47664673D01*
X69830480Y47664669D01*
X69759295Y47558134D01*
X69759290Y47558125D01*
X69710256Y47439745D01*
X69710254Y47439739D01*
X69685257Y47314072D01*
X69685257Y47314069D01*
X69685257Y47185931D01*
X69685257Y47185929D01*
X69685256Y47185929D01*
X65686257Y47185929D01*
X65686257Y47254057D01*
X65645334Y47406784D01*
X65645330Y47406791D01*
X65566281Y47543710D01*
X65566275Y47543718D01*
X65454474Y47655519D01*
X65454466Y47655525D01*
X65317547Y47734574D01*
X65317543Y47734576D01*
X65317541Y47734577D01*
X65164814Y47775500D01*
X65006700Y47775500D01*
X64853973Y47734577D01*
X64853966Y47734574D01*
X64717047Y47655525D01*
X64717039Y47655519D01*
X64605238Y47543718D01*
X64605232Y47543710D01*
X64526183Y47406791D01*
X64526180Y47406784D01*
X64485257Y47254057D01*
X48802759Y47254057D01*
X48829473Y47269480D01*
X48941277Y47381284D01*
X49020334Y47518216D01*
X49061257Y47670943D01*
X49061257Y47829057D01*
X49020334Y47981784D01*
X49008052Y48003057D01*
X48941281Y48118710D01*
X48941275Y48118718D01*
X48829474Y48230519D01*
X48829466Y48230525D01*
X48692547Y48309574D01*
X48692543Y48309576D01*
X48692541Y48309577D01*
X48539814Y48350500D01*
X48381700Y48350500D01*
X48228973Y48309577D01*
X48228966Y48309574D01*
X48092047Y48230525D01*
X48092039Y48230519D01*
X47980238Y48118718D01*
X47980232Y48118710D01*
X47901183Y47981791D01*
X47901180Y47981784D01*
X47860257Y47829057D01*
X26882000Y47829057D01*
X26886257Y47844943D01*
X26886257Y48003057D01*
X26845334Y48155784D01*
X26789649Y48252233D01*
X26773177Y48320132D01*
X26790481Y48370972D01*
X26787892Y48372272D01*
X26796269Y48388955D01*
X26842255Y48480529D01*
X26861603Y48547667D01*
X26873546Y48633795D01*
X26872340Y48874499D01*
X26868765Y49587940D01*
X29110257Y49587940D01*
X29110257Y49429827D01*
X29151180Y49277100D01*
X29151183Y49277093D01*
X29230232Y49140174D01*
X29230236Y49140169D01*
X29230237Y49140167D01*
X29342041Y49028363D01*
X29342043Y49028362D01*
X29342047Y49028359D01*
X29478966Y48949310D01*
X29478973Y48949306D01*
X29631700Y48908383D01*
X29631702Y48908383D01*
X29789812Y48908383D01*
X29789814Y48908383D01*
X29942541Y48949306D01*
X30079473Y49028363D01*
X30191277Y49140167D01*
X30270334Y49277099D01*
X30311257Y49429826D01*
X30311257Y49435929D01*
X55435256Y49435929D01*
X55460254Y49310262D01*
X55460256Y49310256D01*
X55509290Y49191876D01*
X55509295Y49191867D01*
X55580480Y49085332D01*
X55580483Y49085328D01*
X55671084Y48994727D01*
X55671088Y48994724D01*
X55777623Y48923539D01*
X55777629Y48923536D01*
X55777630Y48923535D01*
X55896013Y48874499D01*
X55896017Y48874499D01*
X55896018Y48874498D01*
X56021685Y48849500D01*
X56021688Y48849500D01*
X56149828Y48849500D01*
X56234372Y48866318D01*
X56275501Y48874499D01*
X56393884Y48923535D01*
X56500426Y48994724D01*
X56591033Y49085331D01*
X56662222Y49191873D01*
X56711258Y49310256D01*
X56719439Y49351385D01*
X56736257Y49435929D01*
X56736257Y49564072D01*
X56711259Y49689739D01*
X56711258Y49689740D01*
X56711258Y49689744D01*
X56693909Y49731628D01*
X64482686Y49731628D01*
X64482686Y49573514D01*
X64521187Y49429828D01*
X64523609Y49420788D01*
X64523612Y49420781D01*
X64602661Y49283862D01*
X64602665Y49283857D01*
X64602666Y49283855D01*
X64714470Y49172051D01*
X64714472Y49172050D01*
X64714476Y49172047D01*
X64851395Y49092998D01*
X64851402Y49092994D01*
X65004129Y49052071D01*
X65004131Y49052071D01*
X65162241Y49052071D01*
X65162243Y49052071D01*
X65314970Y49092994D01*
X65451902Y49172051D01*
X65563706Y49283855D01*
X65642763Y49420787D01*
X65683686Y49573514D01*
X65683686Y49731628D01*
X65642763Y49884355D01*
X65642759Y49884362D01*
X65563710Y50021281D01*
X65563704Y50021289D01*
X65451903Y50133090D01*
X65451895Y50133096D01*
X65314976Y50212145D01*
X65314972Y50212147D01*
X65314970Y50212148D01*
X65162243Y50253071D01*
X65004129Y50253071D01*
X64851402Y50212148D01*
X64851395Y50212145D01*
X64714476Y50133096D01*
X64714468Y50133090D01*
X64602667Y50021289D01*
X64602661Y50021281D01*
X64523612Y49884362D01*
X64523609Y49884355D01*
X64482686Y49731628D01*
X56693909Y49731628D01*
X56690162Y49740674D01*
X56662225Y49808121D01*
X56662218Y49808134D01*
X56591033Y49914669D01*
X56591030Y49914673D01*
X56500429Y50005274D01*
X56500425Y50005277D01*
X56393890Y50076462D01*
X56393881Y50076467D01*
X56275501Y50125501D01*
X56275495Y50125503D01*
X56149828Y50150500D01*
X56149826Y50150500D01*
X56021688Y50150500D01*
X56021686Y50150500D01*
X55896018Y50125503D01*
X55896012Y50125501D01*
X55777632Y50076467D01*
X55777623Y50076462D01*
X55671088Y50005277D01*
X55671084Y50005274D01*
X55580483Y49914673D01*
X55580480Y49914669D01*
X55509295Y49808134D01*
X55509290Y49808125D01*
X55460256Y49689745D01*
X55460254Y49689739D01*
X55435257Y49564072D01*
X55435257Y49564069D01*
X55435257Y49435931D01*
X55435257Y49435929D01*
X55435256Y49435929D01*
X30311257Y49435929D01*
X30311257Y49587940D01*
X30270334Y49740667D01*
X30231390Y49808121D01*
X30191281Y49877593D01*
X30191275Y49877601D01*
X30079474Y49989402D01*
X30079466Y49989408D01*
X29942547Y50068457D01*
X29942543Y50068459D01*
X29942541Y50068460D01*
X29789814Y50109383D01*
X29631700Y50109383D01*
X29478973Y50068460D01*
X29478966Y50068457D01*
X29342047Y49989408D01*
X29342039Y49989402D01*
X29230238Y49877601D01*
X29230232Y49877593D01*
X29151183Y49740674D01*
X29151180Y49740667D01*
X29110257Y49587940D01*
X26868765Y49587940D01*
X26868727Y49595446D01*
X26861291Y51079057D01*
X36485257Y51079057D01*
X36485257Y50920943D01*
X36508198Y50835328D01*
X36526180Y50768217D01*
X36526183Y50768210D01*
X36605232Y50631291D01*
X36605236Y50631286D01*
X36605237Y50631284D01*
X36717041Y50519480D01*
X36717043Y50519479D01*
X36717047Y50519476D01*
X36853966Y50440427D01*
X36853973Y50440423D01*
X37006700Y50399500D01*
X37006702Y50399500D01*
X37164812Y50399500D01*
X37164814Y50399500D01*
X37317541Y50440423D01*
X37454473Y50519480D01*
X37566277Y50631284D01*
X37645334Y50768216D01*
X37686257Y50920943D01*
X37686257Y51079057D01*
X37657621Y51185929D01*
X40935256Y51185929D01*
X40960254Y51060262D01*
X40960256Y51060256D01*
X41009290Y50941876D01*
X41009295Y50941867D01*
X41080480Y50835332D01*
X41080483Y50835328D01*
X41171084Y50744727D01*
X41171088Y50744724D01*
X41277623Y50673539D01*
X41277629Y50673536D01*
X41277630Y50673535D01*
X41396013Y50624499D01*
X41396017Y50624499D01*
X41396018Y50624498D01*
X41521685Y50599500D01*
X41521688Y50599500D01*
X41649828Y50599500D01*
X41734372Y50616318D01*
X41775501Y50624499D01*
X41893884Y50673535D01*
X42000426Y50744724D01*
X42091033Y50835331D01*
X42162222Y50941873D01*
X42211258Y51060256D01*
X42236257Y51185929D01*
X43185256Y51185929D01*
X43210254Y51060262D01*
X43210256Y51060256D01*
X43259290Y50941876D01*
X43259295Y50941867D01*
X43330480Y50835332D01*
X43330483Y50835328D01*
X43421084Y50744727D01*
X43421088Y50744724D01*
X43527623Y50673539D01*
X43527629Y50673536D01*
X43527630Y50673535D01*
X43646013Y50624499D01*
X43646017Y50624499D01*
X43646018Y50624498D01*
X43771685Y50599500D01*
X43771688Y50599500D01*
X43899828Y50599500D01*
X43984372Y50616318D01*
X44025501Y50624499D01*
X44143884Y50673535D01*
X44250426Y50744724D01*
X44341033Y50835331D01*
X44412222Y50941873D01*
X44461258Y51060256D01*
X44486257Y51185929D01*
X45435256Y51185929D01*
X45460254Y51060262D01*
X45460256Y51060256D01*
X45509290Y50941876D01*
X45509295Y50941867D01*
X45580480Y50835332D01*
X45580483Y50835328D01*
X45671084Y50744727D01*
X45671088Y50744724D01*
X45777623Y50673539D01*
X45777629Y50673536D01*
X45777630Y50673535D01*
X45896013Y50624499D01*
X45896017Y50624499D01*
X45896018Y50624498D01*
X46021685Y50599500D01*
X46021688Y50599500D01*
X46149828Y50599500D01*
X46234372Y50616318D01*
X46275501Y50624499D01*
X46393884Y50673535D01*
X46500426Y50744724D01*
X46568500Y50812799D01*
X46629821Y50846282D01*
X46699513Y50841298D01*
X46755447Y50799427D01*
X46770741Y50772569D01*
X46773610Y50765641D01*
X46852661Y50628720D01*
X46852665Y50628715D01*
X46852666Y50628713D01*
X46964470Y50516909D01*
X46964472Y50516908D01*
X46964476Y50516905D01*
X47096942Y50440427D01*
X47101402Y50437852D01*
X47254129Y50396929D01*
X47254131Y50396929D01*
X47412241Y50396929D01*
X47412243Y50396929D01*
X47564970Y50437852D01*
X47701902Y50516909D01*
X47813706Y50628713D01*
X47892763Y50765645D01*
X47933686Y50918372D01*
X47933686Y51076486D01*
X47904361Y51185929D01*
X51185256Y51185929D01*
X51210254Y51060262D01*
X51210256Y51060256D01*
X51259290Y50941876D01*
X51259295Y50941867D01*
X51330480Y50835332D01*
X51330483Y50835328D01*
X51421084Y50744727D01*
X51421088Y50744724D01*
X51527623Y50673539D01*
X51527629Y50673536D01*
X51527630Y50673535D01*
X51646013Y50624499D01*
X51646017Y50624499D01*
X51646018Y50624498D01*
X51771685Y50599500D01*
X51771688Y50599500D01*
X51899828Y50599500D01*
X51984372Y50616318D01*
X52025501Y50624499D01*
X52143884Y50673535D01*
X52250426Y50744724D01*
X52341033Y50835331D01*
X52412222Y50941873D01*
X52461258Y51060256D01*
X52486257Y51185931D01*
X52486257Y51314069D01*
X52486257Y51314072D01*
X52461259Y51439739D01*
X52461258Y51439740D01*
X52461258Y51439744D01*
X52412222Y51558127D01*
X52412221Y51558128D01*
X52412218Y51558134D01*
X52341033Y51664669D01*
X52341030Y51664673D01*
X52250429Y51755274D01*
X52250425Y51755277D01*
X52143890Y51826462D01*
X52143881Y51826467D01*
X52025501Y51875501D01*
X52025495Y51875503D01*
X51899828Y51900500D01*
X51899826Y51900500D01*
X51771688Y51900500D01*
X51771686Y51900500D01*
X51646018Y51875503D01*
X51646012Y51875501D01*
X51527632Y51826467D01*
X51527623Y51826462D01*
X51421088Y51755277D01*
X51421084Y51755274D01*
X51330483Y51664673D01*
X51330480Y51664669D01*
X51259295Y51558134D01*
X51259290Y51558125D01*
X51210256Y51439745D01*
X51210254Y51439739D01*
X51185257Y51314072D01*
X51185257Y51314069D01*
X51185257Y51185931D01*
X51185257Y51185929D01*
X51185256Y51185929D01*
X47904361Y51185929D01*
X47892763Y51229213D01*
X47813706Y51366145D01*
X47701902Y51477949D01*
X47701899Y51477951D01*
X47701895Y51477954D01*
X47564976Y51557003D01*
X47564972Y51557005D01*
X47564970Y51557006D01*
X47412243Y51597929D01*
X47254129Y51597929D01*
X47101402Y51557006D01*
X47101395Y51557003D01*
X46964476Y51477954D01*
X46964472Y51477951D01*
X46905456Y51418935D01*
X46844132Y51385451D01*
X46774441Y51390436D01*
X46718507Y51432307D01*
X46703214Y51459164D01*
X46662223Y51558125D01*
X46662218Y51558134D01*
X46591033Y51664669D01*
X46591030Y51664673D01*
X46500429Y51755274D01*
X46500425Y51755277D01*
X46393890Y51826462D01*
X46393881Y51826467D01*
X46275501Y51875501D01*
X46275495Y51875503D01*
X46149828Y51900500D01*
X46149826Y51900500D01*
X46021688Y51900500D01*
X46021686Y51900500D01*
X45896018Y51875503D01*
X45896012Y51875501D01*
X45777632Y51826467D01*
X45777623Y51826462D01*
X45671088Y51755277D01*
X45671084Y51755274D01*
X45580483Y51664673D01*
X45580480Y51664669D01*
X45509295Y51558134D01*
X45509290Y51558125D01*
X45460256Y51439745D01*
X45460254Y51439739D01*
X45435257Y51314072D01*
X45435257Y51314069D01*
X45435257Y51185931D01*
X45435257Y51185929D01*
X45435256Y51185929D01*
X44486257Y51185929D01*
X44486257Y51185931D01*
X44486257Y51314069D01*
X44486257Y51314072D01*
X44461259Y51439739D01*
X44461258Y51439740D01*
X44461258Y51439744D01*
X44412222Y51558127D01*
X44412221Y51558128D01*
X44412218Y51558134D01*
X44341033Y51664669D01*
X44341030Y51664673D01*
X44250429Y51755274D01*
X44250425Y51755277D01*
X44143890Y51826462D01*
X44143881Y51826467D01*
X44025501Y51875501D01*
X44025495Y51875503D01*
X43899828Y51900500D01*
X43899826Y51900500D01*
X43771688Y51900500D01*
X43771686Y51900500D01*
X43646018Y51875503D01*
X43646012Y51875501D01*
X43527632Y51826467D01*
X43527623Y51826462D01*
X43421088Y51755277D01*
X43421084Y51755274D01*
X43330483Y51664673D01*
X43330480Y51664669D01*
X43259295Y51558134D01*
X43259290Y51558125D01*
X43210256Y51439745D01*
X43210254Y51439739D01*
X43185257Y51314072D01*
X43185257Y51314069D01*
X43185257Y51185931D01*
X43185257Y51185929D01*
X43185256Y51185929D01*
X42236257Y51185929D01*
X42236257Y51185931D01*
X42236257Y51314069D01*
X42236257Y51314072D01*
X42211259Y51439739D01*
X42211258Y51439740D01*
X42211258Y51439744D01*
X42162222Y51558127D01*
X42162221Y51558128D01*
X42162218Y51558134D01*
X42091033Y51664669D01*
X42091030Y51664673D01*
X42000429Y51755274D01*
X42000425Y51755277D01*
X41893890Y51826462D01*
X41893881Y51826467D01*
X41775501Y51875501D01*
X41775495Y51875503D01*
X41649828Y51900500D01*
X41649826Y51900500D01*
X41521688Y51900500D01*
X41521686Y51900500D01*
X41396018Y51875503D01*
X41396012Y51875501D01*
X41277632Y51826467D01*
X41277623Y51826462D01*
X41171088Y51755277D01*
X41171084Y51755274D01*
X41080483Y51664673D01*
X41080480Y51664669D01*
X41009295Y51558134D01*
X41009290Y51558125D01*
X40960256Y51439745D01*
X40960254Y51439739D01*
X40935257Y51314072D01*
X40935257Y51314069D01*
X40935257Y51185931D01*
X40935257Y51185929D01*
X40935256Y51185929D01*
X37657621Y51185929D01*
X37645334Y51231784D01*
X37643004Y51235819D01*
X37630106Y51258161D01*
X37566279Y51368713D01*
X37566275Y51368718D01*
X37454474Y51480519D01*
X37454466Y51480525D01*
X37317547Y51559574D01*
X37317543Y51559576D01*
X37317541Y51559577D01*
X37164814Y51600500D01*
X37006700Y51600500D01*
X36853973Y51559577D01*
X36853966Y51559574D01*
X36717047Y51480525D01*
X36717039Y51480519D01*
X36605238Y51368718D01*
X36605232Y51368710D01*
X36526183Y51231791D01*
X36526180Y51231784D01*
X36485257Y51079057D01*
X26861291Y51079057D01*
X26861253Y51086562D01*
X26850012Y53329057D01*
X36485257Y53329057D01*
X36485257Y53170944D01*
X36526180Y53018217D01*
X36526183Y53018210D01*
X36605232Y52881291D01*
X36605236Y52881286D01*
X36605237Y52881284D01*
X36717041Y52769480D01*
X36717043Y52769479D01*
X36717047Y52769476D01*
X36853966Y52690427D01*
X36853973Y52690423D01*
X37006700Y52649500D01*
X37006702Y52649500D01*
X37164812Y52649500D01*
X37164814Y52649500D01*
X37317541Y52690423D01*
X37454473Y52769480D01*
X37566277Y52881284D01*
X37645334Y53018216D01*
X37686257Y53170943D01*
X37686257Y53329057D01*
X39985257Y53329057D01*
X39985257Y53170944D01*
X40026180Y53018217D01*
X40026183Y53018210D01*
X40105232Y52881291D01*
X40105236Y52881286D01*
X40105237Y52881284D01*
X40217041Y52769480D01*
X40217043Y52769479D01*
X40217047Y52769476D01*
X40353966Y52690427D01*
X40353973Y52690423D01*
X40506700Y52649500D01*
X40506702Y52649500D01*
X40664812Y52649500D01*
X40664814Y52649500D01*
X40817541Y52690423D01*
X40954473Y52769480D01*
X41066277Y52881284D01*
X41145334Y53018216D01*
X41186257Y53170943D01*
X41186257Y53329057D01*
X43485257Y53329057D01*
X43485257Y53170944D01*
X43526180Y53018217D01*
X43526183Y53018210D01*
X43605232Y52881291D01*
X43605236Y52881286D01*
X43605237Y52881284D01*
X43717041Y52769480D01*
X43717043Y52769479D01*
X43717047Y52769476D01*
X43853966Y52690427D01*
X43853973Y52690423D01*
X44006700Y52649500D01*
X44006702Y52649500D01*
X44164812Y52649500D01*
X44164814Y52649500D01*
X44317541Y52690423D01*
X44454473Y52769480D01*
X44566277Y52881284D01*
X44645334Y53018216D01*
X44686257Y53170943D01*
X44686257Y53329057D01*
X44645334Y53481784D01*
X44645330Y53481791D01*
X44566281Y53618710D01*
X44566275Y53618718D01*
X44454474Y53730519D01*
X44454466Y53730525D01*
X44317547Y53809574D01*
X44317543Y53809576D01*
X44317541Y53809577D01*
X44164814Y53850500D01*
X44006700Y53850500D01*
X43853973Y53809577D01*
X43853966Y53809574D01*
X43717047Y53730525D01*
X43717039Y53730519D01*
X43605238Y53618718D01*
X43605232Y53618710D01*
X43526183Y53481791D01*
X43526180Y53481784D01*
X43485257Y53329057D01*
X41186257Y53329057D01*
X41145334Y53481784D01*
X41145330Y53481791D01*
X41066281Y53618710D01*
X41066275Y53618718D01*
X40954474Y53730519D01*
X40954466Y53730525D01*
X40817547Y53809574D01*
X40817543Y53809576D01*
X40817541Y53809577D01*
X40664814Y53850500D01*
X40506700Y53850500D01*
X40353973Y53809577D01*
X40353966Y53809574D01*
X40217047Y53730525D01*
X40217039Y53730519D01*
X40105238Y53618718D01*
X40105232Y53618710D01*
X40026183Y53481791D01*
X40026180Y53481784D01*
X39985257Y53329057D01*
X37686257Y53329057D01*
X37645334Y53481784D01*
X37645330Y53481791D01*
X37566281Y53618710D01*
X37566275Y53618718D01*
X37454474Y53730519D01*
X37454466Y53730525D01*
X37317547Y53809574D01*
X37317543Y53809576D01*
X37317541Y53809577D01*
X37164814Y53850500D01*
X37006700Y53850500D01*
X36853973Y53809577D01*
X36853966Y53809574D01*
X36717047Y53730525D01*
X36717039Y53730519D01*
X36605238Y53618718D01*
X36605232Y53618710D01*
X36526183Y53481791D01*
X36526180Y53481784D01*
X36485257Y53329057D01*
X26850012Y53329057D01*
X26844895Y54349878D01*
X26864243Y54417016D01*
X26916817Y54463035D01*
X26968893Y54474500D01*
X28355443Y54474500D01*
X28422482Y54454815D01*
G37*
%TD.AperFunction*%
%TD*%
%TA.AperFunction,Conductor*%
%TO.N,/VBIAS*%
G36*
X13435965Y38480315D02*
G01*
X13481720Y38427511D01*
X13488697Y38408103D01*
X13503908Y38351338D01*
X13526180Y38268217D01*
X13526183Y38268210D01*
X13605232Y38131291D01*
X13605236Y38131286D01*
X13605237Y38131284D01*
X13717041Y38019480D01*
X13717043Y38019479D01*
X13717047Y38019476D01*
X13853966Y37940427D01*
X13853973Y37940423D01*
X14006700Y37899500D01*
X14006702Y37899500D01*
X14164812Y37899500D01*
X14164814Y37899500D01*
X14317541Y37940423D01*
X14454473Y38019480D01*
X14566277Y38131284D01*
X14645334Y38268216D01*
X14682729Y38407779D01*
X14719091Y38467434D01*
X14781938Y38497964D01*
X14802830Y38499681D01*
X23712096Y38475338D01*
X23779081Y38455470D01*
X23824692Y38402541D01*
X23835757Y38351338D01*
X23835757Y33374718D01*
X23816072Y33307679D01*
X23763268Y33261924D01*
X23711042Y33250720D01*
X15356367Y33298920D01*
X14537281Y33303646D01*
X14470357Y33323716D01*
X14424907Y33376783D01*
X14415363Y33445998D01*
X14444754Y33509385D01*
X14450316Y33515325D01*
X14454468Y33519478D01*
X14454473Y33519480D01*
X14566277Y33631284D01*
X14645334Y33768216D01*
X14686257Y33920943D01*
X14686257Y34079057D01*
X14645334Y34231784D01*
X14645330Y34231791D01*
X14566281Y34368710D01*
X14566275Y34368718D01*
X14454474Y34480519D01*
X14454466Y34480525D01*
X14317547Y34559574D01*
X14317543Y34559576D01*
X14317541Y34559577D01*
X14164814Y34600500D01*
X14006700Y34600500D01*
X13853973Y34559577D01*
X13853966Y34559574D01*
X13717047Y34480525D01*
X13717039Y34480519D01*
X13605238Y34368718D01*
X13605232Y34368710D01*
X13526183Y34231791D01*
X13526180Y34231784D01*
X13485257Y34079057D01*
X13485257Y33920943D01*
X13514963Y33810081D01*
X13526180Y33768217D01*
X13526183Y33768210D01*
X13605232Y33631291D01*
X13605238Y33631283D01*
X13715948Y33520573D01*
X13749433Y33459250D01*
X13744449Y33389558D01*
X13702577Y33333625D01*
X13637113Y33309208D01*
X13627552Y33308894D01*
X12907876Y33313046D01*
X12424469Y33315835D01*
X12357546Y33335905D01*
X12312096Y33388972D01*
X12302552Y33458187D01*
X12331943Y33521574D01*
X12337475Y33527483D01*
X12441277Y33631284D01*
X12520334Y33768216D01*
X12561257Y33920943D01*
X12561257Y34079057D01*
X12520334Y34231784D01*
X12520330Y34231791D01*
X12441281Y34368710D01*
X12441275Y34368718D01*
X12329474Y34480519D01*
X12329466Y34480525D01*
X12192547Y34559574D01*
X12192543Y34559576D01*
X12192541Y34559577D01*
X12039814Y34600500D01*
X11881700Y34600500D01*
X11728973Y34559577D01*
X11728966Y34559574D01*
X11592047Y34480525D01*
X11592039Y34480519D01*
X11480238Y34368718D01*
X11480232Y34368710D01*
X11401183Y34231791D01*
X11401180Y34231784D01*
X11360257Y34079057D01*
X11360257Y33920943D01*
X11389963Y33810081D01*
X11401180Y33768217D01*
X11401183Y33768210D01*
X11480232Y33631291D01*
X11480238Y33631283D01*
X11578618Y33532903D01*
X11612103Y33471580D01*
X11607119Y33401888D01*
X11565247Y33345955D01*
X11499783Y33321538D01*
X11490228Y33321225D01*
X10865734Y33324828D01*
X10835759Y33325000D01*
X10835758Y33325000D01*
X10835757Y33325000D01*
X10387302Y33303645D01*
X10310757Y33300000D01*
X10310757Y31924992D01*
X10335731Y30701274D01*
X10335757Y30698744D01*
X10335757Y29874000D01*
X10316072Y29806961D01*
X10263268Y29761206D01*
X10211757Y29750000D01*
X9515257Y29750000D01*
X9448218Y29769685D01*
X9402463Y29822489D01*
X9391257Y29874000D01*
X9391257Y33624420D01*
X9391114Y33631288D01*
X9390992Y33637134D01*
X9390562Y33647456D01*
X9370270Y33744912D01*
X9345073Y33810080D01*
X9343793Y33812358D01*
X9343541Y33812810D01*
X9318333Y33858190D01*
X9319804Y33859037D01*
X9268529Y33947850D01*
X9268013Y33948779D01*
X9267689Y33950214D01*
X9256637Y33976899D01*
X9244982Y34020397D01*
X9240757Y34052490D01*
X9240757Y34097515D01*
X9244982Y34129607D01*
X9256635Y34173099D01*
X9269021Y34203003D01*
X9308341Y34271108D01*
X9314288Y34280422D01*
X9315984Y34282833D01*
X9359196Y34372472D01*
X9378881Y34439511D01*
X9391257Y34525583D01*
X9391257Y38376000D01*
X9410942Y38443039D01*
X9463746Y38488794D01*
X9515257Y38500000D01*
X13368926Y38500000D01*
X13435965Y38480315D01*
G37*
%TD.AperFunction*%
%TD*%
%TA.AperFunction,Conductor*%
%TO.N,+3.3VA*%
G36*
X26482426Y54454815D02*
G01*
X26528181Y54402011D01*
X26539385Y54351122D01*
X26568050Y48632264D01*
X26548702Y48565126D01*
X26496128Y48519107D01*
X26427020Y48508817D01*
X26411970Y48511865D01*
X26364814Y48524500D01*
X26206700Y48524500D01*
X26053973Y48483577D01*
X26053966Y48483574D01*
X25917047Y48404525D01*
X25917039Y48404519D01*
X25805238Y48292718D01*
X25805232Y48292710D01*
X25726183Y48155791D01*
X25726180Y48155784D01*
X25685257Y48003057D01*
X25685257Y47844944D01*
X25726180Y47692217D01*
X25726183Y47692210D01*
X25805232Y47555291D01*
X25805236Y47555286D01*
X25805237Y47555284D01*
X25917041Y47443480D01*
X25917043Y47443479D01*
X25917047Y47443476D01*
X26030476Y47377989D01*
X26053973Y47364423D01*
X26206700Y47323500D01*
X26206702Y47323500D01*
X26364812Y47323500D01*
X26364814Y47323500D01*
X26419044Y47338031D01*
X26488892Y47336369D01*
X26546755Y47297208D01*
X26574260Y47232979D01*
X26575135Y47218879D01*
X26600467Y42165335D01*
X26581119Y42098197D01*
X26538470Y42057326D01*
X26492041Y42030521D01*
X26380238Y41918718D01*
X26380232Y41918710D01*
X26301183Y41781791D01*
X26301180Y41781784D01*
X26260257Y41629057D01*
X26260257Y41470943D01*
X26297884Y41330519D01*
X26301180Y41318217D01*
X26301183Y41318210D01*
X26380232Y41181291D01*
X26380236Y41181286D01*
X26380237Y41181284D01*
X26492041Y41069480D01*
X26544648Y41039108D01*
X26592863Y40988543D01*
X26606646Y40932343D01*
X26685756Y25150001D01*
X26685757Y25150000D01*
X28317958Y25129079D01*
X28384738Y25108537D01*
X28429812Y25055151D01*
X28440366Y25005479D01*
X28469551Y15731092D01*
X28450078Y15663991D01*
X28397418Y15618070D01*
X28328291Y15607909D01*
X28298101Y15616140D01*
X28275501Y15625501D01*
X28275495Y15625503D01*
X28149828Y15650500D01*
X28149826Y15650500D01*
X28021688Y15650500D01*
X28021686Y15650500D01*
X27896018Y15625503D01*
X27896012Y15625501D01*
X27777632Y15576467D01*
X27777623Y15576462D01*
X27671088Y15505277D01*
X27671084Y15505274D01*
X27580483Y15414673D01*
X27580480Y15414669D01*
X27509295Y15308134D01*
X27509290Y15308125D01*
X27460256Y15189745D01*
X27460254Y15189739D01*
X27435257Y15064072D01*
X27435257Y15064069D01*
X27435257Y14935931D01*
X27435257Y14935929D01*
X27435256Y14935929D01*
X27460254Y14810262D01*
X27460256Y14810256D01*
X27509290Y14691876D01*
X27509295Y14691867D01*
X27580480Y14585332D01*
X27580483Y14585328D01*
X27671084Y14494727D01*
X27671088Y14494724D01*
X27777623Y14423539D01*
X27777629Y14423536D01*
X27777630Y14423535D01*
X27896013Y14374499D01*
X27896017Y14374499D01*
X27896018Y14374498D01*
X28021685Y14349500D01*
X28021688Y14349500D01*
X28149828Y14349500D01*
X28234372Y14366318D01*
X28275501Y14374499D01*
X28302693Y14385763D01*
X28372159Y14393232D01*
X28434639Y14361959D01*
X28470292Y14301871D01*
X28474144Y14271592D01*
X28482077Y11750884D01*
X28462604Y11683783D01*
X28409944Y11637862D01*
X28405536Y11635935D01*
X28382104Y11626229D01*
X28382103Y11626228D01*
X28216605Y11515646D01*
X28216597Y11515640D01*
X28075853Y11374896D01*
X28075850Y11374892D01*
X27965267Y11209394D01*
X27965262Y11209384D01*
X27889090Y11025489D01*
X27889088Y11025481D01*
X27850257Y10830267D01*
X27850257Y10631206D01*
X27889088Y10435992D01*
X27889090Y10435984D01*
X27965262Y10252089D01*
X27965267Y10252079D01*
X28075850Y10086581D01*
X28075853Y10086577D01*
X28216597Y9945833D01*
X28216601Y9945830D01*
X28382099Y9835247D01*
X28382103Y9835245D01*
X28382106Y9835243D01*
X28397653Y9828804D01*
X28411957Y9822878D01*
X28466360Y9779037D01*
X28488425Y9712743D01*
X28488503Y9708707D01*
X28493802Y8025268D01*
X28497328Y6904887D01*
X28477856Y6837789D01*
X28425196Y6791868D01*
X28373330Y6780500D01*
X27021617Y6780500D01*
X26939745Y6769325D01*
X26875712Y6751512D01*
X26875698Y6751507D01*
X26822338Y6731118D01*
X26822332Y6731115D01*
X26736043Y6666408D01*
X26670599Y6641937D01*
X26602314Y6656733D01*
X26576584Y6675394D01*
X26553084Y6697552D01*
X26553083Y6697553D01*
X26453007Y6748439D01*
X26453006Y6748440D01*
X26453005Y6748440D01*
X26385974Y6768123D01*
X26385968Y6768124D01*
X26299896Y6780500D01*
X26299893Y6780500D01*
X20506310Y6780500D01*
X20439271Y6800185D01*
X20393516Y6852989D01*
X20383371Y6920686D01*
X20392061Y6986688D01*
X20401257Y7056542D01*
X20401257Y7292564D01*
X20370450Y7526567D01*
X20309363Y7754546D01*
X20219041Y7972602D01*
X20219039Y7972605D01*
X20219037Y7972610D01*
X20163462Y8068867D01*
X20101030Y8177003D01*
X20079968Y8204451D01*
X20031707Y8267347D01*
X25560257Y8267347D01*
X25560257Y8094125D01*
X25587355Y7923035D01*
X25640884Y7758291D01*
X25719525Y7603948D01*
X25821343Y7463808D01*
X25943829Y7341322D01*
X26083969Y7239504D01*
X26238312Y7160863D01*
X26403056Y7107334D01*
X26574146Y7080236D01*
X26574147Y7080236D01*
X26747367Y7080236D01*
X26747368Y7080236D01*
X26918458Y7107334D01*
X27083202Y7160863D01*
X27237545Y7239504D01*
X27377685Y7341322D01*
X27500171Y7463808D01*
X27601989Y7603948D01*
X27680630Y7758291D01*
X27734159Y7923035D01*
X27761257Y8094125D01*
X27761257Y8267347D01*
X27734159Y8438437D01*
X27680630Y8603181D01*
X27601989Y8757524D01*
X27500171Y8897664D01*
X27377685Y9020150D01*
X27237545Y9121968D01*
X27083202Y9200609D01*
X26918458Y9254138D01*
X26918456Y9254139D01*
X26918455Y9254139D01*
X26787028Y9274955D01*
X26747368Y9281236D01*
X26574146Y9281236D01*
X26534485Y9274955D01*
X26403059Y9254139D01*
X26238309Y9200608D01*
X26083968Y9121968D01*
X26004013Y9063877D01*
X25943829Y9020150D01*
X25943827Y9020148D01*
X25943826Y9020148D01*
X25821345Y8897667D01*
X25821345Y8897666D01*
X25821343Y8897664D01*
X25777616Y8837480D01*
X25719525Y8757525D01*
X25640885Y8603184D01*
X25587354Y8438434D01*
X25575544Y8363865D01*
X25560257Y8267347D01*
X20031707Y8267347D01*
X19957350Y8364251D01*
X19957344Y8364258D01*
X19790461Y8531141D01*
X19790454Y8531147D01*
X19603211Y8674823D01*
X19603210Y8674824D01*
X19603207Y8674826D01*
X19521714Y8721876D01*
X19398813Y8792834D01*
X19398802Y8792839D01*
X19180750Y8883159D01*
X18952767Y8944247D01*
X18718777Y8975052D01*
X18718774Y8975053D01*
X18718768Y8975053D01*
X18482746Y8975053D01*
X18482740Y8975053D01*
X18482736Y8975052D01*
X18248746Y8944247D01*
X18020763Y8883159D01*
X17802711Y8792839D01*
X17802700Y8792834D01*
X17598302Y8674823D01*
X17411059Y8531147D01*
X17411052Y8531141D01*
X17244169Y8364258D01*
X17244163Y8364251D01*
X17100487Y8177008D01*
X16982476Y7972610D01*
X16982471Y7972599D01*
X16892151Y7754547D01*
X16831063Y7526564D01*
X16800258Y7292574D01*
X16800257Y7292558D01*
X16800257Y7056549D01*
X16800258Y7056532D01*
X16817721Y6923885D01*
X16806955Y6854850D01*
X16760575Y6802594D01*
X16694427Y6783701D01*
X9514902Y6804273D01*
X9447919Y6824149D01*
X9402315Y6877084D01*
X9391257Y6928272D01*
X9391257Y13642558D01*
X16800257Y13642558D01*
X16800257Y13406549D01*
X16800258Y13406533D01*
X16831063Y13172543D01*
X16892151Y12944560D01*
X16982471Y12726508D01*
X16982476Y12726497D01*
X17053434Y12603596D01*
X17100484Y12522103D01*
X17100486Y12522100D01*
X17100487Y12522099D01*
X17244163Y12334856D01*
X17244169Y12334849D01*
X17411052Y12167966D01*
X17411058Y12167961D01*
X17598307Y12024280D01*
X17729675Y11948435D01*
X17802700Y11906273D01*
X17802705Y11906271D01*
X17802708Y11906269D01*
X18020764Y11815947D01*
X18248743Y11754860D01*
X18482746Y11724053D01*
X18482753Y11724053D01*
X18718761Y11724053D01*
X18718768Y11724053D01*
X18952771Y11754860D01*
X19180750Y11815947D01*
X19398806Y11906269D01*
X19603207Y12024280D01*
X19790456Y12167961D01*
X19889842Y12267347D01*
X25560257Y12267347D01*
X25560257Y12094125D01*
X25587355Y11923035D01*
X25640884Y11758291D01*
X25719525Y11603948D01*
X25821343Y11463808D01*
X25943829Y11341322D01*
X26083969Y11239504D01*
X26238312Y11160863D01*
X26403056Y11107334D01*
X26574146Y11080236D01*
X26574147Y11080236D01*
X26747367Y11080236D01*
X26747368Y11080236D01*
X26918458Y11107334D01*
X27083202Y11160863D01*
X27237545Y11239504D01*
X27377685Y11341322D01*
X27500171Y11463808D01*
X27601989Y11603948D01*
X27680630Y11758291D01*
X27734159Y11923035D01*
X27761257Y12094125D01*
X27761257Y12267347D01*
X27734159Y12438437D01*
X27680630Y12603181D01*
X27601989Y12757524D01*
X27500171Y12897664D01*
X27377685Y13020150D01*
X27237545Y13121968D01*
X27083202Y13200609D01*
X26918458Y13254138D01*
X26918456Y13254139D01*
X26918455Y13254139D01*
X26787028Y13274955D01*
X26747368Y13281236D01*
X26574146Y13281236D01*
X26534485Y13274955D01*
X26403059Y13254139D01*
X26238309Y13200608D01*
X26083968Y13121968D01*
X26006772Y13065881D01*
X25943829Y13020150D01*
X25943827Y13020148D01*
X25943826Y13020148D01*
X25821345Y12897667D01*
X25821345Y12897666D01*
X25821343Y12897664D01*
X25777616Y12837480D01*
X25719525Y12757525D01*
X25640885Y12603184D01*
X25587354Y12438434D01*
X25572984Y12347705D01*
X25560257Y12267347D01*
X19889842Y12267347D01*
X19957349Y12334854D01*
X20101030Y12522103D01*
X20219041Y12726504D01*
X20309363Y12944560D01*
X20370450Y13172539D01*
X20401257Y13406542D01*
X20401257Y13642564D01*
X20370450Y13876567D01*
X20309363Y14104546D01*
X20219041Y14322602D01*
X20219039Y14322605D01*
X20219037Y14322610D01*
X20160765Y14423539D01*
X20101030Y14527003D01*
X19957349Y14714252D01*
X19957344Y14714258D01*
X19790461Y14881141D01*
X19790454Y14881147D01*
X19603211Y15024823D01*
X19603210Y15024824D01*
X19603207Y15024826D01*
X19521714Y15071876D01*
X19398813Y15142834D01*
X19398802Y15142839D01*
X19180750Y15233159D01*
X18952767Y15294247D01*
X18718777Y15325052D01*
X18718774Y15325053D01*
X18718768Y15325053D01*
X18482746Y15325053D01*
X18482740Y15325053D01*
X18482736Y15325052D01*
X18248746Y15294247D01*
X18020763Y15233159D01*
X17802711Y15142839D01*
X17802700Y15142834D01*
X17598302Y15024823D01*
X17411059Y14881147D01*
X17411052Y14881141D01*
X17244169Y14714258D01*
X17244163Y14714251D01*
X17100487Y14527008D01*
X16982476Y14322610D01*
X16982471Y14322599D01*
X16892151Y14104547D01*
X16831063Y13876564D01*
X16800258Y13642574D01*
X16800257Y13642558D01*
X9391257Y13642558D01*
X9391257Y19152944D01*
X9410942Y19219983D01*
X9463746Y19265738D01*
X9483164Y19272719D01*
X9489811Y19274500D01*
X9489814Y19274500D01*
X9642541Y19315423D01*
X9779473Y19394480D01*
X9891277Y19506284D01*
X9970334Y19643216D01*
X10011257Y19795943D01*
X10011257Y19954057D01*
X10000941Y19992558D01*
X16800257Y19992558D01*
X16800257Y19756549D01*
X16800258Y19756533D01*
X16815176Y19643216D01*
X16831064Y19522539D01*
X16886560Y19315427D01*
X16892151Y19294560D01*
X16982471Y19076508D01*
X16982476Y19076497D01*
X17053434Y18953596D01*
X17100484Y18872103D01*
X17100486Y18872100D01*
X17100487Y18872099D01*
X17244163Y18684856D01*
X17244169Y18684849D01*
X17411052Y18517966D01*
X17411058Y18517961D01*
X17598307Y18374280D01*
X17729675Y18298435D01*
X17802700Y18256273D01*
X17802705Y18256271D01*
X17802708Y18256269D01*
X18020764Y18165947D01*
X18248743Y18104860D01*
X18482746Y18074053D01*
X18482753Y18074053D01*
X18718761Y18074053D01*
X18718768Y18074053D01*
X18952771Y18104860D01*
X19180750Y18165947D01*
X19398806Y18256269D01*
X19603207Y18374280D01*
X19790456Y18517961D01*
X19957349Y18684854D01*
X20101030Y18872103D01*
X20219041Y19076504D01*
X20309363Y19294560D01*
X20370450Y19522539D01*
X20401257Y19756542D01*
X20401257Y19992564D01*
X20370450Y20226567D01*
X20309363Y20454546D01*
X20219041Y20672602D01*
X20219039Y20672605D01*
X20219037Y20672610D01*
X20176875Y20745635D01*
X20101030Y20877003D01*
X19957349Y21064252D01*
X19957344Y21064258D01*
X19790461Y21231141D01*
X19790454Y21231147D01*
X19603211Y21374823D01*
X19603210Y21374824D01*
X19603207Y21374826D01*
X19521714Y21421876D01*
X19398813Y21492834D01*
X19398802Y21492839D01*
X19180750Y21583159D01*
X18952767Y21644247D01*
X18718777Y21675052D01*
X18718774Y21675053D01*
X18718768Y21675053D01*
X18482746Y21675053D01*
X18482740Y21675053D01*
X18482736Y21675052D01*
X18248746Y21644247D01*
X18020763Y21583159D01*
X17802711Y21492839D01*
X17802700Y21492834D01*
X17598302Y21374823D01*
X17411059Y21231147D01*
X17411052Y21231141D01*
X17244169Y21064258D01*
X17244163Y21064251D01*
X17100487Y20877008D01*
X16982476Y20672610D01*
X16982471Y20672599D01*
X16892151Y20454547D01*
X16831063Y20226564D01*
X16800258Y19992574D01*
X16800257Y19992558D01*
X10000941Y19992558D01*
X9970334Y20106784D01*
X9901178Y20226567D01*
X9891281Y20243710D01*
X9891275Y20243718D01*
X9779474Y20355519D01*
X9779466Y20355525D01*
X9642547Y20434574D01*
X9642542Y20434577D01*
X9483163Y20477282D01*
X9423503Y20513647D01*
X9392974Y20576494D01*
X9391257Y20597057D01*
X9391257Y29320500D01*
X9410942Y29387539D01*
X9463746Y29433294D01*
X9515257Y29444500D01*
X10211747Y29444500D01*
X10211757Y29444500D01*
X10276698Y29451482D01*
X10328209Y29462688D01*
X10366415Y29473646D01*
X10463328Y29530325D01*
X10516132Y29576080D01*
X10516139Y29576088D01*
X10516144Y29576092D01*
X10558305Y29620808D01*
X10558310Y29620813D01*
X10609196Y29720889D01*
X10628881Y29787928D01*
X10641257Y29874000D01*
X10641257Y30698744D01*
X10641241Y30701883D01*
X10641215Y30704413D01*
X10641167Y30707507D01*
X10616282Y31926817D01*
X10616257Y31929346D01*
X10616257Y32890467D01*
X10617967Y32896294D01*
X10616819Y32902256D01*
X10627696Y32929427D01*
X10635942Y32957506D01*
X10640530Y32961482D01*
X10642788Y32967121D01*
X10666634Y32984101D01*
X10688746Y33003261D01*
X10696020Y33005026D01*
X10699703Y33007648D01*
X10734352Y33014326D01*
X10838853Y33019303D01*
X10845454Y33019440D01*
X10863971Y33019334D01*
X10863971Y33019333D01*
X11311161Y33016753D01*
X11488454Y33015730D01*
X11488457Y33015731D01*
X11488465Y33015730D01*
X11500230Y33015889D01*
X11500255Y33015890D01*
X11500268Y33015890D01*
X11505543Y33016064D01*
X11509785Y33016202D01*
X11606545Y33035300D01*
X11672009Y33059717D01*
X11727158Y33086889D01*
X11809810Y33162873D01*
X11851682Y33218806D01*
X11851691Y33218822D01*
X11853437Y33221414D01*
X11854214Y33220891D01*
X11902768Y33265560D01*
X11971600Y33277557D01*
X12035991Y33250436D01*
X12065009Y33216332D01*
X12070698Y33206476D01*
X12080065Y33190246D01*
X12125515Y33137179D01*
X12170007Y33094743D01*
X12269789Y33043281D01*
X12336712Y33023211D01*
X12422706Y33010340D01*
X13625789Y33003399D01*
X13637580Y33003559D01*
X13647141Y33003873D01*
X13743875Y33022970D01*
X13809339Y33047387D01*
X13864488Y33074559D01*
X13947140Y33150543D01*
X13982187Y33197361D01*
X14038118Y33239230D01*
X14107810Y33244215D01*
X14169133Y33210731D01*
X14188848Y33185036D01*
X14192876Y33178057D01*
X14238326Y33124990D01*
X14282819Y33082553D01*
X14382601Y33031091D01*
X14449525Y33011021D01*
X14449534Y33011020D01*
X14449537Y33011019D01*
X14501375Y33003261D01*
X14535519Y32998151D01*
X20625893Y32963014D01*
X20692815Y32942944D01*
X20738265Y32889877D01*
X20747809Y32820662D01*
X20718418Y32757275D01*
X20712857Y32751336D01*
X20605235Y32643714D01*
X20605232Y32643710D01*
X20526183Y32506791D01*
X20526180Y32506784D01*
X20485257Y32354057D01*
X20485257Y32195944D01*
X20526180Y32043217D01*
X20526183Y32043210D01*
X20605232Y31906291D01*
X20605236Y31906286D01*
X20605237Y31906284D01*
X20717041Y31794480D01*
X20717043Y31794479D01*
X20717047Y31794476D01*
X20853966Y31715427D01*
X20853973Y31715423D01*
X21006700Y31674500D01*
X21006702Y31674500D01*
X21164812Y31674500D01*
X21164814Y31674500D01*
X21317541Y31715423D01*
X21454473Y31794480D01*
X21566277Y31906284D01*
X21645334Y32043216D01*
X21686257Y32195943D01*
X21686257Y32354057D01*
X21645334Y32506784D01*
X21645330Y32506791D01*
X21566281Y32643710D01*
X21566275Y32643718D01*
X21464002Y32745991D01*
X21430517Y32807314D01*
X21435501Y32877006D01*
X21477373Y32932939D01*
X21542837Y32957356D01*
X21552363Y32957669D01*
X23709280Y32945225D01*
X23775123Y32952016D01*
X23827349Y32963220D01*
X23866415Y32974364D01*
X23963328Y33031043D01*
X24016132Y33076798D01*
X24016139Y33076806D01*
X24016144Y33076810D01*
X24058305Y33121526D01*
X24058310Y33121531D01*
X24109196Y33221607D01*
X24128881Y33288646D01*
X24141257Y33374718D01*
X24141257Y38351338D01*
X24134364Y38415867D01*
X24123299Y38467070D01*
X24112533Y38504902D01*
X24108727Y38511450D01*
X24056120Y38601966D01*
X24056119Y38601968D01*
X24056118Y38601970D01*
X24010507Y38654899D01*
X23965890Y38697198D01*
X23965888Y38697200D01*
X23865956Y38748358D01*
X23865952Y38748359D01*
X23812997Y38764065D01*
X23798968Y38768226D01*
X23798966Y38768227D01*
X23712935Y38780837D01*
X22228053Y38784894D01*
X14803665Y38805180D01*
X14803663Y38805180D01*
X14803645Y38805180D01*
X14777826Y38804155D01*
X14777820Y38804155D01*
X14777807Y38804154D01*
X14756999Y38802444D01*
X14756912Y38802437D01*
X14756732Y38802423D01*
X14756731Y38802423D01*
X14648449Y38772756D01*
X14585593Y38742222D01*
X14533285Y38709935D01*
X14533281Y38709932D01*
X14458234Y38626443D01*
X14421869Y38566783D01*
X14421863Y38566772D01*
X14387642Y38486859D01*
X14387634Y38486836D01*
X14364875Y38401899D01*
X14352488Y38371994D01*
X14329976Y38333002D01*
X14310270Y38307321D01*
X14278436Y38275487D01*
X14252754Y38255780D01*
X14213756Y38233265D01*
X14183854Y38220879D01*
X14172092Y38217728D01*
X14140365Y38209226D01*
X14108272Y38205000D01*
X14063249Y38205000D01*
X14031156Y38209225D01*
X13987649Y38220883D01*
X13957753Y38233267D01*
X13918756Y38255782D01*
X13893083Y38275481D01*
X13861235Y38307329D01*
X13841535Y38333002D01*
X13819020Y38372000D01*
X13806637Y38401895D01*
X13783787Y38487174D01*
X13776185Y38511452D01*
X13769208Y38530860D01*
X13748182Y38566783D01*
X13712604Y38627567D01*
X13712596Y38627578D01*
X13666854Y38680366D01*
X13666834Y38680388D01*
X13622118Y38722549D01*
X13622115Y38722551D01*
X13622113Y38722553D01*
X13522037Y38773439D01*
X13522036Y38773440D01*
X13522035Y38773440D01*
X13455004Y38793123D01*
X13454998Y38793124D01*
X13368926Y38805500D01*
X9515257Y38805500D01*
X9448218Y38825185D01*
X9402463Y38877989D01*
X9391257Y38929500D01*
X9391257Y40929057D01*
X11610257Y40929057D01*
X11610257Y40770944D01*
X11651180Y40618217D01*
X11651183Y40618210D01*
X11730232Y40481291D01*
X11730236Y40481286D01*
X11730237Y40481284D01*
X11842041Y40369480D01*
X11842043Y40369479D01*
X11842047Y40369476D01*
X11945797Y40309577D01*
X11978973Y40290423D01*
X12131700Y40249500D01*
X12131702Y40249500D01*
X12289812Y40249500D01*
X12289814Y40249500D01*
X12442541Y40290423D01*
X12579473Y40369480D01*
X12691277Y40481284D01*
X12770334Y40618216D01*
X12811257Y40770943D01*
X12811257Y40929057D01*
X13735257Y40929057D01*
X13735257Y40770944D01*
X13776180Y40618217D01*
X13776183Y40618210D01*
X13855232Y40481291D01*
X13855236Y40481286D01*
X13855237Y40481284D01*
X13967041Y40369480D01*
X13967043Y40369479D01*
X13967047Y40369476D01*
X14070797Y40309577D01*
X14103973Y40290423D01*
X14256700Y40249500D01*
X14256702Y40249500D01*
X14414812Y40249500D01*
X14414814Y40249500D01*
X14567541Y40290423D01*
X14704473Y40369480D01*
X14816277Y40481284D01*
X14895334Y40618216D01*
X14936257Y40770943D01*
X14936257Y40929057D01*
X14895334Y41081784D01*
X14837889Y41181283D01*
X14816281Y41218710D01*
X14816275Y41218718D01*
X14704474Y41330519D01*
X14704466Y41330525D01*
X14567547Y41409574D01*
X14567543Y41409576D01*
X14567541Y41409577D01*
X14414814Y41450500D01*
X14256700Y41450500D01*
X14103973Y41409577D01*
X14103966Y41409574D01*
X13967047Y41330525D01*
X13967039Y41330519D01*
X13855238Y41218718D01*
X13855232Y41218710D01*
X13776183Y41081791D01*
X13776180Y41081784D01*
X13735257Y40929057D01*
X12811257Y40929057D01*
X12770334Y41081784D01*
X12712889Y41181283D01*
X12691281Y41218710D01*
X12691275Y41218718D01*
X12579474Y41330519D01*
X12579466Y41330525D01*
X12442547Y41409574D01*
X12442543Y41409576D01*
X12442541Y41409577D01*
X12289814Y41450500D01*
X12131700Y41450500D01*
X11978973Y41409577D01*
X11978966Y41409574D01*
X11842047Y41330525D01*
X11842039Y41330519D01*
X11730238Y41218718D01*
X11730232Y41218710D01*
X11651183Y41081791D01*
X11651180Y41081784D01*
X11610257Y40929057D01*
X9391257Y40929057D01*
X9391257Y43312988D01*
X21611295Y43312988D01*
X21611295Y43154874D01*
X21647913Y43018216D01*
X21652218Y43002148D01*
X21652221Y43002141D01*
X21731270Y42865222D01*
X21731274Y42865217D01*
X21731275Y42865215D01*
X21843079Y42753411D01*
X21843081Y42753410D01*
X21843085Y42753407D01*
X21952178Y42690423D01*
X21980011Y42674354D01*
X22132738Y42633431D01*
X22132740Y42633431D01*
X22290850Y42633431D01*
X22290852Y42633431D01*
X22443579Y42674354D01*
X22580511Y42753411D01*
X22692315Y42865215D01*
X22771372Y43002147D01*
X22812295Y43154874D01*
X22812295Y43312988D01*
X22807989Y43329057D01*
X23985257Y43329057D01*
X23985257Y43170943D01*
X23989563Y43154875D01*
X24026180Y43018217D01*
X24026183Y43018210D01*
X24105232Y42881291D01*
X24105236Y42881286D01*
X24105237Y42881284D01*
X24217041Y42769480D01*
X24217043Y42769479D01*
X24217047Y42769476D01*
X24353966Y42690427D01*
X24353973Y42690423D01*
X24506700Y42649500D01*
X24506702Y42649500D01*
X24664812Y42649500D01*
X24664814Y42649500D01*
X24817541Y42690423D01*
X24954473Y42769480D01*
X25066277Y42881284D01*
X25145334Y43018216D01*
X25186257Y43170943D01*
X25186257Y43329057D01*
X25145334Y43481784D01*
X25075558Y43602641D01*
X25066281Y43618710D01*
X25066275Y43618718D01*
X24954474Y43730519D01*
X24954466Y43730525D01*
X24817547Y43809574D01*
X24817543Y43809576D01*
X24817541Y43809577D01*
X24664814Y43850500D01*
X24506700Y43850500D01*
X24353973Y43809577D01*
X24353966Y43809574D01*
X24217047Y43730525D01*
X24217039Y43730519D01*
X24105238Y43618718D01*
X24105232Y43618710D01*
X24026183Y43481791D01*
X24026180Y43481784D01*
X23985257Y43329057D01*
X22807989Y43329057D01*
X22771372Y43465715D01*
X22762091Y43481791D01*
X22692319Y43602641D01*
X22692313Y43602649D01*
X22580512Y43714450D01*
X22580504Y43714456D01*
X22443585Y43793505D01*
X22443581Y43793507D01*
X22443579Y43793508D01*
X22290852Y43834431D01*
X22132738Y43834431D01*
X21980011Y43793508D01*
X21980004Y43793505D01*
X21843085Y43714456D01*
X21843077Y43714450D01*
X21731276Y43602649D01*
X21731270Y43602641D01*
X21652221Y43465722D01*
X21652218Y43465715D01*
X21611295Y43312988D01*
X9391257Y43312988D01*
X9391257Y45754057D01*
X11535257Y45754057D01*
X11535257Y45595944D01*
X11576180Y45443217D01*
X11576183Y45443210D01*
X11655232Y45306291D01*
X11655236Y45306286D01*
X11655237Y45306284D01*
X11767041Y45194480D01*
X11767043Y45194479D01*
X11767047Y45194476D01*
X11903966Y45115427D01*
X11903973Y45115423D01*
X12056700Y45074500D01*
X12056702Y45074500D01*
X12214812Y45074500D01*
X12214814Y45074500D01*
X12367541Y45115423D01*
X12504473Y45194480D01*
X12616277Y45306284D01*
X12695334Y45443216D01*
X12736257Y45595943D01*
X12736257Y45754057D01*
X12695334Y45906784D01*
X12695330Y45906791D01*
X12616281Y46043710D01*
X12616275Y46043718D01*
X12504474Y46155519D01*
X12504466Y46155525D01*
X12367547Y46234574D01*
X12367543Y46234576D01*
X12367541Y46234577D01*
X12214814Y46275500D01*
X12056700Y46275500D01*
X11903973Y46234577D01*
X11903966Y46234574D01*
X11767047Y46155525D01*
X11767039Y46155519D01*
X11655238Y46043718D01*
X11655232Y46043710D01*
X11576183Y45906791D01*
X11576180Y45906784D01*
X11535257Y45754057D01*
X9391257Y45754057D01*
X9391257Y46875990D01*
X9391257Y46876000D01*
X9384275Y46940941D01*
X9373069Y46992452D01*
X9362111Y47030658D01*
X9305432Y47127571D01*
X9259677Y47180375D01*
X9259675Y47180377D01*
X9259665Y47180388D01*
X9214949Y47222549D01*
X9214946Y47222551D01*
X9214944Y47222553D01*
X9114868Y47273439D01*
X9114867Y47273440D01*
X9114866Y47273440D01*
X9047835Y47293123D01*
X9047829Y47293124D01*
X8961757Y47305500D01*
X8464855Y47305500D01*
X8397816Y47325185D01*
X8352061Y47377989D01*
X8342117Y47447147D01*
X8371142Y47510703D01*
X8377174Y47517181D01*
X8415284Y47555291D01*
X8491277Y47631284D01*
X8570334Y47768216D01*
X8611257Y47920943D01*
X8611257Y48079057D01*
X8570334Y48231784D01*
X8535154Y48292718D01*
X8491281Y48368710D01*
X8491275Y48368718D01*
X8379474Y48480519D01*
X8379466Y48480525D01*
X8242547Y48559574D01*
X8242543Y48559576D01*
X8242541Y48559577D01*
X8089814Y48600500D01*
X7931700Y48600500D01*
X7778973Y48559577D01*
X7778966Y48559574D01*
X7642047Y48480525D01*
X7642039Y48480519D01*
X7530238Y48368718D01*
X7530232Y48368710D01*
X7451183Y48231791D01*
X7451180Y48231784D01*
X7410257Y48079057D01*
X7410257Y47920944D01*
X7451180Y47768217D01*
X7451183Y47768210D01*
X7530232Y47631291D01*
X7530238Y47631283D01*
X7644340Y47517181D01*
X7677825Y47455858D01*
X7672841Y47386166D01*
X7630969Y47330233D01*
X7565505Y47305816D01*
X7556659Y47305500D01*
X421405Y47305500D01*
X354366Y47325185D01*
X308611Y47377989D01*
X297405Y47429492D01*
X297399Y47510703D01*
X297322Y48645945D01*
X297312Y48804057D01*
X20885257Y48804057D01*
X20885257Y48645943D01*
X20921183Y48511867D01*
X20926180Y48493217D01*
X20926183Y48493210D01*
X21005232Y48356291D01*
X21005236Y48356286D01*
X21005237Y48356284D01*
X21117041Y48244480D01*
X21117043Y48244479D01*
X21117047Y48244476D01*
X21139031Y48231784D01*
X21253973Y48165423D01*
X21406700Y48124500D01*
X21406702Y48124500D01*
X21564812Y48124500D01*
X21564814Y48124500D01*
X21717541Y48165423D01*
X21854473Y48244480D01*
X21966277Y48356284D01*
X22045334Y48493216D01*
X22086257Y48645943D01*
X22086257Y48804057D01*
X22045334Y48956784D01*
X22045330Y48956791D01*
X21966281Y49093710D01*
X21966275Y49093718D01*
X21854474Y49205519D01*
X21854466Y49205525D01*
X21717547Y49284574D01*
X21717543Y49284576D01*
X21717541Y49284577D01*
X21564814Y49325500D01*
X21406700Y49325500D01*
X21253973Y49284577D01*
X21253966Y49284574D01*
X21117047Y49205525D01*
X21117039Y49205519D01*
X21005238Y49093718D01*
X21005232Y49093710D01*
X20926183Y48956791D01*
X20926180Y48956784D01*
X20885257Y48804057D01*
X297312Y48804057D01*
X297311Y48812176D01*
X297276Y49325500D01*
X297221Y50129057D01*
X11735257Y50129057D01*
X11735257Y49970944D01*
X11776180Y49818217D01*
X11776183Y49818210D01*
X11855232Y49681291D01*
X11855236Y49681286D01*
X11855237Y49681284D01*
X11967041Y49569480D01*
X11967043Y49569479D01*
X11967047Y49569476D01*
X12103966Y49490427D01*
X12103973Y49490423D01*
X12256700Y49449500D01*
X12256702Y49449500D01*
X12414812Y49449500D01*
X12414814Y49449500D01*
X12567541Y49490423D01*
X12704473Y49569480D01*
X12816277Y49681284D01*
X12895334Y49818216D01*
X12936257Y49970943D01*
X12936257Y50129057D01*
X12895334Y50281784D01*
X12841805Y50374500D01*
X12816281Y50418710D01*
X12816275Y50418718D01*
X12704474Y50530519D01*
X12704466Y50530525D01*
X12567547Y50609574D01*
X12567543Y50609576D01*
X12567541Y50609577D01*
X12414814Y50650500D01*
X12256700Y50650500D01*
X12103973Y50609577D01*
X12103966Y50609574D01*
X11967047Y50530525D01*
X11967039Y50530519D01*
X11855238Y50418718D01*
X11855232Y50418710D01*
X11776183Y50281791D01*
X11776180Y50281784D01*
X11735257Y50129057D01*
X297221Y50129057D01*
X297158Y51054057D01*
X20860257Y51054057D01*
X20860257Y50895944D01*
X20901180Y50743217D01*
X20901183Y50743210D01*
X20980232Y50606291D01*
X20980236Y50606286D01*
X20980237Y50606284D01*
X21092041Y50494480D01*
X21092043Y50494479D01*
X21092047Y50494476D01*
X21223266Y50418718D01*
X21228973Y50415423D01*
X21381700Y50374500D01*
X21381702Y50374500D01*
X21539812Y50374500D01*
X21539814Y50374500D01*
X21692541Y50415423D01*
X21829473Y50494480D01*
X21941277Y50606284D01*
X22020334Y50743216D01*
X22061257Y50895943D01*
X22061257Y51054057D01*
X22020334Y51206784D01*
X22020330Y51206791D01*
X21941281Y51343710D01*
X21941275Y51343718D01*
X21829474Y51455519D01*
X21829466Y51455525D01*
X21692547Y51534574D01*
X21692543Y51534576D01*
X21692541Y51534577D01*
X21539814Y51575500D01*
X21381700Y51575500D01*
X21228973Y51534577D01*
X21228966Y51534574D01*
X21092047Y51455525D01*
X21092039Y51455519D01*
X20980238Y51343718D01*
X20980232Y51343710D01*
X20901183Y51206791D01*
X20901180Y51206784D01*
X20860257Y51054057D01*
X297158Y51054057D01*
X297042Y52753938D01*
X297418Y52763581D01*
X315354Y52993498D01*
X317949Y53010836D01*
X367296Y53232180D01*
X372312Y53248980D01*
X452380Y53461142D01*
X459709Y53477058D01*
X568914Y53675834D01*
X578410Y53690547D01*
X714552Y53871924D01*
X726023Y53885146D01*
X886400Y54045524D01*
X899619Y54056993D01*
X1081002Y54193141D01*
X1095723Y54202642D01*
X1294482Y54311839D01*
X1310396Y54319169D01*
X1522569Y54399243D01*
X1539357Y54404256D01*
X1760711Y54453607D01*
X1778047Y54456201D01*
X2007801Y54474125D01*
X2017445Y54474500D01*
X26415387Y54474500D01*
X26482426Y54454815D01*
G37*
%TD.AperFunction*%
%TD*%
%TA.AperFunction,Conductor*%
%TO.N,/USB_VIN*%
G36*
X9028796Y46980315D02*
G01*
X9074551Y46927511D01*
X9085757Y46876000D01*
X9085757Y34525583D01*
X9066072Y34458544D01*
X9060133Y34450097D01*
X9055234Y34443713D01*
X8976183Y34306791D01*
X8976180Y34306784D01*
X8935257Y34154057D01*
X8935257Y33995943D01*
X8957035Y33914669D01*
X8976180Y33843217D01*
X8976183Y33843210D01*
X9055232Y33706290D01*
X9060130Y33699908D01*
X9085327Y33634740D01*
X9085757Y33624418D01*
X9085757Y20450215D01*
X9066072Y20383176D01*
X9046814Y20362241D01*
X9047788Y20361267D01*
X8930235Y20243714D01*
X8930232Y20243710D01*
X8851183Y20106791D01*
X8851180Y20106784D01*
X8810257Y19954057D01*
X8810257Y19795943D01*
X8820815Y19756542D01*
X8851180Y19643217D01*
X8851183Y19643210D01*
X8930232Y19506291D01*
X8930238Y19506283D01*
X9047788Y19388733D01*
X9045672Y19386618D01*
X9078445Y19341738D01*
X9085757Y19299786D01*
X9085757Y6500000D01*
X16858047Y6477730D01*
X16925027Y6457855D01*
X16970630Y6404920D01*
X16972249Y6401186D01*
X16982472Y6376505D01*
X16982477Y6376496D01*
X17007386Y6333353D01*
X17100484Y6172103D01*
X17100486Y6172100D01*
X17100487Y6172099D01*
X17244163Y5984856D01*
X17244169Y5984849D01*
X17411052Y5817966D01*
X17411058Y5817961D01*
X17598307Y5674280D01*
X17699322Y5615959D01*
X17802700Y5556273D01*
X17802705Y5556271D01*
X17802708Y5556269D01*
X18020764Y5465947D01*
X18248743Y5404860D01*
X18482746Y5374053D01*
X18482753Y5374053D01*
X18718761Y5374053D01*
X18718768Y5374053D01*
X18952771Y5404860D01*
X19180750Y5465947D01*
X19398806Y5556269D01*
X19603207Y5674280D01*
X19790456Y5817961D01*
X19957349Y5984854D01*
X20101030Y6172103D01*
X20219041Y6376504D01*
X20228133Y6398453D01*
X20271974Y6452856D01*
X20338269Y6474921D01*
X20342694Y6475000D01*
X26299896Y6475000D01*
X26366935Y6455315D01*
X26412690Y6402511D01*
X26422634Y6333353D01*
X26393609Y6269797D01*
X26338215Y6233070D01*
X26238312Y6200609D01*
X26238309Y6200608D01*
X26083968Y6121968D01*
X26004013Y6063877D01*
X25943829Y6020150D01*
X25943827Y6020148D01*
X25943826Y6020148D01*
X25821345Y5897667D01*
X25821345Y5897666D01*
X25821343Y5897664D01*
X25808843Y5880459D01*
X25719525Y5757525D01*
X25640885Y5603184D01*
X25587354Y5438434D01*
X25576077Y5367231D01*
X25560257Y5267347D01*
X25560257Y5094125D01*
X25587355Y4923035D01*
X25640884Y4758291D01*
X25719525Y4603948D01*
X25821343Y4463808D01*
X25943829Y4341322D01*
X26083969Y4239504D01*
X26238312Y4160863D01*
X26403056Y4107334D01*
X26574146Y4080236D01*
X26574147Y4080236D01*
X26747367Y4080236D01*
X26747368Y4080236D01*
X26918458Y4107334D01*
X27083202Y4160863D01*
X27237545Y4239504D01*
X27377685Y4341322D01*
X27500171Y4463808D01*
X27601989Y4603948D01*
X27680630Y4758291D01*
X27734159Y4923035D01*
X27761257Y5094125D01*
X27761257Y5214497D01*
X53884470Y5214497D01*
X53884470Y5056383D01*
X53920201Y4923035D01*
X53925393Y4903657D01*
X53925396Y4903650D01*
X54004445Y4766731D01*
X54004449Y4766726D01*
X54004450Y4766724D01*
X54116254Y4654920D01*
X54116256Y4654919D01*
X54116260Y4654916D01*
X54204541Y4603948D01*
X54253186Y4575863D01*
X54405913Y4534940D01*
X54405915Y4534940D01*
X54564025Y4534940D01*
X54564027Y4534940D01*
X54716754Y4575863D01*
X54853686Y4654920D01*
X54965490Y4766724D01*
X55044547Y4903656D01*
X55085470Y5056383D01*
X55085470Y5214497D01*
X55044547Y5367224D01*
X55022818Y5404860D01*
X54965494Y5504150D01*
X54965488Y5504158D01*
X54853687Y5615959D01*
X54853679Y5615965D01*
X54716760Y5695014D01*
X54716756Y5695016D01*
X54716754Y5695017D01*
X54564027Y5735940D01*
X54405913Y5735940D01*
X54253186Y5695017D01*
X54253179Y5695014D01*
X54116260Y5615965D01*
X54116252Y5615959D01*
X54004451Y5504158D01*
X54004445Y5504150D01*
X53925396Y5367231D01*
X53925393Y5367224D01*
X53884470Y5214497D01*
X27761257Y5214497D01*
X27761257Y5267347D01*
X27734159Y5438437D01*
X27680630Y5603181D01*
X27601989Y5757524D01*
X27500171Y5897664D01*
X27377685Y6020150D01*
X27237545Y6121968D01*
X27083202Y6200609D01*
X26983298Y6233070D01*
X26925624Y6272507D01*
X26898426Y6336865D01*
X26910341Y6405712D01*
X26957585Y6457187D01*
X27021618Y6475000D01*
X55835757Y6475000D01*
X55835757Y6812305D01*
X58915257Y6812305D01*
X58915257Y6044762D01*
X58947939Y5880459D01*
X58947941Y5880451D01*
X59012052Y5725673D01*
X59105130Y5586371D01*
X59223594Y5467907D01*
X59267704Y5438434D01*
X59362894Y5374830D01*
X59362895Y5374830D01*
X59362896Y5374829D01*
X59381239Y5367231D01*
X59517675Y5310717D01*
X59681985Y5278034D01*
X59681989Y5278033D01*
X59681990Y5278033D01*
X59849525Y5278033D01*
X59849526Y5278034D01*
X60013839Y5310717D01*
X60168620Y5374830D01*
X60307919Y5467907D01*
X60426383Y5586371D01*
X60519460Y5725670D01*
X60583573Y5880451D01*
X60616257Y6044766D01*
X60616257Y6812300D01*
X60583573Y6976615D01*
X60519460Y7131396D01*
X60483021Y7185931D01*
X60426383Y7270696D01*
X60307919Y7389160D01*
X60168617Y7482238D01*
X60013839Y7546349D01*
X60013831Y7546351D01*
X59849528Y7579033D01*
X59849524Y7579033D01*
X59681990Y7579033D01*
X59681985Y7579033D01*
X59517682Y7546351D01*
X59517674Y7546349D01*
X59362896Y7482238D01*
X59223594Y7389160D01*
X59105130Y7270696D01*
X59012052Y7131394D01*
X58947941Y6976616D01*
X58947939Y6976608D01*
X58915257Y6812305D01*
X55835757Y6812305D01*
X55835757Y8329057D01*
X62735257Y8329057D01*
X62735257Y8170943D01*
X62755841Y8094125D01*
X62776180Y8018217D01*
X62776183Y8018210D01*
X62855232Y7881291D01*
X62855236Y7881286D01*
X62855237Y7881284D01*
X62967041Y7769480D01*
X62967043Y7769479D01*
X62967047Y7769476D01*
X63034522Y7730520D01*
X63103973Y7690423D01*
X63256700Y7649500D01*
X63256702Y7649500D01*
X63414812Y7649500D01*
X63414814Y7649500D01*
X63567541Y7690423D01*
X63704473Y7769480D01*
X63816277Y7881284D01*
X63853370Y7945533D01*
X63903936Y7993747D01*
X63972543Y8006971D01*
X64037408Y7981003D01*
X64068142Y7945534D01*
X64091039Y7905875D01*
X64099960Y7890423D01*
X64105237Y7881284D01*
X64217041Y7769480D01*
X64217043Y7769479D01*
X64217047Y7769476D01*
X64284522Y7730520D01*
X64353973Y7690423D01*
X64506700Y7649500D01*
X64506702Y7649500D01*
X64664812Y7649500D01*
X64664814Y7649500D01*
X64817541Y7690423D01*
X64954473Y7769480D01*
X65066277Y7881284D01*
X65145334Y8018216D01*
X65186257Y8170943D01*
X65186257Y8329057D01*
X65145334Y8481784D01*
X65103370Y8554469D01*
X65066281Y8618710D01*
X65066275Y8618718D01*
X64954474Y8730519D01*
X64954466Y8730525D01*
X64817547Y8809574D01*
X64817543Y8809576D01*
X64817541Y8809577D01*
X64664814Y8850500D01*
X64506700Y8850500D01*
X64353973Y8809577D01*
X64353966Y8809574D01*
X64217047Y8730525D01*
X64217039Y8730519D01*
X64105238Y8618718D01*
X64105234Y8618713D01*
X64068144Y8554469D01*
X64017578Y8506254D01*
X63948971Y8493030D01*
X63884106Y8518998D01*
X63853370Y8554469D01*
X63816279Y8618713D01*
X63816275Y8618718D01*
X63704474Y8730519D01*
X63704466Y8730525D01*
X63567547Y8809574D01*
X63567543Y8809576D01*
X63567541Y8809577D01*
X63414814Y8850500D01*
X63256700Y8850500D01*
X63103973Y8809577D01*
X63103966Y8809574D01*
X62967047Y8730525D01*
X62967039Y8730519D01*
X62855238Y8618718D01*
X62855232Y8618710D01*
X62776183Y8481791D01*
X62776180Y8481784D01*
X62735257Y8329057D01*
X55835757Y8329057D01*
X55835757Y13126000D01*
X55855442Y13193039D01*
X55908246Y13238794D01*
X55959757Y13250000D01*
X60260848Y13250000D01*
X60519165Y13250865D01*
X61762499Y13255023D01*
X61829600Y13235564D01*
X61875531Y13182914D01*
X61885706Y13113789D01*
X61882686Y13098935D01*
X61878488Y13083267D01*
X61878488Y12925154D01*
X61919411Y12772427D01*
X61919414Y12772420D01*
X61998463Y12635501D01*
X61998467Y12635496D01*
X61998468Y12635494D01*
X62110272Y12523690D01*
X62110274Y12523689D01*
X62110278Y12523686D01*
X62247197Y12444637D01*
X62247204Y12444633D01*
X62399931Y12403710D01*
X62399933Y12403710D01*
X62558043Y12403710D01*
X62558045Y12403710D01*
X62710772Y12444633D01*
X62847704Y12523690D01*
X62959508Y12635494D01*
X63038565Y12772426D01*
X63079488Y12925153D01*
X63079488Y13083267D01*
X63074008Y13103719D01*
X63075671Y13173566D01*
X63114833Y13231429D01*
X63179062Y13258933D01*
X63193351Y13259809D01*
X64369469Y13263742D01*
X64436573Y13244282D01*
X64482504Y13191631D01*
X64492679Y13122507D01*
X64489659Y13107653D01*
X64483125Y13083267D01*
X64482686Y13081628D01*
X64482686Y12923514D01*
X64523172Y12772420D01*
X64523609Y12770788D01*
X64523612Y12770781D01*
X64602661Y12633862D01*
X64602665Y12633857D01*
X64602666Y12633855D01*
X64714470Y12522051D01*
X64714472Y12522050D01*
X64714476Y12522047D01*
X64848556Y12444637D01*
X64851402Y12442994D01*
X65004129Y12402071D01*
X65004131Y12402071D01*
X65162241Y12402071D01*
X65162243Y12402071D01*
X65314970Y12442994D01*
X65451902Y12522051D01*
X65563706Y12633855D01*
X65642763Y12770787D01*
X65683686Y12923514D01*
X65683686Y13081628D01*
X65675436Y13112418D01*
X65677098Y13182266D01*
X65716259Y13240129D01*
X65780488Y13267634D01*
X65794768Y13268509D01*
X67610646Y13274582D01*
X67677750Y13255122D01*
X67723681Y13202471D01*
X67735058Y13149890D01*
X67702059Y7243159D01*
X67682000Y7176231D01*
X67681163Y7174962D01*
X67652054Y7131398D01*
X67587941Y6976616D01*
X67587939Y6976608D01*
X67555257Y6812305D01*
X67555257Y6044762D01*
X67587939Y5880459D01*
X67587941Y5880451D01*
X67652052Y5725674D01*
X67652057Y5725664D01*
X67672128Y5695626D01*
X67693006Y5628948D01*
X67693024Y5626042D01*
X67680651Y3411120D01*
X67660592Y3344192D01*
X67659756Y3342924D01*
X67652054Y3331398D01*
X67587941Y3176616D01*
X67587939Y3176608D01*
X67555257Y3012305D01*
X67555257Y2244762D01*
X67587939Y2080459D01*
X67587941Y2080451D01*
X67652054Y1925669D01*
X67654924Y1920300D01*
X67653463Y1919520D01*
X67671954Y1860438D01*
X67671971Y1857550D01*
X67668870Y1302281D01*
X67664115Y450945D01*
X67663963Y423807D01*
X67643904Y356879D01*
X67590846Y311420D01*
X67539965Y300500D01*
X2057590Y300500D01*
X2047584Y300501D01*
X2047573Y300504D01*
X2010510Y300501D01*
X2004401Y300501D01*
X2004399Y300502D01*
X1995565Y300816D01*
X1766954Y317151D01*
X1749444Y319668D01*
X1658297Y339490D01*
X1529826Y367430D01*
X1512850Y372414D01*
X1302271Y450945D01*
X1286175Y458295D01*
X1088914Y566000D01*
X1074030Y575565D01*
X894106Y710248D01*
X880734Y721835D01*
X721816Y880749D01*
X710229Y894120D01*
X674481Y941873D01*
X575539Y1074044D01*
X565974Y1088928D01*
X513009Y1185929D01*
X56685256Y1185929D01*
X56710254Y1060262D01*
X56710256Y1060256D01*
X56759290Y941876D01*
X56759295Y941867D01*
X56830480Y835332D01*
X56830483Y835328D01*
X56921084Y744727D01*
X56921088Y744724D01*
X57027623Y673539D01*
X57027629Y673536D01*
X57027630Y673535D01*
X57146013Y624499D01*
X57146017Y624499D01*
X57146018Y624498D01*
X57271685Y599500D01*
X57271688Y599500D01*
X57399828Y599500D01*
X57484372Y616318D01*
X57525501Y624499D01*
X57643884Y673535D01*
X57750426Y744724D01*
X57841033Y835331D01*
X57912222Y941873D01*
X57961258Y1060256D01*
X57986257Y1185931D01*
X57986257Y1314069D01*
X57986257Y1314072D01*
X57961259Y1439739D01*
X57961258Y1439740D01*
X57961258Y1439744D01*
X57912222Y1558127D01*
X57912221Y1558128D01*
X57912218Y1558134D01*
X57841033Y1664669D01*
X57841030Y1664673D01*
X57750429Y1755274D01*
X57750425Y1755277D01*
X57643890Y1826462D01*
X57643881Y1826467D01*
X57525501Y1875501D01*
X57525495Y1875503D01*
X57399828Y1900500D01*
X57399826Y1900500D01*
X57271688Y1900500D01*
X57271686Y1900500D01*
X57146018Y1875503D01*
X57146012Y1875501D01*
X57027632Y1826467D01*
X57027623Y1826462D01*
X56921088Y1755277D01*
X56921084Y1755274D01*
X56830483Y1664673D01*
X56830480Y1664669D01*
X56759295Y1558134D01*
X56759290Y1558125D01*
X56710256Y1439745D01*
X56710254Y1439739D01*
X56685257Y1314072D01*
X56685257Y1314069D01*
X56685257Y1185931D01*
X56685257Y1185929D01*
X56685256Y1185929D01*
X513009Y1185929D01*
X458266Y1286186D01*
X450916Y1302281D01*
X433305Y1349500D01*
X372378Y1512864D01*
X367395Y1529839D01*
X361243Y1558125D01*
X319628Y1749458D01*
X317112Y1766965D01*
X314017Y1810262D01*
X305035Y1935929D01*
X37685256Y1935929D01*
X37710254Y1810262D01*
X37710256Y1810256D01*
X37759290Y1691876D01*
X37759295Y1691867D01*
X37830480Y1585332D01*
X37830483Y1585328D01*
X37921084Y1494727D01*
X37921088Y1494724D01*
X38027623Y1423539D01*
X38027629Y1423536D01*
X38027630Y1423535D01*
X38146013Y1374499D01*
X38146017Y1374499D01*
X38146018Y1374498D01*
X38271685Y1349500D01*
X38271688Y1349500D01*
X38399828Y1349500D01*
X38484372Y1366318D01*
X38525501Y1374499D01*
X38643884Y1423535D01*
X38750426Y1494724D01*
X38841033Y1585331D01*
X38912222Y1691873D01*
X38961258Y1810256D01*
X38971323Y1860856D01*
X38986257Y1935929D01*
X38986257Y2064072D01*
X38961259Y2189739D01*
X38961258Y2189740D01*
X38961258Y2189744D01*
X38912222Y2308127D01*
X38912221Y2308128D01*
X38912218Y2308134D01*
X38841033Y2414669D01*
X38841030Y2414673D01*
X38750429Y2505274D01*
X38750425Y2505277D01*
X38643890Y2576462D01*
X38643881Y2576467D01*
X38525501Y2625501D01*
X38525495Y2625503D01*
X38399828Y2650500D01*
X38399826Y2650500D01*
X38271688Y2650500D01*
X38271686Y2650500D01*
X38146018Y2625503D01*
X38146012Y2625501D01*
X38027632Y2576467D01*
X38027623Y2576462D01*
X37921088Y2505277D01*
X37921084Y2505274D01*
X37830483Y2414673D01*
X37830480Y2414669D01*
X37759295Y2308134D01*
X37759290Y2308125D01*
X37710256Y2189745D01*
X37710254Y2189739D01*
X37685257Y2064072D01*
X37685257Y2064069D01*
X37685257Y1935931D01*
X37685257Y1935929D01*
X37685256Y1935929D01*
X305035Y1935929D01*
X300815Y1994962D01*
X300500Y2003805D01*
X300503Y2047580D01*
X300502Y2047582D01*
X300503Y2057015D01*
X300496Y2057115D01*
X300375Y3830267D01*
X27850257Y3830267D01*
X27850257Y3631206D01*
X27889088Y3435992D01*
X27889090Y3435984D01*
X27965262Y3252089D01*
X27965267Y3252079D01*
X28075850Y3086581D01*
X28075853Y3086577D01*
X28216597Y2945833D01*
X28216601Y2945830D01*
X28382099Y2835247D01*
X28382103Y2835245D01*
X28382106Y2835243D01*
X28566005Y2759069D01*
X28761226Y2720237D01*
X28761229Y2720236D01*
X28761231Y2720236D01*
X28960285Y2720236D01*
X28960286Y2720237D01*
X29155509Y2759069D01*
X29339408Y2835243D01*
X29504913Y2945830D01*
X29571388Y3012305D01*
X58915257Y3012305D01*
X58915257Y2244762D01*
X58947939Y2080459D01*
X58947941Y2080451D01*
X59012052Y1925673D01*
X59105130Y1786371D01*
X59223594Y1667907D01*
X59316251Y1605996D01*
X59362894Y1574830D01*
X59517675Y1510717D01*
X59681985Y1478034D01*
X59681989Y1478033D01*
X59681990Y1478033D01*
X59849525Y1478033D01*
X59849526Y1478034D01*
X60013839Y1510717D01*
X60168620Y1574830D01*
X60307919Y1667907D01*
X60426383Y1786371D01*
X60519460Y1925670D01*
X60583573Y2080451D01*
X60616257Y2244766D01*
X60616257Y3012300D01*
X60583573Y3176615D01*
X60519460Y3331396D01*
X60466190Y3411120D01*
X60426383Y3470696D01*
X60307919Y3589160D01*
X60168617Y3682238D01*
X60013839Y3746349D01*
X60013831Y3746351D01*
X59849528Y3779033D01*
X59849524Y3779033D01*
X59681990Y3779033D01*
X59681985Y3779033D01*
X59517682Y3746351D01*
X59517674Y3746349D01*
X59362896Y3682238D01*
X59223594Y3589160D01*
X59105130Y3470696D01*
X59012052Y3331394D01*
X58947941Y3176616D01*
X58947939Y3176608D01*
X58915257Y3012305D01*
X29571388Y3012305D01*
X29645663Y3086580D01*
X29756250Y3252085D01*
X29832424Y3435984D01*
X29871257Y3631210D01*
X29871257Y3830262D01*
X29871257Y3830265D01*
X29871256Y3830267D01*
X29832425Y4025481D01*
X29832424Y4025488D01*
X29756250Y4209387D01*
X29756248Y4209390D01*
X29756246Y4209394D01*
X29645663Y4374892D01*
X29645660Y4374896D01*
X29504916Y4515640D01*
X29504912Y4515643D01*
X29339414Y4626226D01*
X29339404Y4626231D01*
X29155509Y4702403D01*
X29155501Y4702405D01*
X28960286Y4741236D01*
X28960283Y4741236D01*
X28761231Y4741236D01*
X28761228Y4741236D01*
X28566012Y4702405D01*
X28566004Y4702403D01*
X28382109Y4626231D01*
X28382099Y4626226D01*
X28216601Y4515643D01*
X28216597Y4515640D01*
X28075853Y4374896D01*
X28075850Y4374892D01*
X27965267Y4209394D01*
X27965262Y4209384D01*
X27889090Y4025489D01*
X27889088Y4025481D01*
X27850257Y3830267D01*
X300375Y3830267D01*
X300139Y7292558D01*
X570257Y7292558D01*
X570257Y7056549D01*
X570258Y7056533D01*
X599379Y6835331D01*
X601064Y6822539D01*
X640990Y6673535D01*
X662151Y6594560D01*
X752471Y6376508D01*
X752476Y6376497D01*
X777386Y6333353D01*
X870484Y6172103D01*
X870486Y6172100D01*
X870487Y6172099D01*
X1014163Y5984856D01*
X1014169Y5984849D01*
X1181052Y5817966D01*
X1181058Y5817961D01*
X1368307Y5674280D01*
X1469322Y5615959D01*
X1572700Y5556273D01*
X1572705Y5556271D01*
X1572708Y5556269D01*
X1790764Y5465947D01*
X2018743Y5404860D01*
X2252746Y5374053D01*
X2252753Y5374053D01*
X2488761Y5374053D01*
X2488768Y5374053D01*
X2722771Y5404860D01*
X2950750Y5465947D01*
X3168806Y5556269D01*
X3373207Y5674280D01*
X3560456Y5817961D01*
X3727349Y5984854D01*
X3871030Y6172103D01*
X3989041Y6376504D01*
X4079363Y6594560D01*
X4140450Y6822539D01*
X4171257Y7056542D01*
X4171257Y7292564D01*
X4140450Y7526567D01*
X4079363Y7754546D01*
X3989041Y7972602D01*
X3989039Y7972605D01*
X3989037Y7972610D01*
X3926293Y8081284D01*
X3871030Y8177003D01*
X3727349Y8364252D01*
X3727344Y8364258D01*
X3560461Y8531141D01*
X3560454Y8531147D01*
X3373211Y8674823D01*
X3373210Y8674824D01*
X3373207Y8674826D01*
X3276734Y8730525D01*
X3168813Y8792834D01*
X3168802Y8792839D01*
X2950750Y8883159D01*
X2722767Y8944247D01*
X2488777Y8975052D01*
X2488774Y8975053D01*
X2488768Y8975053D01*
X2252746Y8975053D01*
X2252740Y8975053D01*
X2252736Y8975052D01*
X2018746Y8944247D01*
X1790763Y8883159D01*
X1572711Y8792839D01*
X1572700Y8792834D01*
X1368302Y8674823D01*
X1181059Y8531147D01*
X1181052Y8531141D01*
X1014169Y8364258D01*
X1014163Y8364251D01*
X870487Y8177008D01*
X752476Y7972610D01*
X752471Y7972599D01*
X662151Y7754547D01*
X601063Y7526564D01*
X570258Y7292574D01*
X570257Y7292558D01*
X300139Y7292558D01*
X299707Y13642558D01*
X570257Y13642558D01*
X570257Y13406549D01*
X570258Y13406533D01*
X601063Y13172543D01*
X662151Y12944560D01*
X752471Y12726508D01*
X752476Y12726497D01*
X823231Y12603948D01*
X870484Y12522103D01*
X870486Y12522100D01*
X870487Y12522099D01*
X1014163Y12334856D01*
X1014169Y12334849D01*
X1181052Y12167966D01*
X1181058Y12167961D01*
X1368307Y12024280D01*
X1499675Y11948435D01*
X1572700Y11906273D01*
X1572705Y11906271D01*
X1572708Y11906269D01*
X1790764Y11815947D01*
X2018743Y11754860D01*
X2252746Y11724053D01*
X2252753Y11724053D01*
X2488761Y11724053D01*
X2488768Y11724053D01*
X2722771Y11754860D01*
X2950750Y11815947D01*
X3168806Y11906269D01*
X3373207Y12024280D01*
X3560456Y12167961D01*
X3727349Y12334854D01*
X3871030Y12522103D01*
X3989041Y12726504D01*
X4079363Y12944560D01*
X4140450Y13172539D01*
X4171257Y13406542D01*
X4171257Y13642564D01*
X4140450Y13876567D01*
X4079363Y14104546D01*
X3989041Y14322602D01*
X3989039Y14322605D01*
X3989037Y14322610D01*
X3930767Y14423535D01*
X3871030Y14527003D01*
X3727349Y14714252D01*
X3727344Y14714258D01*
X3560461Y14881141D01*
X3560454Y14881147D01*
X3373211Y15024823D01*
X3373210Y15024824D01*
X3373207Y15024826D01*
X3291714Y15071876D01*
X3168813Y15142834D01*
X3168802Y15142839D01*
X2950750Y15233159D01*
X2722767Y15294247D01*
X2488777Y15325052D01*
X2488774Y15325053D01*
X2488768Y15325053D01*
X2252746Y15325053D01*
X2252740Y15325053D01*
X2252736Y15325052D01*
X2018746Y15294247D01*
X1790763Y15233159D01*
X1572711Y15142839D01*
X1572700Y15142834D01*
X1368302Y15024823D01*
X1181059Y14881147D01*
X1181052Y14881141D01*
X1014169Y14714258D01*
X1014163Y14714251D01*
X870487Y14527008D01*
X752476Y14322610D01*
X752471Y14322599D01*
X662151Y14104547D01*
X601063Y13876564D01*
X570258Y13642574D01*
X570257Y13642558D01*
X299707Y13642558D01*
X299681Y14020150D01*
X299593Y15325053D01*
X299275Y19992558D01*
X570257Y19992558D01*
X570257Y19756549D01*
X570258Y19756533D01*
X601063Y19522543D01*
X662151Y19294560D01*
X752471Y19076508D01*
X752476Y19076497D01*
X823434Y18953596D01*
X870484Y18872103D01*
X870486Y18872100D01*
X870487Y18872099D01*
X1014163Y18684856D01*
X1014169Y18684849D01*
X1181052Y18517966D01*
X1181058Y18517961D01*
X1368307Y18374280D01*
X1499675Y18298435D01*
X1572700Y18256273D01*
X1572705Y18256271D01*
X1572708Y18256269D01*
X1790764Y18165947D01*
X2018743Y18104860D01*
X2252746Y18074053D01*
X2252753Y18074053D01*
X2488761Y18074053D01*
X2488768Y18074053D01*
X2722771Y18104860D01*
X2950750Y18165947D01*
X3168806Y18256269D01*
X3373207Y18374280D01*
X3560456Y18517961D01*
X3727349Y18684854D01*
X3871030Y18872103D01*
X3989041Y19076504D01*
X4079363Y19294560D01*
X4140450Y19522539D01*
X4171257Y19756542D01*
X4171257Y19992564D01*
X4140450Y20226567D01*
X4079363Y20454546D01*
X3989041Y20672602D01*
X3989039Y20672605D01*
X3989037Y20672610D01*
X3913145Y20804057D01*
X3871030Y20877003D01*
X3727349Y21064252D01*
X3727344Y21064258D01*
X3560461Y21231141D01*
X3560454Y21231147D01*
X3373211Y21374823D01*
X3373210Y21374824D01*
X3373207Y21374826D01*
X3259590Y21440423D01*
X3168813Y21492834D01*
X3168802Y21492839D01*
X2950750Y21583159D01*
X2722767Y21644247D01*
X2488777Y21675052D01*
X2488774Y21675053D01*
X2488768Y21675053D01*
X2252746Y21675053D01*
X2252740Y21675053D01*
X2252736Y21675052D01*
X2018746Y21644247D01*
X1790763Y21583159D01*
X1572711Y21492839D01*
X1572700Y21492834D01*
X1368302Y21374823D01*
X1181059Y21231147D01*
X1181052Y21231141D01*
X1014169Y21064258D01*
X1014163Y21064251D01*
X870487Y20877008D01*
X752476Y20672610D01*
X752471Y20672599D01*
X662151Y20454547D01*
X601063Y20226564D01*
X570258Y19992574D01*
X570257Y19992558D01*
X299275Y19992558D01*
X297950Y39430988D01*
X7010257Y39430988D01*
X7010257Y39272874D01*
X7011856Y39266909D01*
X7051180Y39120148D01*
X7051183Y39120141D01*
X7130232Y38983222D01*
X7130236Y38983217D01*
X7130237Y38983215D01*
X7242041Y38871411D01*
X7242043Y38871410D01*
X7242047Y38871407D01*
X7378966Y38792358D01*
X7378973Y38792354D01*
X7531700Y38751431D01*
X7531702Y38751431D01*
X7689812Y38751431D01*
X7689814Y38751431D01*
X7842541Y38792354D01*
X7979473Y38871411D01*
X8091277Y38983215D01*
X8170334Y39120147D01*
X8211257Y39272874D01*
X8211257Y39430988D01*
X8170334Y39583715D01*
X8121458Y39668372D01*
X8091281Y39720641D01*
X8091275Y39720649D01*
X7979474Y39832450D01*
X7979466Y39832456D01*
X7842547Y39911505D01*
X7842543Y39911507D01*
X7842541Y39911508D01*
X7689814Y39952431D01*
X7531700Y39952431D01*
X7378973Y39911508D01*
X7378966Y39911505D01*
X7242047Y39832456D01*
X7242039Y39832450D01*
X7130238Y39720649D01*
X7130232Y39720641D01*
X7051183Y39583722D01*
X7051180Y39583715D01*
X7010257Y39430988D01*
X297950Y39430988D01*
X297804Y41579057D01*
X4435257Y41579057D01*
X4435257Y41420943D01*
X4475842Y41269480D01*
X4476180Y41268217D01*
X4476183Y41268210D01*
X4555232Y41131291D01*
X4555236Y41131286D01*
X4555237Y41131284D01*
X4667041Y41019480D01*
X4667043Y41019479D01*
X4667047Y41019476D01*
X4803966Y40940427D01*
X4803973Y40940423D01*
X4956700Y40899500D01*
X4956702Y40899500D01*
X5114812Y40899500D01*
X5114814Y40899500D01*
X5267541Y40940423D01*
X5404473Y41019480D01*
X5516277Y41131284D01*
X5595334Y41268216D01*
X5636257Y41420943D01*
X5636257Y41579057D01*
X5595334Y41731784D01*
X5581771Y41755276D01*
X5516281Y41868710D01*
X5516275Y41868718D01*
X5404474Y41980519D01*
X5404466Y41980525D01*
X5267547Y42059574D01*
X5267543Y42059576D01*
X5267541Y42059577D01*
X5114814Y42100500D01*
X4956700Y42100500D01*
X4803973Y42059577D01*
X4803966Y42059574D01*
X4667047Y41980525D01*
X4667039Y41980519D01*
X4555238Y41868718D01*
X4555232Y41868710D01*
X4476183Y41731791D01*
X4476180Y41731784D01*
X4435257Y41579057D01*
X297804Y41579057D01*
X297637Y44029057D01*
X5260257Y44029057D01*
X5260257Y43870943D01*
X5299229Y43725500D01*
X5301180Y43718217D01*
X5301183Y43718210D01*
X5380232Y43581291D01*
X5380236Y43581286D01*
X5380237Y43581284D01*
X5492041Y43469480D01*
X5492043Y43469479D01*
X5492047Y43469476D01*
X5628966Y43390427D01*
X5628973Y43390423D01*
X5781700Y43349500D01*
X5781702Y43349500D01*
X5939812Y43349500D01*
X5939814Y43349500D01*
X6092541Y43390423D01*
X6229473Y43469480D01*
X6341277Y43581284D01*
X6420334Y43718216D01*
X6461257Y43870943D01*
X6461257Y44029057D01*
X6420334Y44181784D01*
X6370433Y44268216D01*
X6341281Y44318710D01*
X6341275Y44318718D01*
X6229474Y44430519D01*
X6229466Y44430525D01*
X6092547Y44509574D01*
X6092543Y44509576D01*
X6092541Y44509577D01*
X5939814Y44550500D01*
X5781700Y44550500D01*
X5628973Y44509577D01*
X5628966Y44509574D01*
X5492047Y44430525D01*
X5492039Y44430519D01*
X5380238Y44318718D01*
X5380232Y44318710D01*
X5301183Y44181791D01*
X5301180Y44181784D01*
X5260257Y44029057D01*
X297637Y44029057D01*
X297443Y46875994D01*
X317123Y46943032D01*
X369924Y46988791D01*
X421443Y47000000D01*
X8961757Y47000000D01*
X9028796Y46980315D01*
G37*
%TD.AperFunction*%
%TD*%
%TA.AperFunction,Conductor*%
%TO.N,+1V8*%
G36*
X36778796Y43980315D02*
G01*
X36824551Y43927511D01*
X36835757Y43876000D01*
X36835757Y41450598D01*
X36816072Y41383559D01*
X36799438Y41362917D01*
X36755238Y41318718D01*
X36755232Y41318710D01*
X36676183Y41181791D01*
X36676180Y41181784D01*
X36635257Y41029057D01*
X36635257Y40870943D01*
X36666457Y40754505D01*
X36676180Y40718217D01*
X36676183Y40718210D01*
X36755232Y40581291D01*
X36755238Y40581283D01*
X36799438Y40537083D01*
X36832923Y40475760D01*
X36835757Y40449402D01*
X36835757Y34681584D01*
X36816072Y34614545D01*
X36780648Y34578482D01*
X36671088Y34505277D01*
X36671084Y34505274D01*
X36580483Y34414673D01*
X36580480Y34414669D01*
X36509295Y34308134D01*
X36509290Y34308125D01*
X36460256Y34189745D01*
X36460254Y34189739D01*
X36435257Y34064072D01*
X36435257Y34064069D01*
X36435257Y33935931D01*
X36435257Y33935929D01*
X36435256Y33935929D01*
X36460254Y33810262D01*
X36460256Y33810256D01*
X36509290Y33691876D01*
X36509295Y33691867D01*
X36580480Y33585332D01*
X36580483Y33585328D01*
X36671084Y33494727D01*
X36671088Y33494724D01*
X36780648Y33421518D01*
X36825453Y33367906D01*
X36835757Y33318416D01*
X36835757Y31950598D01*
X36816072Y31883559D01*
X36799438Y31862917D01*
X36755238Y31818718D01*
X36755232Y31818710D01*
X36676183Y31681791D01*
X36676180Y31681784D01*
X36635257Y31529057D01*
X36635257Y31370943D01*
X36672545Y31231784D01*
X36676180Y31218217D01*
X36676183Y31218210D01*
X36755232Y31081291D01*
X36755238Y31081283D01*
X36799438Y31037083D01*
X36832923Y30975760D01*
X36835757Y30949402D01*
X36835757Y26681584D01*
X36816072Y26614545D01*
X36780648Y26578482D01*
X36671088Y26505277D01*
X36671084Y26505274D01*
X36580483Y26414673D01*
X36580480Y26414669D01*
X36509295Y26308134D01*
X36509290Y26308125D01*
X36460256Y26189745D01*
X36460254Y26189739D01*
X36435257Y26064072D01*
X36435257Y26064069D01*
X36435257Y25935931D01*
X36435257Y25935929D01*
X36435256Y25935929D01*
X36460254Y25810262D01*
X36460256Y25810256D01*
X36509290Y25691876D01*
X36509295Y25691867D01*
X36580480Y25585332D01*
X36580483Y25585328D01*
X36671084Y25494727D01*
X36671088Y25494724D01*
X36780648Y25421518D01*
X36825453Y25367906D01*
X36835757Y25318416D01*
X36835757Y21250000D01*
X36835757Y16500000D01*
X41154173Y16500000D01*
X41221212Y16480315D01*
X41257275Y16444891D01*
X41330480Y16335332D01*
X41330483Y16335328D01*
X41421084Y16244727D01*
X41421088Y16244724D01*
X41527623Y16173539D01*
X41527629Y16173536D01*
X41527630Y16173535D01*
X41646013Y16124499D01*
X41646017Y16124499D01*
X41646018Y16124498D01*
X41771685Y16099500D01*
X41771688Y16099500D01*
X41899828Y16099500D01*
X41984372Y16116318D01*
X42025501Y16124499D01*
X42143884Y16173535D01*
X42250426Y16244724D01*
X42341033Y16335331D01*
X42402626Y16427511D01*
X42414239Y16444891D01*
X42467851Y16489696D01*
X42517341Y16500000D01*
X43868926Y16500000D01*
X43935965Y16480315D01*
X43981720Y16427511D01*
X43988697Y16408103D01*
X44026180Y16268217D01*
X44026183Y16268210D01*
X44105232Y16131291D01*
X44105236Y16131286D01*
X44105237Y16131284D01*
X44217041Y16019480D01*
X44217043Y16019479D01*
X44217047Y16019476D01*
X44353966Y15940427D01*
X44353973Y15940423D01*
X44506700Y15899500D01*
X44506702Y15899500D01*
X44664812Y15899500D01*
X44664814Y15899500D01*
X44817541Y15940423D01*
X44954473Y16019480D01*
X45066277Y16131284D01*
X45145334Y16268216D01*
X45182814Y16408096D01*
X45219178Y16467754D01*
X45282025Y16498283D01*
X45302588Y16500000D01*
X45711521Y16500000D01*
X45778560Y16480315D01*
X45787008Y16474376D01*
X45787606Y16473917D01*
X45881825Y16419521D01*
X45924531Y16394865D01*
X46077258Y16353942D01*
X46077260Y16353942D01*
X46235370Y16353942D01*
X46235372Y16353942D01*
X46388099Y16394865D01*
X46514348Y16467754D01*
X46525023Y16473917D01*
X46525025Y16473919D01*
X46525031Y16473922D01*
X46525035Y16473927D01*
X46525622Y16474376D01*
X46526218Y16474607D01*
X46532070Y16477985D01*
X46532596Y16477073D01*
X46590792Y16499570D01*
X46601109Y16500000D01*
X53587718Y16500000D01*
X53654757Y16480315D01*
X53675399Y16463682D01*
X53759041Y16380040D01*
X53759043Y16380039D01*
X53759047Y16380036D01*
X53804244Y16353942D01*
X53895973Y16300983D01*
X54048700Y16260060D01*
X54048702Y16260060D01*
X54206812Y16260060D01*
X54206814Y16260060D01*
X54359541Y16300983D01*
X54496473Y16380040D01*
X54580115Y16463682D01*
X54641439Y16497166D01*
X54667796Y16500000D01*
X58511955Y16500000D01*
X58578994Y16480315D01*
X58615055Y16444894D01*
X58617508Y16441223D01*
X58617512Y16441218D01*
X58708111Y16350619D01*
X58708115Y16350616D01*
X58814650Y16279431D01*
X58814656Y16279428D01*
X58814657Y16279427D01*
X58933040Y16230391D01*
X58933044Y16230391D01*
X58933045Y16230390D01*
X59058712Y16205392D01*
X59058715Y16205392D01*
X59186855Y16205392D01*
X59271399Y16222210D01*
X59312528Y16230391D01*
X59430911Y16279427D01*
X59537453Y16350616D01*
X59628060Y16441223D01*
X59630513Y16444894D01*
X59684127Y16489698D01*
X59733613Y16500000D01*
X60422707Y16500000D01*
X60489746Y16480315D01*
X60525809Y16444891D01*
X60542758Y16419525D01*
X60542761Y16419521D01*
X60633362Y16328920D01*
X60633366Y16328917D01*
X60739901Y16257732D01*
X60739907Y16257729D01*
X60739908Y16257728D01*
X60858291Y16208692D01*
X60858295Y16208692D01*
X60858296Y16208691D01*
X60983963Y16183693D01*
X60983966Y16183693D01*
X61112106Y16183693D01*
X61221189Y16205392D01*
X61237779Y16208692D01*
X61356162Y16257728D01*
X61462704Y16328917D01*
X61553311Y16419524D01*
X61564617Y16436445D01*
X61570261Y16444891D01*
X61623873Y16489696D01*
X61673363Y16500000D01*
X79130325Y16500000D01*
X79197364Y16480315D01*
X79243119Y16427511D01*
X79254322Y16375252D01*
X79253105Y16173539D01*
X79236501Y13423251D01*
X79216412Y13356332D01*
X79163333Y13310897D01*
X79112503Y13300000D01*
X68085626Y13300000D01*
X68018587Y13319685D01*
X67978797Y13361043D01*
X67953893Y13403302D01*
X67907971Y13455942D01*
X67907969Y13455944D01*
X67907962Y13455952D01*
X67863085Y13497982D01*
X67863083Y13497983D01*
X67863082Y13497984D01*
X67762838Y13548534D01*
X67762831Y13548537D01*
X67695740Y13567993D01*
X67695729Y13567995D01*
X67609626Y13580081D01*
X67609625Y13580081D01*
X65793768Y13574008D01*
X65776080Y13573437D01*
X65761803Y13572562D01*
X65660228Y13548469D01*
X65595990Y13520959D01*
X65550258Y13495653D01*
X65482069Y13480418D01*
X65428223Y13496762D01*
X65314970Y13562148D01*
X65288502Y13569240D01*
X65162243Y13603071D01*
X65004129Y13603071D01*
X64851402Y13562148D01*
X64851401Y13562148D01*
X64733076Y13493834D01*
X64665175Y13477363D01*
X64615245Y13490503D01*
X64521666Y13537692D01*
X64521654Y13537697D01*
X64454563Y13557153D01*
X64454552Y13557155D01*
X64368449Y13569241D01*
X64368448Y13569241D01*
X63192347Y13565308D01*
X63174660Y13564738D01*
X63160368Y13563861D01*
X63058802Y13539768D01*
X63058801Y13539768D01*
X62994574Y13512264D01*
X62994570Y13512262D01*
X62956559Y13491229D01*
X62888370Y13475995D01*
X62834525Y13492339D01*
X62710772Y13563787D01*
X62695075Y13567993D01*
X62558045Y13604710D01*
X62399931Y13604710D01*
X62247204Y13563787D01*
X62247203Y13563787D01*
X62118009Y13489198D01*
X62050108Y13472727D01*
X62000179Y13485866D01*
X61914687Y13528976D01*
X61914679Y13528979D01*
X61847592Y13548434D01*
X61847581Y13548436D01*
X61761479Y13560522D01*
X61761478Y13560522D01*
X60518442Y13556364D01*
X60518110Y13556364D01*
X60260721Y13555501D01*
X60260306Y13555500D01*
X55959757Y13555500D01*
X55959748Y13555500D01*
X55959747Y13555499D01*
X55894821Y13548519D01*
X55894809Y13548517D01*
X55843303Y13537312D01*
X55805102Y13526356D01*
X55805098Y13526354D01*
X55708188Y13469677D01*
X55708185Y13469675D01*
X55655380Y13423919D01*
X55655369Y13423909D01*
X55613203Y13379188D01*
X55613203Y13379187D01*
X55597523Y13348350D01*
X55549590Y13297515D01*
X55487265Y13280554D01*
X41585757Y13250000D01*
X32423805Y13250000D01*
X32356766Y13269685D01*
X32311011Y13322489D01*
X32299805Y13374221D01*
X32303487Y15435929D01*
X49185256Y15435929D01*
X49210254Y15310262D01*
X49210256Y15310256D01*
X49259290Y15191876D01*
X49259295Y15191867D01*
X49330480Y15085332D01*
X49330483Y15085328D01*
X49421084Y14994727D01*
X49421088Y14994724D01*
X49527623Y14923539D01*
X49527629Y14923536D01*
X49527630Y14923535D01*
X49646013Y14874499D01*
X49646017Y14874499D01*
X49646018Y14874498D01*
X49771685Y14849500D01*
X49771688Y14849500D01*
X49899828Y14849500D01*
X49994106Y14868254D01*
X50025501Y14874499D01*
X50143884Y14923535D01*
X50250426Y14994724D01*
X50341033Y15085331D01*
X50412222Y15191873D01*
X50461258Y15310256D01*
X50486257Y15435929D01*
X52185256Y15435929D01*
X52210254Y15310262D01*
X52210256Y15310256D01*
X52259290Y15191876D01*
X52259295Y15191867D01*
X52330480Y15085332D01*
X52330483Y15085328D01*
X52421084Y14994727D01*
X52421088Y14994724D01*
X52527623Y14923539D01*
X52527629Y14923536D01*
X52527630Y14923535D01*
X52646013Y14874499D01*
X52646017Y14874499D01*
X52646018Y14874498D01*
X52771685Y14849500D01*
X52771688Y14849500D01*
X52899828Y14849500D01*
X52994106Y14868254D01*
X53025501Y14874499D01*
X53143884Y14923535D01*
X53250426Y14994724D01*
X53341033Y15085331D01*
X53412222Y15191873D01*
X53461258Y15310256D01*
X53486257Y15435931D01*
X53486257Y15564069D01*
X53486257Y15564072D01*
X53461259Y15689739D01*
X53461258Y15689740D01*
X53461258Y15689744D01*
X53412222Y15808127D01*
X53412221Y15808128D01*
X53412218Y15808134D01*
X53341033Y15914669D01*
X53341030Y15914673D01*
X53250429Y16005274D01*
X53250425Y16005277D01*
X53143890Y16076462D01*
X53143881Y16076467D01*
X53025501Y16125501D01*
X53025495Y16125503D01*
X52899828Y16150500D01*
X52899826Y16150500D01*
X52771688Y16150500D01*
X52771686Y16150500D01*
X52646018Y16125503D01*
X52646012Y16125501D01*
X52527632Y16076467D01*
X52527623Y16076462D01*
X52421088Y16005277D01*
X52421084Y16005274D01*
X52330483Y15914673D01*
X52330480Y15914669D01*
X52259295Y15808134D01*
X52259290Y15808125D01*
X52210256Y15689745D01*
X52210254Y15689739D01*
X52185257Y15564072D01*
X52185257Y15564069D01*
X52185257Y15435931D01*
X52185257Y15435929D01*
X52185256Y15435929D01*
X50486257Y15435929D01*
X50486257Y15435931D01*
X50486257Y15564069D01*
X50486257Y15564072D01*
X50461259Y15689739D01*
X50461258Y15689740D01*
X50461258Y15689744D01*
X50412222Y15808127D01*
X50412221Y15808128D01*
X50412218Y15808134D01*
X50341033Y15914669D01*
X50341030Y15914673D01*
X50250429Y16005274D01*
X50250425Y16005277D01*
X50143890Y16076462D01*
X50143881Y16076467D01*
X50025501Y16125501D01*
X50025495Y16125503D01*
X49899828Y16150500D01*
X49899826Y16150500D01*
X49771688Y16150500D01*
X49771686Y16150500D01*
X49646018Y16125503D01*
X49646012Y16125501D01*
X49527632Y16076467D01*
X49527623Y16076462D01*
X49421088Y16005277D01*
X49421084Y16005274D01*
X49330483Y15914673D01*
X49330480Y15914669D01*
X49259295Y15808134D01*
X49259290Y15808125D01*
X49210256Y15689745D01*
X49210254Y15689739D01*
X49185257Y15564072D01*
X49185257Y15564069D01*
X49185257Y15435931D01*
X49185257Y15435929D01*
X49185256Y15435929D01*
X32303487Y15435929D01*
X32303727Y15570382D01*
X32313869Y21250000D01*
X32324426Y27162531D01*
X32344230Y27229533D01*
X32360755Y27249939D01*
X32360755Y27250000D01*
X32360757Y27250000D01*
X32366643Y28236037D01*
X32383254Y28297293D01*
X32395334Y28318216D01*
X32436257Y28470943D01*
X32436257Y28629057D01*
X32395334Y28781784D01*
X32395330Y28781791D01*
X32386973Y28796267D01*
X32370362Y28859003D01*
X32405849Y34802959D01*
X32425934Y34869879D01*
X32479010Y34915318D01*
X32497742Y34921989D01*
X32566541Y34940423D01*
X32703473Y35019480D01*
X32815277Y35131284D01*
X32894334Y35268216D01*
X32935257Y35420943D01*
X32935257Y35579057D01*
X32894334Y35731784D01*
X32825794Y35850500D01*
X32815281Y35868710D01*
X32815275Y35868718D01*
X32703474Y35980519D01*
X32703466Y35980525D01*
X32566547Y36059574D01*
X32566543Y36059576D01*
X32566541Y36059577D01*
X32506070Y36075781D01*
X32446411Y36112144D01*
X32415882Y36174991D01*
X32414167Y36196286D01*
X32423915Y37829057D01*
X32985257Y37829057D01*
X32985257Y37670943D01*
X33014409Y37562148D01*
X33026180Y37518217D01*
X33026183Y37518210D01*
X33105232Y37381291D01*
X33105236Y37381286D01*
X33105237Y37381284D01*
X33217041Y37269480D01*
X33217043Y37269479D01*
X33217047Y37269476D01*
X33344412Y37195943D01*
X33353973Y37190423D01*
X33506700Y37149500D01*
X33506702Y37149500D01*
X33664812Y37149500D01*
X33664814Y37149500D01*
X33817541Y37190423D01*
X33954473Y37269480D01*
X34066277Y37381284D01*
X34145334Y37518216D01*
X34186257Y37670943D01*
X34186257Y37829057D01*
X35235257Y37829057D01*
X35235257Y37670943D01*
X35264409Y37562148D01*
X35276180Y37518217D01*
X35276183Y37518210D01*
X35355232Y37381291D01*
X35355236Y37381286D01*
X35355237Y37381284D01*
X35467041Y37269480D01*
X35467043Y37269479D01*
X35467047Y37269476D01*
X35594412Y37195943D01*
X35603973Y37190423D01*
X35756700Y37149500D01*
X35756702Y37149500D01*
X35914812Y37149500D01*
X35914814Y37149500D01*
X36067541Y37190423D01*
X36204473Y37269480D01*
X36316277Y37381284D01*
X36395334Y37518216D01*
X36436257Y37670943D01*
X36436257Y37829057D01*
X36395334Y37981784D01*
X36338814Y38079681D01*
X36316281Y38118710D01*
X36316275Y38118718D01*
X36204474Y38230519D01*
X36204466Y38230525D01*
X36067547Y38309574D01*
X36067543Y38309576D01*
X36067541Y38309577D01*
X35914814Y38350500D01*
X35756700Y38350500D01*
X35603973Y38309577D01*
X35603966Y38309574D01*
X35467047Y38230525D01*
X35467039Y38230519D01*
X35355238Y38118718D01*
X35355232Y38118710D01*
X35276183Y37981791D01*
X35276180Y37981784D01*
X35235257Y37829057D01*
X34186257Y37829057D01*
X34145334Y37981784D01*
X34088814Y38079681D01*
X34066281Y38118710D01*
X34066275Y38118718D01*
X33954474Y38230519D01*
X33954466Y38230525D01*
X33817547Y38309574D01*
X33817543Y38309576D01*
X33817541Y38309577D01*
X33664814Y38350500D01*
X33506700Y38350500D01*
X33353973Y38309577D01*
X33353966Y38309574D01*
X33217047Y38230525D01*
X33217039Y38230519D01*
X33105238Y38118718D01*
X33105232Y38118710D01*
X33026183Y37981791D01*
X33026180Y37981784D01*
X32985257Y37829057D01*
X32423915Y37829057D01*
X32460021Y43876741D01*
X32480106Y43943661D01*
X32533182Y43989100D01*
X32584019Y44000000D01*
X36711757Y44000000D01*
X36778796Y43980315D01*
G37*
%TD.AperFunction*%
%TD*%
M02*
