M48
; DRILL file {KiCad 9.0.7} date 2026-08-16T14:42:56-0230
; FORMAT={-:-/ absolute / metric / decimal}
; #@! TF.CreationDate,2026-08-16T14:42:56-02:30
; #@! TF.GenerationSoftware,Kicad,Pcbnew,9.0.7
; #@! TF.FileFunction,Plated,1,4,PTH
FMAT,2
METRIC
; #@! TA.AperFunction,Plated,PTH,ViaDrill
T1C0.300
; #@! TA.AperFunction,Plated,PTH,ComponentDrill
T2C0.600
; #@! TA.AperFunction,Plated,PTH,ComponentDrill
T3C0.650
; #@! TA.AperFunction,Plated,PTH,ComponentDrill
T4C0.700
; #@! TA.AperFunction,Plated,PTH,ComponentDrill
T5C1.400
%
G90
G05
T1
X1.711Y44.125
X5.036Y41.5
X5.861Y43.95
X7.611Y39.352
X8.011Y48.0
X9.411Y19.875
X9.536Y34.075
X9.986Y30.1
X11.961Y34.0
X12.136Y45.675
X12.211Y40.85
X12.336Y50.05
X13.711Y46.825
X14.086Y38.5
X14.086Y34.0
X14.336Y40.85
X20.736Y46.475
X21.086Y32.275
X21.461Y50.975
X21.486Y48.725
X22.212Y43.234
X23.086Y38.0
X24.586Y43.25
X26.286Y47.924
X26.861Y41.55
X27.336Y39.75
X28.086Y23.75
X28.086Y15.0
X28.96Y53.948
X29.211Y41.0
X29.711Y49.509
X30.336Y35.5
X31.086Y15.0
X31.127Y23.485
X31.836Y53.45
X31.836Y41.75
X31.836Y28.55
X32.335Y35.5
X33.019Y43.183
X33.586Y37.75
X33.586Y7.25
X34.586Y46.5
X35.836Y37.75
X36.286Y52.25
X36.611Y8.45
X36.836Y46.5
X37.086Y53.25
X37.086Y51.0
X37.086Y34.0
X37.086Y26.0
X37.236Y40.95
X37.236Y31.45
X37.586Y20.725
X38.186Y39.225
X38.23Y41.25
X38.336Y43.125
X38.336Y7.25
X38.336Y2.0
X38.611Y31.45
X38.661Y33.5
X38.836Y44.625
X39.336Y45.25
X39.586Y43.125
X39.836Y20.725
X40.261Y47.95
X40.586Y53.25
X40.961Y36.5
X41.586Y51.25
X41.811Y14.5
X41.836Y16.75
X42.836Y18.25
X43.261Y22.5
X43.336Y36.0
X43.392Y38.224
X43.436Y37.275
X43.461Y26.375
X43.486Y24.975
X43.586Y41.0
X43.586Y39.0
X43.836Y51.25
X44.086Y53.25
X44.586Y16.5
X45.047Y44.583
X45.961Y44.525
X46.086Y51.25
X46.086Y28.25
X46.088Y43.003
X46.088Y37.003
X46.156Y16.954
X46.338Y27.003
X46.533Y23.753
X46.586Y9.25
X47.333Y50.997
X48.086Y27.25
X48.461Y47.75
X49.086Y27.25
X49.836Y15.5
X50.511Y47.925
X50.836Y18.25
X51.836Y51.25
X52.586Y44.5
X52.836Y15.5
X53.586Y21.75
X54.061Y49.575
X54.128Y16.861
X54.485Y5.135
X55.836Y18.25
X56.086Y49.5
X56.236Y11.55
X56.261Y12.825
X56.586Y44.5
X56.586Y21.75
X57.336Y6.625
X57.336Y1.25
X58.461Y9.25
X58.833Y24.753
X59.123Y16.856
X61.048Y16.834
X61.211Y21.875
X61.489Y42.25
X61.737Y39.747
X62.086Y22.0
X62.479Y13.004
X62.568Y7.616
X62.983Y24.345
X63.011Y21.75
X63.336Y8.25
X63.568Y44.784
X63.921Y11.95
X64.011Y35.225
X64.083Y37.247
X64.086Y47.25
X64.336Y18.25
X64.586Y44.5
X64.586Y8.25
X64.711Y21.825
X64.811Y14.25
X64.876Y43.527
X65.083Y49.653
X65.083Y13.003
X65.086Y47.175
X65.611Y7.475
X65.836Y26.0
X66.086Y31.0
X66.086Y28.0
X66.086Y24.5
X66.236Y34.0
X66.311Y41.0
X66.439Y18.292
X66.536Y8.0
X69.8Y40.568
X70.336Y47.25
X71.086Y37.25
X71.086Y33.25
X71.086Y29.25
X71.086Y25.25
X71.086Y14.25
X71.244Y27.211
X71.291Y23.205
X71.336Y35.25
X71.336Y31.25
X71.836Y38.144
X75.336Y11.0
X76.336Y37.25
X76.586Y14.25
X78.086Y11.0
X78.505Y37.25
X78.646Y7.0
X79.376Y7.0
X80.661Y37.25
X81.296Y14.5
X82.811Y37.25
X84.936Y37.25
X86.377Y19.746
X87.011Y37.25
T5
X2.371Y19.875
X2.371Y13.525
X2.371Y7.175
X18.601Y19.875
X18.601Y13.525
X18.601Y7.175
T2
G00X59.766Y6.729
M15
G01X59.766Y6.129
M16
G05
G00X59.766Y2.929
M15
G01X59.766Y2.329
M16
G05
G00X68.406Y6.729
M15
G01X68.406Y6.129
M16
G05
G00X68.406Y2.929
M15
G01X68.406Y2.329
M16
G05
T3
G00X76.916Y4.555
M15
G01X76.916Y4.955
M16
G05
G00X81.756Y4.555
M15
G01X81.756Y4.955
M16
G05
T4
G00X26.661Y11.781
M15
G01X26.661Y12.581
M16
G05
G00X26.661Y7.781
M15
G01X26.661Y8.581
M16
G05
G00X26.661Y4.781
M15
G01X26.661Y5.581
M16
G05
G00X31.061Y12.781
M15
G01X31.061Y13.581
M16
G05
G00X76.606Y1.505
M15
G01X76.606Y2.005
M16
G05
G00X82.066Y1.505
M15
G01X82.066Y2.005
M16
G05
M30
