%TF.GenerationSoftware,KiCad,Pcbnew,9.0.7*%
%TF.CreationDate,2026-08-16T14:43:19-02:30*%
%TF.ProjectId,worlds-worst-audio-interface,776f726c-6473-42d7-976f-7273742d6175,rev?*%
%TF.SameCoordinates,PX5916363PY6f94740*%
%TF.FileFunction,Copper,L2,Inr*%
%TF.FilePolarity,Positive*%
%FSLAX46Y46*%
G04 Gerber Fmt 4.6, Leading zero omitted, Abs format (unit mm)*
G04 Created by KiCad (PCBNEW 9.0.7) date 2026-08-16 14:43:19*
%MOMM*%
%LPD*%
G01*
G04 APERTURE LIST*
%TA.AperFunction,ComponentPad*%
%ADD10C,1.600000*%
%TD*%
%TA.AperFunction,ComponentPad*%
%ADD11C,3.000000*%
%TD*%
%TA.AperFunction,HeatsinkPad*%
%ADD12O,1.100000X1.700000*%
%TD*%
%TA.AperFunction,HeatsinkPad*%
%ADD13O,1.350000X1.700000*%
%TD*%
%TA.AperFunction,HeatsinkPad*%
%ADD14O,1.100000X1.500000*%
%TD*%
%TA.AperFunction,ViaPad*%
%ADD15C,0.600000*%
%TD*%
%TA.AperFunction,ViaPad*%
%ADD16C,0.700000*%
%TD*%
G04 APERTURE END LIST*
D10*
%TO.N,GND*%
%TO.C,HEADPHONE*%
X31060757Y13180736D03*
%TO.N,Net-(U7-Tip)*%
X26660757Y12180736D03*
%TO.N,Net-(U7-Ring1)*%
X26660757Y8180736D03*
%TO.N,unconnected-(U7-Ring2-Pad4)*%
X26660757Y5180736D03*
%TD*%
D11*
%TO.N,GND*%
%TO.C,INPUT*%
X18600757Y13524553D03*
X2370757Y13524553D03*
X18600757Y7174553D03*
X2370757Y7174553D03*
%TO.N,Net-(C56-Pad2)*%
X18600757Y19874553D03*
%TO.N,Net-(J4-PadTN)*%
X2370757Y19874553D03*
%TD*%
D12*
%TO.N,GND*%
%TO.C,PWR*%
X59765757Y6428533D03*
X59765757Y2628533D03*
X68405757Y6428533D03*
X68405757Y2628533D03*
%TD*%
D13*
%TO.N,GND*%
%TO.C,DATA*%
X76605757Y1754733D03*
D14*
X76915757Y4754733D03*
X81755757Y4754733D03*
D13*
X82065757Y1754733D03*
%TD*%
D15*
%TO.N,GND*%
X21085757Y32275000D03*
D16*
X56085757Y49500000D03*
D15*
X46533186Y23752571D03*
X12210757Y40850000D03*
D16*
X34585757Y46500000D03*
D15*
X26860757Y41550000D03*
X12135757Y45675000D03*
X86376814Y19746268D03*
X62478988Y13004210D03*
X21485757Y48725000D03*
D16*
X37085757Y26000000D03*
X38335757Y2000000D03*
D15*
X45960757Y44525000D03*
X29210757Y41000000D03*
X58833186Y24752571D03*
X56585757Y21750000D03*
D16*
X42835757Y18250000D03*
X82810757Y37250000D03*
D15*
X64083186Y37247429D03*
X43391895Y38223845D03*
D16*
X41835757Y16750000D03*
X71085757Y25250000D03*
D15*
X47333186Y50997429D03*
X66085757Y24500000D03*
X40960757Y36500000D03*
X43335757Y36000000D03*
D16*
X46085757Y51250000D03*
D15*
X22211795Y43233931D03*
X63010757Y21750000D03*
X56585757Y44500000D03*
X62085757Y22000000D03*
X33585757Y37750000D03*
D16*
X84935757Y37250000D03*
X57335757Y1250000D03*
D15*
X7610757Y39351931D03*
X40585757Y53250000D03*
D16*
X59122784Y16855892D03*
D15*
X11960757Y34000000D03*
X54484970Y5135440D03*
X31835757Y28550000D03*
X43435757Y37275000D03*
X39835757Y20725000D03*
X31835757Y41750000D03*
X53585757Y21750000D03*
D16*
X87010757Y37250000D03*
X71835757Y38143750D03*
X52835757Y15500000D03*
D15*
X44085757Y53250000D03*
X78085757Y11000000D03*
X65083186Y13002571D03*
D16*
X38229507Y41250000D03*
D15*
X66439200Y18292353D03*
D16*
X36835757Y46500000D03*
D15*
X46338328Y27002571D03*
D16*
X71085757Y37250000D03*
D15*
X12335757Y50050000D03*
X35835757Y37750000D03*
D16*
X78504869Y37250000D03*
D15*
X52585757Y44500000D03*
D16*
X80660757Y37250000D03*
D15*
X65085757Y47175000D03*
D16*
X38660757Y33500000D03*
D15*
X28959842Y53948349D03*
X29710757Y49508883D03*
D16*
X37085757Y34000000D03*
D15*
X5035757Y41500000D03*
D16*
X43835757Y51250000D03*
D15*
X66085757Y31000000D03*
D16*
X49835757Y15500000D03*
X71085757Y29250000D03*
X70335757Y47250000D03*
D15*
X14335757Y40850000D03*
D16*
X31085757Y15000000D03*
D15*
X63568258Y44784310D03*
X75335757Y11000000D03*
D16*
X51835757Y51250000D03*
D15*
X21460757Y50975000D03*
X37585757Y20725000D03*
X66085757Y28000000D03*
X14085757Y34000000D03*
D16*
X61048035Y16834193D03*
D15*
X43460757Y26375000D03*
X9410757Y19875000D03*
X5860757Y43950000D03*
X46088328Y37002571D03*
D16*
X71085757Y33250000D03*
D15*
X26285757Y47924000D03*
D16*
X28085757Y15000000D03*
D15*
X8010757Y48000000D03*
D16*
X76335757Y37250000D03*
D15*
X65083186Y49652571D03*
X24585757Y43250000D03*
X37085757Y53250000D03*
X46088328Y43002571D03*
X37235757Y31450000D03*
D16*
X41585757Y51250000D03*
D15*
X66235757Y34000000D03*
X62983186Y24345098D03*
X50835757Y18250000D03*
X61489493Y42250000D03*
X37085757Y51000000D03*
D16*
X38335757Y7250000D03*
D15*
X61736923Y39747429D03*
%TO.N,/USB_VIN*%
X56260757Y12825000D03*
X57335757Y6625000D03*
X66535757Y8000000D03*
X63921242Y11950000D03*
X65610757Y7475000D03*
X62568235Y7615655D03*
X56235757Y11550000D03*
X1710757Y44125000D03*
X58460757Y9250000D03*
%TO.N,/RESET*%
X81295757Y14500000D03*
X65835757Y26000000D03*
X46085757Y28250000D03*
X44585757Y16500000D03*
%TO.N,+1V8*%
X64810757Y14250000D03*
X33018815Y43183058D03*
X41810757Y14500000D03*
X76585757Y14250000D03*
X71085757Y14250000D03*
%TO.N,+3V3*%
X71244136Y27210948D03*
X45047048Y44583112D03*
X36285757Y52250000D03*
X38610757Y31450000D03*
X38185757Y39225000D03*
X54060757Y49575000D03*
X40260757Y47950000D03*
X64085757Y47250000D03*
X64875588Y43527384D03*
X64335757Y18250000D03*
X43585757Y39000000D03*
X43260757Y22500000D03*
X66310757Y41000000D03*
X46156315Y16954442D03*
X64710757Y21825000D03*
X69799597Y40567981D03*
X54127757Y16860560D03*
X33585757Y7250000D03*
X27335757Y39750000D03*
X55835757Y18250000D03*
X31127075Y23484766D03*
X37235757Y40950000D03*
X43585757Y41000000D03*
X71335757Y31250000D03*
X64585757Y44500000D03*
X71290810Y23205054D03*
X31835757Y53450000D03*
X64010757Y35225000D03*
X36610757Y8450000D03*
X50510757Y47925000D03*
X46585757Y9250000D03*
X43485757Y24975000D03*
X71335757Y35250000D03*
%TO.N,+3.3VA*%
X13710757Y46825000D03*
X28085757Y23750000D03*
X20735757Y46475000D03*
X14085757Y38500000D03*
%TO.N,Net-(C23-Pad1)*%
X61210757Y21875000D03*
%TO.N,/USB_D-*%
X78645757Y7000000D03*
%TO.N,/USB_D+*%
X79375757Y7000000D03*
%TO.N,Net-(J2-CC2)*%
X64585757Y8250000D03*
%TO.N,Net-(J2-CC1)*%
X63335757Y8250000D03*
%TO.N,Net-(U5-BOOT0)*%
X48460757Y47750000D03*
%TO.N,/VBIAS*%
X23085757Y38000000D03*
X9535757Y34075000D03*
X9985757Y30100000D03*
%TO.N,/RESET_CODEC*%
X30335757Y35500000D03*
X48085757Y27250000D03*
%TO.N,/SAI1_SD_B*%
X38835757Y44625000D03*
X38335757Y43125000D03*
%TO.N,/CODEC_GPIO*%
X49085757Y27250000D03*
X32334757Y35500000D03*
%TO.N,/SAI1_SCK_A*%
X39585757Y43125000D03*
X39335757Y45250000D03*
%TD*%
%TA.AperFunction,Conductor*%
%TO.N,GND*%
G36*
X86587756Y54474295D02*
G01*
X86821028Y54457019D01*
X86831665Y54455464D01*
X87057590Y54405781D01*
X87067888Y54402734D01*
X87284472Y54321459D01*
X87294242Y54316975D01*
X87497077Y54205759D01*
X87506113Y54199931D01*
X87691089Y54061031D01*
X87699206Y54053978D01*
X87862574Y53890209D01*
X87869606Y53882075D01*
X87916941Y53818716D01*
X88008056Y53696756D01*
X88013849Y53687727D01*
X88100344Y53529056D01*
X88124571Y53484613D01*
X88129031Y53474830D01*
X88209775Y53258051D01*
X88212802Y53247733D01*
X88261932Y53021686D01*
X88263461Y53011042D01*
X88280157Y52777828D01*
X88280350Y52772444D01*
X88285256Y2002710D01*
X88285064Y1997317D01*
X88268344Y1763524D01*
X88266811Y1752861D01*
X88217563Y1526474D01*
X88214528Y1516139D01*
X88133563Y1299061D01*
X88129088Y1289262D01*
X88018055Y1085921D01*
X88012231Y1076859D01*
X87873393Y891393D01*
X87866339Y883251D01*
X87702507Y719419D01*
X87694365Y712365D01*
X87508902Y573529D01*
X87499841Y567705D01*
X87296492Y456667D01*
X87286692Y452192D01*
X87069622Y371230D01*
X87059287Y368195D01*
X86832895Y318946D01*
X86822232Y317413D01*
X86588441Y300692D01*
X86583055Y300500D01*
X2053684Y300500D01*
X2047584Y300501D01*
X2047573Y300504D01*
X2010135Y300501D01*
X2002668Y300501D01*
X2002667Y300502D01*
X1997288Y300693D01*
X1763493Y317399D01*
X1752830Y318931D01*
X1752761Y318946D01*
X1526427Y368169D01*
X1516106Y371199D01*
X1299020Y452157D01*
X1289220Y456632D01*
X1085871Y567661D01*
X1076808Y573485D01*
X891330Y712326D01*
X883188Y719381D01*
X719363Y883203D01*
X712308Y891344D01*
X573457Y1076825D01*
X567636Y1085884D01*
X456603Y1289232D01*
X452129Y1299029D01*
X383251Y1483710D01*
X371167Y1516111D01*
X368133Y1526446D01*
X318893Y1752838D01*
X317360Y1763501D01*
X300692Y1996692D01*
X300500Y2002069D01*
X300500Y2002710D01*
X300503Y2047580D01*
X300497Y2047599D01*
X300376Y3830259D01*
X27850257Y3830259D01*
X27850257Y3631214D01*
X27850258Y3631201D01*
X27889088Y3435990D01*
X27965266Y3252081D01*
X27965267Y3252080D01*
X28058373Y3112738D01*
X28075851Y3086580D01*
X28216601Y2945830D01*
X28334179Y2867267D01*
X28382100Y2835247D01*
X28382101Y2835246D01*
X28382102Y2835246D01*
X28382106Y2835243D01*
X28566005Y2759069D01*
X28761231Y2720236D01*
X28761235Y2720236D01*
X28960279Y2720236D01*
X28960283Y2720236D01*
X29155509Y2759069D01*
X29339408Y2835243D01*
X29504913Y2945830D01*
X29571331Y3012248D01*
X58915757Y3012248D01*
X58915757Y2728534D01*
X58915758Y2728533D01*
X59465757Y2728533D01*
X59465757Y2528533D01*
X58915758Y2528533D01*
X58915757Y2528532D01*
X58915757Y2244819D01*
X58915758Y2244806D01*
X58948420Y2080603D01*
X59012498Y1925905D01*
X59105520Y1786689D01*
X59223912Y1668297D01*
X59363128Y1575275D01*
X59517826Y1511197D01*
X59665756Y1481772D01*
X59665757Y1481772D01*
X59665757Y2044745D01*
X59726261Y2028533D01*
X59805253Y2028533D01*
X59865757Y2044745D01*
X59865757Y1481772D01*
X60013687Y1511197D01*
X60168385Y1575275D01*
X60307601Y1668297D01*
X60425993Y1786689D01*
X60519015Y1925905D01*
X60583093Y2080603D01*
X60615755Y2244806D01*
X60615757Y2244819D01*
X60615757Y2528532D01*
X60615756Y2528533D01*
X60065757Y2528533D01*
X60065757Y2728533D01*
X60615756Y2728533D01*
X60615757Y2728534D01*
X60615757Y3012248D01*
X67555757Y3012248D01*
X67555757Y2728534D01*
X67555758Y2728533D01*
X68105757Y2728533D01*
X68105757Y2528533D01*
X67555758Y2528533D01*
X67555757Y2528532D01*
X67555757Y2244819D01*
X67555758Y2244806D01*
X67588420Y2080603D01*
X67652498Y1925905D01*
X67745520Y1786689D01*
X67863912Y1668297D01*
X68003128Y1575275D01*
X68157826Y1511197D01*
X68305756Y1481772D01*
X68305757Y1481772D01*
X68305757Y2044745D01*
X68366261Y2028533D01*
X68445253Y2028533D01*
X68505757Y2044745D01*
X68505757Y1481772D01*
X68653687Y1511197D01*
X68808385Y1575275D01*
X68947601Y1668297D01*
X69018698Y1739393D01*
X69065993Y1786689D01*
X69159015Y1925905D01*
X69200376Y2025757D01*
X75630757Y2025757D01*
X75630757Y1854734D01*
X75630758Y1854733D01*
X76255757Y1854733D01*
X76255757Y1654733D01*
X75630758Y1654733D01*
X75630757Y1654732D01*
X75630757Y1483710D01*
X75630758Y1483696D01*
X75668223Y1295342D01*
X75741725Y1117893D01*
X75741726Y1117892D01*
X75848423Y958209D01*
X75984232Y822400D01*
X76143915Y715703D01*
X76143916Y715702D01*
X76321365Y642200D01*
X76505756Y605523D01*
X76505757Y605523D01*
X76505757Y1169182D01*
X76559679Y1154733D01*
X76651835Y1154733D01*
X76705757Y1169182D01*
X76705757Y605523D01*
X76890148Y642200D01*
X77067597Y715702D01*
X77067598Y715703D01*
X77227281Y822400D01*
X77363090Y958209D01*
X77469787Y1117892D01*
X77469788Y1117893D01*
X77543290Y1295342D01*
X77580755Y1483696D01*
X77580757Y1483710D01*
X77580757Y1654732D01*
X77580756Y1654733D01*
X76955757Y1654733D01*
X76955757Y1854733D01*
X77580756Y1854733D01*
X77580757Y1854734D01*
X77580757Y2025757D01*
X81090757Y2025757D01*
X81090757Y1854734D01*
X81090758Y1854733D01*
X81715757Y1854733D01*
X81715757Y1654733D01*
X81090758Y1654733D01*
X81090757Y1654732D01*
X81090757Y1483710D01*
X81090758Y1483696D01*
X81128223Y1295342D01*
X81201725Y1117893D01*
X81201726Y1117892D01*
X81308423Y958209D01*
X81444232Y822400D01*
X81603915Y715703D01*
X81603916Y715702D01*
X81781365Y642200D01*
X81965756Y605523D01*
X81965757Y605523D01*
X81965757Y1169182D01*
X82019679Y1154733D01*
X82111835Y1154733D01*
X82165757Y1169182D01*
X82165757Y605523D01*
X82350148Y642200D01*
X82527597Y715702D01*
X82527598Y715703D01*
X82687281Y822400D01*
X82823090Y958209D01*
X82929787Y1117892D01*
X82929788Y1117893D01*
X83003290Y1295342D01*
X83040755Y1483696D01*
X83040757Y1483710D01*
X83040757Y1654732D01*
X83040756Y1654733D01*
X82415757Y1654733D01*
X82415757Y1854733D01*
X83040756Y1854733D01*
X83040757Y1854734D01*
X83040757Y2025757D01*
X83040755Y2025771D01*
X83003290Y2214125D01*
X82929788Y2391574D01*
X82929787Y2391575D01*
X82823090Y2551258D01*
X82687281Y2687067D01*
X82527598Y2793764D01*
X82527597Y2793765D01*
X82350148Y2867267D01*
X82165757Y2903945D01*
X82165757Y2340285D01*
X82111835Y2354733D01*
X82019679Y2354733D01*
X81965757Y2340285D01*
X81965757Y2903945D01*
X81965756Y2903945D01*
X81781365Y2867267D01*
X81603916Y2793765D01*
X81603915Y2793764D01*
X81444232Y2687067D01*
X81308423Y2551258D01*
X81201726Y2391575D01*
X81201725Y2391574D01*
X81128223Y2214125D01*
X81090758Y2025771D01*
X81090757Y2025757D01*
X77580757Y2025757D01*
X77580755Y2025771D01*
X77543290Y2214125D01*
X77469788Y2391574D01*
X77469787Y2391575D01*
X77363090Y2551258D01*
X77227281Y2687067D01*
X77067598Y2793764D01*
X77067597Y2793765D01*
X76890148Y2867267D01*
X76705757Y2903945D01*
X76705757Y2340285D01*
X76651835Y2354733D01*
X76559679Y2354733D01*
X76505757Y2340285D01*
X76505757Y2903945D01*
X76505756Y2903945D01*
X76321365Y2867267D01*
X76143916Y2793765D01*
X76143915Y2793764D01*
X75984232Y2687067D01*
X75848423Y2551258D01*
X75741726Y2391575D01*
X75741725Y2391574D01*
X75668223Y2214125D01*
X75630758Y2025771D01*
X75630757Y2025757D01*
X69200376Y2025757D01*
X69213882Y2058364D01*
X69223093Y2080603D01*
X69255755Y2244806D01*
X69255757Y2244819D01*
X69255757Y2528532D01*
X69255756Y2528533D01*
X68705757Y2528533D01*
X68705757Y2728533D01*
X69255756Y2728533D01*
X69255757Y2728534D01*
X69255757Y3012248D01*
X69255755Y3012261D01*
X69223093Y3176464D01*
X69159015Y3331162D01*
X69065993Y3470378D01*
X68947601Y3588770D01*
X68808385Y3681792D01*
X68653688Y3745870D01*
X68505757Y3775296D01*
X68505757Y3212322D01*
X68445253Y3228533D01*
X68366261Y3228533D01*
X68305757Y3212322D01*
X68305757Y3775296D01*
X68305756Y3775296D01*
X68157825Y3745870D01*
X68003128Y3681792D01*
X67863912Y3588770D01*
X67745520Y3470378D01*
X67652498Y3331162D01*
X67588420Y3176464D01*
X67555758Y3012261D01*
X67555757Y3012248D01*
X60615757Y3012248D01*
X60615755Y3012261D01*
X60583093Y3176464D01*
X60519015Y3331162D01*
X60425993Y3470378D01*
X60307601Y3588770D01*
X60168385Y3681792D01*
X60013688Y3745870D01*
X59865757Y3775296D01*
X59865757Y3212322D01*
X59805253Y3228533D01*
X59726261Y3228533D01*
X59665757Y3212322D01*
X59665757Y3775296D01*
X59665756Y3775296D01*
X59517825Y3745870D01*
X59363128Y3681792D01*
X59223912Y3588770D01*
X59105520Y3470378D01*
X59012498Y3331162D01*
X58948420Y3176464D01*
X58915758Y3012261D01*
X58915757Y3012248D01*
X29571331Y3012248D01*
X29645663Y3086580D01*
X29756250Y3252085D01*
X29832424Y3435984D01*
X29871257Y3631210D01*
X29871257Y3830262D01*
X29832424Y4025488D01*
X29756250Y4209387D01*
X29645663Y4374892D01*
X29504913Y4515642D01*
X29372751Y4603950D01*
X29343897Y4623230D01*
X29343896Y4623232D01*
X29339418Y4626223D01*
X29339412Y4626227D01*
X29339409Y4626229D01*
X29339408Y4626229D01*
X29155509Y4702403D01*
X29155506Y4702404D01*
X29155503Y4702405D01*
X28960292Y4741235D01*
X28960285Y4741236D01*
X28960283Y4741236D01*
X28761231Y4741236D01*
X28761228Y4741236D01*
X28761221Y4741235D01*
X28566010Y4702405D01*
X28382101Y4626227D01*
X28382100Y4626226D01*
X28216603Y4515644D01*
X28075849Y4374890D01*
X27965267Y4209393D01*
X27965266Y4209392D01*
X27889088Y4025483D01*
X27850258Y3830272D01*
X27850257Y3830259D01*
X300376Y3830259D01*
X300278Y5267359D01*
X25560257Y5267359D01*
X25560257Y5094114D01*
X25587354Y4923041D01*
X25587354Y4923038D01*
X25640885Y4758288D01*
X25649574Y4741235D01*
X25719525Y4603948D01*
X25821343Y4463808D01*
X25943829Y4341322D01*
X26083969Y4239504D01*
X26238312Y4160863D01*
X26403056Y4107334D01*
X26473706Y4096145D01*
X26574134Y4080237D01*
X26574146Y4080236D01*
X26747368Y4080236D01*
X26747379Y4080237D01*
X26822399Y4092120D01*
X26918458Y4107334D01*
X27083202Y4160863D01*
X27237545Y4239504D01*
X27377685Y4341322D01*
X27500171Y4463808D01*
X27601989Y4603948D01*
X27680630Y4758291D01*
X27734159Y4923035D01*
X27752439Y5038448D01*
X76065757Y5038448D01*
X76065757Y4854734D01*
X76065758Y4854733D01*
X76590757Y4854733D01*
X76590757Y4654733D01*
X76065758Y4654733D01*
X76065757Y4654732D01*
X76065757Y4471019D01*
X76065758Y4471006D01*
X76098420Y4306803D01*
X76162498Y4152105D01*
X76255520Y4012889D01*
X76373912Y3894497D01*
X76513128Y3801475D01*
X76667826Y3737397D01*
X76815756Y3707972D01*
X76815757Y3707972D01*
X76815757Y4245064D01*
X76872970Y4229733D01*
X76958544Y4229733D01*
X77015757Y4245064D01*
X77015757Y3707972D01*
X77163687Y3737397D01*
X77318385Y3801475D01*
X77457601Y3894497D01*
X77575993Y4012889D01*
X77669015Y4152105D01*
X77733093Y4306803D01*
X77765755Y4471006D01*
X77765757Y4471019D01*
X77765757Y4654732D01*
X77765756Y4654733D01*
X77240757Y4654733D01*
X77240757Y4854733D01*
X77765756Y4854733D01*
X77765757Y4854734D01*
X77765757Y5038448D01*
X80905757Y5038448D01*
X80905757Y4854734D01*
X80905758Y4854733D01*
X81430757Y4854733D01*
X81430757Y4654733D01*
X80905758Y4654733D01*
X80905757Y4654732D01*
X80905757Y4471019D01*
X80905758Y4471006D01*
X80938420Y4306803D01*
X81002498Y4152105D01*
X81095520Y4012889D01*
X81213912Y3894497D01*
X81353128Y3801475D01*
X81507826Y3737397D01*
X81655756Y3707972D01*
X81655757Y3707972D01*
X81655757Y4245064D01*
X81712970Y4229733D01*
X81798544Y4229733D01*
X81855757Y4245064D01*
X81855757Y3707972D01*
X82003687Y3737397D01*
X82158385Y3801475D01*
X82297601Y3894497D01*
X82415993Y4012889D01*
X82509015Y4152105D01*
X82573093Y4306803D01*
X82605755Y4471006D01*
X82605757Y4471019D01*
X82605757Y4654732D01*
X82605756Y4654733D01*
X82080757Y4654733D01*
X82080757Y4854733D01*
X82605756Y4854733D01*
X82605757Y4854734D01*
X82605757Y5038448D01*
X82605755Y5038461D01*
X82573093Y5202664D01*
X82509015Y5357362D01*
X82415993Y5496578D01*
X82297601Y5614970D01*
X82158385Y5707992D01*
X82003688Y5772070D01*
X81855757Y5801496D01*
X81855757Y5264403D01*
X81798544Y5279733D01*
X81712970Y5279733D01*
X81655757Y5264403D01*
X81655757Y5801496D01*
X81655756Y5801496D01*
X81507825Y5772070D01*
X81353128Y5707992D01*
X81213912Y5614970D01*
X81095520Y5496578D01*
X81002498Y5357362D01*
X80938420Y5202664D01*
X80905758Y5038461D01*
X80905757Y5038448D01*
X77765757Y5038448D01*
X77765755Y5038461D01*
X77733093Y5202664D01*
X77669015Y5357362D01*
X77575993Y5496578D01*
X77457601Y5614970D01*
X77318385Y5707992D01*
X77163688Y5772070D01*
X77015757Y5801496D01*
X77015757Y5264403D01*
X76958544Y5279733D01*
X76872970Y5279733D01*
X76815757Y5264403D01*
X76815757Y5801496D01*
X76815756Y5801496D01*
X76667825Y5772070D01*
X76513128Y5707992D01*
X76373912Y5614970D01*
X76255520Y5496578D01*
X76162498Y5357362D01*
X76098420Y5202664D01*
X76065758Y5038461D01*
X76065757Y5038448D01*
X27752439Y5038448D01*
X27752441Y5038461D01*
X27754898Y5053971D01*
X27761256Y5094114D01*
X27761257Y5094125D01*
X27761257Y5267348D01*
X27761256Y5267359D01*
X27739399Y5405353D01*
X27734159Y5438437D01*
X27680630Y5603181D01*
X27601989Y5757524D01*
X27500171Y5897664D01*
X27377685Y6020150D01*
X27237545Y6121968D01*
X27232176Y6124704D01*
X27083205Y6200608D01*
X27083202Y6200609D01*
X26918458Y6254138D01*
X26918454Y6254139D01*
X26918453Y6254139D01*
X26747379Y6281236D01*
X26747368Y6281236D01*
X26574146Y6281236D01*
X26574134Y6281236D01*
X26403061Y6254139D01*
X26403058Y6254139D01*
X26238308Y6200608D01*
X26083970Y6121969D01*
X25943831Y6020152D01*
X25821341Y5897662D01*
X25719524Y5757523D01*
X25640885Y5603185D01*
X25587354Y5438435D01*
X25587354Y5438432D01*
X25560257Y5267359D01*
X300278Y5267359D01*
X300140Y7292540D01*
X570757Y7292540D01*
X570757Y7056567D01*
X601556Y6822634D01*
X601557Y6822632D01*
X662624Y6594725D01*
X662625Y6594721D01*
X752921Y6376727D01*
X752925Y6376719D01*
X870903Y6172377D01*
X1014534Y5985193D01*
X1027254Y5972473D01*
X1809438Y6754659D01*
X1827031Y6728329D01*
X1924533Y6630827D01*
X1950860Y6613236D01*
X1168676Y5831051D01*
X1181396Y5818331D01*
X1368580Y5674700D01*
X1572922Y5556722D01*
X1572930Y5556718D01*
X1790924Y5466422D01*
X1790928Y5466421D01*
X2018835Y5405354D01*
X2018837Y5405353D01*
X2252770Y5374554D01*
X2252783Y5374553D01*
X2488731Y5374553D01*
X2488743Y5374554D01*
X2722676Y5405353D01*
X2722678Y5405354D01*
X2950585Y5466421D01*
X2950589Y5466422D01*
X3168583Y5556718D01*
X3168591Y5556722D01*
X3372929Y5674698D01*
X3560125Y5818338D01*
X3560127Y5818340D01*
X3572837Y5831051D01*
X2790652Y6613236D01*
X2816981Y6630827D01*
X2914483Y6728329D01*
X2932074Y6754658D01*
X3714259Y5972473D01*
X3726970Y5985183D01*
X3726972Y5985185D01*
X3870612Y6172381D01*
X3988588Y6376719D01*
X3988592Y6376727D01*
X4078888Y6594721D01*
X4078889Y6594725D01*
X4139956Y6822632D01*
X4139957Y6822634D01*
X4170756Y7056567D01*
X4170757Y7056579D01*
X4170757Y7292528D01*
X4170756Y7292540D01*
X16800757Y7292540D01*
X16800757Y7056567D01*
X16831556Y6822634D01*
X16831557Y6822632D01*
X16892624Y6594725D01*
X16892625Y6594721D01*
X16982921Y6376727D01*
X16982925Y6376719D01*
X17100903Y6172377D01*
X17244534Y5985193D01*
X17257254Y5972473D01*
X18039438Y6754659D01*
X18057031Y6728329D01*
X18154533Y6630827D01*
X18180860Y6613236D01*
X17398676Y5831051D01*
X17411396Y5818331D01*
X17598580Y5674700D01*
X17802922Y5556722D01*
X17802930Y5556718D01*
X18020924Y5466422D01*
X18020928Y5466421D01*
X18248835Y5405354D01*
X18248837Y5405353D01*
X18482770Y5374554D01*
X18482783Y5374553D01*
X18718731Y5374553D01*
X18718743Y5374554D01*
X18952676Y5405353D01*
X18952678Y5405354D01*
X19180585Y5466421D01*
X19180589Y5466422D01*
X19398583Y5556718D01*
X19398591Y5556722D01*
X19602929Y5674698D01*
X19790125Y5818338D01*
X19790127Y5818340D01*
X19802837Y5831051D01*
X19020652Y6613236D01*
X19046981Y6630827D01*
X19144483Y6728329D01*
X19162074Y6754658D01*
X19944259Y5972473D01*
X19956970Y5985183D01*
X19956972Y5985185D01*
X20100612Y6172381D01*
X20218588Y6376719D01*
X20218592Y6376727D01*
X20308888Y6594721D01*
X20308889Y6594725D01*
X20369956Y6822632D01*
X20369957Y6822634D01*
X20400756Y7056567D01*
X20400757Y7056579D01*
X20400757Y7292528D01*
X20400756Y7292540D01*
X20369957Y7526473D01*
X20369956Y7526475D01*
X20308889Y7754382D01*
X20308888Y7754386D01*
X20218592Y7972380D01*
X20218588Y7972388D01*
X20100610Y8176730D01*
X20064072Y8224347D01*
X20064069Y8224351D01*
X20031068Y8267359D01*
X25560257Y8267359D01*
X25560257Y8094114D01*
X25587354Y7923041D01*
X25587354Y7923038D01*
X25587355Y7923035D01*
X25637658Y7768218D01*
X25640885Y7758288D01*
X25696315Y7649501D01*
X25719525Y7603948D01*
X25821343Y7463808D01*
X25943829Y7341322D01*
X26083969Y7239504D01*
X26238312Y7160863D01*
X26403056Y7107334D01*
X26473706Y7096145D01*
X26574134Y7080237D01*
X26574146Y7080236D01*
X26747368Y7080236D01*
X26747379Y7080237D01*
X26822399Y7092120D01*
X26918458Y7107334D01*
X27083202Y7160863D01*
X27237545Y7239504D01*
X27360808Y7329060D01*
X32985257Y7329060D01*
X32985257Y7170941D01*
X33026177Y7018224D01*
X33026179Y7018218D01*
X33026180Y7018216D01*
X33105237Y6881284D01*
X33217041Y6769480D01*
X33353973Y6690423D01*
X33506700Y6649500D01*
X33506701Y6649500D01*
X33664813Y6649500D01*
X33664814Y6649500D01*
X33817541Y6690423D01*
X33841161Y6704060D01*
X56735257Y6704060D01*
X56735257Y6545941D01*
X56776177Y6393224D01*
X56776179Y6393218D01*
X56776180Y6393216D01*
X56855237Y6256284D01*
X56967041Y6144480D01*
X57103973Y6065423D01*
X57256700Y6024500D01*
X57256701Y6024500D01*
X57414813Y6024500D01*
X57414814Y6024500D01*
X57567541Y6065423D01*
X57704473Y6144480D01*
X57816277Y6256284D01*
X57895334Y6393216D01*
X57936257Y6545943D01*
X57936257Y6704057D01*
X57907267Y6812248D01*
X58915757Y6812248D01*
X58915757Y6528534D01*
X58915758Y6528533D01*
X59465757Y6528533D01*
X59465757Y6328533D01*
X58915758Y6328533D01*
X58915757Y6328532D01*
X58915757Y6044819D01*
X58915758Y6044806D01*
X58948420Y5880603D01*
X59012498Y5725905D01*
X59105520Y5586689D01*
X59223912Y5468297D01*
X59363128Y5375275D01*
X59517826Y5311197D01*
X59665756Y5281772D01*
X59665757Y5281772D01*
X59665757Y5844745D01*
X59726261Y5828533D01*
X59805253Y5828533D01*
X59865757Y5844745D01*
X59865757Y5281772D01*
X60013687Y5311197D01*
X60168385Y5375275D01*
X60307601Y5468297D01*
X60425993Y5586689D01*
X60519015Y5725905D01*
X60583093Y5880603D01*
X60615755Y6044806D01*
X60615757Y6044819D01*
X60615757Y6328532D01*
X60615756Y6328533D01*
X60065757Y6328533D01*
X60065757Y6528533D01*
X60615756Y6528533D01*
X60615757Y6528534D01*
X60615757Y6812248D01*
X67555757Y6812248D01*
X67555757Y6528534D01*
X67555758Y6528533D01*
X68105757Y6528533D01*
X68105757Y6328533D01*
X67555758Y6328533D01*
X67555757Y6328532D01*
X67555757Y6044819D01*
X67555758Y6044806D01*
X67588420Y5880603D01*
X67652498Y5725905D01*
X67745520Y5586689D01*
X67863912Y5468297D01*
X68003128Y5375275D01*
X68157826Y5311197D01*
X68305756Y5281772D01*
X68305757Y5281772D01*
X68305757Y5844745D01*
X68366261Y5828533D01*
X68445253Y5828533D01*
X68505757Y5844745D01*
X68505757Y5281772D01*
X68653687Y5311197D01*
X68808385Y5375275D01*
X68947601Y5468297D01*
X69065993Y5586689D01*
X69159015Y5725905D01*
X69223093Y5880603D01*
X69255755Y6044806D01*
X69255757Y6044819D01*
X69255757Y6328532D01*
X69255756Y6328533D01*
X68705757Y6328533D01*
X68705757Y6528533D01*
X69255756Y6528533D01*
X69255757Y6528534D01*
X69255757Y6812248D01*
X69255755Y6812261D01*
X69223093Y6976464D01*
X69190516Y7055113D01*
X69180597Y7079060D01*
X78045257Y7079060D01*
X78045257Y6920941D01*
X78086177Y6768224D01*
X78086179Y6768218D01*
X78154719Y6649501D01*
X78165237Y6631284D01*
X78277041Y6519480D01*
X78413973Y6440423D01*
X78566700Y6399500D01*
X78566701Y6399500D01*
X78724813Y6399500D01*
X78724814Y6399500D01*
X78877541Y6440423D01*
X78973009Y6495542D01*
X79023867Y6504509D01*
X79048502Y6495543D01*
X79143973Y6440423D01*
X79296700Y6399500D01*
X79296701Y6399500D01*
X79454813Y6399500D01*
X79454814Y6399500D01*
X79607541Y6440423D01*
X79744473Y6519480D01*
X79856277Y6631284D01*
X79935334Y6768216D01*
X79976257Y6920943D01*
X79976257Y7079057D01*
X79935334Y7231784D01*
X79856277Y7368716D01*
X79744473Y7480520D01*
X79742285Y7481783D01*
X79617097Y7554060D01*
X79607541Y7559577D01*
X79607540Y7559578D01*
X79607539Y7559578D01*
X79607533Y7559580D01*
X79454816Y7600500D01*
X79454814Y7600500D01*
X79296700Y7600500D01*
X79296697Y7600500D01*
X79143980Y7559580D01*
X79143970Y7559576D01*
X79048506Y7504461D01*
X78997646Y7495493D01*
X78973008Y7504461D01*
X78877543Y7559576D01*
X78877533Y7559580D01*
X78724816Y7600500D01*
X78724814Y7600500D01*
X78566700Y7600500D01*
X78566697Y7600500D01*
X78413980Y7559580D01*
X78413974Y7559578D01*
X78277043Y7480522D01*
X78165235Y7368714D01*
X78086179Y7231783D01*
X78086177Y7231777D01*
X78045257Y7079060D01*
X69180597Y7079060D01*
X69159015Y7131162D01*
X69065993Y7270378D01*
X68947601Y7388770D01*
X68808385Y7481792D01*
X68653688Y7545870D01*
X68505757Y7575296D01*
X68505757Y7012322D01*
X68445253Y7028533D01*
X68366261Y7028533D01*
X68305757Y7012322D01*
X68305757Y7575296D01*
X68305756Y7575296D01*
X68157825Y7545870D01*
X68003128Y7481792D01*
X67863912Y7388770D01*
X67745520Y7270378D01*
X67652498Y7131162D01*
X67588420Y6976464D01*
X67555758Y6812261D01*
X67555757Y6812248D01*
X60615757Y6812248D01*
X60615755Y6812261D01*
X60583093Y6976464D01*
X60519015Y7131162D01*
X60425993Y7270378D01*
X60307601Y7388770D01*
X60168385Y7481792D01*
X60013688Y7545870D01*
X59865757Y7575296D01*
X59865757Y7012322D01*
X59805253Y7028533D01*
X59726261Y7028533D01*
X59665757Y7012322D01*
X59665757Y7575296D01*
X59665756Y7575296D01*
X59517825Y7545870D01*
X59363128Y7481792D01*
X59223912Y7388770D01*
X59105520Y7270378D01*
X59012498Y7131162D01*
X58948420Y6976464D01*
X58915758Y6812261D01*
X58915757Y6812248D01*
X57907267Y6812248D01*
X57895334Y6856784D01*
X57816277Y6993716D01*
X57704473Y7105520D01*
X57660059Y7131162D01*
X57591154Y7170944D01*
X57567541Y7184577D01*
X57567540Y7184578D01*
X57567539Y7184578D01*
X57567533Y7184580D01*
X57414816Y7225500D01*
X57414814Y7225500D01*
X57256700Y7225500D01*
X57256697Y7225500D01*
X57103980Y7184580D01*
X57103974Y7184578D01*
X56967043Y7105522D01*
X56855235Y6993714D01*
X56776179Y6856783D01*
X56776177Y6856777D01*
X56735257Y6704060D01*
X33841161Y6704060D01*
X33954473Y6769480D01*
X34066277Y6881284D01*
X34145334Y7018216D01*
X34186257Y7170943D01*
X34186257Y7329057D01*
X34145334Y7481784D01*
X34066277Y7618716D01*
X33990278Y7694715D01*
X61967735Y7694715D01*
X61967735Y7536596D01*
X62008655Y7383879D01*
X62008657Y7383873D01*
X62074182Y7270378D01*
X62087715Y7246939D01*
X62199519Y7135135D01*
X62336451Y7056078D01*
X62489178Y7015155D01*
X62489179Y7015155D01*
X62647291Y7015155D01*
X62647292Y7015155D01*
X62800019Y7056078D01*
X62936951Y7135135D01*
X63048755Y7246939D01*
X63127812Y7383871D01*
X63168735Y7536598D01*
X63168735Y7574990D01*
X63186399Y7623520D01*
X63231125Y7649343D01*
X63254095Y7649843D01*
X63256699Y7649500D01*
X63256700Y7649500D01*
X63414813Y7649500D01*
X63414814Y7649500D01*
X63567541Y7690423D01*
X63704473Y7769480D01*
X63816277Y7881284D01*
X63895334Y8018216D01*
X63895334Y8018219D01*
X63895372Y8018283D01*
X63934934Y8051480D01*
X63986579Y8051480D01*
X64026142Y8018283D01*
X64026179Y8018219D01*
X64026180Y8018216D01*
X64082340Y7920943D01*
X64099960Y7890423D01*
X64105237Y7881284D01*
X64217041Y7769480D01*
X64353973Y7690423D01*
X64506700Y7649500D01*
X64506701Y7649500D01*
X64664813Y7649500D01*
X64664814Y7649500D01*
X64817541Y7690423D01*
X64930899Y7755871D01*
X64981760Y7764838D01*
X65026486Y7739015D01*
X65044149Y7690485D01*
X65041576Y7670944D01*
X65010257Y7554060D01*
X65010257Y7395941D01*
X65051177Y7243224D01*
X65051179Y7243218D01*
X65113580Y7135134D01*
X65130237Y7106284D01*
X65242041Y6994480D01*
X65378973Y6915423D01*
X65378978Y6915422D01*
X65378980Y6915421D01*
X65438234Y6899545D01*
X65531700Y6874500D01*
X65531701Y6874500D01*
X65689812Y6874500D01*
X65689814Y6874500D01*
X65842541Y6915423D01*
X65979473Y6994480D01*
X66091277Y7106284D01*
X66170334Y7243216D01*
X66209047Y7387696D01*
X66238669Y7430000D01*
X66288554Y7443367D01*
X66301515Y7441081D01*
X66419303Y7409521D01*
X66456700Y7399500D01*
X66456701Y7399500D01*
X66614813Y7399500D01*
X66614814Y7399500D01*
X66767541Y7440423D01*
X66904473Y7519480D01*
X67016277Y7631284D01*
X67095334Y7768216D01*
X67136257Y7920943D01*
X67136257Y8079057D01*
X67099522Y8216155D01*
X67095336Y8231777D01*
X67095334Y8231783D01*
X67095334Y8231784D01*
X67016277Y8368716D01*
X66904473Y8480520D01*
X66902285Y8481783D01*
X66767539Y8559578D01*
X66767533Y8559580D01*
X66614816Y8600500D01*
X66614814Y8600500D01*
X66456700Y8600500D01*
X66456697Y8600500D01*
X66303980Y8559580D01*
X66303974Y8559578D01*
X66167043Y8480522D01*
X66055235Y8368714D01*
X65976179Y8231783D01*
X65976177Y8231777D01*
X65937466Y8087306D01*
X65907844Y8045001D01*
X65857959Y8031634D01*
X65844999Y8033919D01*
X65761891Y8056187D01*
X65689814Y8075500D01*
X65531700Y8075500D01*
X65531697Y8075500D01*
X65378980Y8034580D01*
X65378970Y8034576D01*
X65265613Y7969131D01*
X65214752Y7960163D01*
X65170027Y7985986D01*
X65152364Y8034517D01*
X65154936Y8054053D01*
X65186257Y8170943D01*
X65186257Y8329057D01*
X65145334Y8481784D01*
X65066277Y8618716D01*
X64954473Y8730520D01*
X64886993Y8769479D01*
X64817539Y8809578D01*
X64817533Y8809580D01*
X64664816Y8850500D01*
X64664814Y8850500D01*
X64506700Y8850500D01*
X64506697Y8850500D01*
X64353980Y8809580D01*
X64353974Y8809578D01*
X64217043Y8730522D01*
X64105235Y8618714D01*
X64026142Y8481718D01*
X63986580Y8448521D01*
X63934935Y8448521D01*
X63895372Y8481718D01*
X63878654Y8510675D01*
X63816277Y8618716D01*
X63704473Y8730520D01*
X63636993Y8769479D01*
X63567539Y8809578D01*
X63567533Y8809580D01*
X63414816Y8850500D01*
X63414814Y8850500D01*
X63256700Y8850500D01*
X63256697Y8850500D01*
X63103980Y8809580D01*
X63103974Y8809578D01*
X62967043Y8730522D01*
X62855235Y8618714D01*
X62776179Y8481783D01*
X62776177Y8481777D01*
X62735257Y8329060D01*
X62735257Y8290666D01*
X62717593Y8242136D01*
X62672867Y8216313D01*
X62649907Y8215811D01*
X62647293Y8216155D01*
X62647292Y8216155D01*
X62489178Y8216155D01*
X62489175Y8216155D01*
X62336458Y8175235D01*
X62336452Y8175233D01*
X62199521Y8096177D01*
X62087713Y7984369D01*
X62008657Y7847438D01*
X62008655Y7847432D01*
X61967735Y7694715D01*
X33990278Y7694715D01*
X33954473Y7730520D01*
X33913142Y7754382D01*
X33867655Y7780644D01*
X33817541Y7809577D01*
X33817540Y7809578D01*
X33817539Y7809578D01*
X33817533Y7809580D01*
X33664816Y7850500D01*
X33664814Y7850500D01*
X33506700Y7850500D01*
X33506697Y7850500D01*
X33353980Y7809580D01*
X33353974Y7809578D01*
X33217043Y7730522D01*
X33105235Y7618714D01*
X33026179Y7481783D01*
X33026177Y7481777D01*
X32985257Y7329060D01*
X27360808Y7329060D01*
X27377685Y7341322D01*
X27500171Y7463808D01*
X27601989Y7603948D01*
X27680630Y7758291D01*
X27734159Y7923035D01*
X27749373Y8019094D01*
X27761256Y8094114D01*
X27761257Y8094125D01*
X27761257Y8267348D01*
X27761256Y8267359D01*
X27744849Y8370944D01*
X27734159Y8438437D01*
X27704714Y8529060D01*
X36010257Y8529060D01*
X36010257Y8370941D01*
X36051177Y8218224D01*
X36051179Y8218218D01*
X36122829Y8094114D01*
X36130237Y8081284D01*
X36242041Y7969480D01*
X36378973Y7890423D01*
X36531700Y7849500D01*
X36531701Y7849500D01*
X36689813Y7849500D01*
X36689814Y7849500D01*
X36842541Y7890423D01*
X36979473Y7969480D01*
X37091277Y8081284D01*
X37170334Y8218216D01*
X37211257Y8370943D01*
X37211257Y8529057D01*
X37186212Y8622523D01*
X37170336Y8681777D01*
X37170334Y8681783D01*
X37170334Y8681784D01*
X37091277Y8818716D01*
X36979473Y8930520D01*
X36842541Y9009577D01*
X36842540Y9009578D01*
X36842539Y9009578D01*
X36842533Y9009580D01*
X36689816Y9050500D01*
X36689814Y9050500D01*
X36531700Y9050500D01*
X36531697Y9050500D01*
X36378980Y9009580D01*
X36378974Y9009578D01*
X36242043Y8930522D01*
X36130235Y8818714D01*
X36051179Y8681783D01*
X36051177Y8681777D01*
X36010257Y8529060D01*
X27704714Y8529060D01*
X27680630Y8603181D01*
X27601989Y8757524D01*
X27500171Y8897664D01*
X27377685Y9020150D01*
X27237545Y9121968D01*
X27232176Y9124704D01*
X27083205Y9200608D01*
X27083202Y9200609D01*
X26918458Y9254138D01*
X26918454Y9254139D01*
X26918453Y9254139D01*
X26885009Y9259436D01*
X26747379Y9281236D01*
X26747368Y9281236D01*
X26574146Y9281236D01*
X26574134Y9281236D01*
X26403061Y9254139D01*
X26403058Y9254139D01*
X26238308Y9200608D01*
X26083970Y9121969D01*
X25943831Y9020152D01*
X25821341Y8897662D01*
X25719524Y8757523D01*
X25640885Y8603185D01*
X25587354Y8438435D01*
X25587354Y8438432D01*
X25560257Y8267359D01*
X20031068Y8267359D01*
X19956975Y8363918D01*
X19944259Y8376634D01*
X19162074Y7594450D01*
X19144483Y7620777D01*
X19046981Y7718279D01*
X19020651Y7735872D01*
X19802837Y8518056D01*
X19790117Y8530776D01*
X19602933Y8674407D01*
X19398591Y8792385D01*
X19398583Y8792389D01*
X19180589Y8882685D01*
X19180585Y8882686D01*
X18952678Y8943753D01*
X18952676Y8943754D01*
X18718743Y8974553D01*
X18482770Y8974553D01*
X18248837Y8943754D01*
X18248835Y8943753D01*
X18020928Y8882686D01*
X18020924Y8882685D01*
X17802930Y8792389D01*
X17802922Y8792385D01*
X17598580Y8674407D01*
X17411397Y8530777D01*
X17411384Y8530765D01*
X17398675Y8518056D01*
X18180860Y7735871D01*
X18154533Y7718279D01*
X18057031Y7620777D01*
X18039439Y7594449D01*
X17257253Y8376635D01*
X17244545Y8363926D01*
X17244533Y8363913D01*
X17100903Y8176730D01*
X16982925Y7972388D01*
X16982921Y7972380D01*
X16892625Y7754386D01*
X16892624Y7754382D01*
X16831557Y7526475D01*
X16831556Y7526473D01*
X16800757Y7292540D01*
X4170756Y7292540D01*
X4139957Y7526473D01*
X4139956Y7526475D01*
X4078889Y7754382D01*
X4078888Y7754386D01*
X3988592Y7972380D01*
X3988588Y7972388D01*
X3870610Y8176730D01*
X3726979Y8363914D01*
X3714259Y8376634D01*
X2932074Y7594450D01*
X2914483Y7620777D01*
X2816981Y7718279D01*
X2790651Y7735872D01*
X3572837Y8518056D01*
X3560117Y8530776D01*
X3372933Y8674407D01*
X3168591Y8792385D01*
X3168583Y8792389D01*
X2950589Y8882685D01*
X2950585Y8882686D01*
X2722678Y8943753D01*
X2722676Y8943754D01*
X2488743Y8974553D01*
X2252770Y8974553D01*
X2018837Y8943754D01*
X2018835Y8943753D01*
X1790928Y8882686D01*
X1790924Y8882685D01*
X1572930Y8792389D01*
X1572922Y8792385D01*
X1368580Y8674407D01*
X1181397Y8530777D01*
X1181384Y8530765D01*
X1168675Y8518056D01*
X1950860Y7735871D01*
X1924533Y7718279D01*
X1827031Y7620777D01*
X1809439Y7594449D01*
X1027253Y8376635D01*
X1014545Y8363926D01*
X1014533Y8363913D01*
X870903Y8176730D01*
X752925Y7972388D01*
X752921Y7972380D01*
X662625Y7754386D01*
X662624Y7754382D01*
X601557Y7526475D01*
X601556Y7526473D01*
X570757Y7292540D01*
X300140Y7292540D01*
X300001Y9329060D01*
X45985257Y9329060D01*
X45985257Y9170941D01*
X46026177Y9018225D01*
X46026179Y9018218D01*
X46104427Y8882686D01*
X46105237Y8881284D01*
X46217041Y8769480D01*
X46353973Y8690423D01*
X46506700Y8649500D01*
X46506701Y8649500D01*
X46664813Y8649500D01*
X46664814Y8649500D01*
X46817541Y8690423D01*
X46954473Y8769480D01*
X47066277Y8881284D01*
X47145334Y9018216D01*
X47145335Y9018222D01*
X47145337Y9018225D01*
X47186256Y9170941D01*
X47186257Y9170944D01*
X47186257Y9329056D01*
X47186256Y9329060D01*
X57860257Y9329060D01*
X57860257Y9170941D01*
X57901177Y9018225D01*
X57901179Y9018218D01*
X57979427Y8882686D01*
X57980237Y8881284D01*
X58092041Y8769480D01*
X58228973Y8690423D01*
X58381700Y8649500D01*
X58381701Y8649500D01*
X58539813Y8649500D01*
X58539814Y8649500D01*
X58692541Y8690423D01*
X58829473Y8769480D01*
X58941277Y8881284D01*
X59020334Y9018216D01*
X59020335Y9018222D01*
X59020337Y9018225D01*
X59061256Y9170941D01*
X59061257Y9170944D01*
X59061257Y9329056D01*
X59061256Y9329060D01*
X59020336Y9481777D01*
X59020334Y9481783D01*
X59020334Y9481784D01*
X58941277Y9618716D01*
X58829473Y9730520D01*
X58692541Y9809577D01*
X58692540Y9809578D01*
X58692539Y9809578D01*
X58692533Y9809580D01*
X58539816Y9850500D01*
X58539814Y9850500D01*
X58381700Y9850500D01*
X58381697Y9850500D01*
X58228980Y9809580D01*
X58228974Y9809578D01*
X58092043Y9730522D01*
X57980235Y9618714D01*
X57901179Y9481783D01*
X57901177Y9481777D01*
X57860257Y9329060D01*
X47186256Y9329060D01*
X47145336Y9481777D01*
X47145334Y9481783D01*
X47145334Y9481784D01*
X47066277Y9618716D01*
X46954473Y9730520D01*
X46817541Y9809577D01*
X46817540Y9809578D01*
X46817539Y9809578D01*
X46817533Y9809580D01*
X46664816Y9850500D01*
X46664814Y9850500D01*
X46506700Y9850500D01*
X46506697Y9850500D01*
X46353980Y9809580D01*
X46353974Y9809578D01*
X46217043Y9730522D01*
X46105235Y9618714D01*
X46026179Y9481783D01*
X46026177Y9481777D01*
X45985257Y9329060D01*
X300001Y9329060D01*
X299899Y10830259D01*
X27850257Y10830259D01*
X27850257Y10631214D01*
X27850258Y10631201D01*
X27889088Y10435990D01*
X27965266Y10252081D01*
X27965267Y10252080D01*
X28075851Y10086580D01*
X28216601Y9945830D01*
X28359272Y9850500D01*
X28382100Y9835247D01*
X28382101Y9835246D01*
X28382102Y9835246D01*
X28382106Y9835243D01*
X28566005Y9759069D01*
X28761231Y9720236D01*
X28761235Y9720236D01*
X28960279Y9720236D01*
X28960283Y9720236D01*
X29155509Y9759069D01*
X29339408Y9835243D01*
X29504913Y9945830D01*
X29645663Y10086580D01*
X29756250Y10252085D01*
X29832424Y10435984D01*
X29871257Y10631210D01*
X29871257Y10830262D01*
X29832424Y11025488D01*
X29756250Y11209387D01*
X29645663Y11374892D01*
X29504913Y11515642D01*
X29406673Y11581284D01*
X29339413Y11626226D01*
X29339412Y11626227D01*
X29339409Y11626229D01*
X29339408Y11626229D01*
X29332573Y11629060D01*
X55635257Y11629060D01*
X55635257Y11470941D01*
X55676177Y11318224D01*
X55676179Y11318218D01*
X55676180Y11318216D01*
X55755237Y11181284D01*
X55867041Y11069480D01*
X56003973Y10990423D01*
X56156700Y10949500D01*
X56156701Y10949500D01*
X56314813Y10949500D01*
X56314814Y10949500D01*
X56467541Y10990423D01*
X56604473Y11069480D01*
X56716277Y11181284D01*
X56795334Y11318216D01*
X56836257Y11470943D01*
X56836257Y11629057D01*
X56795334Y11781784D01*
X56716277Y11918716D01*
X56605933Y12029060D01*
X63320742Y12029060D01*
X63320742Y11870941D01*
X63361662Y11718224D01*
X63361664Y11718218D01*
X63361665Y11718216D01*
X63440722Y11581284D01*
X63552526Y11469480D01*
X63689458Y11390423D01*
X63842185Y11349500D01*
X63842186Y11349500D01*
X64000298Y11349500D01*
X64000299Y11349500D01*
X64153026Y11390423D01*
X64289958Y11469480D01*
X64401762Y11581284D01*
X64480819Y11718216D01*
X64521742Y11870943D01*
X64521742Y12029057D01*
X64489202Y12150500D01*
X64480821Y12181777D01*
X64480819Y12181783D01*
X64480819Y12181784D01*
X64401762Y12318716D01*
X64289958Y12430520D01*
X64276245Y12438437D01*
X64153024Y12509578D01*
X64153018Y12509580D01*
X64000301Y12550500D01*
X64000299Y12550500D01*
X63842185Y12550500D01*
X63842182Y12550500D01*
X63689465Y12509580D01*
X63689459Y12509578D01*
X63552528Y12430522D01*
X63440720Y12318714D01*
X63361664Y12181783D01*
X63361662Y12181777D01*
X63320742Y12029060D01*
X56605933Y12029060D01*
X56604473Y12030520D01*
X56467541Y12109577D01*
X56467540Y12109578D01*
X56467539Y12109578D01*
X56467534Y12109580D01*
X56461397Y12111224D01*
X56419092Y12140847D01*
X56405726Y12190732D01*
X56427553Y12237538D01*
X56461397Y12257079D01*
X56492541Y12265423D01*
X56629473Y12344480D01*
X56741277Y12456284D01*
X56820334Y12593216D01*
X56861257Y12745943D01*
X56861257Y12904057D01*
X56830150Y13020150D01*
X56820336Y13056777D01*
X56820334Y13056783D01*
X56820334Y13056784D01*
X56741277Y13193716D01*
X56629473Y13305520D01*
X56492541Y13384577D01*
X56492540Y13384578D01*
X56492539Y13384578D01*
X56492533Y13384580D01*
X56339816Y13425500D01*
X56339814Y13425500D01*
X56181700Y13425500D01*
X56181697Y13425500D01*
X56028980Y13384580D01*
X56028974Y13384578D01*
X55892043Y13305522D01*
X55780235Y13193714D01*
X55701179Y13056783D01*
X55701177Y13056777D01*
X55660257Y12904060D01*
X55660257Y12745941D01*
X55701177Y12593224D01*
X55701179Y12593218D01*
X55749468Y12509577D01*
X55780237Y12456284D01*
X55892041Y12344480D01*
X56028973Y12265423D01*
X56028976Y12265423D01*
X56028979Y12265421D01*
X56035111Y12263778D01*
X56077418Y12234158D01*
X56090787Y12184273D01*
X56068963Y12137466D01*
X56035116Y12117923D01*
X56003979Y12109580D01*
X56003974Y12109578D01*
X55867043Y12030522D01*
X55755235Y11918714D01*
X55676179Y11781783D01*
X55676177Y11781777D01*
X55635257Y11629060D01*
X29332573Y11629060D01*
X29155509Y11702403D01*
X29155506Y11702404D01*
X29155503Y11702405D01*
X28960292Y11741235D01*
X28960285Y11741236D01*
X28960283Y11741236D01*
X28761231Y11741236D01*
X28761228Y11741236D01*
X28761221Y11741235D01*
X28566010Y11702405D01*
X28382101Y11626227D01*
X28382100Y11626226D01*
X28216603Y11515644D01*
X28075849Y11374890D01*
X27965267Y11209393D01*
X27965266Y11209392D01*
X27889088Y11025483D01*
X27850258Y10830272D01*
X27850257Y10830259D01*
X299899Y10830259D01*
X299707Y13642540D01*
X570757Y13642540D01*
X570757Y13406567D01*
X601556Y13172634D01*
X601557Y13172632D01*
X662624Y12944725D01*
X662625Y12944721D01*
X752921Y12726727D01*
X752925Y12726719D01*
X870903Y12522377D01*
X1014534Y12335193D01*
X1027254Y12322473D01*
X1809438Y13104659D01*
X1827031Y13078329D01*
X1924533Y12980827D01*
X1950860Y12963236D01*
X1168676Y12181051D01*
X1181396Y12168331D01*
X1368580Y12024700D01*
X1572922Y11906722D01*
X1572930Y11906718D01*
X1790924Y11816422D01*
X1790928Y11816421D01*
X2018835Y11755354D01*
X2018837Y11755353D01*
X2252770Y11724554D01*
X2252783Y11724553D01*
X2488731Y11724553D01*
X2488743Y11724554D01*
X2722676Y11755353D01*
X2722678Y11755354D01*
X2950585Y11816421D01*
X2950589Y11816422D01*
X3168583Y11906718D01*
X3168591Y11906722D01*
X3372929Y12024698D01*
X3560125Y12168338D01*
X3560127Y12168340D01*
X3572837Y12181051D01*
X2790652Y12963236D01*
X2816981Y12980827D01*
X2914483Y13078329D01*
X2932074Y13104658D01*
X3714259Y12322473D01*
X3726970Y12335183D01*
X3726972Y12335185D01*
X3870612Y12522381D01*
X3988588Y12726719D01*
X3988592Y12726727D01*
X4078888Y12944721D01*
X4078889Y12944725D01*
X4139956Y13172632D01*
X4139957Y13172634D01*
X4170756Y13406567D01*
X4170757Y13406579D01*
X4170757Y13642528D01*
X4170756Y13642540D01*
X16800757Y13642540D01*
X16800757Y13406567D01*
X16831556Y13172634D01*
X16831557Y13172632D01*
X16892624Y12944725D01*
X16892625Y12944721D01*
X16982921Y12726727D01*
X16982925Y12726719D01*
X17100903Y12522377D01*
X17244534Y12335193D01*
X17257254Y12322473D01*
X18039438Y13104659D01*
X18057031Y13078329D01*
X18154533Y12980827D01*
X18180860Y12963236D01*
X17398676Y12181051D01*
X17411396Y12168331D01*
X17598580Y12024700D01*
X17802922Y11906722D01*
X17802930Y11906718D01*
X18020924Y11816422D01*
X18020928Y11816421D01*
X18248835Y11755354D01*
X18248837Y11755353D01*
X18482770Y11724554D01*
X18482783Y11724553D01*
X18718731Y11724553D01*
X18718743Y11724554D01*
X18952676Y11755353D01*
X18952678Y11755354D01*
X19180585Y11816421D01*
X19180589Y11816422D01*
X19398583Y11906718D01*
X19398591Y11906722D01*
X19602929Y12024698D01*
X19790125Y12168338D01*
X19790127Y12168340D01*
X19802837Y12181051D01*
X19716529Y12267359D01*
X25560257Y12267359D01*
X25560257Y12094114D01*
X25587354Y11923041D01*
X25587354Y11923038D01*
X25640885Y11758288D01*
X25658074Y11724553D01*
X25719525Y11603948D01*
X25821343Y11463808D01*
X25943829Y11341322D01*
X26083969Y11239504D01*
X26238312Y11160863D01*
X26403056Y11107334D01*
X26473706Y11096145D01*
X26574134Y11080237D01*
X26574146Y11080236D01*
X26747368Y11080236D01*
X26747379Y11080237D01*
X26822399Y11092120D01*
X26918458Y11107334D01*
X27083202Y11160863D01*
X27237545Y11239504D01*
X27377685Y11341322D01*
X27500171Y11463808D01*
X27601989Y11603948D01*
X27680630Y11758291D01*
X27734159Y11923035D01*
X27751183Y12030522D01*
X27761256Y12094114D01*
X27761257Y12094125D01*
X27761257Y12267348D01*
X27761256Y12267357D01*
X27748059Y12350675D01*
X27748059Y12350676D01*
X27747716Y12352838D01*
X27734159Y12438437D01*
X27680630Y12603181D01*
X27601989Y12757524D01*
X27500171Y12897664D01*
X27377685Y13020150D01*
X27237545Y13121968D01*
X27232176Y13124704D01*
X27083205Y13200608D01*
X27083202Y13200609D01*
X26918458Y13254138D01*
X26918454Y13254139D01*
X26918453Y13254139D01*
X26835236Y13267320D01*
X29960757Y13267320D01*
X29960757Y13094153D01*
X29987842Y12923158D01*
X29987842Y12923155D01*
X30041347Y12758482D01*
X30119957Y12604204D01*
X30119959Y12604202D01*
X30213731Y12475134D01*
X30710757Y12972160D01*
X30710757Y12734658D01*
X30720338Y12698898D01*
X30355153Y12333712D01*
X30484226Y12239936D01*
X30638502Y12161327D01*
X30803177Y12107822D01*
X30974173Y12080737D01*
X30974185Y12080736D01*
X31147329Y12080736D01*
X31147340Y12080737D01*
X31318335Y12107822D01*
X31318338Y12107822D01*
X31483011Y12161327D01*
X31637285Y12239935D01*
X31766359Y12333712D01*
X31401174Y12698897D01*
X31410757Y12734658D01*
X31410757Y12972158D01*
X31907781Y12475134D01*
X32001558Y12604208D01*
X32080166Y12758482D01*
X32133671Y12923155D01*
X32133671Y12923158D01*
X32160756Y13094153D01*
X32160757Y13094164D01*
X32160757Y13267309D01*
X32160756Y13267320D01*
X32133671Y13438315D01*
X32133671Y13438318D01*
X32080166Y13602991D01*
X32001557Y13757267D01*
X31907781Y13886340D01*
X31410757Y13389316D01*
X31410757Y13626814D01*
X31401174Y13662578D01*
X31766359Y14027762D01*
X31637291Y14121534D01*
X31637289Y14121536D01*
X31483011Y14200146D01*
X31318336Y14253651D01*
X31147340Y14280736D01*
X30974173Y14280736D01*
X30803178Y14253651D01*
X30803175Y14253651D01*
X30638502Y14200146D01*
X30484226Y14121537D01*
X30355153Y14027762D01*
X30720339Y13662576D01*
X30710757Y13626814D01*
X30710757Y13389314D01*
X30213731Y13886340D01*
X30119956Y13757267D01*
X30041347Y13602991D01*
X29987842Y13438318D01*
X29987842Y13438315D01*
X29960757Y13267320D01*
X26835236Y13267320D01*
X26747379Y13281236D01*
X26747368Y13281236D01*
X26574146Y13281236D01*
X26574134Y13281236D01*
X26403061Y13254139D01*
X26403058Y13254139D01*
X26238308Y13200608D01*
X26083970Y13121969D01*
X25943831Y13020152D01*
X25821341Y12897662D01*
X25719524Y12757523D01*
X25640885Y12603185D01*
X25587354Y12438435D01*
X25587354Y12438432D01*
X25560257Y12267359D01*
X19716529Y12267359D01*
X19020652Y12963236D01*
X19046981Y12980827D01*
X19144483Y13078329D01*
X19162074Y13104658D01*
X19944259Y12322473D01*
X19956974Y12335188D01*
X20100612Y12522381D01*
X20218588Y12726719D01*
X20218592Y12726727D01*
X20308888Y12944721D01*
X20308889Y12944725D01*
X20369956Y13172632D01*
X20369957Y13172634D01*
X20400756Y13406567D01*
X20400757Y13406579D01*
X20400757Y13642528D01*
X20400756Y13642540D01*
X20369957Y13876473D01*
X20369956Y13876475D01*
X20342366Y13979445D01*
X20308889Y14104382D01*
X20308888Y14104386D01*
X20218592Y14322380D01*
X20218588Y14322388D01*
X20100610Y14526730D01*
X20091931Y14538040D01*
X20091928Y14538044D01*
X20060455Y14579060D01*
X41210257Y14579060D01*
X41210257Y14420941D01*
X41251177Y14268224D01*
X41251179Y14268218D01*
X41322384Y14144885D01*
X41330237Y14131284D01*
X41442041Y14019480D01*
X41578973Y13940423D01*
X41731700Y13899500D01*
X41731701Y13899500D01*
X41889813Y13899500D01*
X41889814Y13899500D01*
X42042541Y13940423D01*
X42179473Y14019480D01*
X42291277Y14131284D01*
X42370334Y14268216D01*
X42386637Y14329060D01*
X64210257Y14329060D01*
X64210257Y14170941D01*
X64251177Y14018224D01*
X64251179Y14018218D01*
X64319719Y13899501D01*
X64330237Y13881284D01*
X64442041Y13769480D01*
X64578973Y13690423D01*
X64731700Y13649500D01*
X64731701Y13649500D01*
X64889813Y13649500D01*
X64889814Y13649500D01*
X65042541Y13690423D01*
X65179473Y13769480D01*
X65291277Y13881284D01*
X65370334Y14018216D01*
X65411257Y14170943D01*
X65411257Y14329057D01*
X65411256Y14329060D01*
X70485257Y14329060D01*
X70485257Y14170941D01*
X70526177Y14018224D01*
X70526179Y14018218D01*
X70594719Y13899501D01*
X70605237Y13881284D01*
X70717041Y13769480D01*
X70853973Y13690423D01*
X71006700Y13649500D01*
X71006701Y13649500D01*
X71164813Y13649500D01*
X71164814Y13649500D01*
X71317541Y13690423D01*
X71454473Y13769480D01*
X71566277Y13881284D01*
X71645334Y14018216D01*
X71686257Y14170943D01*
X71686257Y14329057D01*
X71686256Y14329060D01*
X75985257Y14329060D01*
X75985257Y14170941D01*
X76026177Y14018224D01*
X76026179Y14018218D01*
X76094719Y13899501D01*
X76105237Y13881284D01*
X76217041Y13769480D01*
X76353973Y13690423D01*
X76506700Y13649500D01*
X76506701Y13649500D01*
X76664813Y13649500D01*
X76664814Y13649500D01*
X76817541Y13690423D01*
X76954473Y13769480D01*
X77066277Y13881284D01*
X77145334Y14018216D01*
X77186257Y14170943D01*
X77186257Y14329057D01*
X77145334Y14481784D01*
X77089172Y14579060D01*
X80695257Y14579060D01*
X80695257Y14420941D01*
X80736177Y14268224D01*
X80736179Y14268218D01*
X80807384Y14144885D01*
X80815237Y14131284D01*
X80927041Y14019480D01*
X81063973Y13940423D01*
X81216700Y13899500D01*
X81216701Y13899500D01*
X81374813Y13899500D01*
X81374814Y13899500D01*
X81527541Y13940423D01*
X81664473Y14019480D01*
X81776277Y14131284D01*
X81855334Y14268216D01*
X81896257Y14420943D01*
X81896257Y14579057D01*
X81855334Y14731784D01*
X81776277Y14868716D01*
X81664473Y14980520D01*
X81527541Y15059577D01*
X81527540Y15059578D01*
X81527539Y15059578D01*
X81527533Y15059580D01*
X81374816Y15100500D01*
X81374814Y15100500D01*
X81216700Y15100500D01*
X81216697Y15100500D01*
X81063980Y15059580D01*
X81063974Y15059578D01*
X80927043Y14980522D01*
X80815235Y14868714D01*
X80736179Y14731783D01*
X80736177Y14731777D01*
X80695257Y14579060D01*
X77089172Y14579060D01*
X77066277Y14618716D01*
X76954473Y14730520D01*
X76952285Y14731783D01*
X76817539Y14809578D01*
X76817533Y14809580D01*
X76664816Y14850500D01*
X76664814Y14850500D01*
X76506700Y14850500D01*
X76506697Y14850500D01*
X76353980Y14809580D01*
X76353974Y14809578D01*
X76217043Y14730522D01*
X76105235Y14618714D01*
X76026179Y14481783D01*
X76026177Y14481777D01*
X75985257Y14329060D01*
X71686256Y14329060D01*
X71645334Y14481784D01*
X71566277Y14618716D01*
X71454473Y14730520D01*
X71452285Y14731783D01*
X71317539Y14809578D01*
X71317533Y14809580D01*
X71164816Y14850500D01*
X71164814Y14850500D01*
X71006700Y14850500D01*
X71006697Y14850500D01*
X70853980Y14809580D01*
X70853974Y14809578D01*
X70717043Y14730522D01*
X70605235Y14618714D01*
X70526179Y14481783D01*
X70526177Y14481777D01*
X70485257Y14329060D01*
X65411256Y14329060D01*
X65370334Y14481784D01*
X65291277Y14618716D01*
X65179473Y14730520D01*
X65177285Y14731783D01*
X65042539Y14809578D01*
X65042533Y14809580D01*
X64889816Y14850500D01*
X64889814Y14850500D01*
X64731700Y14850500D01*
X64731697Y14850500D01*
X64578980Y14809580D01*
X64578974Y14809578D01*
X64442043Y14730522D01*
X64330235Y14618714D01*
X64251179Y14481783D01*
X64251177Y14481777D01*
X64210257Y14329060D01*
X42386637Y14329060D01*
X42411257Y14420943D01*
X42411257Y14579057D01*
X42370334Y14731784D01*
X42291277Y14868716D01*
X42179473Y14980520D01*
X42042541Y15059577D01*
X42042540Y15059578D01*
X42042539Y15059578D01*
X42042533Y15059580D01*
X41889816Y15100500D01*
X41889814Y15100500D01*
X41731700Y15100500D01*
X41731697Y15100500D01*
X41578980Y15059580D01*
X41578974Y15059578D01*
X41442043Y14980522D01*
X41330235Y14868714D01*
X41251179Y14731783D01*
X41251177Y14731777D01*
X41210257Y14579060D01*
X20060455Y14579060D01*
X19956975Y14713918D01*
X19944259Y14726634D01*
X19162074Y13944450D01*
X19144483Y13970777D01*
X19046981Y14068279D01*
X19020651Y14085872D01*
X19802837Y14868056D01*
X19790117Y14880776D01*
X19602933Y15024407D01*
X19398591Y15142385D01*
X19398583Y15142389D01*
X19180589Y15232685D01*
X19180585Y15232686D01*
X18952678Y15293753D01*
X18952676Y15293754D01*
X18718743Y15324553D01*
X18482770Y15324553D01*
X18248837Y15293754D01*
X18248835Y15293753D01*
X18020928Y15232686D01*
X18020924Y15232685D01*
X17802930Y15142389D01*
X17802922Y15142385D01*
X17598580Y15024407D01*
X17411397Y14880777D01*
X17411384Y14880765D01*
X17398675Y14868056D01*
X18180860Y14085871D01*
X18154533Y14068279D01*
X18057031Y13970777D01*
X18039439Y13944449D01*
X17257253Y14726635D01*
X17244545Y14713926D01*
X17244533Y14713913D01*
X17100903Y14526730D01*
X16982925Y14322388D01*
X16982921Y14322380D01*
X16892625Y14104386D01*
X16892624Y14104382D01*
X16831557Y13876475D01*
X16831556Y13876473D01*
X16800757Y13642540D01*
X4170756Y13642540D01*
X4139957Y13876473D01*
X4139956Y13876475D01*
X4078889Y14104382D01*
X4078888Y14104386D01*
X3988592Y14322380D01*
X3988588Y14322388D01*
X3870610Y14526730D01*
X3726979Y14713914D01*
X3714259Y14726634D01*
X2932074Y13944450D01*
X2914483Y13970777D01*
X2816981Y14068279D01*
X2790651Y14085872D01*
X3572837Y14868056D01*
X3560117Y14880776D01*
X3372933Y15024407D01*
X3168591Y15142385D01*
X3168583Y15142389D01*
X2950589Y15232685D01*
X2950585Y15232686D01*
X2722678Y15293753D01*
X2722676Y15293754D01*
X2488743Y15324553D01*
X2252770Y15324553D01*
X2018837Y15293754D01*
X2018835Y15293753D01*
X1790928Y15232686D01*
X1790924Y15232685D01*
X1572930Y15142389D01*
X1572922Y15142385D01*
X1368580Y15024407D01*
X1181397Y14880777D01*
X1181384Y14880765D01*
X1168675Y14868056D01*
X1950860Y14085871D01*
X1924533Y14068279D01*
X1827031Y13970777D01*
X1809439Y13944449D01*
X1027253Y14726635D01*
X1014545Y14713926D01*
X1014533Y14713913D01*
X870903Y14526730D01*
X752925Y14322388D01*
X752921Y14322380D01*
X662625Y14104386D01*
X662624Y14104382D01*
X601557Y13876475D01*
X601556Y13876473D01*
X570757Y13642540D01*
X299707Y13642540D01*
X299507Y16579060D01*
X43985257Y16579060D01*
X43985257Y16420941D01*
X44026177Y16268224D01*
X44026179Y16268218D01*
X44026180Y16268216D01*
X44105237Y16131284D01*
X44217041Y16019480D01*
X44353973Y15940423D01*
X44506700Y15899500D01*
X44506701Y15899500D01*
X44664813Y15899500D01*
X44664814Y15899500D01*
X44817541Y15940423D01*
X44954473Y16019480D01*
X45066277Y16131284D01*
X45145334Y16268216D01*
X45186257Y16420943D01*
X45186257Y16579057D01*
X45145334Y16731784D01*
X45066277Y16868716D01*
X44954473Y16980520D01*
X44862705Y17033502D01*
X45555815Y17033502D01*
X45555815Y16875383D01*
X45596735Y16722666D01*
X45596737Y16722660D01*
X45596738Y16722658D01*
X45675795Y16585726D01*
X45787599Y16473922D01*
X45924531Y16394865D01*
X46077258Y16353942D01*
X46077259Y16353942D01*
X46235371Y16353942D01*
X46235372Y16353942D01*
X46388099Y16394865D01*
X46525031Y16473922D01*
X46636835Y16585726D01*
X46715892Y16722658D01*
X46756815Y16875385D01*
X46756815Y16939620D01*
X53527257Y16939620D01*
X53527257Y16781501D01*
X53568177Y16628784D01*
X53568179Y16628778D01*
X53568180Y16628776D01*
X53647237Y16491844D01*
X53759041Y16380040D01*
X53895973Y16300983D01*
X54048700Y16260060D01*
X54048701Y16260060D01*
X54206813Y16260060D01*
X54206814Y16260060D01*
X54359541Y16300983D01*
X54496473Y16380040D01*
X54608277Y16491844D01*
X54687334Y16628776D01*
X54728257Y16781503D01*
X54728257Y16939617D01*
X54687334Y17092344D01*
X54608277Y17229276D01*
X54496473Y17341080D01*
X54359541Y17420137D01*
X54359540Y17420138D01*
X54359539Y17420138D01*
X54359533Y17420140D01*
X54206816Y17461060D01*
X54206814Y17461060D01*
X54048700Y17461060D01*
X54048697Y17461060D01*
X53895980Y17420140D01*
X53895974Y17420138D01*
X53759043Y17341082D01*
X53647235Y17229274D01*
X53568179Y17092343D01*
X53568177Y17092337D01*
X53527257Y16939620D01*
X46756815Y16939620D01*
X46756815Y17033499D01*
X46715892Y17186226D01*
X46636835Y17323158D01*
X46525031Y17434962D01*
X46388099Y17514019D01*
X46388098Y17514020D01*
X46388097Y17514020D01*
X46388091Y17514022D01*
X46235374Y17554942D01*
X46235372Y17554942D01*
X46077258Y17554942D01*
X46077255Y17554942D01*
X45924538Y17514022D01*
X45924532Y17514020D01*
X45787601Y17434964D01*
X45675793Y17323156D01*
X45596737Y17186225D01*
X45596735Y17186219D01*
X45555815Y17033502D01*
X44862705Y17033502D01*
X44817541Y17059577D01*
X44817540Y17059578D01*
X44817539Y17059578D01*
X44817533Y17059580D01*
X44664816Y17100500D01*
X44664814Y17100500D01*
X44506700Y17100500D01*
X44506697Y17100500D01*
X44353980Y17059580D01*
X44353974Y17059578D01*
X44217043Y16980522D01*
X44105235Y16868714D01*
X44026179Y16731783D01*
X44026177Y16731777D01*
X43985257Y16579060D01*
X299507Y16579060D01*
X299275Y19992573D01*
X570257Y19992573D01*
X570257Y19756534D01*
X601064Y19522536D01*
X601065Y19522535D01*
X662149Y19294565D01*
X752474Y19076501D01*
X752476Y19076498D01*
X870486Y18872100D01*
X918461Y18809578D01*
X1014165Y18684854D01*
X1181058Y18517961D01*
X1368307Y18374280D01*
X1561126Y18262956D01*
X1572701Y18256273D01*
X1572704Y18256271D01*
X1572705Y18256271D01*
X1572708Y18256269D01*
X1790764Y18165947D01*
X2018743Y18104860D01*
X2187019Y18082706D01*
X2252737Y18074054D01*
X2252740Y18074054D01*
X2252746Y18074053D01*
X2252750Y18074053D01*
X2488764Y18074053D01*
X2488768Y18074053D01*
X2722771Y18104860D01*
X2950750Y18165947D01*
X3168806Y18256269D01*
X3373207Y18374280D01*
X3560456Y18517961D01*
X3727349Y18684854D01*
X3871030Y18872103D01*
X3989041Y19076504D01*
X4079363Y19294560D01*
X4140450Y19522539D01*
X4171257Y19756542D01*
X4171257Y19992564D01*
X4171256Y19992573D01*
X16800257Y19992573D01*
X16800257Y19756534D01*
X16831064Y19522536D01*
X16831065Y19522535D01*
X16892149Y19294565D01*
X16982474Y19076501D01*
X16982476Y19076498D01*
X17100486Y18872100D01*
X17148461Y18809578D01*
X17244165Y18684854D01*
X17411058Y18517961D01*
X17598307Y18374280D01*
X17791126Y18262956D01*
X17802701Y18256273D01*
X17802704Y18256271D01*
X17802705Y18256271D01*
X17802708Y18256269D01*
X18020764Y18165947D01*
X18248743Y18104860D01*
X18417019Y18082706D01*
X18482737Y18074054D01*
X18482740Y18074054D01*
X18482746Y18074053D01*
X18482750Y18074053D01*
X18718764Y18074053D01*
X18718768Y18074053D01*
X18952771Y18104860D01*
X19180750Y18165947D01*
X19398806Y18256269D01*
X19524884Y18329060D01*
X55235257Y18329060D01*
X55235257Y18170941D01*
X55276177Y18018224D01*
X55276179Y18018218D01*
X55276180Y18018216D01*
X55355237Y17881284D01*
X55467041Y17769480D01*
X55603973Y17690423D01*
X55756700Y17649500D01*
X55756701Y17649500D01*
X55914813Y17649500D01*
X55914814Y17649500D01*
X56067541Y17690423D01*
X56204473Y17769480D01*
X56316277Y17881284D01*
X56395334Y18018216D01*
X56436257Y18170943D01*
X56436257Y18329057D01*
X56436256Y18329060D01*
X63735257Y18329060D01*
X63735257Y18170941D01*
X63776177Y18018224D01*
X63776179Y18018218D01*
X63776180Y18018216D01*
X63855237Y17881284D01*
X63967041Y17769480D01*
X64103973Y17690423D01*
X64256700Y17649500D01*
X64256701Y17649500D01*
X64414813Y17649500D01*
X64414814Y17649500D01*
X64567541Y17690423D01*
X64704473Y17769480D01*
X64816277Y17881284D01*
X64895334Y18018216D01*
X64936257Y18170943D01*
X64936257Y18329057D01*
X64895334Y18481784D01*
X64816277Y18618716D01*
X64704473Y18730520D01*
X64567541Y18809577D01*
X64567540Y18809578D01*
X64567539Y18809578D01*
X64567533Y18809580D01*
X64414816Y18850500D01*
X64414814Y18850500D01*
X64256700Y18850500D01*
X64256697Y18850500D01*
X64103980Y18809580D01*
X64103974Y18809578D01*
X63967043Y18730522D01*
X63855235Y18618714D01*
X63776179Y18481783D01*
X63776177Y18481777D01*
X63735257Y18329060D01*
X56436256Y18329060D01*
X56395334Y18481784D01*
X56316277Y18618716D01*
X56204473Y18730520D01*
X56067541Y18809577D01*
X56067540Y18809578D01*
X56067539Y18809578D01*
X56067533Y18809580D01*
X55914816Y18850500D01*
X55914814Y18850500D01*
X55756700Y18850500D01*
X55756697Y18850500D01*
X55603980Y18809580D01*
X55603974Y18809578D01*
X55467043Y18730522D01*
X55355235Y18618714D01*
X55276179Y18481783D01*
X55276177Y18481777D01*
X55235257Y18329060D01*
X19524884Y18329060D01*
X19603207Y18374280D01*
X19790456Y18517961D01*
X19957349Y18684854D01*
X20101030Y18872103D01*
X20219041Y19076504D01*
X20309363Y19294560D01*
X20370450Y19522539D01*
X20401257Y19756542D01*
X20401257Y19992564D01*
X20370450Y20226567D01*
X20309363Y20454546D01*
X20219041Y20672602D01*
X20101030Y20877003D01*
X19957349Y21064252D01*
X19790456Y21231145D01*
X19733955Y21274500D01*
X19603210Y21374824D01*
X19398812Y21492834D01*
X19398809Y21492836D01*
X19180745Y21583161D01*
X18952775Y21644245D01*
X18952774Y21644246D01*
X18718776Y21675053D01*
X18718768Y21675053D01*
X18482746Y21675053D01*
X18482737Y21675053D01*
X18248739Y21644246D01*
X18248738Y21644245D01*
X18020768Y21583161D01*
X17802704Y21492836D01*
X17802701Y21492834D01*
X17598303Y21374824D01*
X17411062Y21231149D01*
X17244161Y21064248D01*
X17100486Y20877007D01*
X16982476Y20672609D01*
X16982474Y20672606D01*
X16892149Y20454542D01*
X16831065Y20226572D01*
X16831064Y20226571D01*
X16800257Y19992573D01*
X4171256Y19992573D01*
X4140450Y20226567D01*
X4079363Y20454546D01*
X3989041Y20672602D01*
X3871030Y20877003D01*
X3727349Y21064252D01*
X3560456Y21231145D01*
X3503955Y21274500D01*
X3373210Y21374824D01*
X3168812Y21492834D01*
X3168809Y21492836D01*
X2950745Y21583161D01*
X2722775Y21644245D01*
X2722774Y21644246D01*
X2488776Y21675053D01*
X2488768Y21675053D01*
X2252746Y21675053D01*
X2252737Y21675053D01*
X2018739Y21644246D01*
X2018738Y21644245D01*
X1790768Y21583161D01*
X1572704Y21492836D01*
X1572701Y21492834D01*
X1368303Y21374824D01*
X1181062Y21231149D01*
X1014161Y21064248D01*
X870486Y20877007D01*
X752476Y20672609D01*
X752474Y20672606D01*
X662149Y20454542D01*
X601065Y20226572D01*
X601064Y20226571D01*
X570257Y19992573D01*
X299275Y19992573D01*
X299152Y21795944D01*
X299098Y22579060D01*
X42660257Y22579060D01*
X42660257Y22420941D01*
X42701177Y22268224D01*
X42701179Y22268218D01*
X42701180Y22268216D01*
X42780237Y22131284D01*
X42892041Y22019480D01*
X43028973Y21940423D01*
X43181700Y21899500D01*
X43181701Y21899500D01*
X43339813Y21899500D01*
X43339814Y21899500D01*
X43492541Y21940423D01*
X43516161Y21954060D01*
X60610257Y21954060D01*
X60610257Y21795941D01*
X60651177Y21643224D01*
X60651179Y21643218D01*
X60651180Y21643216D01*
X60730237Y21506284D01*
X60842041Y21394480D01*
X60978973Y21315423D01*
X61131700Y21274500D01*
X61131701Y21274500D01*
X61289813Y21274500D01*
X61289814Y21274500D01*
X61442541Y21315423D01*
X61579473Y21394480D01*
X61691277Y21506284D01*
X61770334Y21643216D01*
X61811257Y21795943D01*
X61811257Y21904060D01*
X64110257Y21904060D01*
X64110257Y21745941D01*
X64151177Y21593224D01*
X64151179Y21593218D01*
X64151180Y21593216D01*
X64230237Y21456284D01*
X64342041Y21344480D01*
X64478973Y21265423D01*
X64631700Y21224500D01*
X64631701Y21224500D01*
X64789813Y21224500D01*
X64789814Y21224500D01*
X64942541Y21265423D01*
X65079473Y21344480D01*
X65191277Y21456284D01*
X65270334Y21593216D01*
X65311257Y21745943D01*
X65311257Y21904057D01*
X65270334Y22056784D01*
X65191277Y22193716D01*
X65079473Y22305520D01*
X64942541Y22384577D01*
X64942540Y22384578D01*
X64942539Y22384578D01*
X64942533Y22384580D01*
X64789816Y22425500D01*
X64789814Y22425500D01*
X64631700Y22425500D01*
X64631697Y22425500D01*
X64478980Y22384580D01*
X64478974Y22384578D01*
X64342043Y22305522D01*
X64230235Y22193714D01*
X64151179Y22056783D01*
X64151177Y22056777D01*
X64110257Y21904060D01*
X61811257Y21904060D01*
X61811257Y21954057D01*
X61770334Y22106784D01*
X61691277Y22243716D01*
X61579473Y22355520D01*
X61529144Y22384577D01*
X61442539Y22434578D01*
X61442533Y22434580D01*
X61289816Y22475500D01*
X61289814Y22475500D01*
X61131700Y22475500D01*
X61131697Y22475500D01*
X60978980Y22434580D01*
X60978974Y22434578D01*
X60842043Y22355522D01*
X60730235Y22243714D01*
X60651179Y22106783D01*
X60651177Y22106777D01*
X60610257Y21954060D01*
X43516161Y21954060D01*
X43629473Y22019480D01*
X43741277Y22131284D01*
X43820334Y22268216D01*
X43861257Y22420943D01*
X43861257Y22579057D01*
X43820334Y22731784D01*
X43741277Y22868716D01*
X43629473Y22980520D01*
X43492541Y23059577D01*
X43492540Y23059578D01*
X43492539Y23059578D01*
X43492533Y23059580D01*
X43339816Y23100500D01*
X43339814Y23100500D01*
X43181700Y23100500D01*
X43181697Y23100500D01*
X43028980Y23059580D01*
X43028974Y23059578D01*
X42892043Y22980522D01*
X42780235Y22868714D01*
X42701179Y22731783D01*
X42701177Y22731777D01*
X42660257Y22579060D01*
X299098Y22579060D01*
X299098Y22584001D01*
X299013Y23829060D01*
X27485257Y23829060D01*
X27485257Y23670941D01*
X27526177Y23518224D01*
X27526179Y23518218D01*
X27591136Y23405707D01*
X27605237Y23381284D01*
X27717041Y23269480D01*
X27853973Y23190423D01*
X28006700Y23149500D01*
X28006701Y23149500D01*
X28164813Y23149500D01*
X28164814Y23149500D01*
X28317541Y23190423D01*
X28454473Y23269480D01*
X28566277Y23381284D01*
X28645334Y23518216D01*
X28657554Y23563822D01*
X28657555Y23563826D01*
X30526575Y23563826D01*
X30526575Y23405707D01*
X30567495Y23252990D01*
X30567497Y23252984D01*
X30640811Y23125998D01*
X30646555Y23116050D01*
X30758359Y23004246D01*
X30895291Y22925189D01*
X31048018Y22884266D01*
X31048019Y22884266D01*
X31206131Y22884266D01*
X31206132Y22884266D01*
X31358859Y22925189D01*
X31495791Y23004246D01*
X31607595Y23116050D01*
X31686652Y23252982D01*
X31694994Y23284114D01*
X70690310Y23284114D01*
X70690310Y23125995D01*
X70731230Y22973278D01*
X70731232Y22973272D01*
X70731233Y22973270D01*
X70810290Y22836338D01*
X70922094Y22724534D01*
X71059026Y22645477D01*
X71211753Y22604554D01*
X71211754Y22604554D01*
X71369866Y22604554D01*
X71369867Y22604554D01*
X71522594Y22645477D01*
X71659526Y22724534D01*
X71771330Y22836338D01*
X71850387Y22973270D01*
X71891310Y23125997D01*
X71891310Y23284111D01*
X71850387Y23436838D01*
X71771330Y23573770D01*
X71659526Y23685574D01*
X71522594Y23764631D01*
X71522593Y23764632D01*
X71522592Y23764632D01*
X71522586Y23764634D01*
X71369869Y23805554D01*
X71369867Y23805554D01*
X71211753Y23805554D01*
X71211750Y23805554D01*
X71059033Y23764634D01*
X71059027Y23764632D01*
X70922096Y23685576D01*
X70810288Y23573768D01*
X70731232Y23436837D01*
X70731230Y23436831D01*
X70690310Y23284114D01*
X31694994Y23284114D01*
X31727575Y23405709D01*
X31727575Y23563823D01*
X31694952Y23685574D01*
X31686654Y23716543D01*
X31686652Y23716549D01*
X31686652Y23716550D01*
X31607595Y23853482D01*
X31495791Y23965286D01*
X31467227Y23981777D01*
X31358857Y24044344D01*
X31358851Y24044346D01*
X31206134Y24085266D01*
X31206132Y24085266D01*
X31048018Y24085266D01*
X31048015Y24085266D01*
X30895298Y24044346D01*
X30895292Y24044344D01*
X30758361Y23965288D01*
X30646553Y23853480D01*
X30567497Y23716549D01*
X30567495Y23716543D01*
X30526575Y23563826D01*
X28657555Y23563826D01*
X28664117Y23588313D01*
X28664117Y23588314D01*
X28686256Y23670939D01*
X28686257Y23670944D01*
X28686257Y23829056D01*
X28686256Y23829060D01*
X28645336Y23981777D01*
X28645334Y23981783D01*
X28645334Y23981784D01*
X28566277Y24118716D01*
X28454473Y24230520D01*
X28317541Y24309577D01*
X28317540Y24309578D01*
X28317539Y24309578D01*
X28317533Y24309580D01*
X28164816Y24350500D01*
X28164814Y24350500D01*
X28006700Y24350500D01*
X28006697Y24350500D01*
X27853980Y24309580D01*
X27853974Y24309578D01*
X27717043Y24230522D01*
X27605235Y24118714D01*
X27526179Y23981783D01*
X27526177Y23981777D01*
X27485257Y23829060D01*
X299013Y23829060D01*
X299013Y23834001D01*
X298940Y24895944D01*
X298929Y25054060D01*
X42885257Y25054060D01*
X42885257Y24895941D01*
X42926177Y24743224D01*
X42926179Y24743218D01*
X42926180Y24743216D01*
X43005237Y24606284D01*
X43117041Y24494480D01*
X43253973Y24415423D01*
X43406700Y24374500D01*
X43406701Y24374500D01*
X43564813Y24374500D01*
X43564814Y24374500D01*
X43717541Y24415423D01*
X43854473Y24494480D01*
X43966277Y24606284D01*
X44045334Y24743216D01*
X44086257Y24895943D01*
X44086257Y25054057D01*
X44045334Y25206784D01*
X43966277Y25343716D01*
X43854473Y25455520D01*
X43717541Y25534577D01*
X43717540Y25534578D01*
X43717539Y25534578D01*
X43717533Y25534580D01*
X43564816Y25575500D01*
X43564814Y25575500D01*
X43406700Y25575500D01*
X43406697Y25575500D01*
X43253980Y25534580D01*
X43253974Y25534578D01*
X43117043Y25455522D01*
X43005235Y25343714D01*
X42926179Y25206783D01*
X42926177Y25206777D01*
X42885257Y25054060D01*
X298929Y25054060D01*
X298859Y26079060D01*
X65235257Y26079060D01*
X65235257Y25920941D01*
X65276177Y25768224D01*
X65276179Y25768218D01*
X65276180Y25768216D01*
X65355237Y25631284D01*
X65467041Y25519480D01*
X65603973Y25440423D01*
X65756700Y25399500D01*
X65756701Y25399500D01*
X65914813Y25399500D01*
X65914814Y25399500D01*
X66067541Y25440423D01*
X66204473Y25519480D01*
X66316277Y25631284D01*
X66395334Y25768216D01*
X66436257Y25920943D01*
X66436257Y26079057D01*
X66395334Y26231784D01*
X66316277Y26368716D01*
X66204473Y26480520D01*
X66067541Y26559577D01*
X66067540Y26559578D01*
X66067539Y26559578D01*
X66067533Y26559580D01*
X65914816Y26600500D01*
X65914814Y26600500D01*
X65756700Y26600500D01*
X65756697Y26600500D01*
X65603980Y26559580D01*
X65603974Y26559578D01*
X65467043Y26480522D01*
X65355235Y26368714D01*
X65276179Y26231783D01*
X65276177Y26231777D01*
X65235257Y26079060D01*
X298859Y26079060D01*
X298774Y27329060D01*
X47485257Y27329060D01*
X47485257Y27170941D01*
X47526177Y27018224D01*
X47526179Y27018218D01*
X47526180Y27018216D01*
X47605237Y26881284D01*
X47717041Y26769480D01*
X47853973Y26690423D01*
X48006700Y26649500D01*
X48006701Y26649500D01*
X48164813Y26649500D01*
X48164814Y26649500D01*
X48317541Y26690423D01*
X48454473Y26769480D01*
X48532371Y26847379D01*
X48579177Y26869204D01*
X48629062Y26855837D01*
X48639137Y26847384D01*
X48717041Y26769480D01*
X48853973Y26690423D01*
X49006700Y26649500D01*
X49006701Y26649500D01*
X49164813Y26649500D01*
X49164814Y26649500D01*
X49317541Y26690423D01*
X49454473Y26769480D01*
X49566277Y26881284D01*
X49645334Y27018216D01*
X49686257Y27170943D01*
X49686257Y27290008D01*
X70643636Y27290008D01*
X70643636Y27131889D01*
X70684556Y26979172D01*
X70684558Y26979166D01*
X70741069Y26881284D01*
X70763616Y26842232D01*
X70875420Y26730428D01*
X71012352Y26651371D01*
X71012357Y26651370D01*
X71012359Y26651369D01*
X71071613Y26635493D01*
X71165079Y26610448D01*
X71165080Y26610448D01*
X71323192Y26610448D01*
X71323193Y26610448D01*
X71475920Y26651371D01*
X71612852Y26730428D01*
X71724656Y26842232D01*
X71803713Y26979164D01*
X71844636Y27131891D01*
X71844636Y27290005D01*
X71803713Y27442732D01*
X71724656Y27579664D01*
X71612852Y27691468D01*
X71475920Y27770525D01*
X71475919Y27770526D01*
X71475918Y27770526D01*
X71475912Y27770528D01*
X71323195Y27811448D01*
X71323193Y27811448D01*
X71165079Y27811448D01*
X71165076Y27811448D01*
X71012359Y27770528D01*
X71012353Y27770526D01*
X70875422Y27691470D01*
X70763614Y27579662D01*
X70684558Y27442731D01*
X70684556Y27442725D01*
X70643636Y27290008D01*
X49686257Y27290008D01*
X49686257Y27329057D01*
X49645334Y27481784D01*
X49566277Y27618716D01*
X49454473Y27730520D01*
X49386993Y27769479D01*
X49317539Y27809578D01*
X49317533Y27809580D01*
X49164816Y27850500D01*
X49164814Y27850500D01*
X49006700Y27850500D01*
X49006697Y27850500D01*
X48853980Y27809580D01*
X48853974Y27809578D01*
X48717043Y27730522D01*
X48717041Y27730521D01*
X48717041Y27730520D01*
X48639142Y27652622D01*
X48592337Y27630796D01*
X48542452Y27644163D01*
X48532376Y27652617D01*
X48454473Y27730520D01*
X48386993Y27769479D01*
X48317539Y27809578D01*
X48317533Y27809580D01*
X48164816Y27850500D01*
X48164814Y27850500D01*
X48006700Y27850500D01*
X48006697Y27850500D01*
X47853980Y27809580D01*
X47853974Y27809578D01*
X47717043Y27730522D01*
X47605235Y27618714D01*
X47526179Y27481783D01*
X47526177Y27481777D01*
X47485257Y27329060D01*
X298774Y27329060D01*
X298706Y28329060D01*
X45485257Y28329060D01*
X45485257Y28170941D01*
X45526177Y28018224D01*
X45526179Y28018218D01*
X45526180Y28018216D01*
X45605237Y27881284D01*
X45717041Y27769480D01*
X45853973Y27690423D01*
X46006700Y27649500D01*
X46006701Y27649500D01*
X46164813Y27649500D01*
X46164814Y27649500D01*
X46317541Y27690423D01*
X46454473Y27769480D01*
X46566277Y27881284D01*
X46645334Y28018216D01*
X46686257Y28170943D01*
X46686257Y28329057D01*
X46645334Y28481784D01*
X46566277Y28618716D01*
X46454473Y28730520D01*
X46317541Y28809577D01*
X46317540Y28809578D01*
X46317539Y28809578D01*
X46317533Y28809580D01*
X46164816Y28850500D01*
X46164814Y28850500D01*
X46006700Y28850500D01*
X46006697Y28850500D01*
X45853980Y28809580D01*
X45853974Y28809578D01*
X45717043Y28730522D01*
X45605235Y28618714D01*
X45526179Y28481783D01*
X45526177Y28481777D01*
X45485257Y28329060D01*
X298706Y28329060D01*
X298580Y30179060D01*
X9385257Y30179060D01*
X9385257Y30020941D01*
X9426177Y29868224D01*
X9426179Y29868218D01*
X9426180Y29868216D01*
X9505237Y29731284D01*
X9617041Y29619480D01*
X9753973Y29540423D01*
X9906700Y29499500D01*
X9906701Y29499500D01*
X10064813Y29499500D01*
X10064814Y29499500D01*
X10217541Y29540423D01*
X10354473Y29619480D01*
X10466277Y29731284D01*
X10545334Y29868216D01*
X10586257Y30020943D01*
X10586257Y30179057D01*
X10545334Y30331784D01*
X10466277Y30468716D01*
X10354473Y30580520D01*
X10217541Y30659577D01*
X10217540Y30659578D01*
X10217539Y30659578D01*
X10217533Y30659580D01*
X10064816Y30700500D01*
X10064814Y30700500D01*
X9906700Y30700500D01*
X9906697Y30700500D01*
X9753980Y30659580D01*
X9753974Y30659578D01*
X9617043Y30580522D01*
X9505235Y30468714D01*
X9426179Y30331783D01*
X9426177Y30331777D01*
X9385257Y30179060D01*
X298580Y30179060D01*
X298488Y31529060D01*
X38010257Y31529060D01*
X38010257Y31370941D01*
X38051177Y31218224D01*
X38051179Y31218218D01*
X38051180Y31218216D01*
X38130237Y31081284D01*
X38242041Y30969480D01*
X38378973Y30890423D01*
X38531700Y30849500D01*
X38531701Y30849500D01*
X38689813Y30849500D01*
X38689814Y30849500D01*
X38842541Y30890423D01*
X38979473Y30969480D01*
X39091277Y31081284D01*
X39170334Y31218216D01*
X39184071Y31269487D01*
X39200034Y31329060D01*
X70735257Y31329060D01*
X70735257Y31170941D01*
X70776177Y31018224D01*
X70776179Y31018218D01*
X70849960Y30890423D01*
X70855237Y30881284D01*
X70967041Y30769480D01*
X71103973Y30690423D01*
X71256700Y30649500D01*
X71256701Y30649500D01*
X71414813Y30649500D01*
X71414814Y30649500D01*
X71567541Y30690423D01*
X71704473Y30769480D01*
X71816277Y30881284D01*
X71895334Y31018216D01*
X71936257Y31170943D01*
X71936257Y31329057D01*
X71895334Y31481784D01*
X71816277Y31618716D01*
X71704473Y31730520D01*
X71567541Y31809577D01*
X71567540Y31809578D01*
X71567539Y31809578D01*
X71567533Y31809580D01*
X71414816Y31850500D01*
X71414814Y31850500D01*
X71256700Y31850500D01*
X71256697Y31850500D01*
X71103980Y31809580D01*
X71103974Y31809578D01*
X70967043Y31730522D01*
X70855235Y31618714D01*
X70776179Y31481783D01*
X70776177Y31481777D01*
X70735257Y31329060D01*
X39200034Y31329060D01*
X39206596Y31353547D01*
X39211256Y31370941D01*
X39211257Y31370944D01*
X39211257Y31529056D01*
X39211256Y31529060D01*
X39170336Y31681777D01*
X39170334Y31681783D01*
X39170334Y31681784D01*
X39091277Y31818716D01*
X38979473Y31930520D01*
X38842541Y32009577D01*
X38842540Y32009578D01*
X38842539Y32009578D01*
X38842533Y32009580D01*
X38689816Y32050500D01*
X38689814Y32050500D01*
X38531700Y32050500D01*
X38531697Y32050500D01*
X38378980Y32009580D01*
X38378974Y32009578D01*
X38242043Y31930522D01*
X38130235Y31818714D01*
X38051179Y31681783D01*
X38051177Y31681777D01*
X38010257Y31529060D01*
X298488Y31529060D01*
X298309Y34154060D01*
X8935257Y34154060D01*
X8935257Y33995941D01*
X8976177Y33843224D01*
X8976179Y33843218D01*
X8976180Y33843216D01*
X9055237Y33706284D01*
X9167041Y33594480D01*
X9303973Y33515423D01*
X9456700Y33474500D01*
X9456701Y33474500D01*
X9614813Y33474500D01*
X9614814Y33474500D01*
X9767541Y33515423D01*
X9904473Y33594480D01*
X10016277Y33706284D01*
X10095334Y33843216D01*
X10136257Y33995943D01*
X10136257Y34154057D01*
X10095334Y34306784D01*
X10016277Y34443716D01*
X9904473Y34555520D01*
X9767541Y34634577D01*
X9767540Y34634578D01*
X9767539Y34634578D01*
X9767533Y34634580D01*
X9614816Y34675500D01*
X9614814Y34675500D01*
X9456700Y34675500D01*
X9456697Y34675500D01*
X9303980Y34634580D01*
X9303974Y34634578D01*
X9167043Y34555522D01*
X9055235Y34443714D01*
X8976179Y34306783D01*
X8976177Y34306777D01*
X8935257Y34154060D01*
X298309Y34154060D01*
X298212Y35579060D01*
X29735257Y35579060D01*
X29735257Y35420941D01*
X29776177Y35268224D01*
X29776179Y35268218D01*
X29846773Y35145943D01*
X29855237Y35131284D01*
X29967041Y35019480D01*
X30103973Y34940423D01*
X30256700Y34899500D01*
X30256701Y34899500D01*
X30414813Y34899500D01*
X30414814Y34899500D01*
X30567541Y34940423D01*
X30704473Y35019480D01*
X30816277Y35131284D01*
X30895334Y35268216D01*
X30936257Y35420943D01*
X30936257Y35579057D01*
X30936256Y35579060D01*
X31734257Y35579060D01*
X31734257Y35420941D01*
X31775177Y35268224D01*
X31775179Y35268218D01*
X31845773Y35145943D01*
X31854237Y35131284D01*
X31966041Y35019480D01*
X32102973Y34940423D01*
X32255700Y34899500D01*
X32255701Y34899500D01*
X32413813Y34899500D01*
X32413814Y34899500D01*
X32566541Y34940423D01*
X32703473Y35019480D01*
X32815277Y35131284D01*
X32894334Y35268216D01*
X32903938Y35304060D01*
X63410257Y35304060D01*
X63410257Y35145941D01*
X63451177Y34993224D01*
X63451179Y34993218D01*
X63515801Y34881287D01*
X63530237Y34856284D01*
X63642041Y34744480D01*
X63778973Y34665423D01*
X63931700Y34624500D01*
X63931701Y34624500D01*
X64089813Y34624500D01*
X64089814Y34624500D01*
X64242541Y34665423D01*
X64379473Y34744480D01*
X64491277Y34856284D01*
X64570334Y34993216D01*
X64611257Y35145943D01*
X64611257Y35304057D01*
X64604557Y35329060D01*
X70735257Y35329060D01*
X70735257Y35170941D01*
X70776177Y35018224D01*
X70776179Y35018218D01*
X70776180Y35018216D01*
X70790614Y34993216D01*
X70844719Y34899501D01*
X70855237Y34881284D01*
X70967041Y34769480D01*
X71103973Y34690423D01*
X71256700Y34649500D01*
X71256701Y34649500D01*
X71414813Y34649500D01*
X71414814Y34649500D01*
X71567541Y34690423D01*
X71704473Y34769480D01*
X71816277Y34881284D01*
X71895334Y35018216D01*
X71936257Y35170943D01*
X71936257Y35329057D01*
X71895334Y35481784D01*
X71816277Y35618716D01*
X71704473Y35730520D01*
X71702285Y35731783D01*
X71567539Y35809578D01*
X71567533Y35809580D01*
X71414816Y35850500D01*
X71414814Y35850500D01*
X71256700Y35850500D01*
X71256697Y35850500D01*
X71103980Y35809580D01*
X71103974Y35809578D01*
X70967043Y35730522D01*
X70855235Y35618714D01*
X70776179Y35481783D01*
X70776177Y35481777D01*
X70735257Y35329060D01*
X64604557Y35329060D01*
X64570334Y35456784D01*
X64491277Y35593716D01*
X64379473Y35705520D01*
X64336171Y35730520D01*
X64242539Y35784578D01*
X64242533Y35784580D01*
X64089816Y35825500D01*
X64089814Y35825500D01*
X63931700Y35825500D01*
X63931697Y35825500D01*
X63778980Y35784580D01*
X63778974Y35784578D01*
X63642043Y35705522D01*
X63530235Y35593714D01*
X63451179Y35456783D01*
X63451177Y35456777D01*
X63410257Y35304060D01*
X32903938Y35304060D01*
X32935257Y35420943D01*
X32935257Y35579057D01*
X32894334Y35731784D01*
X32815277Y35868716D01*
X32703473Y35980520D01*
X32566541Y36059577D01*
X32566540Y36059578D01*
X32566539Y36059578D01*
X32566533Y36059580D01*
X32413816Y36100500D01*
X32413814Y36100500D01*
X32255700Y36100500D01*
X32255697Y36100500D01*
X32102980Y36059580D01*
X32102974Y36059578D01*
X31966043Y35980522D01*
X31854235Y35868714D01*
X31775179Y35731783D01*
X31775177Y35731777D01*
X31734257Y35579060D01*
X30936256Y35579060D01*
X30895334Y35731784D01*
X30816277Y35868716D01*
X30704473Y35980520D01*
X30567541Y36059577D01*
X30567540Y36059578D01*
X30567539Y36059578D01*
X30567533Y36059580D01*
X30414816Y36100500D01*
X30414814Y36100500D01*
X30256700Y36100500D01*
X30256697Y36100500D01*
X30103980Y36059580D01*
X30103974Y36059578D01*
X29967043Y35980522D01*
X29855235Y35868714D01*
X29776179Y35731783D01*
X29776177Y35731777D01*
X29735257Y35579060D01*
X298212Y35579060D01*
X298008Y38579060D01*
X13485257Y38579060D01*
X13485257Y38420941D01*
X13526177Y38268224D01*
X13526179Y38268218D01*
X13526180Y38268216D01*
X13605237Y38131284D01*
X13717041Y38019480D01*
X13853973Y37940423D01*
X14006700Y37899500D01*
X14006701Y37899500D01*
X14164813Y37899500D01*
X14164814Y37899500D01*
X14317541Y37940423D01*
X14454473Y38019480D01*
X14514053Y38079060D01*
X22485257Y38079060D01*
X22485257Y37920941D01*
X22526177Y37768224D01*
X22526179Y37768218D01*
X22526180Y37768216D01*
X22605237Y37631284D01*
X22717041Y37519480D01*
X22853973Y37440423D01*
X23006700Y37399500D01*
X23006701Y37399500D01*
X23164813Y37399500D01*
X23164814Y37399500D01*
X23317541Y37440423D01*
X23454473Y37519480D01*
X23566277Y37631284D01*
X23645334Y37768216D01*
X23686257Y37920943D01*
X23686257Y38079057D01*
X23645334Y38231784D01*
X23566277Y38368716D01*
X23454473Y38480520D01*
X23386993Y38519479D01*
X23317539Y38559578D01*
X23317533Y38559580D01*
X23164816Y38600500D01*
X23164814Y38600500D01*
X23006700Y38600500D01*
X23006697Y38600500D01*
X22853980Y38559580D01*
X22853974Y38559578D01*
X22717043Y38480522D01*
X22605235Y38368714D01*
X22526179Y38231783D01*
X22526177Y38231777D01*
X22485257Y38079060D01*
X14514053Y38079060D01*
X14566277Y38131284D01*
X14645334Y38268216D01*
X14686257Y38420943D01*
X14686257Y38579057D01*
X14645334Y38731784D01*
X14566277Y38868716D01*
X14454473Y38980520D01*
X14432479Y38993218D01*
X14317539Y39059578D01*
X14317533Y39059580D01*
X14164816Y39100500D01*
X14164814Y39100500D01*
X14006700Y39100500D01*
X14006697Y39100500D01*
X13853980Y39059580D01*
X13853974Y39059578D01*
X13717043Y38980522D01*
X13605235Y38868714D01*
X13526179Y38731783D01*
X13526177Y38731777D01*
X13485257Y38579060D01*
X298008Y38579060D01*
X297923Y39829060D01*
X26735257Y39829060D01*
X26735257Y39670941D01*
X26776177Y39518224D01*
X26776179Y39518218D01*
X26776180Y39518216D01*
X26855237Y39381284D01*
X26967041Y39269480D01*
X27103973Y39190423D01*
X27256700Y39149500D01*
X27256701Y39149500D01*
X27414813Y39149500D01*
X27414814Y39149500D01*
X27567541Y39190423D01*
X27704473Y39269480D01*
X27739053Y39304060D01*
X37585257Y39304060D01*
X37585257Y39145941D01*
X37626177Y38993224D01*
X37626179Y38993218D01*
X37698060Y38868714D01*
X37705237Y38856284D01*
X37817041Y38744480D01*
X37953973Y38665423D01*
X38106700Y38624500D01*
X38106701Y38624500D01*
X38264813Y38624500D01*
X38264814Y38624500D01*
X38417541Y38665423D01*
X38554473Y38744480D01*
X38666277Y38856284D01*
X38745334Y38993216D01*
X38768336Y39079060D01*
X42985257Y39079060D01*
X42985257Y38920941D01*
X43026177Y38768224D01*
X43026179Y38768218D01*
X43026180Y38768216D01*
X43105237Y38631284D01*
X43217041Y38519480D01*
X43353973Y38440423D01*
X43506700Y38399500D01*
X43506701Y38399500D01*
X43664813Y38399500D01*
X43664814Y38399500D01*
X43817541Y38440423D01*
X43954473Y38519480D01*
X44066277Y38631284D01*
X44145334Y38768216D01*
X44186257Y38920943D01*
X44186257Y39079057D01*
X44145334Y39231784D01*
X44066277Y39368716D01*
X43954473Y39480520D01*
X43817541Y39559577D01*
X43817540Y39559578D01*
X43817539Y39559578D01*
X43817533Y39559580D01*
X43664816Y39600500D01*
X43664814Y39600500D01*
X43506700Y39600500D01*
X43506697Y39600500D01*
X43353980Y39559580D01*
X43353974Y39559578D01*
X43217043Y39480522D01*
X43105235Y39368714D01*
X43026179Y39231783D01*
X43026177Y39231777D01*
X42985257Y39079060D01*
X38768336Y39079060D01*
X38786257Y39145943D01*
X38786257Y39304057D01*
X38745334Y39456784D01*
X38666277Y39593716D01*
X38554473Y39705520D01*
X38417541Y39784577D01*
X38417540Y39784578D01*
X38417539Y39784578D01*
X38417533Y39784580D01*
X38264816Y39825500D01*
X38264814Y39825500D01*
X38106700Y39825500D01*
X38106697Y39825500D01*
X37953980Y39784580D01*
X37953974Y39784578D01*
X37817043Y39705522D01*
X37705235Y39593714D01*
X37626179Y39456783D01*
X37626177Y39456777D01*
X37585257Y39304060D01*
X27739053Y39304060D01*
X27816277Y39381284D01*
X27895334Y39518216D01*
X27936257Y39670943D01*
X27936257Y39829057D01*
X27911212Y39922523D01*
X27895336Y39981777D01*
X27895334Y39981783D01*
X27895334Y39981784D01*
X27816277Y40118716D01*
X27704473Y40230520D01*
X27567541Y40309577D01*
X27567540Y40309578D01*
X27567539Y40309578D01*
X27567533Y40309580D01*
X27414816Y40350500D01*
X27414814Y40350500D01*
X27256700Y40350500D01*
X27256697Y40350500D01*
X27103980Y40309580D01*
X27103974Y40309578D01*
X26967043Y40230522D01*
X26855235Y40118714D01*
X26776179Y39981783D01*
X26776177Y39981777D01*
X26735257Y39829060D01*
X297923Y39829060D01*
X297841Y41029060D01*
X36635257Y41029060D01*
X36635257Y40870941D01*
X36676177Y40718224D01*
X36676179Y40718218D01*
X36717272Y40647041D01*
X36755237Y40581284D01*
X36867041Y40469480D01*
X37003973Y40390423D01*
X37156700Y40349500D01*
X37156701Y40349500D01*
X37314813Y40349500D01*
X37314814Y40349500D01*
X37467541Y40390423D01*
X37604473Y40469480D01*
X37716277Y40581284D01*
X37795334Y40718216D01*
X37836257Y40870943D01*
X37836257Y41029057D01*
X37826769Y41064467D01*
X37826769Y41064469D01*
X37822859Y41079060D01*
X42985257Y41079060D01*
X42985257Y40920941D01*
X43026177Y40768224D01*
X43026179Y40768218D01*
X43105234Y40631288D01*
X43105237Y40631284D01*
X43217041Y40519480D01*
X43353973Y40440423D01*
X43506700Y40399500D01*
X43506701Y40399500D01*
X43664813Y40399500D01*
X43664814Y40399500D01*
X43817541Y40440423D01*
X43954473Y40519480D01*
X44066277Y40631284D01*
X44145334Y40768216D01*
X44186257Y40920943D01*
X44186257Y41079057D01*
X44186256Y41079060D01*
X65710257Y41079060D01*
X65710257Y40920941D01*
X65751177Y40768224D01*
X65751179Y40768218D01*
X65830234Y40631288D01*
X65830237Y40631284D01*
X65942041Y40519480D01*
X66078973Y40440423D01*
X66231700Y40399500D01*
X66231701Y40399500D01*
X66389813Y40399500D01*
X66389814Y40399500D01*
X66542541Y40440423D01*
X66679473Y40519480D01*
X66791277Y40631284D01*
X66800374Y40647041D01*
X69199097Y40647041D01*
X69199097Y40488922D01*
X69240017Y40336205D01*
X69240019Y40336199D01*
X69240020Y40336197D01*
X69319077Y40199265D01*
X69430881Y40087461D01*
X69567813Y40008404D01*
X69720540Y39967481D01*
X69720541Y39967481D01*
X69878653Y39967481D01*
X69878654Y39967481D01*
X70031381Y40008404D01*
X70168313Y40087461D01*
X70280117Y40199265D01*
X70359174Y40336197D01*
X70400097Y40488924D01*
X70400097Y40647038D01*
X70359174Y40799765D01*
X70280117Y40936697D01*
X70168313Y41048501D01*
X70140655Y41064469D01*
X70031379Y41127559D01*
X70031373Y41127561D01*
X69878656Y41168481D01*
X69878654Y41168481D01*
X69720540Y41168481D01*
X69720537Y41168481D01*
X69567820Y41127561D01*
X69567814Y41127559D01*
X69430883Y41048503D01*
X69319075Y40936695D01*
X69240019Y40799764D01*
X69240017Y40799758D01*
X69199097Y40647041D01*
X66800374Y40647041D01*
X66870334Y40768216D01*
X66911257Y40920943D01*
X66911257Y41079057D01*
X66870334Y41231784D01*
X66791277Y41368716D01*
X66679473Y41480520D01*
X66629144Y41509577D01*
X66542539Y41559578D01*
X66542533Y41559580D01*
X66389816Y41600500D01*
X66389814Y41600500D01*
X66231700Y41600500D01*
X66231697Y41600500D01*
X66078980Y41559580D01*
X66078974Y41559578D01*
X65942043Y41480522D01*
X65830235Y41368714D01*
X65751179Y41231783D01*
X65751177Y41231777D01*
X65710257Y41079060D01*
X44186256Y41079060D01*
X44145334Y41231784D01*
X44066277Y41368716D01*
X43954473Y41480520D01*
X43904144Y41509577D01*
X43817539Y41559578D01*
X43817533Y41559580D01*
X43664816Y41600500D01*
X43664814Y41600500D01*
X43506700Y41600500D01*
X43506697Y41600500D01*
X43353980Y41559580D01*
X43353974Y41559578D01*
X43217043Y41480522D01*
X43105235Y41368714D01*
X43026179Y41231783D01*
X43026177Y41231777D01*
X42985257Y41079060D01*
X37822859Y41079060D01*
X37795336Y41181777D01*
X37795334Y41181783D01*
X37795334Y41181784D01*
X37716277Y41318716D01*
X37604473Y41430520D01*
X37467541Y41509577D01*
X37467540Y41509578D01*
X37467539Y41509578D01*
X37467533Y41509580D01*
X37314816Y41550500D01*
X37314814Y41550500D01*
X37156700Y41550500D01*
X37156697Y41550500D01*
X37003980Y41509580D01*
X37003974Y41509578D01*
X36867043Y41430522D01*
X36755235Y41318714D01*
X36676179Y41181783D01*
X36676177Y41181777D01*
X36635257Y41029060D01*
X297841Y41029060D01*
X297689Y43262118D01*
X32418315Y43262118D01*
X32418315Y43103999D01*
X32459235Y42951282D01*
X32459237Y42951276D01*
X32459238Y42951274D01*
X32538295Y42814342D01*
X32650099Y42702538D01*
X32787031Y42623481D01*
X32939758Y42582558D01*
X32939759Y42582558D01*
X33097871Y42582558D01*
X33097872Y42582558D01*
X33250599Y42623481D01*
X33387531Y42702538D01*
X33499335Y42814342D01*
X33578392Y42951274D01*
X33619315Y43104001D01*
X33619315Y43204060D01*
X37735257Y43204060D01*
X37735257Y43045941D01*
X37776177Y42893224D01*
X37776179Y42893218D01*
X37821717Y42814342D01*
X37855237Y42756284D01*
X37967041Y42644480D01*
X38103973Y42565423D01*
X38256700Y42524500D01*
X38256701Y42524500D01*
X38414813Y42524500D01*
X38414814Y42524500D01*
X38567541Y42565423D01*
X38704473Y42644480D01*
X38816277Y42756284D01*
X38895334Y42893216D01*
X38895334Y42893219D01*
X38895372Y42893283D01*
X38934934Y42926480D01*
X38986579Y42926480D01*
X39026142Y42893283D01*
X39026179Y42893219D01*
X39026180Y42893216D01*
X39105237Y42756284D01*
X39217041Y42644480D01*
X39353973Y42565423D01*
X39506700Y42524500D01*
X39506701Y42524500D01*
X39664813Y42524500D01*
X39664814Y42524500D01*
X39817541Y42565423D01*
X39954473Y42644480D01*
X40066277Y42756284D01*
X40145334Y42893216D01*
X40186257Y43045943D01*
X40186257Y43204057D01*
X40145334Y43356784D01*
X40066277Y43493716D01*
X39954473Y43605520D01*
X39952879Y43606440D01*
X39817539Y43684578D01*
X39817533Y43684580D01*
X39664816Y43725500D01*
X39664814Y43725500D01*
X39506700Y43725500D01*
X39506697Y43725500D01*
X39353980Y43684580D01*
X39353974Y43684578D01*
X39217043Y43605522D01*
X39105235Y43493714D01*
X39026142Y43356718D01*
X38986580Y43323521D01*
X38934935Y43323521D01*
X38895372Y43356718D01*
X38895334Y43356784D01*
X38816277Y43493716D01*
X38704473Y43605520D01*
X38702879Y43606440D01*
X38567539Y43684578D01*
X38567533Y43684580D01*
X38414816Y43725500D01*
X38414814Y43725500D01*
X38256700Y43725500D01*
X38256697Y43725500D01*
X38103980Y43684580D01*
X38103974Y43684578D01*
X37967043Y43605522D01*
X37855235Y43493714D01*
X37776179Y43356783D01*
X37776177Y43356777D01*
X37735257Y43204060D01*
X33619315Y43204060D01*
X33619315Y43262115D01*
X33578392Y43414842D01*
X33499335Y43551774D01*
X33387531Y43663578D01*
X33351159Y43684577D01*
X33250597Y43742636D01*
X33250591Y43742638D01*
X33097874Y43783558D01*
X33097872Y43783558D01*
X32939758Y43783558D01*
X32939755Y43783558D01*
X32787038Y43742638D01*
X32787032Y43742636D01*
X32650101Y43663580D01*
X32538293Y43551772D01*
X32459237Y43414841D01*
X32459235Y43414835D01*
X32418315Y43262118D01*
X297689Y43262118D01*
X297625Y44204060D01*
X1110257Y44204060D01*
X1110257Y44045941D01*
X1151177Y43893224D01*
X1151179Y43893218D01*
X1228572Y43759167D01*
X1230237Y43756284D01*
X1342041Y43644480D01*
X1478973Y43565423D01*
X1631700Y43524500D01*
X1631701Y43524500D01*
X1789813Y43524500D01*
X1789814Y43524500D01*
X1942541Y43565423D01*
X2079473Y43644480D01*
X2191277Y43756284D01*
X2270334Y43893216D01*
X2311257Y44045943D01*
X2311257Y44204057D01*
X2271796Y44351328D01*
X2270336Y44356777D01*
X2270334Y44356783D01*
X2270334Y44356784D01*
X2191277Y44493716D01*
X2079473Y44605520D01*
X1942541Y44684577D01*
X1942540Y44684578D01*
X1942539Y44684578D01*
X1942533Y44684580D01*
X1869832Y44704060D01*
X38235257Y44704060D01*
X38235257Y44545941D01*
X38276177Y44393224D01*
X38276179Y44393218D01*
X38348343Y44268224D01*
X38355237Y44256284D01*
X38467041Y44144480D01*
X38603973Y44065423D01*
X38756700Y44024500D01*
X38756701Y44024500D01*
X38914813Y44024500D01*
X38914814Y44024500D01*
X39067541Y44065423D01*
X39204473Y44144480D01*
X39316277Y44256284D01*
X39395334Y44393216D01*
X39436257Y44545943D01*
X39436257Y44597313D01*
X39453921Y44645843D01*
X39479551Y44662172D01*
X44446548Y44662172D01*
X44446548Y44504053D01*
X44487468Y44351336D01*
X44487470Y44351330D01*
X44487471Y44351328D01*
X44566528Y44214396D01*
X44678332Y44102592D01*
X44815264Y44023535D01*
X44967991Y43982612D01*
X44967992Y43982612D01*
X45126104Y43982612D01*
X45126105Y43982612D01*
X45278832Y44023535D01*
X45415764Y44102592D01*
X45527568Y44214396D01*
X45606625Y44351328D01*
X45647548Y44504055D01*
X45647548Y44579060D01*
X63985257Y44579060D01*
X63985257Y44420941D01*
X64026177Y44268224D01*
X64026179Y44268218D01*
X64076405Y44181222D01*
X64105237Y44131284D01*
X64217041Y44019480D01*
X64338603Y43949297D01*
X64371799Y43909736D01*
X64371799Y43858091D01*
X64366237Y43846164D01*
X64316012Y43759171D01*
X64316008Y43759161D01*
X64275088Y43606444D01*
X64275088Y43448325D01*
X64316008Y43295608D01*
X64316010Y43295602D01*
X64316011Y43295600D01*
X64395068Y43158668D01*
X64506872Y43046864D01*
X64643804Y42967807D01*
X64796531Y42926884D01*
X64796532Y42926884D01*
X64954644Y42926884D01*
X64954645Y42926884D01*
X65107372Y42967807D01*
X65244304Y43046864D01*
X65356108Y43158668D01*
X65435165Y43295600D01*
X65476088Y43448327D01*
X65476088Y43606441D01*
X65435165Y43759168D01*
X65356108Y43896100D01*
X65244304Y44007904D01*
X65244301Y44007906D01*
X65122743Y44078087D01*
X65089546Y44117649D01*
X65089546Y44169294D01*
X65095108Y44181222D01*
X65145334Y44268216D01*
X65186257Y44420943D01*
X65186257Y44579057D01*
X65145334Y44731784D01*
X65066277Y44868716D01*
X64954473Y44980520D01*
X64817541Y45059577D01*
X64817540Y45059578D01*
X64817539Y45059578D01*
X64817533Y45059580D01*
X64664816Y45100500D01*
X64664814Y45100500D01*
X64506700Y45100500D01*
X64506697Y45100500D01*
X64353980Y45059580D01*
X64353974Y45059578D01*
X64217043Y44980522D01*
X64105235Y44868714D01*
X64026179Y44731783D01*
X64026177Y44731777D01*
X63985257Y44579060D01*
X45647548Y44579060D01*
X45647548Y44662169D01*
X45606625Y44814896D01*
X45527568Y44951828D01*
X45415764Y45063632D01*
X45278832Y45142689D01*
X45278831Y45142690D01*
X45278830Y45142690D01*
X45278824Y45142692D01*
X45126107Y45183612D01*
X45126105Y45183612D01*
X44967991Y45183612D01*
X44967988Y45183612D01*
X44815271Y45142692D01*
X44815265Y45142690D01*
X44678334Y45063634D01*
X44566526Y44951826D01*
X44487470Y44814895D01*
X44487468Y44814889D01*
X44446548Y44662172D01*
X39479551Y44662172D01*
X39492214Y44670240D01*
X39567541Y44690423D01*
X39704473Y44769480D01*
X39816277Y44881284D01*
X39895334Y45018216D01*
X39936257Y45170943D01*
X39936257Y45329057D01*
X39895334Y45481784D01*
X39816277Y45618716D01*
X39704473Y45730520D01*
X39567541Y45809577D01*
X39567540Y45809578D01*
X39567539Y45809578D01*
X39567533Y45809580D01*
X39414816Y45850500D01*
X39414814Y45850500D01*
X39256700Y45850500D01*
X39256697Y45850500D01*
X39103980Y45809580D01*
X39103974Y45809578D01*
X38967043Y45730522D01*
X38855235Y45618714D01*
X38776179Y45481783D01*
X38776177Y45481777D01*
X38735257Y45329060D01*
X38735257Y45277688D01*
X38717593Y45229158D01*
X38679298Y45204761D01*
X38603980Y45184580D01*
X38603974Y45184578D01*
X38467043Y45105522D01*
X38355235Y44993714D01*
X38276179Y44856783D01*
X38276177Y44856777D01*
X38235257Y44704060D01*
X1869832Y44704060D01*
X1789816Y44725500D01*
X1789814Y44725500D01*
X1631700Y44725500D01*
X1631697Y44725500D01*
X1478980Y44684580D01*
X1478974Y44684578D01*
X1342043Y44605522D01*
X1230235Y44493714D01*
X1151179Y44356783D01*
X1151177Y44356777D01*
X1110257Y44204060D01*
X297625Y44204060D01*
X297441Y46904060D01*
X13110257Y46904060D01*
X13110257Y46745941D01*
X13151177Y46593224D01*
X13151179Y46593218D01*
X13230234Y46456288D01*
X13230237Y46456284D01*
X13342041Y46344480D01*
X13478973Y46265423D01*
X13631700Y46224500D01*
X13631701Y46224500D01*
X13789813Y46224500D01*
X13789814Y46224500D01*
X13942541Y46265423D01*
X14079473Y46344480D01*
X14191277Y46456284D01*
X14247727Y46554060D01*
X20135257Y46554060D01*
X20135257Y46395941D01*
X20176177Y46243224D01*
X20176179Y46243218D01*
X20176180Y46243216D01*
X20255237Y46106284D01*
X20367041Y45994480D01*
X20503973Y45915423D01*
X20656700Y45874500D01*
X20656701Y45874500D01*
X20814813Y45874500D01*
X20814814Y45874500D01*
X20967541Y45915423D01*
X21104473Y45994480D01*
X21216277Y46106284D01*
X21295334Y46243216D01*
X21336257Y46395943D01*
X21336257Y46554057D01*
X21310683Y46649501D01*
X21295336Y46706777D01*
X21295334Y46706783D01*
X21295334Y46706784D01*
X21216277Y46843716D01*
X21104473Y46955520D01*
X20967541Y47034577D01*
X20967540Y47034578D01*
X20967539Y47034578D01*
X20967533Y47034580D01*
X20814816Y47075500D01*
X20814814Y47075500D01*
X20656700Y47075500D01*
X20656697Y47075500D01*
X20503980Y47034580D01*
X20503974Y47034578D01*
X20367043Y46955522D01*
X20255235Y46843714D01*
X20176179Y46706783D01*
X20176177Y46706777D01*
X20135257Y46554060D01*
X14247727Y46554060D01*
X14270334Y46593216D01*
X14311257Y46745943D01*
X14311257Y46904057D01*
X14270334Y47056784D01*
X14191277Y47193716D01*
X14079473Y47305520D01*
X14046598Y47324500D01*
X13975717Y47365423D01*
X13942541Y47384577D01*
X13942540Y47384578D01*
X13942539Y47384578D01*
X13942533Y47384580D01*
X13789816Y47425500D01*
X13789814Y47425500D01*
X13631700Y47425500D01*
X13631697Y47425500D01*
X13478980Y47384580D01*
X13478974Y47384578D01*
X13342043Y47305522D01*
X13230235Y47193714D01*
X13151179Y47056783D01*
X13151177Y47056777D01*
X13110257Y46904060D01*
X297441Y46904060D01*
X297364Y48029060D01*
X39660257Y48029060D01*
X39660257Y47870941D01*
X39701177Y47718224D01*
X39701179Y47718218D01*
X39701180Y47718216D01*
X39780237Y47581284D01*
X39892041Y47469480D01*
X40028973Y47390423D01*
X40028978Y47390422D01*
X40028980Y47390421D01*
X40063069Y47381287D01*
X40181700Y47349500D01*
X40181701Y47349500D01*
X40339813Y47349500D01*
X40339814Y47349500D01*
X40492541Y47390423D01*
X40629473Y47469480D01*
X40741277Y47581284D01*
X40820334Y47718216D01*
X40844815Y47809580D01*
X40850035Y47829060D01*
X47860257Y47829060D01*
X47860257Y47670941D01*
X47901177Y47518224D01*
X47901179Y47518218D01*
X47974960Y47390423D01*
X47980237Y47381284D01*
X48092041Y47269480D01*
X48228973Y47190423D01*
X48381700Y47149500D01*
X48381701Y47149500D01*
X48539813Y47149500D01*
X48539814Y47149500D01*
X48692541Y47190423D01*
X48829473Y47269480D01*
X48941277Y47381284D01*
X49020334Y47518216D01*
X49061257Y47670943D01*
X49061257Y47829057D01*
X49050034Y47870943D01*
X49020336Y47981780D01*
X49020335Y47981781D01*
X49020334Y47981783D01*
X49020334Y47981784D01*
X49007473Y48004060D01*
X49910257Y48004060D01*
X49910257Y47845941D01*
X49951177Y47693224D01*
X49951179Y47693218D01*
X50015801Y47581287D01*
X50030237Y47556284D01*
X50142041Y47444480D01*
X50278973Y47365423D01*
X50431700Y47324500D01*
X50431701Y47324500D01*
X50589813Y47324500D01*
X50589814Y47324500D01*
X50606832Y47329060D01*
X63485257Y47329060D01*
X63485257Y47170941D01*
X63526177Y47018224D01*
X63526179Y47018218D01*
X63526180Y47018216D01*
X63605237Y46881284D01*
X63717041Y46769480D01*
X63853973Y46690423D01*
X64006700Y46649500D01*
X64006701Y46649500D01*
X64164813Y46649500D01*
X64164814Y46649500D01*
X64317541Y46690423D01*
X64454473Y46769480D01*
X64566277Y46881284D01*
X64645334Y47018216D01*
X64686257Y47170943D01*
X64686257Y47329057D01*
X64645334Y47481784D01*
X64566277Y47618716D01*
X64454473Y47730520D01*
X64317541Y47809577D01*
X64317540Y47809578D01*
X64317539Y47809578D01*
X64317533Y47809580D01*
X64164816Y47850500D01*
X64164814Y47850500D01*
X64006700Y47850500D01*
X64006697Y47850500D01*
X63853980Y47809580D01*
X63853974Y47809578D01*
X63717043Y47730522D01*
X63605235Y47618714D01*
X63526179Y47481783D01*
X63526177Y47481777D01*
X63485257Y47329060D01*
X50606832Y47329060D01*
X50742541Y47365423D01*
X50879473Y47444480D01*
X50991277Y47556284D01*
X51070334Y47693216D01*
X51111257Y47845943D01*
X51111257Y48004057D01*
X51070334Y48156784D01*
X50991277Y48293716D01*
X50879473Y48405520D01*
X50836171Y48430520D01*
X50742539Y48484578D01*
X50742533Y48484580D01*
X50589816Y48525500D01*
X50589814Y48525500D01*
X50431700Y48525500D01*
X50431697Y48525500D01*
X50278980Y48484580D01*
X50278974Y48484578D01*
X50142043Y48405522D01*
X50030235Y48293714D01*
X49951179Y48156783D01*
X49951177Y48156777D01*
X49910257Y48004060D01*
X49007473Y48004060D01*
X48941277Y48118716D01*
X48829473Y48230520D01*
X48692541Y48309577D01*
X48692540Y48309578D01*
X48692539Y48309578D01*
X48692533Y48309580D01*
X48539816Y48350500D01*
X48539814Y48350500D01*
X48381700Y48350500D01*
X48381697Y48350500D01*
X48228980Y48309580D01*
X48228974Y48309578D01*
X48092043Y48230522D01*
X47980235Y48118714D01*
X47901179Y47981783D01*
X47901177Y47981777D01*
X47860257Y47829060D01*
X40850035Y47829060D01*
X40856596Y47853547D01*
X40861256Y47870941D01*
X40861257Y47870944D01*
X40861257Y48029056D01*
X40861256Y48029060D01*
X40820336Y48181777D01*
X40820334Y48181783D01*
X40820334Y48181784D01*
X40741277Y48318716D01*
X40629473Y48430520D01*
X40492541Y48509577D01*
X40492540Y48509578D01*
X40492539Y48509578D01*
X40492533Y48509580D01*
X40339816Y48550500D01*
X40339814Y48550500D01*
X40181700Y48550500D01*
X40181697Y48550500D01*
X40028980Y48509580D01*
X40028974Y48509578D01*
X39892043Y48430522D01*
X39780235Y48318714D01*
X39701179Y48181783D01*
X39701177Y48181777D01*
X39660257Y48029060D01*
X297364Y48029060D01*
X297253Y49654060D01*
X53460257Y49654060D01*
X53460257Y49495941D01*
X53501177Y49343224D01*
X53501179Y49343218D01*
X53501180Y49343216D01*
X53580237Y49206284D01*
X53692041Y49094480D01*
X53828973Y49015423D01*
X53981700Y48974500D01*
X53981701Y48974500D01*
X54139813Y48974500D01*
X54139814Y48974500D01*
X54292541Y49015423D01*
X54429473Y49094480D01*
X54541277Y49206284D01*
X54620334Y49343216D01*
X54661257Y49495943D01*
X54661257Y49654057D01*
X54620334Y49806784D01*
X54541277Y49943716D01*
X54429473Y50055520D01*
X54292541Y50134577D01*
X54292540Y50134578D01*
X54292539Y50134578D01*
X54292533Y50134580D01*
X54139816Y50175500D01*
X54139814Y50175500D01*
X53981700Y50175500D01*
X53981697Y50175500D01*
X53828980Y50134580D01*
X53828974Y50134578D01*
X53692043Y50055522D01*
X53580235Y49943714D01*
X53501179Y49806783D01*
X53501177Y49806777D01*
X53460257Y49654060D01*
X297253Y49654060D01*
X297071Y52329060D01*
X35685257Y52329060D01*
X35685257Y52170941D01*
X35726177Y52018224D01*
X35726179Y52018218D01*
X35726180Y52018216D01*
X35805237Y51881284D01*
X35917041Y51769480D01*
X36053973Y51690423D01*
X36206700Y51649500D01*
X36206701Y51649500D01*
X36364813Y51649500D01*
X36364814Y51649500D01*
X36517541Y51690423D01*
X36654473Y51769480D01*
X36766277Y51881284D01*
X36845334Y52018216D01*
X36886257Y52170943D01*
X36886257Y52329057D01*
X36845334Y52481784D01*
X36766277Y52618716D01*
X36654473Y52730520D01*
X36605566Y52758756D01*
X36517539Y52809578D01*
X36517533Y52809580D01*
X36364816Y52850500D01*
X36364814Y52850500D01*
X36206700Y52850500D01*
X36206697Y52850500D01*
X36053980Y52809580D01*
X36053974Y52809578D01*
X35917043Y52730522D01*
X35805235Y52618714D01*
X35726179Y52481783D01*
X35726177Y52481777D01*
X35685257Y52329060D01*
X297071Y52329060D01*
X297042Y52755824D01*
X297271Y52761695D01*
X315622Y52996936D01*
X317199Y53007473D01*
X368044Y53235540D01*
X371098Y53245765D01*
X373829Y53253000D01*
X453595Y53464363D01*
X458061Y53474057D01*
X488279Y53529060D01*
X31235257Y53529060D01*
X31235257Y53370941D01*
X31276177Y53218224D01*
X31276179Y53218218D01*
X31276180Y53218216D01*
X31355237Y53081284D01*
X31467041Y52969480D01*
X31603973Y52890423D01*
X31756700Y52849500D01*
X31756701Y52849500D01*
X31914813Y52849500D01*
X31914814Y52849500D01*
X32067541Y52890423D01*
X32204473Y52969480D01*
X32316277Y53081284D01*
X32395334Y53218216D01*
X32436257Y53370943D01*
X32436257Y53529057D01*
X32395334Y53681784D01*
X32316277Y53818716D01*
X32204473Y53930520D01*
X32067541Y54009577D01*
X32067540Y54009578D01*
X32067539Y54009578D01*
X32067533Y54009580D01*
X31914816Y54050500D01*
X31914814Y54050500D01*
X31756700Y54050500D01*
X31756697Y54050500D01*
X31603980Y54009580D01*
X31603974Y54009578D01*
X31467043Y53930522D01*
X31355235Y53818714D01*
X31276179Y53681783D01*
X31276177Y53681777D01*
X31235257Y53529060D01*
X488279Y53529060D01*
X510969Y53570360D01*
X525883Y53597509D01*
X570564Y53678838D01*
X576349Y53687800D01*
X583076Y53696762D01*
X716617Y53874675D01*
X723600Y53882723D01*
X888825Y54047949D01*
X896873Y54054932D01*
X1083753Y54195206D01*
X1092706Y54200984D01*
X1297502Y54313499D01*
X1307171Y54317952D01*
X1525793Y54400460D01*
X1535997Y54403507D01*
X1764072Y54454356D01*
X1774609Y54455933D01*
X2009685Y54474272D01*
X2015557Y54474500D01*
X86582181Y54474500D01*
X86587756Y54474295D01*
G37*
%TD.AperFunction*%
%TD*%
M02*
