%TF.GenerationSoftware,KiCad,Pcbnew,9.0.7*%
%TF.CreationDate,2026-08-16T14:43:19-02:30*%
%TF.ProjectId,worlds-worst-audio-interface,776f726c-6473-42d7-976f-7273742d6175,rev?*%
%TF.SameCoordinates,PX5916363PY6f94740*%
%TF.FileFunction,Copper,L4,Bot*%
%TF.FilePolarity,Positive*%
%FSLAX46Y46*%
G04 Gerber Fmt 4.6, Leading zero omitted, Abs format (unit mm)*
G04 Created by KiCad (PCBNEW 9.0.7) date 2026-08-16 14:43:19*
%MOMM*%
%LPD*%
G01*
G04 APERTURE LIST*
G04 Aperture macros list*
%AMRoundRect*
0 Rectangle with rounded corners*
0 $1 Rounding radius*
0 $2 $3 $4 $5 $6 $7 $8 $9 X,Y pos of 4 corners*
0 Add a 4 corners polygon primitive as box body*
4,1,4,$2,$3,$4,$5,$6,$7,$8,$9,$2,$3,0*
0 Add four circle primitives for the rounded corners*
1,1,$1+$1,$2,$3*
1,1,$1+$1,$4,$5*
1,1,$1+$1,$6,$7*
1,1,$1+$1,$8,$9*
0 Add four rect primitives between the rounded corners*
20,1,$1+$1,$2,$3,$4,$5,0*
20,1,$1+$1,$4,$5,$6,$7,0*
20,1,$1+$1,$6,$7,$8,$9,0*
20,1,$1+$1,$8,$9,$2,$3,0*%
G04 Aperture macros list end*
%TA.AperFunction,ComponentPad*%
%ADD10C,1.600000*%
%TD*%
%TA.AperFunction,ComponentPad*%
%ADD11C,3.000000*%
%TD*%
%TA.AperFunction,HeatsinkPad*%
%ADD12O,1.100000X1.700000*%
%TD*%
%TA.AperFunction,HeatsinkPad*%
%ADD13O,1.350000X1.700000*%
%TD*%
%TA.AperFunction,HeatsinkPad*%
%ADD14O,1.100000X1.500000*%
%TD*%
%TA.AperFunction,SMDPad,CuDef*%
%ADD15RoundRect,0.250000X0.475000X-0.337500X0.475000X0.337500X-0.475000X0.337500X-0.475000X-0.337500X0*%
%TD*%
%TA.AperFunction,SMDPad,CuDef*%
%ADD16RoundRect,0.250000X-0.337500X-0.475000X0.337500X-0.475000X0.337500X0.475000X-0.337500X0.475000X0*%
%TD*%
%TA.AperFunction,SMDPad,CuDef*%
%ADD17RoundRect,0.250000X-0.475000X0.337500X-0.475000X-0.337500X0.475000X-0.337500X0.475000X0.337500X0*%
%TD*%
%TA.AperFunction,SMDPad,CuDef*%
%ADD18RoundRect,0.250000X0.350000X0.450000X-0.350000X0.450000X-0.350000X-0.450000X0.350000X-0.450000X0*%
%TD*%
%TA.AperFunction,SMDPad,CuDef*%
%ADD19RoundRect,0.250000X0.450000X-0.350000X0.450000X0.350000X-0.450000X0.350000X-0.450000X-0.350000X0*%
%TD*%
%TA.AperFunction,SMDPad,CuDef*%
%ADD20RoundRect,0.250000X0.337500X0.475000X-0.337500X0.475000X-0.337500X-0.475000X0.337500X-0.475000X0*%
%TD*%
%TA.AperFunction,ViaPad*%
%ADD21C,0.600000*%
%TD*%
%TA.AperFunction,ViaPad*%
%ADD22C,0.700000*%
%TD*%
%TA.AperFunction,Conductor*%
%ADD23C,0.500000*%
%TD*%
%TA.AperFunction,Conductor*%
%ADD24C,0.250000*%
%TD*%
G04 APERTURE END LIST*
D10*
%TO.P,HEADPHONE,1,Sleeve*%
%TO.N,GND*%
X31060757Y13180736D03*
%TO.P,HEADPHONE,2,Tip*%
%TO.N,Net-(U7-Tip)*%
X26660757Y12180736D03*
%TO.P,HEADPHONE,3,Ring1*%
%TO.N,Net-(U7-Ring1)*%
X26660757Y8180736D03*
%TO.P,HEADPHONE,4,Ring2*%
%TO.N,unconnected-(U7-Ring2-Pad4)*%
X26660757Y5180736D03*
%TD*%
D11*
%TO.P,INPUT,R*%
%TO.N,GND*%
X18600757Y13524553D03*
%TO.P,INPUT,RN*%
X2370757Y13524553D03*
%TO.P,INPUT,S*%
X18600757Y7174553D03*
%TO.P,INPUT,SN*%
X2370757Y7174553D03*
%TO.P,INPUT,T*%
%TO.N,Net-(C56-Pad2)*%
X18600757Y19874553D03*
%TO.P,INPUT,TN*%
%TO.N,Net-(J4-PadTN)*%
X2370757Y19874553D03*
%TD*%
D12*
%TO.P,PWR,S1,SHIELD*%
%TO.N,GND*%
X59765757Y6428533D03*
X59765757Y2628533D03*
X68405757Y6428533D03*
X68405757Y2628533D03*
%TD*%
D13*
%TO.P,DATA,6,Shield*%
%TO.N,GND*%
X76605757Y1754733D03*
D14*
X76915757Y4754733D03*
X81755757Y4754733D03*
D13*
X82065757Y1754733D03*
%TD*%
D15*
%TO.P,C12,1*%
%TO.N,+1V8*%
X36835757Y43087500D03*
%TO.P,C12,2*%
%TO.N,GND*%
X36835757Y45162500D03*
%TD*%
D16*
%TO.P,C18,1*%
%TO.N,+3V3*%
X28798257Y37500000D03*
%TO.P,C18,2*%
%TO.N,GND*%
X30873257Y37500000D03*
%TD*%
D15*
%TO.P,C41,1*%
%TO.N,+3V3*%
X65335757Y35212500D03*
%TO.P,C41,2*%
%TO.N,GND*%
X65335757Y37287500D03*
%TD*%
D17*
%TO.P,C29,1*%
%TO.N,+3V3*%
X44835757Y39037500D03*
%TO.P,C29,2*%
%TO.N,GND*%
X44835757Y36962500D03*
%TD*%
D16*
%TO.P,C16,1*%
%TO.N,+3V3*%
X28798257Y39750000D03*
%TO.P,C16,2*%
%TO.N,GND*%
X30873257Y39750000D03*
%TD*%
D18*
%TO.P,R27,1*%
%TO.N,GND*%
X8147572Y19875000D03*
%TO.P,R27,2*%
%TO.N,Net-(J4-PadTN)*%
X6147572Y19875000D03*
%TD*%
D15*
%TO.P,C28,1*%
%TO.N,+3V3*%
X44835757Y40962500D03*
%TO.P,C28,2*%
%TO.N,GND*%
X44835757Y43037500D03*
%TD*%
D19*
%TO.P,R4,1*%
%TO.N,Net-(J2-CC1)*%
X62481559Y9809112D03*
%TO.P,R4,2*%
%TO.N,GND*%
X62481559Y11809112D03*
%TD*%
D20*
%TO.P,C47,1*%
%TO.N,+3V3*%
X64873257Y42278737D03*
%TO.P,C47,2*%
%TO.N,GND*%
X62798257Y42278737D03*
%TD*%
D19*
%TO.P,R3,1*%
%TO.N,Net-(J2-CC2)*%
X65121242Y9830573D03*
%TO.P,R3,2*%
%TO.N,GND*%
X65121242Y11830573D03*
%TD*%
D15*
%TO.P,C35,1*%
%TO.N,+3V3*%
X45085757Y24962500D03*
%TO.P,C35,2*%
%TO.N,GND*%
X45085757Y27037500D03*
%TD*%
D20*
%TO.P,C37,1*%
%TO.N,+3V3*%
X65098257Y23100000D03*
%TO.P,C37,2*%
%TO.N,GND*%
X63023257Y23100000D03*
%TD*%
D16*
%TO.P,C32,1*%
%TO.N,+3V3*%
X44498257Y22500000D03*
%TO.P,C32,2*%
%TO.N,GND*%
X46573257Y22500000D03*
%TD*%
D20*
%TO.P,C23,1*%
%TO.N,Net-(C23-Pad1)*%
X60873257Y23500000D03*
%TO.P,C23,2*%
%TO.N,GND*%
X58798257Y23500000D03*
%TD*%
D16*
%TO.P,C46,1*%
%TO.N,+3V3*%
X63010757Y48400000D03*
%TO.P,C46,2*%
%TO.N,GND*%
X65085757Y48400000D03*
%TD*%
D20*
%TO.P,C44,1*%
%TO.N,+3V3*%
X65010757Y39750000D03*
%TO.P,C44,2*%
%TO.N,GND*%
X62935757Y39750000D03*
%TD*%
D15*
%TO.P,C10,1*%
%TO.N,+1V8*%
X34585757Y43087500D03*
%TO.P,C10,2*%
%TO.N,GND*%
X34585757Y45162500D03*
%TD*%
D19*
%TO.P,R19,1*%
%TO.N,Net-(U5-BOOT0)*%
X48585757Y49000000D03*
%TO.P,R19,2*%
%TO.N,GND*%
X48585757Y51000000D03*
%TD*%
D21*
%TO.N,GND*%
X21085757Y32275000D03*
D22*
X56085757Y49500000D03*
D21*
X46533186Y23752571D03*
X12210757Y40850000D03*
D22*
X34585757Y46500000D03*
D21*
X26860757Y41550000D03*
X12135757Y45675000D03*
X86376814Y19746268D03*
X62478988Y13004210D03*
X21485757Y48725000D03*
D22*
X37085757Y26000000D03*
X38335757Y2000000D03*
D21*
X45960757Y44525000D03*
X29210757Y41000000D03*
X58833186Y24752571D03*
X56585757Y21750000D03*
D22*
X42835757Y18250000D03*
X82810757Y37250000D03*
D21*
X64083186Y37247429D03*
X43391895Y38223845D03*
D22*
X41835757Y16750000D03*
X71085757Y25250000D03*
D21*
X47333186Y50997429D03*
X66085757Y24500000D03*
X40960757Y36500000D03*
X43335757Y36000000D03*
D22*
X46085757Y51250000D03*
D21*
X22211795Y43233931D03*
X63010757Y21750000D03*
X56585757Y44500000D03*
X62085757Y22000000D03*
X33585757Y37750000D03*
D22*
X84935757Y37250000D03*
X57335757Y1250000D03*
D21*
X7610757Y39351931D03*
X40585757Y53250000D03*
D22*
X59122784Y16855892D03*
D21*
X11960757Y34000000D03*
X54484970Y5135440D03*
X31835757Y28550000D03*
X43435757Y37275000D03*
X39835757Y20725000D03*
X31835757Y41750000D03*
X53585757Y21750000D03*
D22*
X87010757Y37250000D03*
X71835757Y38143750D03*
X52835757Y15500000D03*
D21*
X44085757Y53250000D03*
X78085757Y11000000D03*
X65083186Y13002571D03*
D22*
X38229507Y41250000D03*
D21*
X66439200Y18292353D03*
D22*
X36835757Y46500000D03*
D21*
X46338328Y27002571D03*
D22*
X71085757Y37250000D03*
D21*
X12335757Y50050000D03*
X35835757Y37750000D03*
D22*
X78504869Y37250000D03*
D21*
X52585757Y44500000D03*
D22*
X80660757Y37250000D03*
D21*
X65085757Y47175000D03*
D22*
X38660757Y33500000D03*
D21*
X28959842Y53948349D03*
X29710757Y49508883D03*
D22*
X37085757Y34000000D03*
D21*
X5035757Y41500000D03*
D22*
X43835757Y51250000D03*
D21*
X66085757Y31000000D03*
D22*
X49835757Y15500000D03*
X71085757Y29250000D03*
X70335757Y47250000D03*
D21*
X14335757Y40850000D03*
D22*
X31085757Y15000000D03*
D21*
X63568258Y44784310D03*
X75335757Y11000000D03*
D22*
X51835757Y51250000D03*
D21*
X21460757Y50975000D03*
X37585757Y20725000D03*
X66085757Y28000000D03*
X14085757Y34000000D03*
D22*
X61048035Y16834193D03*
D21*
X43460757Y26375000D03*
X9410757Y19875000D03*
X5860757Y43950000D03*
X46088328Y37002571D03*
D22*
X71085757Y33250000D03*
D21*
X26285757Y47924000D03*
D22*
X28085757Y15000000D03*
D21*
X8010757Y48000000D03*
D22*
X76335757Y37250000D03*
D21*
X65083186Y49652571D03*
X24585757Y43250000D03*
X37085757Y53250000D03*
X46088328Y43002571D03*
X37235757Y31450000D03*
D22*
X41585757Y51250000D03*
D21*
X66235757Y34000000D03*
X62983186Y24345098D03*
X50835757Y18250000D03*
X61489493Y42250000D03*
X37085757Y51000000D03*
D22*
X38335757Y7250000D03*
D21*
X61736923Y39747429D03*
%TO.N,/USB_VIN*%
X56260757Y12825000D03*
X57335757Y6625000D03*
X66535757Y8000000D03*
X63921242Y11950000D03*
X65610757Y7475000D03*
X62568235Y7615655D03*
X56235757Y11550000D03*
X1710757Y44125000D03*
X58460757Y9250000D03*
%TO.N,/RESET*%
X81295757Y14500000D03*
X65835757Y26000000D03*
X46085757Y28250000D03*
X44585757Y16500000D03*
%TO.N,+1V8*%
X64810757Y14250000D03*
X33018815Y43183058D03*
X41810757Y14500000D03*
X76585757Y14250000D03*
X71085757Y14250000D03*
%TO.N,+3V3*%
X71244136Y27210948D03*
X45047048Y44583112D03*
X36285757Y52250000D03*
X38610757Y31450000D03*
X38185757Y39225000D03*
X54060757Y49575000D03*
X40260757Y47950000D03*
X64085757Y47250000D03*
X64875588Y43527384D03*
X64335757Y18250000D03*
X43585757Y39000000D03*
X43260757Y22500000D03*
X66310757Y41000000D03*
X46156315Y16954442D03*
X64710757Y21825000D03*
X69799597Y40567981D03*
X54127757Y16860560D03*
X33585757Y7250000D03*
X27335757Y39750000D03*
X55835757Y18250000D03*
X31127075Y23484766D03*
X37235757Y40950000D03*
X43585757Y41000000D03*
X71335757Y31250000D03*
X64585757Y44500000D03*
X71290810Y23205054D03*
X31835757Y53450000D03*
X64010757Y35225000D03*
X36610757Y8450000D03*
X50510757Y47925000D03*
X46585757Y9250000D03*
X43485757Y24975000D03*
X71335757Y35250000D03*
%TO.N,+3.3VA*%
X13710757Y46825000D03*
X28085757Y23750000D03*
X20735757Y46475000D03*
X14085757Y38500000D03*
%TO.N,Net-(C23-Pad1)*%
X61210757Y21875000D03*
%TO.N,/USB_D-*%
X78645757Y7000000D03*
%TO.N,/USB_D+*%
X79375757Y7000000D03*
%TO.N,Net-(J2-CC2)*%
X64585757Y8250000D03*
%TO.N,Net-(J2-CC1)*%
X63335757Y8250000D03*
%TO.N,Net-(U5-BOOT0)*%
X48460757Y47750000D03*
%TO.N,/VBIAS*%
X23085757Y38000000D03*
X9535757Y34075000D03*
X9985757Y30100000D03*
%TO.N,/RESET_CODEC*%
X30335757Y35500000D03*
X48085757Y27250000D03*
%TO.N,/SAI1_SD_B*%
X38835757Y44625000D03*
X38335757Y43125000D03*
%TO.N,/CODEC_GPIO*%
X49085757Y27250000D03*
X32334757Y35500000D03*
%TO.N,/SAI1_SCK_A*%
X39585757Y43125000D03*
X39335757Y45250000D03*
%TD*%
D23*
%TO.N,GND*%
X44893230Y43000000D02*
X46085757Y43000000D01*
X62682020Y42250000D02*
X61489493Y42250000D01*
X62481559Y11809112D02*
X62481559Y13001639D01*
X65278284Y37250000D02*
X64085757Y37250000D01*
D24*
X43748257Y36962500D02*
X43435757Y37275000D01*
D23*
X45143230Y27000000D02*
X46335757Y27000000D01*
X62932021Y39750000D02*
X61739494Y39750000D01*
X34585757Y45287500D02*
X34585757Y46500000D01*
X62985757Y23150000D02*
X62985757Y24342527D01*
D24*
X30873257Y39750000D02*
X30460757Y39750000D01*
D23*
X36835757Y45287500D02*
X36835757Y46500000D01*
D24*
X45085757Y27037500D02*
X44123257Y27037500D01*
X30873257Y37500000D02*
X30873257Y39750000D01*
D23*
X58835757Y23557473D02*
X58835757Y24750000D01*
X44893230Y37000000D02*
X46085757Y37000000D01*
X65085757Y48457473D02*
X65085757Y49650000D01*
D24*
X44123257Y27037500D02*
X43460757Y26375000D01*
D23*
X46535757Y22557473D02*
X46535757Y23750000D01*
X8147572Y19875000D02*
X9410757Y19875000D01*
X48528284Y51000000D02*
X47335757Y51000000D01*
X65085757Y11807473D02*
X65085757Y13000000D01*
X62481559Y13001639D02*
X62478988Y13004210D01*
D24*
X44835757Y36962500D02*
X43748257Y36962500D01*
X30460757Y39750000D02*
X29210757Y41000000D01*
%TO.N,/RESET*%
X80545757Y15250000D02*
X80129748Y15250000D01*
X48185757Y26150000D02*
X48185757Y20100000D01*
X69379748Y26000000D02*
X65835757Y26000000D01*
X46085757Y28250000D02*
X48185757Y26150000D01*
X80129748Y15250000D02*
X69379748Y26000000D01*
X48185757Y20100000D02*
X44585757Y16500000D01*
X81295757Y14500000D02*
X80545757Y15250000D01*
%TO.N,+1V8*%
X36835757Y43087500D02*
X34585757Y43087500D01*
X34490199Y43183058D02*
X34585757Y43087500D01*
X33018815Y43183058D02*
X34490199Y43183058D01*
%TO.N,+3V3*%
X63010757Y47575000D02*
X63010757Y48400000D01*
X43623257Y39037500D02*
X43585757Y39000000D01*
X64873257Y43525053D02*
X64875588Y43527384D01*
X65335757Y35212500D02*
X64023257Y35212500D01*
X28798257Y39750000D02*
X27335757Y39750000D01*
X64023257Y35212500D02*
X64010757Y35225000D01*
X64085757Y47250000D02*
X64060757Y47225000D01*
X44835757Y39037500D02*
X43623257Y39037500D01*
X45073257Y24975000D02*
X45085757Y24962500D01*
X43623257Y40962500D02*
X43585757Y41000000D01*
X28798257Y37500000D02*
X28798257Y39750000D01*
X64060757Y47225000D02*
X63360757Y47225000D01*
X65060757Y39750000D02*
X66310757Y41000000D01*
X65098257Y22212500D02*
X64710757Y21825000D01*
X65098257Y23100000D02*
X65098257Y22212500D01*
X64873257Y42278737D02*
X64873257Y43525053D01*
X43260757Y22500000D02*
X44498257Y22500000D01*
X65010757Y39750000D02*
X65060757Y39750000D01*
X44835757Y40962500D02*
X43623257Y40962500D01*
X43485757Y24975000D02*
X45073257Y24975000D01*
X63360757Y47225000D02*
X63010757Y47575000D01*
%TO.N,Net-(C23-Pad1)*%
X60873257Y22212500D02*
X60873257Y23500000D01*
X61210757Y21875000D02*
X60873257Y22212500D01*
%TO.N,Net-(J2-CC2)*%
X65121242Y8785485D02*
X64585757Y8250000D01*
X65121242Y9830573D02*
X65121242Y8785485D01*
%TO.N,Net-(J2-CC1)*%
X62481559Y9104198D02*
X63335757Y8250000D01*
X62481559Y9809112D02*
X62481559Y9104198D01*
D23*
%TO.N,Net-(J4-PadTN)*%
X2370757Y19874553D02*
X2371204Y19875000D01*
X6082572Y19785000D02*
X6147572Y19850000D01*
X2371204Y19875000D02*
X6082125Y19875000D01*
X6082125Y19875000D02*
X6082572Y19874553D01*
D24*
%TO.N,Net-(U5-BOOT0)*%
X48585757Y48500000D02*
X48585757Y49000000D01*
X48460757Y47750000D02*
X48460757Y48375000D01*
X48460757Y48375000D02*
X48585757Y48500000D01*
%TO.N,/RESET_CODEC*%
X30335757Y32250000D02*
X30335757Y35500000D01*
X32286757Y30299000D02*
X30335757Y32250000D01*
X45036757Y30299000D02*
X32286757Y30299000D01*
X48085757Y27250000D02*
X45036757Y30299000D01*
%TO.N,/SAI1_SD_B*%
X38585757Y43125000D02*
X38835757Y43375000D01*
X38335757Y43125000D02*
X38585757Y43125000D01*
X38835757Y43375000D02*
X38835757Y44625000D01*
%TO.N,/CODEC_GPIO*%
X49085757Y33000000D02*
X47335757Y34750000D01*
X49085757Y27250000D02*
X49085757Y33000000D01*
X33084757Y34750000D02*
X32334757Y35500000D01*
X47335757Y34750000D02*
X33084757Y34750000D01*
%TO.N,/SAI1_SCK_A*%
X39585757Y45000000D02*
X39335757Y45250000D01*
X39585757Y43125000D02*
X39585757Y45000000D01*
%TD*%
%TA.AperFunction,Conductor*%
%TO.N,GND*%
G36*
X86587756Y54474295D02*
G01*
X86821028Y54457019D01*
X86831665Y54455464D01*
X87057590Y54405781D01*
X87067888Y54402734D01*
X87284472Y54321459D01*
X87294242Y54316975D01*
X87497077Y54205759D01*
X87506113Y54199931D01*
X87691089Y54061031D01*
X87699206Y54053978D01*
X87862574Y53890209D01*
X87869606Y53882075D01*
X87916941Y53818716D01*
X88008056Y53696756D01*
X88013849Y53687727D01*
X88100344Y53529056D01*
X88124571Y53484613D01*
X88129031Y53474830D01*
X88209775Y53258051D01*
X88212802Y53247733D01*
X88261932Y53021686D01*
X88263461Y53011042D01*
X88280157Y52777828D01*
X88280350Y52772444D01*
X88285256Y2002710D01*
X88285064Y1997317D01*
X88268344Y1763524D01*
X88266811Y1752861D01*
X88217563Y1526474D01*
X88214528Y1516139D01*
X88133563Y1299061D01*
X88129088Y1289262D01*
X88018055Y1085921D01*
X88012231Y1076859D01*
X87873393Y891393D01*
X87866339Y883251D01*
X87702507Y719419D01*
X87694365Y712365D01*
X87508902Y573529D01*
X87499841Y567705D01*
X87296492Y456667D01*
X87286692Y452192D01*
X87069622Y371230D01*
X87059287Y368195D01*
X86832895Y318946D01*
X86822232Y317413D01*
X86588441Y300692D01*
X86583055Y300500D01*
X2053684Y300500D01*
X2047584Y300501D01*
X2047573Y300504D01*
X2010135Y300501D01*
X2002668Y300501D01*
X2002667Y300502D01*
X1997288Y300693D01*
X1763493Y317399D01*
X1752830Y318931D01*
X1752761Y318946D01*
X1526427Y368169D01*
X1516106Y371199D01*
X1299020Y452157D01*
X1289220Y456632D01*
X1085871Y567661D01*
X1076808Y573485D01*
X891330Y712326D01*
X883188Y719381D01*
X719363Y883203D01*
X712308Y891344D01*
X573457Y1076825D01*
X567636Y1085884D01*
X456603Y1289232D01*
X452129Y1299029D01*
X383251Y1483710D01*
X371167Y1516111D01*
X368133Y1526446D01*
X345668Y1629732D01*
X318893Y1752838D01*
X317360Y1763501D01*
X300692Y1996692D01*
X300500Y2002069D01*
X300500Y2002710D01*
X300503Y2047580D01*
X300497Y2047599D01*
X300376Y3830259D01*
X27850257Y3830259D01*
X27850257Y3631214D01*
X27850258Y3631201D01*
X27889088Y3435990D01*
X27965266Y3252081D01*
X27965267Y3252080D01*
X28058373Y3112738D01*
X28075851Y3086580D01*
X28216601Y2945830D01*
X28286729Y2898972D01*
X28382100Y2835247D01*
X28382101Y2835246D01*
X28382102Y2835246D01*
X28382106Y2835243D01*
X28566005Y2759069D01*
X28761231Y2720236D01*
X28761235Y2720236D01*
X28960279Y2720236D01*
X28960283Y2720236D01*
X29155509Y2759069D01*
X29339408Y2835243D01*
X29504913Y2945830D01*
X29571331Y3012248D01*
X58915757Y3012248D01*
X58915757Y2753534D01*
X58915758Y2753533D01*
X59465757Y2753533D01*
X59465757Y2503533D01*
X58915758Y2503533D01*
X58915757Y2503532D01*
X58915757Y2244819D01*
X58915758Y2244806D01*
X58948420Y2080603D01*
X59012498Y1925905D01*
X59105520Y1786689D01*
X59223912Y1668297D01*
X59363128Y1575275D01*
X59517826Y1511197D01*
X59640756Y1486745D01*
X59640757Y1486745D01*
X59640757Y2054291D01*
X59649961Y2048977D01*
X59726261Y2028533D01*
X59805253Y2028533D01*
X59881553Y2048977D01*
X59890757Y2054291D01*
X59890757Y1486745D01*
X60013687Y1511197D01*
X60168385Y1575275D01*
X60307601Y1668297D01*
X60425993Y1786689D01*
X60519015Y1925905D01*
X60583093Y2080603D01*
X60615755Y2244806D01*
X60615757Y2244819D01*
X60615757Y2503532D01*
X60615756Y2503533D01*
X60065757Y2503533D01*
X60065757Y2753533D01*
X60615756Y2753533D01*
X60615757Y2753534D01*
X60615757Y3012248D01*
X67555757Y3012248D01*
X67555757Y2753534D01*
X67555758Y2753533D01*
X68105757Y2753533D01*
X68105757Y2503533D01*
X67555758Y2503533D01*
X67555757Y2503532D01*
X67555757Y2244819D01*
X67555758Y2244806D01*
X67588420Y2080603D01*
X67652498Y1925905D01*
X67745520Y1786689D01*
X67863912Y1668297D01*
X68003128Y1575275D01*
X68157826Y1511197D01*
X68280756Y1486745D01*
X68280757Y1486745D01*
X68280757Y2054291D01*
X68289961Y2048977D01*
X68366261Y2028533D01*
X68445253Y2028533D01*
X68521553Y2048977D01*
X68530757Y2054291D01*
X68530757Y1486745D01*
X68653687Y1511197D01*
X68808385Y1575275D01*
X68947601Y1668297D01*
X68993698Y1714393D01*
X69065993Y1786689D01*
X69159015Y1925905D01*
X69200376Y2025757D01*
X75630757Y2025757D01*
X75630757Y1879734D01*
X75630758Y1879733D01*
X76255757Y1879733D01*
X76255757Y1629733D01*
X75630758Y1629733D01*
X75630757Y1629732D01*
X75630757Y1483710D01*
X75630758Y1483696D01*
X75668223Y1295342D01*
X75741725Y1117893D01*
X75741726Y1117892D01*
X75848423Y958209D01*
X75984232Y822400D01*
X76143915Y715703D01*
X76143916Y715702D01*
X76321365Y642200D01*
X76480756Y610496D01*
X76480757Y610496D01*
X76480757Y1175881D01*
X76559679Y1154733D01*
X76651835Y1154733D01*
X76730757Y1175881D01*
X76730757Y610496D01*
X76890148Y642200D01*
X77067597Y715702D01*
X77067598Y715703D01*
X77227281Y822400D01*
X77363090Y958209D01*
X77469787Y1117892D01*
X77469788Y1117893D01*
X77543290Y1295342D01*
X77580755Y1483696D01*
X77580757Y1483710D01*
X77580757Y1629732D01*
X77580756Y1629733D01*
X76955757Y1629733D01*
X76955757Y1879733D01*
X77580756Y1879733D01*
X77580757Y1879734D01*
X77580757Y2025757D01*
X81090757Y2025757D01*
X81090757Y1879734D01*
X81090758Y1879733D01*
X81715757Y1879733D01*
X81715757Y1629733D01*
X81090758Y1629733D01*
X81090757Y1629732D01*
X81090757Y1483710D01*
X81090758Y1483696D01*
X81128223Y1295342D01*
X81201725Y1117893D01*
X81201726Y1117892D01*
X81308423Y958209D01*
X81444232Y822400D01*
X81603915Y715703D01*
X81603916Y715702D01*
X81781365Y642200D01*
X81940756Y610496D01*
X81940757Y610496D01*
X81940757Y1175881D01*
X82019679Y1154733D01*
X82111835Y1154733D01*
X82190757Y1175881D01*
X82190757Y610496D01*
X82350148Y642200D01*
X82527597Y715702D01*
X82527598Y715703D01*
X82687281Y822400D01*
X82823090Y958209D01*
X82929787Y1117892D01*
X82929788Y1117893D01*
X83003290Y1295342D01*
X83040755Y1483696D01*
X83040757Y1483710D01*
X83040757Y1629732D01*
X83040756Y1629733D01*
X82415757Y1629733D01*
X82415757Y1879733D01*
X83040756Y1879733D01*
X83040757Y1879734D01*
X83040757Y2025757D01*
X83040755Y2025771D01*
X83003290Y2214125D01*
X82929788Y2391574D01*
X82929787Y2391575D01*
X82823090Y2551258D01*
X82687281Y2687067D01*
X82527598Y2793764D01*
X82527597Y2793765D01*
X82350148Y2867267D01*
X82190757Y2898972D01*
X82190757Y2333586D01*
X82111835Y2354733D01*
X82019679Y2354733D01*
X81940757Y2333586D01*
X81940757Y2898972D01*
X81940756Y2898972D01*
X81781365Y2867267D01*
X81603916Y2793765D01*
X81603915Y2793764D01*
X81444232Y2687067D01*
X81308423Y2551258D01*
X81201726Y2391575D01*
X81201725Y2391574D01*
X81128223Y2214125D01*
X81090758Y2025771D01*
X81090757Y2025757D01*
X77580757Y2025757D01*
X77580755Y2025771D01*
X77543290Y2214125D01*
X77469788Y2391574D01*
X77469787Y2391575D01*
X77363090Y2551258D01*
X77227281Y2687067D01*
X77067598Y2793764D01*
X77067597Y2793765D01*
X76890148Y2867267D01*
X76730757Y2898972D01*
X76730757Y2333586D01*
X76651835Y2354733D01*
X76559679Y2354733D01*
X76480757Y2333586D01*
X76480757Y2898972D01*
X76480756Y2898972D01*
X76321365Y2867267D01*
X76143916Y2793765D01*
X76143915Y2793764D01*
X75984232Y2687067D01*
X75848423Y2551258D01*
X75741726Y2391575D01*
X75741725Y2391574D01*
X75668223Y2214125D01*
X75630758Y2025771D01*
X75630757Y2025757D01*
X69200376Y2025757D01*
X69213882Y2058364D01*
X69223093Y2080603D01*
X69255755Y2244806D01*
X69255757Y2244819D01*
X69255757Y2503532D01*
X69255756Y2503533D01*
X68705757Y2503533D01*
X68705757Y2753533D01*
X69255756Y2753533D01*
X69255757Y2753534D01*
X69255757Y3012248D01*
X69255755Y3012261D01*
X69223093Y3176464D01*
X69159015Y3331162D01*
X69065993Y3470378D01*
X68947601Y3588770D01*
X68808385Y3681792D01*
X68653688Y3745870D01*
X68530757Y3770323D01*
X68530757Y3202776D01*
X68521553Y3208089D01*
X68445253Y3228533D01*
X68366261Y3228533D01*
X68289961Y3208089D01*
X68280757Y3202776D01*
X68280757Y3770323D01*
X68280756Y3770323D01*
X68157825Y3745870D01*
X68003128Y3681792D01*
X67863912Y3588770D01*
X67745520Y3470378D01*
X67652498Y3331162D01*
X67588420Y3176464D01*
X67555758Y3012261D01*
X67555757Y3012248D01*
X60615757Y3012248D01*
X60615755Y3012261D01*
X60583093Y3176464D01*
X60519015Y3331162D01*
X60425993Y3470378D01*
X60307601Y3588770D01*
X60168385Y3681792D01*
X60013688Y3745870D01*
X59890757Y3770323D01*
X59890757Y3202776D01*
X59881553Y3208089D01*
X59805253Y3228533D01*
X59726261Y3228533D01*
X59649961Y3208089D01*
X59640757Y3202776D01*
X59640757Y3770323D01*
X59640756Y3770323D01*
X59517825Y3745870D01*
X59363128Y3681792D01*
X59223912Y3588770D01*
X59105520Y3470378D01*
X59012498Y3331162D01*
X58948420Y3176464D01*
X58915758Y3012261D01*
X58915757Y3012248D01*
X29571331Y3012248D01*
X29645663Y3086580D01*
X29756250Y3252085D01*
X29832424Y3435984D01*
X29871257Y3631210D01*
X29871257Y3830262D01*
X29832424Y4025488D01*
X29756250Y4209387D01*
X29645663Y4374892D01*
X29504913Y4515642D01*
X29503457Y4516615D01*
X29381312Y4598230D01*
X29339413Y4626226D01*
X29339412Y4626227D01*
X29339409Y4626229D01*
X29339408Y4626229D01*
X29155509Y4702403D01*
X29155506Y4702404D01*
X29155503Y4702405D01*
X28960292Y4741235D01*
X28960285Y4741236D01*
X28960283Y4741236D01*
X28761231Y4741236D01*
X28761228Y4741236D01*
X28761221Y4741235D01*
X28566010Y4702405D01*
X28382101Y4626227D01*
X28382100Y4626226D01*
X28216603Y4515644D01*
X28075849Y4374890D01*
X27965267Y4209393D01*
X27965266Y4209392D01*
X27889088Y4025483D01*
X27850258Y3830272D01*
X27850257Y3830259D01*
X300376Y3830259D01*
X300278Y5267359D01*
X25560257Y5267359D01*
X25560257Y5094114D01*
X25587354Y4923041D01*
X25587354Y4923038D01*
X25640885Y4758288D01*
X25708172Y4626229D01*
X25719525Y4603948D01*
X25821343Y4463808D01*
X25943829Y4341322D01*
X26083969Y4239504D01*
X26238312Y4160863D01*
X26403056Y4107334D01*
X26473706Y4096145D01*
X26574134Y4080237D01*
X26574146Y4080236D01*
X26747368Y4080236D01*
X26747379Y4080237D01*
X26822399Y4092120D01*
X26918458Y4107334D01*
X27083202Y4160863D01*
X27237545Y4239504D01*
X27377685Y4341322D01*
X27500171Y4463808D01*
X27601989Y4603948D01*
X27680630Y4758291D01*
X27734159Y4923035D01*
X27752439Y5038448D01*
X76065757Y5038448D01*
X76065757Y4879734D01*
X76065758Y4879733D01*
X76590757Y4879733D01*
X76590757Y4629733D01*
X76065758Y4629733D01*
X76065757Y4629732D01*
X76065757Y4471019D01*
X76065758Y4471006D01*
X76098420Y4306803D01*
X76162498Y4152105D01*
X76255520Y4012889D01*
X76373912Y3894497D01*
X76513128Y3801475D01*
X76667826Y3737397D01*
X76790756Y3712945D01*
X76790757Y3712945D01*
X76790757Y4251763D01*
X76872970Y4229733D01*
X76958544Y4229733D01*
X77040757Y4251763D01*
X77040757Y3712945D01*
X77163687Y3737397D01*
X77318385Y3801475D01*
X77457601Y3894497D01*
X77575993Y4012889D01*
X77669015Y4152105D01*
X77733093Y4306803D01*
X77765755Y4471006D01*
X77765757Y4471019D01*
X77765757Y4629732D01*
X77765756Y4629733D01*
X77240757Y4629733D01*
X77240757Y4879733D01*
X77765756Y4879733D01*
X77765757Y4879734D01*
X77765757Y5038448D01*
X80905757Y5038448D01*
X80905757Y4879734D01*
X80905758Y4879733D01*
X81430757Y4879733D01*
X81430757Y4629733D01*
X80905758Y4629733D01*
X80905757Y4629732D01*
X80905757Y4471019D01*
X80905758Y4471006D01*
X80938420Y4306803D01*
X81002498Y4152105D01*
X81095520Y4012889D01*
X81213912Y3894497D01*
X81353128Y3801475D01*
X81507826Y3737397D01*
X81630756Y3712945D01*
X81630757Y3712945D01*
X81630757Y4251763D01*
X81712970Y4229733D01*
X81798544Y4229733D01*
X81880757Y4251763D01*
X81880757Y3712945D01*
X82003687Y3737397D01*
X82158385Y3801475D01*
X82297601Y3894497D01*
X82415993Y4012889D01*
X82509015Y4152105D01*
X82573093Y4306803D01*
X82605755Y4471006D01*
X82605757Y4471019D01*
X82605757Y4629732D01*
X82605756Y4629733D01*
X82080757Y4629733D01*
X82080757Y4879733D01*
X82605756Y4879733D01*
X82605757Y4879734D01*
X82605757Y5038448D01*
X82605755Y5038461D01*
X82573093Y5202664D01*
X82509015Y5357362D01*
X82415993Y5496578D01*
X82297601Y5614970D01*
X82158385Y5707992D01*
X82003688Y5772070D01*
X81880757Y5796523D01*
X81880757Y5257704D01*
X81798544Y5279733D01*
X81712970Y5279733D01*
X81630757Y5257704D01*
X81630757Y5796523D01*
X81630756Y5796523D01*
X81507825Y5772070D01*
X81353128Y5707992D01*
X81213912Y5614970D01*
X81095520Y5496578D01*
X81002498Y5357362D01*
X80938420Y5202664D01*
X80905758Y5038461D01*
X80905757Y5038448D01*
X77765757Y5038448D01*
X77765755Y5038461D01*
X77733093Y5202664D01*
X77669015Y5357362D01*
X77575993Y5496578D01*
X77457601Y5614970D01*
X77318385Y5707992D01*
X77163688Y5772070D01*
X77040757Y5796523D01*
X77040757Y5257704D01*
X76958544Y5279733D01*
X76872970Y5279733D01*
X76790757Y5257704D01*
X76790757Y5796523D01*
X76790756Y5796523D01*
X76667825Y5772070D01*
X76513128Y5707992D01*
X76373912Y5614970D01*
X76255520Y5496578D01*
X76162498Y5357362D01*
X76098420Y5202664D01*
X76065758Y5038461D01*
X76065757Y5038448D01*
X27752439Y5038448D01*
X27752441Y5038461D01*
X27754898Y5053971D01*
X27761256Y5094114D01*
X27761257Y5094125D01*
X27761257Y5267348D01*
X27761256Y5267359D01*
X27739399Y5405353D01*
X27734159Y5438437D01*
X27680630Y5603181D01*
X27601989Y5757524D01*
X27500171Y5897664D01*
X27377685Y6020150D01*
X27237545Y6121968D01*
X27232176Y6124704D01*
X27083205Y6200608D01*
X27083202Y6200609D01*
X26918458Y6254138D01*
X26918454Y6254139D01*
X26918453Y6254139D01*
X26747379Y6281236D01*
X26747368Y6281236D01*
X26574146Y6281236D01*
X26574134Y6281236D01*
X26403061Y6254139D01*
X26403058Y6254139D01*
X26238308Y6200608D01*
X26083970Y6121969D01*
X25943831Y6020152D01*
X25821341Y5897662D01*
X25719524Y5757523D01*
X25640885Y5603185D01*
X25587354Y5438435D01*
X25587354Y5438432D01*
X25560257Y5267359D01*
X300278Y5267359D01*
X300140Y7292540D01*
X570757Y7292540D01*
X570757Y7056567D01*
X601556Y6822634D01*
X601557Y6822632D01*
X662624Y6594725D01*
X662625Y6594721D01*
X752921Y6376727D01*
X752925Y6376719D01*
X870901Y6172381D01*
X1010229Y5990805D01*
X1795276Y6775853D01*
X1827031Y6728329D01*
X1924533Y6630827D01*
X1972054Y6599075D01*
X1187007Y5814027D01*
X1368584Y5674698D01*
X1572922Y5556722D01*
X1572930Y5556718D01*
X1790924Y5466422D01*
X1790928Y5466421D01*
X2018835Y5405354D01*
X2018837Y5405353D01*
X2252770Y5374554D01*
X2252783Y5374553D01*
X2488731Y5374553D01*
X2488743Y5374554D01*
X2722676Y5405353D01*
X2722678Y5405354D01*
X2950585Y5466421D01*
X2950589Y5466422D01*
X3168583Y5556718D01*
X3168591Y5556722D01*
X3372929Y5674698D01*
X3554505Y5814027D01*
X2769458Y6599074D01*
X2816981Y6630827D01*
X2914483Y6728329D01*
X2946236Y6775852D01*
X3731283Y5990805D01*
X3870612Y6172381D01*
X3988588Y6376719D01*
X3988592Y6376727D01*
X4078888Y6594721D01*
X4078889Y6594725D01*
X4139956Y6822632D01*
X4139957Y6822634D01*
X4170756Y7056567D01*
X4170757Y7056579D01*
X4170757Y7292528D01*
X4170756Y7292540D01*
X16800757Y7292540D01*
X16800757Y7056567D01*
X16831556Y6822634D01*
X16831557Y6822632D01*
X16892624Y6594725D01*
X16892625Y6594721D01*
X16982921Y6376727D01*
X16982925Y6376719D01*
X17100901Y6172381D01*
X17240229Y5990805D01*
X18025276Y6775853D01*
X18057031Y6728329D01*
X18154533Y6630827D01*
X18202054Y6599075D01*
X17417007Y5814027D01*
X17598584Y5674698D01*
X17802922Y5556722D01*
X17802930Y5556718D01*
X18020924Y5466422D01*
X18020928Y5466421D01*
X18248835Y5405354D01*
X18248837Y5405353D01*
X18482770Y5374554D01*
X18482783Y5374553D01*
X18718731Y5374553D01*
X18718743Y5374554D01*
X18952676Y5405353D01*
X18952678Y5405354D01*
X19180585Y5466421D01*
X19180589Y5466422D01*
X19398583Y5556718D01*
X19398591Y5556722D01*
X19602929Y5674698D01*
X19784505Y5814027D01*
X18999458Y6599074D01*
X19046981Y6630827D01*
X19144483Y6728329D01*
X19176236Y6775852D01*
X19961283Y5990805D01*
X20100612Y6172381D01*
X20218588Y6376719D01*
X20218592Y6376727D01*
X20308888Y6594721D01*
X20308889Y6594725D01*
X20369956Y6822632D01*
X20369957Y6822634D01*
X20400756Y7056567D01*
X20400757Y7056579D01*
X20400757Y7292528D01*
X20400756Y7292540D01*
X20369957Y7526473D01*
X20369956Y7526475D01*
X20308889Y7754382D01*
X20308888Y7754386D01*
X20218592Y7972380D01*
X20218588Y7972388D01*
X20100612Y8176726D01*
X20064068Y8224351D01*
X20031067Y8267359D01*
X25560257Y8267359D01*
X25560257Y8094114D01*
X25587354Y7923041D01*
X25587354Y7923038D01*
X25587355Y7923035D01*
X25637658Y7768218D01*
X25640885Y7758288D01*
X25696315Y7649501D01*
X25719525Y7603948D01*
X25821343Y7463808D01*
X25943829Y7341322D01*
X26083969Y7239504D01*
X26238312Y7160863D01*
X26403056Y7107334D01*
X26473706Y7096145D01*
X26574134Y7080237D01*
X26574146Y7080236D01*
X26747368Y7080236D01*
X26747379Y7080237D01*
X26822399Y7092120D01*
X26918458Y7107334D01*
X27083202Y7160863D01*
X27237545Y7239504D01*
X27360808Y7329060D01*
X32985257Y7329060D01*
X32985257Y7170941D01*
X33026177Y7018224D01*
X33026179Y7018218D01*
X33026180Y7018216D01*
X33105237Y6881284D01*
X33217041Y6769480D01*
X33353973Y6690423D01*
X33506700Y6649500D01*
X33506701Y6649500D01*
X33664813Y6649500D01*
X33664814Y6649500D01*
X33817541Y6690423D01*
X33841161Y6704060D01*
X56735257Y6704060D01*
X56735257Y6545941D01*
X56776177Y6393224D01*
X56776179Y6393218D01*
X56776180Y6393216D01*
X56788108Y6372556D01*
X56827958Y6303532D01*
X56855237Y6256284D01*
X56967041Y6144480D01*
X57103973Y6065423D01*
X57256700Y6024500D01*
X57256701Y6024500D01*
X57414813Y6024500D01*
X57414814Y6024500D01*
X57567541Y6065423D01*
X57704473Y6144480D01*
X57816277Y6256284D01*
X57895334Y6393216D01*
X57936257Y6545943D01*
X57936257Y6704057D01*
X57907267Y6812248D01*
X58915757Y6812248D01*
X58915757Y6553534D01*
X58915758Y6553533D01*
X59465757Y6553533D01*
X59465757Y6303533D01*
X58915758Y6303533D01*
X58915757Y6303532D01*
X58915757Y6044819D01*
X58915758Y6044806D01*
X58948420Y5880603D01*
X59012498Y5725905D01*
X59105520Y5586689D01*
X59223912Y5468297D01*
X59363128Y5375275D01*
X59517826Y5311197D01*
X59640756Y5286745D01*
X59640757Y5286745D01*
X59640757Y5854291D01*
X59649961Y5848977D01*
X59726261Y5828533D01*
X59805253Y5828533D01*
X59881553Y5848977D01*
X59890757Y5854291D01*
X59890757Y5286745D01*
X60013687Y5311197D01*
X60168385Y5375275D01*
X60307601Y5468297D01*
X60425993Y5586689D01*
X60519015Y5725905D01*
X60583093Y5880603D01*
X60615755Y6044806D01*
X60615757Y6044819D01*
X60615757Y6303532D01*
X60615756Y6303533D01*
X60065757Y6303533D01*
X60065757Y6553533D01*
X60615756Y6553533D01*
X60615757Y6553534D01*
X60615757Y6812248D01*
X67555757Y6812248D01*
X67555757Y6553534D01*
X67555758Y6553533D01*
X68105757Y6553533D01*
X68105757Y6303533D01*
X67555758Y6303533D01*
X67555757Y6303532D01*
X67555757Y6044819D01*
X67555758Y6044806D01*
X67588420Y5880603D01*
X67652498Y5725905D01*
X67745520Y5586689D01*
X67863912Y5468297D01*
X68003128Y5375275D01*
X68157826Y5311197D01*
X68280756Y5286745D01*
X68280757Y5286745D01*
X68280757Y5854291D01*
X68289961Y5848977D01*
X68366261Y5828533D01*
X68445253Y5828533D01*
X68521553Y5848977D01*
X68530757Y5854291D01*
X68530757Y5286745D01*
X68653687Y5311197D01*
X68808385Y5375275D01*
X68947601Y5468297D01*
X69065993Y5586689D01*
X69159015Y5725905D01*
X69223093Y5880603D01*
X69255755Y6044806D01*
X69255757Y6044819D01*
X69255757Y6303532D01*
X69255756Y6303533D01*
X68705757Y6303533D01*
X68705757Y6553533D01*
X69255756Y6553533D01*
X69255757Y6553534D01*
X69255757Y6812248D01*
X69255755Y6812261D01*
X69223093Y6976464D01*
X69190516Y7055113D01*
X69180597Y7079060D01*
X78045257Y7079060D01*
X78045257Y6920941D01*
X78086177Y6768224D01*
X78086179Y6768218D01*
X78154719Y6649501D01*
X78165237Y6631284D01*
X78277041Y6519480D01*
X78413973Y6440423D01*
X78566700Y6399500D01*
X78566701Y6399500D01*
X78724813Y6399500D01*
X78724814Y6399500D01*
X78877541Y6440423D01*
X78973009Y6495542D01*
X79023867Y6504509D01*
X79048502Y6495543D01*
X79143973Y6440423D01*
X79296700Y6399500D01*
X79296701Y6399500D01*
X79454813Y6399500D01*
X79454814Y6399500D01*
X79607541Y6440423D01*
X79744473Y6519480D01*
X79856277Y6631284D01*
X79935334Y6768216D01*
X79976257Y6920943D01*
X79976257Y7079057D01*
X79935334Y7231784D01*
X79856277Y7368716D01*
X79744473Y7480520D01*
X79742285Y7481783D01*
X79617097Y7554060D01*
X79607541Y7559577D01*
X79607540Y7559578D01*
X79607539Y7559578D01*
X79607533Y7559580D01*
X79454816Y7600500D01*
X79454814Y7600500D01*
X79296700Y7600500D01*
X79296697Y7600500D01*
X79143980Y7559580D01*
X79143970Y7559576D01*
X79048506Y7504461D01*
X78997646Y7495493D01*
X78973008Y7504461D01*
X78877543Y7559576D01*
X78877533Y7559580D01*
X78724816Y7600500D01*
X78724814Y7600500D01*
X78566700Y7600500D01*
X78566697Y7600500D01*
X78413980Y7559580D01*
X78413974Y7559578D01*
X78277043Y7480522D01*
X78165235Y7368714D01*
X78086179Y7231783D01*
X78086177Y7231777D01*
X78045257Y7079060D01*
X69180597Y7079060D01*
X69159015Y7131162D01*
X69065993Y7270378D01*
X68947601Y7388770D01*
X68808385Y7481792D01*
X68653688Y7545870D01*
X68530757Y7570323D01*
X68530757Y7002776D01*
X68521553Y7008089D01*
X68445253Y7028533D01*
X68366261Y7028533D01*
X68289961Y7008089D01*
X68280757Y7002776D01*
X68280757Y7570323D01*
X68280756Y7570323D01*
X68157825Y7545870D01*
X68003128Y7481792D01*
X67863912Y7388770D01*
X67745520Y7270378D01*
X67652498Y7131162D01*
X67588420Y6976464D01*
X67555758Y6812261D01*
X67555757Y6812248D01*
X60615757Y6812248D01*
X60615755Y6812261D01*
X60583093Y6976464D01*
X60519015Y7131162D01*
X60425993Y7270378D01*
X60307601Y7388770D01*
X60168385Y7481792D01*
X60013688Y7545870D01*
X59890757Y7570323D01*
X59890757Y7002776D01*
X59881553Y7008089D01*
X59805253Y7028533D01*
X59726261Y7028533D01*
X59649961Y7008089D01*
X59640757Y7002776D01*
X59640757Y7570323D01*
X59640756Y7570323D01*
X59517825Y7545870D01*
X59363128Y7481792D01*
X59223912Y7388770D01*
X59105520Y7270378D01*
X59012498Y7131162D01*
X58948420Y6976464D01*
X58915758Y6812261D01*
X58915757Y6812248D01*
X57907267Y6812248D01*
X57895334Y6856784D01*
X57816277Y6993716D01*
X57704473Y7105520D01*
X57660059Y7131162D01*
X57591154Y7170944D01*
X57567541Y7184577D01*
X57567540Y7184578D01*
X57567539Y7184578D01*
X57567533Y7184580D01*
X57414816Y7225500D01*
X57414814Y7225500D01*
X57256700Y7225500D01*
X57256697Y7225500D01*
X57103980Y7184580D01*
X57103974Y7184578D01*
X56967043Y7105522D01*
X56855235Y6993714D01*
X56776179Y6856783D01*
X56776177Y6856777D01*
X56735257Y6704060D01*
X33841161Y6704060D01*
X33954473Y6769480D01*
X34066277Y6881284D01*
X34145334Y7018216D01*
X34186257Y7170943D01*
X34186257Y7329057D01*
X34145334Y7481784D01*
X34066277Y7618716D01*
X33954473Y7730520D01*
X33913142Y7754382D01*
X33867655Y7780644D01*
X33817541Y7809577D01*
X33817540Y7809578D01*
X33817539Y7809578D01*
X33817533Y7809580D01*
X33664816Y7850500D01*
X33664814Y7850500D01*
X33506700Y7850500D01*
X33506697Y7850500D01*
X33353980Y7809580D01*
X33353974Y7809578D01*
X33217043Y7730522D01*
X33105235Y7618714D01*
X33026179Y7481783D01*
X33026177Y7481777D01*
X32985257Y7329060D01*
X27360808Y7329060D01*
X27377685Y7341322D01*
X27500171Y7463808D01*
X27601989Y7603948D01*
X27680630Y7758291D01*
X27734159Y7923035D01*
X27749373Y8019094D01*
X27761256Y8094114D01*
X27761257Y8094125D01*
X27761257Y8267348D01*
X27761256Y8267359D01*
X27744849Y8370944D01*
X27734159Y8438437D01*
X27704714Y8529060D01*
X36010257Y8529060D01*
X36010257Y8370941D01*
X36051177Y8218224D01*
X36051179Y8218218D01*
X36122829Y8094114D01*
X36130237Y8081284D01*
X36242041Y7969480D01*
X36378973Y7890423D01*
X36531700Y7849500D01*
X36531701Y7849500D01*
X36689813Y7849500D01*
X36689814Y7849500D01*
X36842541Y7890423D01*
X36979473Y7969480D01*
X37091277Y8081284D01*
X37170334Y8218216D01*
X37211257Y8370943D01*
X37211257Y8529057D01*
X37186212Y8622523D01*
X37170336Y8681777D01*
X37170334Y8681783D01*
X37170334Y8681784D01*
X37091277Y8818716D01*
X36979473Y8930520D01*
X36961847Y8940696D01*
X36865688Y8996213D01*
X36842541Y9009577D01*
X36842540Y9009578D01*
X36842539Y9009578D01*
X36842533Y9009580D01*
X36689816Y9050500D01*
X36689814Y9050500D01*
X36531700Y9050500D01*
X36531697Y9050500D01*
X36378980Y9009580D01*
X36378974Y9009578D01*
X36242043Y8930522D01*
X36130235Y8818714D01*
X36051179Y8681783D01*
X36051177Y8681777D01*
X36010257Y8529060D01*
X27704714Y8529060D01*
X27680630Y8603181D01*
X27601989Y8757524D01*
X27500171Y8897664D01*
X27377685Y9020150D01*
X27237545Y9121968D01*
X27232176Y9124704D01*
X27083205Y9200608D01*
X27059738Y9208233D01*
X26918458Y9254138D01*
X26918454Y9254139D01*
X26918453Y9254139D01*
X26885009Y9259436D01*
X26747379Y9281236D01*
X26747368Y9281236D01*
X26574146Y9281236D01*
X26574134Y9281236D01*
X26403061Y9254139D01*
X26403058Y9254139D01*
X26238308Y9200608D01*
X26083970Y9121969D01*
X25943831Y9020152D01*
X25821341Y8897662D01*
X25719524Y8757523D01*
X25640885Y8603185D01*
X25587354Y8438435D01*
X25587354Y8438432D01*
X25560257Y8267359D01*
X20031067Y8267359D01*
X19961283Y8358303D01*
X19176235Y7573256D01*
X19144483Y7620777D01*
X19046981Y7718279D01*
X18999457Y7750034D01*
X19784505Y8535081D01*
X19602929Y8674409D01*
X19398591Y8792385D01*
X19398583Y8792389D01*
X19180589Y8882685D01*
X19180585Y8882686D01*
X18952678Y8943753D01*
X18952676Y8943754D01*
X18718743Y8974553D01*
X18482770Y8974553D01*
X18248837Y8943754D01*
X18248835Y8943753D01*
X18020928Y8882686D01*
X18020924Y8882685D01*
X17802930Y8792389D01*
X17802922Y8792385D01*
X17598584Y8674409D01*
X17417007Y8535081D01*
X18202055Y7750033D01*
X18154533Y7718279D01*
X18057031Y7620777D01*
X18025277Y7573255D01*
X17240229Y8358303D01*
X17100901Y8176726D01*
X16982925Y7972388D01*
X16982921Y7972380D01*
X16892625Y7754386D01*
X16892624Y7754382D01*
X16831557Y7526475D01*
X16831556Y7526473D01*
X16800757Y7292540D01*
X4170756Y7292540D01*
X4139957Y7526473D01*
X4139956Y7526475D01*
X4078889Y7754382D01*
X4078888Y7754386D01*
X3988592Y7972380D01*
X3988588Y7972388D01*
X3870612Y8176726D01*
X3731283Y8358303D01*
X2946235Y7573256D01*
X2914483Y7620777D01*
X2816981Y7718279D01*
X2769457Y7750034D01*
X3554505Y8535081D01*
X3372929Y8674409D01*
X3168591Y8792385D01*
X3168583Y8792389D01*
X2950589Y8882685D01*
X2950585Y8882686D01*
X2722678Y8943753D01*
X2722676Y8943754D01*
X2488743Y8974553D01*
X2252770Y8974553D01*
X2018837Y8943754D01*
X2018835Y8943753D01*
X1790928Y8882686D01*
X1790924Y8882685D01*
X1572930Y8792389D01*
X1572922Y8792385D01*
X1368584Y8674409D01*
X1187007Y8535081D01*
X1972055Y7750033D01*
X1924533Y7718279D01*
X1827031Y7620777D01*
X1795277Y7573255D01*
X1010229Y8358303D01*
X870901Y8176726D01*
X752925Y7972388D01*
X752921Y7972380D01*
X662625Y7754386D01*
X662624Y7754382D01*
X601557Y7526475D01*
X601556Y7526473D01*
X570757Y7292540D01*
X300140Y7292540D01*
X300001Y9329060D01*
X45985257Y9329060D01*
X45985257Y9170941D01*
X46026177Y9018225D01*
X46026179Y9018218D01*
X46104427Y8882686D01*
X46105237Y8881284D01*
X46217041Y8769480D01*
X46353973Y8690423D01*
X46506700Y8649500D01*
X46506701Y8649500D01*
X46664813Y8649500D01*
X46664814Y8649500D01*
X46817541Y8690423D01*
X46954473Y8769480D01*
X47066277Y8881284D01*
X47145334Y9018216D01*
X47145335Y9018222D01*
X47145337Y9018225D01*
X47186256Y9170941D01*
X47186257Y9170944D01*
X47186257Y9329056D01*
X47186256Y9329060D01*
X57860257Y9329060D01*
X57860257Y9170941D01*
X57901177Y9018225D01*
X57901179Y9018218D01*
X57979427Y8882686D01*
X57980237Y8881284D01*
X58092041Y8769480D01*
X58228973Y8690423D01*
X58381700Y8649500D01*
X58381701Y8649500D01*
X58539813Y8649500D01*
X58539814Y8649500D01*
X58692541Y8690423D01*
X58829473Y8769480D01*
X58941277Y8881284D01*
X59020334Y9018216D01*
X59020335Y9018222D01*
X59020337Y9018225D01*
X59061256Y9170941D01*
X59061257Y9170944D01*
X59061257Y9329056D01*
X59061256Y9329060D01*
X59055909Y9349014D01*
X59020334Y9481784D01*
X58941277Y9618716D01*
X58829473Y9730520D01*
X58692541Y9809577D01*
X58692540Y9809578D01*
X58692539Y9809578D01*
X58692533Y9809580D01*
X58539816Y9850500D01*
X58539814Y9850500D01*
X58381700Y9850500D01*
X58381697Y9850500D01*
X58228980Y9809580D01*
X58228974Y9809578D01*
X58092043Y9730522D01*
X57980235Y9618714D01*
X57901179Y9481783D01*
X57901177Y9481777D01*
X57860257Y9329060D01*
X47186256Y9329060D01*
X47180909Y9349014D01*
X47145334Y9481784D01*
X47066277Y9618716D01*
X46954473Y9730520D01*
X46817541Y9809577D01*
X46817540Y9809578D01*
X46817539Y9809578D01*
X46817533Y9809580D01*
X46664816Y9850500D01*
X46664814Y9850500D01*
X46506700Y9850500D01*
X46506697Y9850500D01*
X46353980Y9809580D01*
X46353974Y9809578D01*
X46217043Y9730522D01*
X46105235Y9618714D01*
X46026179Y9481783D01*
X46026177Y9481777D01*
X45985257Y9329060D01*
X300001Y9329060D01*
X299899Y10830259D01*
X27850257Y10830259D01*
X27850257Y10631214D01*
X27850258Y10631201D01*
X27889088Y10435990D01*
X27889089Y10435987D01*
X27889090Y10435984D01*
X27949278Y10290679D01*
X27965266Y10252081D01*
X27965267Y10252080D01*
X27969052Y10246416D01*
X28075851Y10086580D01*
X28216601Y9945830D01*
X28359272Y9850500D01*
X28382100Y9835247D01*
X28382101Y9835246D01*
X28382102Y9835246D01*
X28382106Y9835243D01*
X28566005Y9759069D01*
X28761231Y9720236D01*
X28761235Y9720236D01*
X28960279Y9720236D01*
X28960283Y9720236D01*
X29155509Y9759069D01*
X29339408Y9835243D01*
X29504913Y9945830D01*
X29645663Y10086580D01*
X29722932Y10202221D01*
X61481059Y10202221D01*
X61481059Y9416004D01*
X61491501Y9329056D01*
X61491682Y9327548D01*
X61547198Y9186770D01*
X61638637Y9066190D01*
X61759217Y8974751D01*
X61899995Y8919235D01*
X61988457Y8908612D01*
X62059565Y8908612D01*
X62108095Y8890948D01*
X62124950Y8870862D01*
X62141071Y8842939D01*
X62141072Y8842938D01*
X62141074Y8842935D01*
X62424429Y8559580D01*
X62638967Y8345042D01*
X62660793Y8298235D01*
X62647426Y8248350D01*
X62605121Y8218728D01*
X62585580Y8216155D01*
X62489175Y8216155D01*
X62336458Y8175235D01*
X62336452Y8175233D01*
X62199521Y8096177D01*
X62087713Y7984369D01*
X62008657Y7847438D01*
X62008655Y7847432D01*
X61967735Y7694715D01*
X61967735Y7536596D01*
X62008655Y7383879D01*
X62008657Y7383873D01*
X62074182Y7270378D01*
X62087715Y7246939D01*
X62199519Y7135135D01*
X62336451Y7056078D01*
X62489178Y7015155D01*
X62489179Y7015155D01*
X62647291Y7015155D01*
X62647292Y7015155D01*
X62800019Y7056078D01*
X62936951Y7135135D01*
X63048755Y7246939D01*
X63127812Y7383871D01*
X63168735Y7536598D01*
X63168735Y7574990D01*
X63186399Y7623520D01*
X63231125Y7649343D01*
X63254095Y7649843D01*
X63256699Y7649500D01*
X63256700Y7649500D01*
X63414813Y7649500D01*
X63414814Y7649500D01*
X63567541Y7690423D01*
X63704473Y7769480D01*
X63816277Y7881284D01*
X63895334Y8018216D01*
X63895334Y8018219D01*
X63895372Y8018283D01*
X63934934Y8051480D01*
X63986579Y8051480D01*
X64026142Y8018283D01*
X64026179Y8018219D01*
X64026180Y8018216D01*
X64082340Y7920943D01*
X64099960Y7890423D01*
X64105237Y7881284D01*
X64217041Y7769480D01*
X64353973Y7690423D01*
X64506700Y7649500D01*
X64506701Y7649500D01*
X64664813Y7649500D01*
X64664814Y7649500D01*
X64817541Y7690423D01*
X64930899Y7755871D01*
X64981760Y7764838D01*
X65026486Y7739015D01*
X65044149Y7690485D01*
X65041576Y7670944D01*
X65010257Y7554060D01*
X65010257Y7395941D01*
X65051177Y7243224D01*
X65051179Y7243218D01*
X65113580Y7135134D01*
X65130237Y7106284D01*
X65242041Y6994480D01*
X65378973Y6915423D01*
X65378978Y6915422D01*
X65378980Y6915421D01*
X65438234Y6899545D01*
X65531700Y6874500D01*
X65531701Y6874500D01*
X65689812Y6874500D01*
X65689814Y6874500D01*
X65842541Y6915423D01*
X65979473Y6994480D01*
X66091277Y7106284D01*
X66170334Y7243216D01*
X66209047Y7387696D01*
X66238669Y7430000D01*
X66288554Y7443367D01*
X66301515Y7441081D01*
X66419303Y7409521D01*
X66456700Y7399500D01*
X66456701Y7399500D01*
X66614813Y7399500D01*
X66614814Y7399500D01*
X66767541Y7440423D01*
X66904473Y7519480D01*
X67016277Y7631284D01*
X67095334Y7768216D01*
X67136257Y7920943D01*
X67136257Y8079057D01*
X67095334Y8231784D01*
X67016277Y8368716D01*
X66904473Y8480520D01*
X66767541Y8559577D01*
X66767540Y8559578D01*
X66767539Y8559578D01*
X66767533Y8559580D01*
X66614816Y8600500D01*
X66614814Y8600500D01*
X66456700Y8600500D01*
X66456697Y8600500D01*
X66303980Y8559580D01*
X66303974Y8559578D01*
X66167043Y8480522D01*
X66055235Y8368714D01*
X65976179Y8231783D01*
X65976177Y8231777D01*
X65937466Y8087306D01*
X65907844Y8045001D01*
X65857959Y8031634D01*
X65844999Y8033919D01*
X65761891Y8056187D01*
X65689814Y8075500D01*
X65531700Y8075500D01*
X65531697Y8075500D01*
X65378980Y8034580D01*
X65378970Y8034576D01*
X65265613Y7969131D01*
X65214752Y7960163D01*
X65170027Y7985986D01*
X65152364Y8034517D01*
X65154936Y8054053D01*
X65186257Y8170943D01*
X65186257Y8217479D01*
X65203921Y8266009D01*
X65208359Y8270855D01*
X65461727Y8524222D01*
X65517745Y8621248D01*
X65546742Y8729466D01*
X65546742Y8841503D01*
X65546742Y8854980D01*
X65564406Y8903510D01*
X65609132Y8929333D01*
X65613241Y8929942D01*
X65614332Y8930073D01*
X65614344Y8930073D01*
X65702806Y8940696D01*
X65843584Y8996212D01*
X65964164Y9087651D01*
X66055603Y9208231D01*
X66111119Y9349009D01*
X66121742Y9437471D01*
X66121742Y10223675D01*
X66111119Y10312137D01*
X66055603Y10452915D01*
X65964164Y10573495D01*
X65843584Y10664934D01*
X65702806Y10720450D01*
X65702803Y10720451D01*
X65702801Y10720451D01*
X65614350Y10731073D01*
X65614344Y10731073D01*
X64628140Y10731073D01*
X64628133Y10731073D01*
X64539682Y10720451D01*
X64539678Y10720451D01*
X64539678Y10720450D01*
X64398900Y10664934D01*
X64398899Y10664934D01*
X64398898Y10664933D01*
X64278322Y10573497D01*
X64278318Y10573493D01*
X64186882Y10452917D01*
X64186881Y10452916D01*
X64186881Y10452915D01*
X64148965Y10356770D01*
X64131366Y10312140D01*
X64131364Y10312133D01*
X64120742Y10223682D01*
X64120742Y9437465D01*
X64131364Y9349014D01*
X64131365Y9349009D01*
X64186881Y9208231D01*
X64278320Y9087651D01*
X64398900Y8996212D01*
X64449662Y8976194D01*
X64488327Y8941959D01*
X64495942Y8890879D01*
X64468940Y8846854D01*
X64441504Y8833032D01*
X64353980Y8809580D01*
X64353974Y8809578D01*
X64217043Y8730522D01*
X64105235Y8618714D01*
X64026142Y8481718D01*
X63986580Y8448521D01*
X63934935Y8448521D01*
X63895372Y8481718D01*
X63864563Y8535081D01*
X63816277Y8618716D01*
X63704473Y8730520D01*
X63636993Y8769479D01*
X63567539Y8809578D01*
X63567533Y8809580D01*
X63414816Y8850500D01*
X63414814Y8850500D01*
X63368279Y8850500D01*
X63352790Y8856138D01*
X63336371Y8857574D01*
X63322867Y8867030D01*
X63319749Y8868164D01*
X63314892Y8872613D01*
X63270161Y8917344D01*
X63248335Y8964151D01*
X63261702Y9014036D01*
X63277925Y9030887D01*
X63324481Y9066190D01*
X63415920Y9186770D01*
X63471436Y9327548D01*
X63482059Y9416010D01*
X63482059Y10202214D01*
X63471436Y10290676D01*
X63415920Y10431454D01*
X63324481Y10552034D01*
X63203901Y10643473D01*
X63063123Y10698989D01*
X63063120Y10698990D01*
X63063118Y10698990D01*
X62974667Y10709612D01*
X62974661Y10709612D01*
X61988457Y10709612D01*
X61988450Y10709612D01*
X61899999Y10698990D01*
X61899995Y10698990D01*
X61899995Y10698989D01*
X61759217Y10643473D01*
X61759216Y10643473D01*
X61759215Y10643472D01*
X61638639Y10552036D01*
X61638635Y10552032D01*
X61547199Y10431456D01*
X61547198Y10431453D01*
X61491683Y10290679D01*
X61491681Y10290672D01*
X61481059Y10202221D01*
X29722932Y10202221D01*
X29756250Y10252085D01*
X29832424Y10435984D01*
X29871257Y10631210D01*
X29871257Y10830262D01*
X29832424Y11025488D01*
X29756250Y11209387D01*
X29645663Y11374892D01*
X29504913Y11515642D01*
X29372751Y11603950D01*
X29339413Y11626226D01*
X29339412Y11626227D01*
X29339409Y11626229D01*
X29339408Y11626229D01*
X29332573Y11629060D01*
X55635257Y11629060D01*
X55635257Y11470941D01*
X55676177Y11318224D01*
X55676179Y11318218D01*
X55739536Y11208478D01*
X55755237Y11181284D01*
X55867041Y11069480D01*
X56003973Y10990423D01*
X56156700Y10949500D01*
X56156701Y10949500D01*
X56314813Y10949500D01*
X56314814Y10949500D01*
X56467541Y10990423D01*
X56604473Y11069480D01*
X56716277Y11181284D01*
X56795334Y11318216D01*
X56836257Y11470943D01*
X56836257Y11629057D01*
X56831135Y11648171D01*
X56821506Y11684111D01*
X61481559Y11684111D01*
X61481559Y11416045D01*
X61492172Y11327672D01*
X61492174Y11327665D01*
X61547638Y11187019D01*
X61547639Y11187017D01*
X61638992Y11066550D01*
X61638996Y11066546D01*
X61759463Y10975193D01*
X61759465Y10975192D01*
X61900111Y10919728D01*
X61900118Y10919726D01*
X61988491Y10909113D01*
X61988506Y10909112D01*
X62356558Y10909112D01*
X62356559Y10909113D01*
X62356559Y11684111D01*
X62356558Y11684112D01*
X61481560Y11684112D01*
X61481559Y11684111D01*
X56821506Y11684111D01*
X56818362Y11695844D01*
X56795336Y11781777D01*
X56795334Y11781783D01*
X56795334Y11781784D01*
X56716277Y11918716D01*
X56604473Y12030520D01*
X56467541Y12109577D01*
X56467540Y12109578D01*
X56467539Y12109578D01*
X56467534Y12109580D01*
X56461397Y12111224D01*
X56458344Y12113362D01*
X56454618Y12113388D01*
X56437504Y12127954D01*
X56419092Y12140847D01*
X56418127Y12144447D01*
X56415290Y12146862D01*
X56411543Y12169020D01*
X56405726Y12190732D01*
X56407301Y12194110D01*
X56406680Y12197784D01*
X56409259Y12202180D01*
X61481559Y12202180D01*
X61481559Y11934113D01*
X61481560Y11934112D01*
X62356558Y11934112D01*
X62356559Y11934113D01*
X62356559Y12709111D01*
X62606559Y12709111D01*
X62606559Y10909113D01*
X62606560Y10909112D01*
X62974612Y10909112D01*
X62974626Y10909113D01*
X63062999Y10919726D01*
X63063006Y10919728D01*
X63203652Y10975192D01*
X63203654Y10975193D01*
X63324121Y11066546D01*
X63324125Y11066550D01*
X63415478Y11187017D01*
X63415479Y11187019D01*
X63470943Y11327665D01*
X63478519Y11390750D01*
X63501843Y11436829D01*
X63549328Y11457135D01*
X63591230Y11447135D01*
X63689458Y11390423D01*
X63842185Y11349500D01*
X63842186Y11349500D01*
X64000298Y11349500D01*
X64000299Y11349500D01*
X64054087Y11363913D01*
X64105532Y11359413D01*
X64142052Y11322895D01*
X64143862Y11318683D01*
X64187319Y11208482D01*
X64187322Y11208478D01*
X64278675Y11088011D01*
X64278679Y11088007D01*
X64399146Y10996654D01*
X64399148Y10996653D01*
X64539794Y10941189D01*
X64539801Y10941187D01*
X64628174Y10930574D01*
X64628189Y10930573D01*
X64996241Y10930573D01*
X64996242Y10930574D01*
X64996242Y11705572D01*
X65246242Y11705572D01*
X65246242Y10930574D01*
X65246243Y10930573D01*
X65614295Y10930573D01*
X65614309Y10930574D01*
X65702682Y10941187D01*
X65702689Y10941189D01*
X65843335Y10996653D01*
X65843337Y10996654D01*
X65963804Y11088007D01*
X65963808Y11088011D01*
X66055161Y11208478D01*
X66055162Y11208480D01*
X66110626Y11349126D01*
X66110628Y11349133D01*
X66121241Y11437506D01*
X66121242Y11437521D01*
X66121242Y11705572D01*
X66121241Y11705573D01*
X65246243Y11705573D01*
X65246242Y11705572D01*
X64996242Y11705572D01*
X64996242Y12730572D01*
X65246242Y12730572D01*
X65246242Y11955574D01*
X65246243Y11955573D01*
X66121241Y11955573D01*
X66121242Y11955574D01*
X66121242Y12223626D01*
X66121241Y12223641D01*
X66110628Y12312014D01*
X66110626Y12312021D01*
X66055162Y12452667D01*
X66055161Y12452669D01*
X65963808Y12573136D01*
X65963804Y12573140D01*
X65843337Y12664493D01*
X65843335Y12664494D01*
X65702689Y12719958D01*
X65702682Y12719960D01*
X65614309Y12730573D01*
X65246243Y12730573D01*
X65246242Y12730572D01*
X64996242Y12730572D01*
X64996241Y12730573D01*
X64628174Y12730573D01*
X64539801Y12719960D01*
X64539794Y12719958D01*
X64399148Y12664494D01*
X64399146Y12664493D01*
X64278679Y12573140D01*
X64278677Y12573138D01*
X64247129Y12531537D01*
X64203729Y12503542D01*
X64158247Y12509268D01*
X64157592Y12507685D01*
X64153027Y12509576D01*
X64153026Y12509577D01*
X64153023Y12509578D01*
X64153018Y12509580D01*
X64000301Y12550500D01*
X64000299Y12550500D01*
X63842185Y12550500D01*
X63842182Y12550500D01*
X63689465Y12509580D01*
X63689459Y12509578D01*
X63552525Y12430520D01*
X63535450Y12413445D01*
X63488643Y12391620D01*
X63438758Y12404988D01*
X63418679Y12427153D01*
X63418600Y12427092D01*
X63417912Y12427999D01*
X63416257Y12429826D01*
X63415483Y12431203D01*
X63324125Y12551675D01*
X63324121Y12551679D01*
X63203654Y12643032D01*
X63203652Y12643033D01*
X63063006Y12698497D01*
X63062999Y12698499D01*
X62974626Y12709112D01*
X62606560Y12709112D01*
X62606559Y12709111D01*
X62356559Y12709111D01*
X62356558Y12709112D01*
X61988491Y12709112D01*
X61900118Y12698499D01*
X61900111Y12698497D01*
X61759465Y12643033D01*
X61759463Y12643032D01*
X61638996Y12551679D01*
X61638992Y12551675D01*
X61547639Y12431208D01*
X61547638Y12431206D01*
X61492174Y12290560D01*
X61492172Y12290553D01*
X61481559Y12202180D01*
X56409259Y12202180D01*
X56418052Y12217166D01*
X56427553Y12237538D01*
X56431453Y12240004D01*
X56432817Y12242327D01*
X56445412Y12248829D01*
X56455616Y12255278D01*
X56458465Y12256293D01*
X56492541Y12265423D01*
X56629473Y12344480D01*
X56741277Y12456284D01*
X56820334Y12593216D01*
X56861257Y12745943D01*
X56861257Y12904057D01*
X56830150Y13020150D01*
X56820336Y13056777D01*
X56820334Y13056783D01*
X56820334Y13056784D01*
X56741277Y13193716D01*
X56629473Y13305520D01*
X56492541Y13384577D01*
X56492540Y13384578D01*
X56492539Y13384578D01*
X56492533Y13384580D01*
X56339816Y13425500D01*
X56339814Y13425500D01*
X56181700Y13425500D01*
X56181697Y13425500D01*
X56028980Y13384580D01*
X56028974Y13384578D01*
X55892043Y13305522D01*
X55780235Y13193714D01*
X55701179Y13056783D01*
X55701177Y13056777D01*
X55660257Y12904060D01*
X55660257Y12745941D01*
X55701177Y12593224D01*
X55701179Y12593218D01*
X55701180Y12593216D01*
X55725842Y12550500D01*
X55749468Y12509577D01*
X55780237Y12456284D01*
X55892041Y12344480D01*
X56028973Y12265423D01*
X56028976Y12265423D01*
X56028979Y12265421D01*
X56035111Y12263778D01*
X56077418Y12234158D01*
X56090787Y12184273D01*
X56068963Y12137466D01*
X56035116Y12117923D01*
X56003979Y12109580D01*
X56003974Y12109578D01*
X55867043Y12030522D01*
X55755235Y11918714D01*
X55676179Y11781783D01*
X55676177Y11781777D01*
X55635257Y11629060D01*
X29332573Y11629060D01*
X29155509Y11702403D01*
X29155506Y11702404D01*
X29155503Y11702405D01*
X28960292Y11741235D01*
X28960285Y11741236D01*
X28960283Y11741236D01*
X28761231Y11741236D01*
X28761228Y11741236D01*
X28761221Y11741235D01*
X28566010Y11702405D01*
X28382101Y11626227D01*
X28382100Y11626226D01*
X28216603Y11515644D01*
X28075849Y11374890D01*
X27965267Y11209393D01*
X27965266Y11209392D01*
X27889088Y11025483D01*
X27850258Y10830272D01*
X27850257Y10830259D01*
X299899Y10830259D01*
X299707Y13642540D01*
X570757Y13642540D01*
X570757Y13406567D01*
X601556Y13172634D01*
X601557Y13172632D01*
X662624Y12944725D01*
X662625Y12944721D01*
X752921Y12726727D01*
X752925Y12726719D01*
X870901Y12522381D01*
X1010229Y12340805D01*
X1795276Y13125853D01*
X1827031Y13078329D01*
X1924533Y12980827D01*
X1972054Y12949075D01*
X1187007Y12164027D01*
X1368584Y12024698D01*
X1572922Y11906722D01*
X1572930Y11906718D01*
X1790924Y11816422D01*
X1790928Y11816421D01*
X2018835Y11755354D01*
X2018837Y11755353D01*
X2252770Y11724554D01*
X2252783Y11724553D01*
X2488731Y11724553D01*
X2488743Y11724554D01*
X2722676Y11755353D01*
X2722678Y11755354D01*
X2950585Y11816421D01*
X2950589Y11816422D01*
X3168583Y11906718D01*
X3168591Y11906722D01*
X3372929Y12024698D01*
X3554505Y12164027D01*
X2769458Y12949074D01*
X2816981Y12980827D01*
X2914483Y13078329D01*
X2946236Y13125852D01*
X3731283Y12340805D01*
X3870612Y12522381D01*
X3988588Y12726719D01*
X3988592Y12726727D01*
X4078888Y12944721D01*
X4078889Y12944725D01*
X4139956Y13172632D01*
X4139957Y13172634D01*
X4170756Y13406567D01*
X4170757Y13406579D01*
X4170757Y13642528D01*
X4170756Y13642540D01*
X16800757Y13642540D01*
X16800757Y13406567D01*
X16831556Y13172634D01*
X16831557Y13172632D01*
X16892624Y12944725D01*
X16892625Y12944721D01*
X16982921Y12726727D01*
X16982925Y12726719D01*
X17100901Y12522381D01*
X17240229Y12340805D01*
X18025276Y13125853D01*
X18057031Y13078329D01*
X18154533Y12980827D01*
X18202054Y12949075D01*
X17417007Y12164027D01*
X17598584Y12024698D01*
X17802922Y11906722D01*
X17802930Y11906718D01*
X18020924Y11816422D01*
X18020928Y11816421D01*
X18248835Y11755354D01*
X18248837Y11755353D01*
X18482770Y11724554D01*
X18482783Y11724553D01*
X18718731Y11724553D01*
X18718743Y11724554D01*
X18952676Y11755353D01*
X18952678Y11755354D01*
X19180585Y11816421D01*
X19180589Y11816422D01*
X19398583Y11906718D01*
X19398591Y11906722D01*
X19602929Y12024698D01*
X19784505Y12164027D01*
X19681173Y12267359D01*
X25560257Y12267359D01*
X25560257Y12094114D01*
X25587354Y11923041D01*
X25587354Y11923038D01*
X25640885Y11758288D01*
X25678680Y11684111D01*
X25719525Y11603948D01*
X25821343Y11463808D01*
X25943829Y11341322D01*
X26083969Y11239504D01*
X26238312Y11160863D01*
X26403056Y11107334D01*
X26473706Y11096145D01*
X26574134Y11080237D01*
X26574146Y11080236D01*
X26747368Y11080236D01*
X26747379Y11080237D01*
X26822399Y11092120D01*
X26918458Y11107334D01*
X27083202Y11160863D01*
X27237545Y11239504D01*
X27377685Y11341322D01*
X27500171Y11463808D01*
X27601989Y11603948D01*
X27680630Y11758291D01*
X27734159Y11923035D01*
X27751183Y12030522D01*
X27761256Y12094114D01*
X27761257Y12094125D01*
X27761257Y12267348D01*
X27761256Y12267359D01*
X27750416Y12335798D01*
X27741574Y12391620D01*
X27734159Y12438437D01*
X27680630Y12603181D01*
X27601989Y12757524D01*
X27500171Y12897664D01*
X27377685Y13020150D01*
X27237545Y13121968D01*
X27232176Y13124704D01*
X27083205Y13200608D01*
X27083202Y13200609D01*
X26918458Y13254138D01*
X26918454Y13254139D01*
X26918453Y13254139D01*
X26835236Y13267320D01*
X29960757Y13267320D01*
X29960757Y13094153D01*
X29987842Y12923158D01*
X29987842Y12923155D01*
X30041347Y12758482D01*
X30119957Y12604204D01*
X30119959Y12604202D01*
X30198853Y12495612D01*
X30710757Y13007516D01*
X30710757Y12734658D01*
X30727810Y12671014D01*
X30375631Y12318834D01*
X30484226Y12239936D01*
X30638502Y12161327D01*
X30803177Y12107822D01*
X30974173Y12080737D01*
X30974185Y12080736D01*
X31147329Y12080736D01*
X31147340Y12080737D01*
X31318335Y12107822D01*
X31318338Y12107822D01*
X31483011Y12161327D01*
X31637285Y12239935D01*
X31745881Y12318834D01*
X31393703Y12671012D01*
X31410757Y12734658D01*
X31410757Y13007514D01*
X31922659Y12495612D01*
X32001558Y12604208D01*
X32080166Y12758482D01*
X32133671Y12923155D01*
X32133671Y12923158D01*
X32160756Y13094153D01*
X32160757Y13094164D01*
X32160757Y13267309D01*
X32160756Y13267320D01*
X32133671Y13438315D01*
X32133671Y13438318D01*
X32080166Y13602991D01*
X32001557Y13757267D01*
X31922659Y13865862D01*
X31410757Y13353960D01*
X31410757Y13626814D01*
X31393702Y13690462D01*
X31745881Y14042640D01*
X31637291Y14121534D01*
X31637289Y14121536D01*
X31483011Y14200146D01*
X31318336Y14253651D01*
X31147340Y14280736D01*
X30974173Y14280736D01*
X30803178Y14253651D01*
X30803175Y14253651D01*
X30638502Y14200146D01*
X30484226Y14121537D01*
X30375631Y14042640D01*
X30727810Y13690461D01*
X30710757Y13626814D01*
X30710757Y13353958D01*
X30198853Y13865862D01*
X30119956Y13757267D01*
X30041347Y13602991D01*
X29987842Y13438318D01*
X29987842Y13438315D01*
X29960757Y13267320D01*
X26835236Y13267320D01*
X26747379Y13281236D01*
X26747368Y13281236D01*
X26574146Y13281236D01*
X26574134Y13281236D01*
X26403061Y13254139D01*
X26403058Y13254139D01*
X26238308Y13200608D01*
X26083970Y13121969D01*
X25943831Y13020152D01*
X25821341Y12897662D01*
X25719524Y12757523D01*
X25640885Y12603185D01*
X25587354Y12438435D01*
X25587354Y12438432D01*
X25560257Y12267359D01*
X19681173Y12267359D01*
X18999458Y12949074D01*
X19046981Y12980827D01*
X19144483Y13078329D01*
X19176236Y13125852D01*
X19961283Y12340805D01*
X20100612Y12522381D01*
X20218588Y12726719D01*
X20218592Y12726727D01*
X20308888Y12944721D01*
X20308889Y12944725D01*
X20369956Y13172632D01*
X20369957Y13172634D01*
X20400756Y13406567D01*
X20400757Y13406579D01*
X20400757Y13642528D01*
X20400756Y13642540D01*
X20369957Y13876473D01*
X20369956Y13876474D01*
X20338379Y13994323D01*
X20338378Y13994324D01*
X20308886Y14104389D01*
X20218592Y14322380D01*
X20218588Y14322388D01*
X20100610Y14526730D01*
X20091931Y14538040D01*
X20091928Y14538044D01*
X20060455Y14579060D01*
X41210257Y14579060D01*
X41210257Y14420941D01*
X41251177Y14268224D01*
X41251179Y14268218D01*
X41322384Y14144885D01*
X41330237Y14131284D01*
X41442041Y14019480D01*
X41578973Y13940423D01*
X41731700Y13899500D01*
X41731701Y13899500D01*
X41889813Y13899500D01*
X41889814Y13899500D01*
X42042541Y13940423D01*
X42179473Y14019480D01*
X42291277Y14131284D01*
X42370334Y14268216D01*
X42386637Y14329060D01*
X64210257Y14329060D01*
X64210257Y14170941D01*
X64251177Y14018224D01*
X64251179Y14018218D01*
X64319719Y13899501D01*
X64330237Y13881284D01*
X64442041Y13769480D01*
X64578973Y13690423D01*
X64731700Y13649500D01*
X64731701Y13649500D01*
X64889813Y13649500D01*
X64889814Y13649500D01*
X65042541Y13690423D01*
X65179473Y13769480D01*
X65291277Y13881284D01*
X65370334Y14018216D01*
X65411257Y14170943D01*
X65411257Y14329057D01*
X65411256Y14329060D01*
X70485257Y14329060D01*
X70485257Y14170941D01*
X70526177Y14018224D01*
X70526179Y14018218D01*
X70594719Y13899501D01*
X70605237Y13881284D01*
X70717041Y13769480D01*
X70853973Y13690423D01*
X71006700Y13649500D01*
X71006701Y13649500D01*
X71164813Y13649500D01*
X71164814Y13649500D01*
X71317541Y13690423D01*
X71454473Y13769480D01*
X71566277Y13881284D01*
X71645334Y14018216D01*
X71686257Y14170943D01*
X71686257Y14329057D01*
X71686256Y14329060D01*
X75985257Y14329060D01*
X75985257Y14170941D01*
X76026177Y14018224D01*
X76026179Y14018218D01*
X76094719Y13899501D01*
X76105237Y13881284D01*
X76217041Y13769480D01*
X76353973Y13690423D01*
X76506700Y13649500D01*
X76506701Y13649500D01*
X76664813Y13649500D01*
X76664814Y13649500D01*
X76817541Y13690423D01*
X76954473Y13769480D01*
X77066277Y13881284D01*
X77145334Y14018216D01*
X77186257Y14170943D01*
X77186257Y14329057D01*
X77145334Y14481784D01*
X77066277Y14618716D01*
X76954473Y14730520D01*
X76952285Y14731783D01*
X76867655Y14780644D01*
X76817541Y14809577D01*
X76817540Y14809578D01*
X76817539Y14809578D01*
X76817533Y14809580D01*
X76664816Y14850500D01*
X76664814Y14850500D01*
X76506700Y14850500D01*
X76506697Y14850500D01*
X76353980Y14809580D01*
X76353974Y14809578D01*
X76217043Y14730522D01*
X76105235Y14618714D01*
X76026179Y14481783D01*
X76026177Y14481777D01*
X75985257Y14329060D01*
X71686256Y14329060D01*
X71645334Y14481784D01*
X71566277Y14618716D01*
X71454473Y14730520D01*
X71452285Y14731783D01*
X71367655Y14780644D01*
X71317541Y14809577D01*
X71317540Y14809578D01*
X71317539Y14809578D01*
X71317533Y14809580D01*
X71164816Y14850500D01*
X71164814Y14850500D01*
X71006700Y14850500D01*
X71006697Y14850500D01*
X70853980Y14809580D01*
X70853974Y14809578D01*
X70717043Y14730522D01*
X70605235Y14618714D01*
X70526179Y14481783D01*
X70526177Y14481777D01*
X70485257Y14329060D01*
X65411256Y14329060D01*
X65370334Y14481784D01*
X65291277Y14618716D01*
X65179473Y14730520D01*
X65177285Y14731783D01*
X65092655Y14780644D01*
X65042541Y14809577D01*
X65042540Y14809578D01*
X65042539Y14809578D01*
X65042533Y14809580D01*
X64889816Y14850500D01*
X64889814Y14850500D01*
X64731700Y14850500D01*
X64731697Y14850500D01*
X64578980Y14809580D01*
X64578974Y14809578D01*
X64442043Y14730522D01*
X64330235Y14618714D01*
X64251179Y14481783D01*
X64251177Y14481777D01*
X64210257Y14329060D01*
X42386637Y14329060D01*
X42411257Y14420943D01*
X42411257Y14579057D01*
X42370334Y14731784D01*
X42291277Y14868716D01*
X42179473Y14980520D01*
X42042541Y15059577D01*
X42042540Y15059578D01*
X42042539Y15059578D01*
X42042533Y15059580D01*
X41889816Y15100500D01*
X41889814Y15100500D01*
X41731700Y15100500D01*
X41731697Y15100500D01*
X41578980Y15059580D01*
X41578974Y15059578D01*
X41442043Y14980522D01*
X41330235Y14868714D01*
X41251179Y14731783D01*
X41251177Y14731777D01*
X41210257Y14579060D01*
X20060455Y14579060D01*
X19961283Y14708303D01*
X19176235Y13923256D01*
X19144483Y13970777D01*
X19046981Y14068279D01*
X18999457Y14100034D01*
X19784505Y14885081D01*
X19602929Y15024409D01*
X19398591Y15142385D01*
X19398583Y15142389D01*
X19180589Y15232685D01*
X19180585Y15232686D01*
X18952678Y15293753D01*
X18952676Y15293754D01*
X18718743Y15324553D01*
X18482770Y15324553D01*
X18248837Y15293754D01*
X18248835Y15293753D01*
X18020928Y15232686D01*
X18020924Y15232685D01*
X17802930Y15142389D01*
X17802922Y15142385D01*
X17598584Y15024409D01*
X17417007Y14885081D01*
X18202055Y14100033D01*
X18154533Y14068279D01*
X18057031Y13970777D01*
X18025277Y13923255D01*
X17240229Y14708303D01*
X17100901Y14526726D01*
X16982925Y14322388D01*
X16982921Y14322380D01*
X16892625Y14104386D01*
X16892624Y14104382D01*
X16831557Y13876475D01*
X16831556Y13876473D01*
X16800757Y13642540D01*
X4170756Y13642540D01*
X4139957Y13876473D01*
X4139956Y13876475D01*
X4078889Y14104382D01*
X4078888Y14104386D01*
X3988592Y14322380D01*
X3988588Y14322388D01*
X3870612Y14526726D01*
X3731283Y14708303D01*
X2946235Y13923256D01*
X2914483Y13970777D01*
X2816981Y14068279D01*
X2769457Y14100034D01*
X3554505Y14885081D01*
X3372929Y15024409D01*
X3168591Y15142385D01*
X3168583Y15142389D01*
X2950589Y15232685D01*
X2950585Y15232686D01*
X2722678Y15293753D01*
X2722676Y15293754D01*
X2488743Y15324553D01*
X2252770Y15324553D01*
X2018837Y15293754D01*
X2018835Y15293753D01*
X1790928Y15232686D01*
X1790924Y15232685D01*
X1572930Y15142389D01*
X1572922Y15142385D01*
X1368584Y15024409D01*
X1187007Y14885081D01*
X1972055Y14100033D01*
X1924533Y14068279D01*
X1827031Y13970777D01*
X1795277Y13923255D01*
X1010229Y14708303D01*
X870901Y14526726D01*
X752925Y14322388D01*
X752921Y14322380D01*
X662625Y14104386D01*
X662624Y14104382D01*
X601557Y13876475D01*
X601556Y13876473D01*
X570757Y13642540D01*
X299707Y13642540D01*
X299274Y19992573D01*
X570257Y19992573D01*
X570257Y19756534D01*
X601064Y19522536D01*
X601065Y19522535D01*
X662149Y19294565D01*
X752474Y19076501D01*
X752476Y19076498D01*
X778122Y19032078D01*
X868811Y18875000D01*
X870486Y18872100D01*
X918461Y18809578D01*
X1014165Y18684854D01*
X1181058Y18517961D01*
X1368307Y18374280D01*
X1561126Y18262956D01*
X1572701Y18256273D01*
X1572704Y18256271D01*
X1572705Y18256271D01*
X1572708Y18256269D01*
X1790764Y18165947D01*
X2018743Y18104860D01*
X2187019Y18082706D01*
X2252737Y18074054D01*
X2252740Y18074054D01*
X2252746Y18074053D01*
X2252750Y18074053D01*
X2488764Y18074053D01*
X2488768Y18074053D01*
X2722771Y18104860D01*
X2950750Y18165947D01*
X3168806Y18256269D01*
X3373207Y18374280D01*
X3560456Y18517961D01*
X3727349Y18684854D01*
X3871030Y18872103D01*
X3989041Y19076504D01*
X4072459Y19277894D01*
X4107350Y19315969D01*
X4142212Y19324500D01*
X5194060Y19324500D01*
X5242590Y19306836D01*
X5264295Y19276700D01*
X5313211Y19152658D01*
X5404650Y19032078D01*
X5525230Y18940639D01*
X5666008Y18885123D01*
X5754470Y18874500D01*
X5754478Y18874500D01*
X6540666Y18874500D01*
X6540674Y18874500D01*
X6629136Y18885123D01*
X6769914Y18940639D01*
X6890494Y19032078D01*
X6981933Y19152658D01*
X7037449Y19293436D01*
X7048072Y19381898D01*
X7048072Y19749999D01*
X7247572Y19749999D01*
X7247572Y19381933D01*
X7258185Y19293560D01*
X7258187Y19293553D01*
X7313651Y19152907D01*
X7313652Y19152905D01*
X7405005Y19032438D01*
X7405009Y19032434D01*
X7525476Y18941081D01*
X7525478Y18941080D01*
X7666124Y18885616D01*
X7666131Y18885614D01*
X7754504Y18875001D01*
X7754519Y18875000D01*
X8022571Y18875000D01*
X8022572Y18875001D01*
X8022572Y19749999D01*
X8272572Y19749999D01*
X8272572Y18875001D01*
X8272573Y18875000D01*
X8540625Y18875000D01*
X8540639Y18875001D01*
X8629012Y18885614D01*
X8629019Y18885616D01*
X8769665Y18941080D01*
X8769667Y18941081D01*
X8890134Y19032434D01*
X8890138Y19032438D01*
X8981491Y19152905D01*
X8981492Y19152907D01*
X9036956Y19293553D01*
X9036958Y19293560D01*
X9047571Y19381933D01*
X9047572Y19381948D01*
X9047572Y19749999D01*
X9047571Y19750000D01*
X8272573Y19750000D01*
X8272572Y19749999D01*
X8022572Y19749999D01*
X8022571Y19750000D01*
X7247573Y19750000D01*
X7247572Y19749999D01*
X7048072Y19749999D01*
X7048072Y19992573D01*
X16800257Y19992573D01*
X16800257Y19756534D01*
X16831064Y19522536D01*
X16831065Y19522535D01*
X16892149Y19294565D01*
X16982474Y19076501D01*
X16982476Y19076498D01*
X17008122Y19032078D01*
X17098811Y18875000D01*
X17100486Y18872100D01*
X17148461Y18809578D01*
X17244165Y18684854D01*
X17411058Y18517961D01*
X17598307Y18374280D01*
X17791126Y18262956D01*
X17802701Y18256273D01*
X17802704Y18256271D01*
X17802705Y18256271D01*
X17802708Y18256269D01*
X18020764Y18165947D01*
X18248743Y18104860D01*
X18417019Y18082706D01*
X18482737Y18074054D01*
X18482740Y18074054D01*
X18482746Y18074053D01*
X18482750Y18074053D01*
X18718764Y18074053D01*
X18718768Y18074053D01*
X18952771Y18104860D01*
X19180750Y18165947D01*
X19398806Y18256269D01*
X19603207Y18374280D01*
X19790456Y18517961D01*
X19957349Y18684854D01*
X20101030Y18872103D01*
X20219041Y19076504D01*
X20309363Y19294560D01*
X20370450Y19522539D01*
X20401257Y19756542D01*
X20401257Y19992564D01*
X20370450Y20226567D01*
X20309363Y20454546D01*
X20219041Y20672602D01*
X20101030Y20877003D01*
X19957349Y21064252D01*
X19790456Y21231145D01*
X19733955Y21274500D01*
X19603210Y21374824D01*
X19398812Y21492834D01*
X19398809Y21492836D01*
X19180745Y21583161D01*
X18952775Y21644245D01*
X18952774Y21644246D01*
X18718776Y21675053D01*
X18718768Y21675053D01*
X18482746Y21675053D01*
X18482737Y21675053D01*
X18248739Y21644246D01*
X18248738Y21644245D01*
X18020768Y21583161D01*
X17802704Y21492836D01*
X17802701Y21492834D01*
X17598303Y21374824D01*
X17411062Y21231149D01*
X17244161Y21064248D01*
X17100486Y20877007D01*
X16982476Y20672609D01*
X16982474Y20672606D01*
X16892149Y20454542D01*
X16831065Y20226572D01*
X16831064Y20226571D01*
X16800257Y19992573D01*
X7048072Y19992573D01*
X7048072Y20368068D01*
X7247572Y20368068D01*
X7247572Y20000001D01*
X7247573Y20000000D01*
X8022571Y20000000D01*
X8022572Y20000001D01*
X8022572Y20874999D01*
X8272572Y20874999D01*
X8272572Y20000001D01*
X8272573Y20000000D01*
X9047571Y20000000D01*
X9047572Y20000001D01*
X9047572Y20368053D01*
X9047571Y20368068D01*
X9036958Y20456441D01*
X9036956Y20456448D01*
X8981492Y20597094D01*
X8981491Y20597096D01*
X8890138Y20717563D01*
X8890134Y20717567D01*
X8769667Y20808920D01*
X8769665Y20808921D01*
X8629019Y20864385D01*
X8629012Y20864387D01*
X8540639Y20875000D01*
X8272573Y20875000D01*
X8272572Y20874999D01*
X8022572Y20874999D01*
X8022571Y20875000D01*
X7754504Y20875000D01*
X7666131Y20864387D01*
X7666124Y20864385D01*
X7525478Y20808921D01*
X7525476Y20808920D01*
X7405009Y20717567D01*
X7405005Y20717563D01*
X7313652Y20597096D01*
X7313651Y20597094D01*
X7258187Y20456448D01*
X7258185Y20456441D01*
X7247572Y20368068D01*
X7048072Y20368068D01*
X7048072Y20368102D01*
X7037449Y20456564D01*
X6981933Y20597342D01*
X6890494Y20717922D01*
X6769914Y20809361D01*
X6629136Y20864877D01*
X6629133Y20864878D01*
X6629131Y20864878D01*
X6540680Y20875500D01*
X6540674Y20875500D01*
X5754470Y20875500D01*
X5754463Y20875500D01*
X5666012Y20864878D01*
X5666008Y20864878D01*
X5666008Y20864877D01*
X5525230Y20809361D01*
X5525229Y20809361D01*
X5525228Y20809360D01*
X5404652Y20717924D01*
X5404648Y20717920D01*
X5313212Y20597344D01*
X5313211Y20597343D01*
X5313211Y20597342D01*
X5264296Y20473302D01*
X5230060Y20434636D01*
X5194060Y20425500D01*
X4141842Y20425500D01*
X4093312Y20443164D01*
X4072089Y20472107D01*
X4066597Y20485365D01*
X3989041Y20672602D01*
X3871030Y20877003D01*
X3727349Y21064252D01*
X3560456Y21231145D01*
X3503955Y21274500D01*
X3373210Y21374824D01*
X3168812Y21492834D01*
X3168809Y21492836D01*
X2950745Y21583161D01*
X2722775Y21644245D01*
X2722774Y21644246D01*
X2488776Y21675053D01*
X2488768Y21675053D01*
X2252746Y21675053D01*
X2252737Y21675053D01*
X2018739Y21644246D01*
X2018738Y21644245D01*
X1790768Y21583161D01*
X1572704Y21492836D01*
X1572701Y21492834D01*
X1368303Y21374824D01*
X1181062Y21231149D01*
X1014161Y21064248D01*
X870486Y20877007D01*
X752476Y20672609D01*
X752474Y20672606D01*
X662149Y20454542D01*
X601065Y20226572D01*
X601064Y20226571D01*
X570257Y19992573D01*
X299274Y19992573D01*
X299155Y21745944D01*
X299098Y22579060D01*
X42660257Y22579060D01*
X42660257Y22420941D01*
X42701177Y22268224D01*
X42701179Y22268218D01*
X42701180Y22268216D01*
X42780237Y22131284D01*
X42892041Y22019480D01*
X43028973Y21940423D01*
X43181700Y21899500D01*
X43181701Y21899500D01*
X43339813Y21899500D01*
X43339814Y21899500D01*
X43492541Y21940423D01*
X43508212Y21949471D01*
X43559068Y21958439D01*
X43603795Y21932619D01*
X43618835Y21897910D01*
X43619695Y21898127D01*
X43620879Y21893441D01*
X43620880Y21893436D01*
X43676396Y21752658D01*
X43767835Y21632078D01*
X43888415Y21540639D01*
X44029193Y21485123D01*
X44117655Y21474500D01*
X44117663Y21474500D01*
X44878851Y21474500D01*
X44878859Y21474500D01*
X44967321Y21485123D01*
X45108099Y21540639D01*
X45228679Y21632078D01*
X45320118Y21752658D01*
X45375634Y21893436D01*
X45386257Y21981898D01*
X45386257Y22374999D01*
X45685757Y22374999D01*
X45685757Y21981933D01*
X45696370Y21893560D01*
X45696372Y21893553D01*
X45751836Y21752907D01*
X45751837Y21752905D01*
X45843190Y21632438D01*
X45843194Y21632434D01*
X45963661Y21541081D01*
X45963663Y21541080D01*
X46104309Y21485616D01*
X46104316Y21485614D01*
X46192689Y21475001D01*
X46192704Y21475000D01*
X46448256Y21475000D01*
X46448257Y21475001D01*
X46448257Y22374999D01*
X46698257Y22374999D01*
X46698257Y21475001D01*
X46698258Y21475000D01*
X46953810Y21475000D01*
X46953824Y21475001D01*
X47042197Y21485614D01*
X47042204Y21485616D01*
X47182850Y21541080D01*
X47182852Y21541081D01*
X47303319Y21632434D01*
X47303323Y21632438D01*
X47394676Y21752905D01*
X47394677Y21752907D01*
X47450141Y21893553D01*
X47450143Y21893560D01*
X47460756Y21981933D01*
X47460757Y21981948D01*
X47460757Y22374999D01*
X47460756Y22375000D01*
X46698258Y22375000D01*
X46698257Y22374999D01*
X46448257Y22374999D01*
X46448256Y22375000D01*
X45685758Y22375000D01*
X45685757Y22374999D01*
X45386257Y22374999D01*
X45386257Y23018068D01*
X45685757Y23018068D01*
X45685757Y22625001D01*
X45685758Y22625000D01*
X46448256Y22625000D01*
X46448257Y22625001D01*
X46448257Y23524999D01*
X46698257Y23524999D01*
X46698257Y22625001D01*
X46698258Y22625000D01*
X47460756Y22625000D01*
X47460757Y22625001D01*
X47460757Y23018053D01*
X47460756Y23018068D01*
X47450143Y23106441D01*
X47450141Y23106448D01*
X47394677Y23247094D01*
X47394676Y23247096D01*
X47303323Y23367563D01*
X47303319Y23367567D01*
X47182852Y23458920D01*
X47182850Y23458921D01*
X47042204Y23514385D01*
X47042197Y23514387D01*
X46953824Y23525000D01*
X46698258Y23525000D01*
X46698257Y23524999D01*
X46448257Y23524999D01*
X46448256Y23525000D01*
X46192689Y23525000D01*
X46104316Y23514387D01*
X46104309Y23514385D01*
X45963663Y23458921D01*
X45963661Y23458920D01*
X45843194Y23367567D01*
X45843190Y23367563D01*
X45751837Y23247096D01*
X45751836Y23247094D01*
X45696372Y23106448D01*
X45696370Y23106441D01*
X45685757Y23018068D01*
X45386257Y23018068D01*
X45386257Y23018102D01*
X45375634Y23106564D01*
X45320118Y23247342D01*
X45228679Y23367922D01*
X45108099Y23459361D01*
X44967321Y23514877D01*
X44967318Y23514878D01*
X44967316Y23514878D01*
X44878865Y23525500D01*
X44878859Y23525500D01*
X44117655Y23525500D01*
X44117648Y23525500D01*
X44029197Y23514878D01*
X44029193Y23514878D01*
X44029193Y23514877D01*
X43888415Y23459361D01*
X43888414Y23459361D01*
X43888413Y23459360D01*
X43767837Y23367924D01*
X43767833Y23367920D01*
X43676397Y23247344D01*
X43676396Y23247343D01*
X43676396Y23247342D01*
X43653950Y23190423D01*
X43620881Y23106567D01*
X43619695Y23101873D01*
X43618524Y23102169D01*
X43597588Y23060826D01*
X43550099Y23040529D01*
X43508212Y23050530D01*
X43492541Y23059577D01*
X43492540Y23059578D01*
X43492539Y23059578D01*
X43492533Y23059580D01*
X43339816Y23100500D01*
X43339814Y23100500D01*
X43181700Y23100500D01*
X43181697Y23100500D01*
X43028980Y23059580D01*
X43028974Y23059578D01*
X42892043Y22980522D01*
X42780235Y22868714D01*
X42701179Y22731783D01*
X42701177Y22731777D01*
X42660257Y22579060D01*
X299098Y22579060D01*
X299098Y22584001D01*
X299013Y23829060D01*
X27485257Y23829060D01*
X27485257Y23670941D01*
X27526177Y23518224D01*
X27526179Y23518218D01*
X27591136Y23405707D01*
X27605237Y23381284D01*
X27717041Y23269480D01*
X27853973Y23190423D01*
X28006700Y23149500D01*
X28006701Y23149500D01*
X28164813Y23149500D01*
X28164814Y23149500D01*
X28317541Y23190423D01*
X28454473Y23269480D01*
X28566277Y23381284D01*
X28645334Y23518216D01*
X28657554Y23563822D01*
X28657555Y23563826D01*
X30526575Y23563826D01*
X30526575Y23405707D01*
X30567495Y23252990D01*
X30567497Y23252984D01*
X30567498Y23252982D01*
X30646555Y23116050D01*
X30758359Y23004246D01*
X30895291Y22925189D01*
X31048018Y22884266D01*
X31048019Y22884266D01*
X31206131Y22884266D01*
X31206132Y22884266D01*
X31358859Y22925189D01*
X31495791Y23004246D01*
X31607595Y23116050D01*
X31686652Y23252982D01*
X31727575Y23405709D01*
X31727575Y23563823D01*
X31686652Y23716550D01*
X31607595Y23853482D01*
X31495791Y23965286D01*
X31491847Y23967563D01*
X31358857Y24044344D01*
X31358851Y24044346D01*
X31206134Y24085266D01*
X31206132Y24085266D01*
X31048018Y24085266D01*
X31048015Y24085266D01*
X30895298Y24044346D01*
X30895292Y24044344D01*
X30758361Y23965288D01*
X30646553Y23853480D01*
X30567497Y23716549D01*
X30567495Y23716543D01*
X30526575Y23563826D01*
X28657555Y23563826D01*
X28664117Y23588313D01*
X28664117Y23588314D01*
X28686256Y23670939D01*
X28686257Y23670944D01*
X28686257Y23829056D01*
X28686256Y23829060D01*
X28681357Y23847342D01*
X28649754Y23965288D01*
X28645336Y23981777D01*
X28645334Y23981783D01*
X28645334Y23981784D01*
X28566277Y24118716D01*
X28454473Y24230520D01*
X28451776Y24232077D01*
X28317539Y24309578D01*
X28317533Y24309580D01*
X28164816Y24350500D01*
X28164814Y24350500D01*
X28006700Y24350500D01*
X28006697Y24350500D01*
X27853980Y24309580D01*
X27853974Y24309578D01*
X27717043Y24230522D01*
X27605235Y24118714D01*
X27526179Y23981783D01*
X27526177Y23981777D01*
X27485257Y23829060D01*
X299013Y23829060D01*
X299013Y23834001D01*
X298940Y24895943D01*
X298929Y25054060D01*
X42885257Y25054060D01*
X42885257Y24895941D01*
X42926177Y24743224D01*
X42926179Y24743218D01*
X42926180Y24743216D01*
X43005237Y24606284D01*
X43117041Y24494480D01*
X43253973Y24415423D01*
X43406700Y24374500D01*
X43406701Y24374500D01*
X43564813Y24374500D01*
X43564814Y24374500D01*
X43717541Y24415423D01*
X43854473Y24494480D01*
X43874871Y24514878D01*
X43887381Y24527387D01*
X43902317Y24534352D01*
X43914944Y24544947D01*
X43931177Y24547810D01*
X43934188Y24549213D01*
X43940767Y24549500D01*
X43997918Y24549500D01*
X44046448Y24531836D01*
X44067983Y24497498D01*
X44069104Y24497940D01*
X44070879Y24493437D01*
X44070880Y24493436D01*
X44126396Y24352658D01*
X44217835Y24232078D01*
X44338415Y24140639D01*
X44479193Y24085123D01*
X44567655Y24074500D01*
X44567663Y24074500D01*
X45603851Y24074500D01*
X45603859Y24074500D01*
X45692321Y24085123D01*
X45833099Y24140639D01*
X45953679Y24232078D01*
X46045118Y24352658D01*
X46100634Y24493436D01*
X46111257Y24581898D01*
X46111257Y25343102D01*
X46100634Y25431564D01*
X46045118Y25572342D01*
X45953679Y25692922D01*
X45833099Y25784361D01*
X45692321Y25839877D01*
X45692318Y25839878D01*
X45692316Y25839878D01*
X45603865Y25850500D01*
X45603859Y25850500D01*
X44567655Y25850500D01*
X44567648Y25850500D01*
X44479197Y25839878D01*
X44479193Y25839878D01*
X44479193Y25839877D01*
X44338415Y25784361D01*
X44338414Y25784361D01*
X44338413Y25784360D01*
X44217837Y25692924D01*
X44217833Y25692920D01*
X44126397Y25572344D01*
X44126396Y25572343D01*
X44126396Y25572342D01*
X44080328Y25455522D01*
X44077481Y25448302D01*
X44073636Y25443961D01*
X44072630Y25438250D01*
X44056875Y25425031D01*
X44043245Y25409636D01*
X44036485Y25407921D01*
X44033068Y25405053D01*
X44007245Y25400500D01*
X43940767Y25400500D01*
X43892237Y25418164D01*
X43887381Y25422613D01*
X43854473Y25455520D01*
X43717539Y25534578D01*
X43717533Y25534580D01*
X43564816Y25575500D01*
X43564814Y25575500D01*
X43406700Y25575500D01*
X43406697Y25575500D01*
X43253980Y25534580D01*
X43253974Y25534578D01*
X43117043Y25455522D01*
X43005235Y25343714D01*
X42926179Y25206783D01*
X42926177Y25206777D01*
X42885257Y25054060D01*
X298929Y25054060D01*
X298802Y26912499D01*
X44060757Y26912499D01*
X44060757Y26656933D01*
X44071370Y26568560D01*
X44071372Y26568553D01*
X44126836Y26427907D01*
X44126837Y26427905D01*
X44218190Y26307438D01*
X44218194Y26307434D01*
X44338661Y26216081D01*
X44338663Y26216080D01*
X44479309Y26160616D01*
X44479316Y26160614D01*
X44567689Y26150001D01*
X44567704Y26150000D01*
X44960756Y26150000D01*
X44960757Y26150001D01*
X44960757Y26912499D01*
X45210757Y26912499D01*
X45210757Y26150001D01*
X45210758Y26150000D01*
X45603810Y26150000D01*
X45603824Y26150001D01*
X45692197Y26160614D01*
X45692204Y26160616D01*
X45832850Y26216080D01*
X45832852Y26216081D01*
X45953319Y26307434D01*
X45953323Y26307438D01*
X46044676Y26427905D01*
X46044677Y26427907D01*
X46100141Y26568553D01*
X46100143Y26568560D01*
X46110756Y26656933D01*
X46110757Y26656948D01*
X46110757Y26912499D01*
X46110756Y26912500D01*
X45210758Y26912500D01*
X45210757Y26912499D01*
X44960757Y26912499D01*
X44960756Y26912500D01*
X44060758Y26912500D01*
X44060757Y26912499D01*
X298802Y26912499D01*
X298768Y27418068D01*
X44060757Y27418068D01*
X44060757Y27162501D01*
X44060758Y27162500D01*
X44960756Y27162500D01*
X44960757Y27162501D01*
X44960757Y27924999D01*
X44960756Y27925000D01*
X44567689Y27925000D01*
X44479316Y27914387D01*
X44479309Y27914385D01*
X44338663Y27858921D01*
X44338661Y27858920D01*
X44218194Y27767567D01*
X44218190Y27767563D01*
X44126837Y27647096D01*
X44126836Y27647094D01*
X44071372Y27506448D01*
X44071370Y27506441D01*
X44060757Y27418068D01*
X298768Y27418068D01*
X298580Y30179060D01*
X9385257Y30179060D01*
X9385257Y30020941D01*
X9426177Y29868224D01*
X9426179Y29868218D01*
X9426180Y29868216D01*
X9505237Y29731284D01*
X9617041Y29619480D01*
X9753973Y29540423D01*
X9906700Y29499500D01*
X9906701Y29499500D01*
X10064813Y29499500D01*
X10064814Y29499500D01*
X10217541Y29540423D01*
X10354473Y29619480D01*
X10466277Y29731284D01*
X10545334Y29868216D01*
X10586257Y30020943D01*
X10586257Y30179057D01*
X10545334Y30331784D01*
X10466277Y30468716D01*
X10354473Y30580520D01*
X10217541Y30659577D01*
X10217540Y30659578D01*
X10217539Y30659578D01*
X10217533Y30659580D01*
X10064816Y30700500D01*
X10064814Y30700500D01*
X9906700Y30700500D01*
X9906697Y30700500D01*
X9753980Y30659580D01*
X9753974Y30659578D01*
X9617043Y30580522D01*
X9505235Y30468714D01*
X9426179Y30331783D01*
X9426177Y30331777D01*
X9385257Y30179060D01*
X298580Y30179060D01*
X298309Y34154060D01*
X8935257Y34154060D01*
X8935257Y33995941D01*
X8976177Y33843224D01*
X8976179Y33843218D01*
X8976180Y33843216D01*
X9055237Y33706284D01*
X9167041Y33594480D01*
X9303973Y33515423D01*
X9456700Y33474500D01*
X9456701Y33474500D01*
X9614813Y33474500D01*
X9614814Y33474500D01*
X9767541Y33515423D01*
X9904473Y33594480D01*
X10016277Y33706284D01*
X10095334Y33843216D01*
X10136257Y33995943D01*
X10136257Y34154057D01*
X10095334Y34306784D01*
X10016277Y34443716D01*
X9904473Y34555520D01*
X9767541Y34634577D01*
X9767540Y34634578D01*
X9767539Y34634578D01*
X9767533Y34634580D01*
X9614816Y34675500D01*
X9614814Y34675500D01*
X9456700Y34675500D01*
X9456697Y34675500D01*
X9303980Y34634580D01*
X9303974Y34634578D01*
X9167043Y34555522D01*
X9055235Y34443714D01*
X8976179Y34306783D01*
X8976177Y34306777D01*
X8935257Y34154060D01*
X298309Y34154060D01*
X298212Y35579060D01*
X29735257Y35579060D01*
X29735257Y35420941D01*
X29776177Y35268224D01*
X29776179Y35268218D01*
X29846773Y35145943D01*
X29855237Y35131284D01*
X29888144Y35098377D01*
X29909970Y35051571D01*
X29910257Y35044991D01*
X29910257Y32306018D01*
X29910257Y32193982D01*
X29931483Y32114764D01*
X29939253Y32085766D01*
X29939253Y32085765D01*
X29995269Y31988741D01*
X29995270Y31988740D01*
X29995272Y31988737D01*
X31946272Y30037737D01*
X31946271Y30037737D01*
X32025493Y29958516D01*
X32025494Y29958515D01*
X32122520Y29902497D01*
X32230739Y29873500D01*
X44829235Y29873500D01*
X44877765Y29855836D01*
X44882622Y29851387D01*
X45829067Y28904942D01*
X45850893Y28858135D01*
X45837526Y28808250D01*
X45813430Y28786170D01*
X45717043Y28730522D01*
X45605235Y28618714D01*
X45526179Y28481783D01*
X45526177Y28481777D01*
X45485257Y28329060D01*
X45485257Y28329057D01*
X45485257Y28170943D01*
X45512428Y28069539D01*
X45525691Y28020040D01*
X45521189Y27968592D01*
X45484670Y27932074D01*
X45452763Y27925000D01*
X45210758Y27925000D01*
X45210757Y27924999D01*
X45210757Y27162501D01*
X45210758Y27162500D01*
X46110756Y27162500D01*
X46110757Y27162501D01*
X46110757Y27418053D01*
X46110756Y27418066D01*
X46108784Y27434487D01*
X46120534Y27484778D01*
X46161862Y27515749D01*
X46213429Y27512910D01*
X46237132Y27496877D01*
X47738144Y25995865D01*
X47759970Y25949058D01*
X47760257Y25942478D01*
X47760257Y20307522D01*
X47742593Y20258992D01*
X47738144Y20254135D01*
X44606622Y17122613D01*
X44559815Y17100787D01*
X44553235Y17100500D01*
X44506697Y17100500D01*
X44353980Y17059580D01*
X44353974Y17059578D01*
X44217043Y16980522D01*
X44105235Y16868714D01*
X44026179Y16731783D01*
X44026177Y16731777D01*
X43985257Y16579060D01*
X43985257Y16420941D01*
X44026177Y16268224D01*
X44026179Y16268218D01*
X44026180Y16268216D01*
X44105237Y16131284D01*
X44217041Y16019480D01*
X44353973Y15940423D01*
X44506700Y15899500D01*
X44506701Y15899500D01*
X44664813Y15899500D01*
X44664814Y15899500D01*
X44817541Y15940423D01*
X44954473Y16019480D01*
X45066277Y16131284D01*
X45145334Y16268216D01*
X45186257Y16420943D01*
X45186257Y16467480D01*
X45203921Y16516010D01*
X45208359Y16520855D01*
X45464842Y16777339D01*
X45511647Y16799164D01*
X45561532Y16785797D01*
X45591154Y16743494D01*
X45596736Y16722663D01*
X45596737Y16722660D01*
X45596738Y16722658D01*
X45675795Y16585726D01*
X45787599Y16473922D01*
X45924531Y16394865D01*
X46077258Y16353942D01*
X46077259Y16353942D01*
X46235371Y16353942D01*
X46235372Y16353942D01*
X46388099Y16394865D01*
X46525031Y16473922D01*
X46636835Y16585726D01*
X46715892Y16722658D01*
X46756815Y16875385D01*
X46756815Y16939620D01*
X53527257Y16939620D01*
X53527257Y16781501D01*
X53568177Y16628784D01*
X53568179Y16628778D01*
X53643248Y16498752D01*
X53647237Y16491844D01*
X53759041Y16380040D01*
X53895973Y16300983D01*
X54048700Y16260060D01*
X54048701Y16260060D01*
X54206813Y16260060D01*
X54206814Y16260060D01*
X54359541Y16300983D01*
X54496473Y16380040D01*
X54608277Y16491844D01*
X54687334Y16628776D01*
X54728257Y16781503D01*
X54728257Y16939617D01*
X54687334Y17092344D01*
X54608277Y17229276D01*
X54496473Y17341080D01*
X54359541Y17420137D01*
X54359540Y17420138D01*
X54359539Y17420138D01*
X54359533Y17420140D01*
X54206816Y17461060D01*
X54206814Y17461060D01*
X54048700Y17461060D01*
X54048697Y17461060D01*
X53895980Y17420140D01*
X53895974Y17420138D01*
X53759043Y17341082D01*
X53647235Y17229274D01*
X53568179Y17092343D01*
X53568177Y17092337D01*
X53527257Y16939620D01*
X46756815Y16939620D01*
X46756815Y17033499D01*
X46715892Y17186226D01*
X46636835Y17323158D01*
X46525031Y17434962D01*
X46388099Y17514019D01*
X46388098Y17514020D01*
X46388097Y17514020D01*
X46372580Y17518178D01*
X46367265Y17519602D01*
X46324960Y17549223D01*
X46311593Y17599109D01*
X46333419Y17645915D01*
X47016564Y18329060D01*
X55235257Y18329060D01*
X55235257Y18170941D01*
X55276177Y18018224D01*
X55276179Y18018218D01*
X55276180Y18018216D01*
X55355237Y17881284D01*
X55467041Y17769480D01*
X55603973Y17690423D01*
X55756700Y17649500D01*
X55756701Y17649500D01*
X55914813Y17649500D01*
X55914814Y17649500D01*
X56067541Y17690423D01*
X56204473Y17769480D01*
X56316277Y17881284D01*
X56395334Y18018216D01*
X56436257Y18170943D01*
X56436257Y18329057D01*
X56436256Y18329060D01*
X63735257Y18329060D01*
X63735257Y18170941D01*
X63776177Y18018224D01*
X63776179Y18018218D01*
X63776180Y18018216D01*
X63855237Y17881284D01*
X63967041Y17769480D01*
X64103973Y17690423D01*
X64256700Y17649500D01*
X64256701Y17649500D01*
X64414813Y17649500D01*
X64414814Y17649500D01*
X64567541Y17690423D01*
X64704473Y17769480D01*
X64816277Y17881284D01*
X64895334Y18018216D01*
X64936257Y18170943D01*
X64936257Y18329057D01*
X64895334Y18481784D01*
X64816277Y18618716D01*
X64704473Y18730520D01*
X64567541Y18809577D01*
X64567540Y18809578D01*
X64567539Y18809578D01*
X64567533Y18809580D01*
X64414816Y18850500D01*
X64414814Y18850500D01*
X64256700Y18850500D01*
X64256697Y18850500D01*
X64103980Y18809580D01*
X64103974Y18809578D01*
X63967043Y18730522D01*
X63855235Y18618714D01*
X63776179Y18481783D01*
X63776177Y18481777D01*
X63735257Y18329060D01*
X56436256Y18329060D01*
X56395334Y18481784D01*
X56316277Y18618716D01*
X56204473Y18730520D01*
X56067541Y18809577D01*
X56067540Y18809578D01*
X56067539Y18809578D01*
X56067533Y18809580D01*
X55914816Y18850500D01*
X55914814Y18850500D01*
X55756700Y18850500D01*
X55756697Y18850500D01*
X55603980Y18809580D01*
X55603974Y18809578D01*
X55467043Y18730522D01*
X55355235Y18618714D01*
X55276179Y18481783D01*
X55276177Y18481777D01*
X55235257Y18329060D01*
X47016564Y18329060D01*
X48526242Y19838737D01*
X48582260Y19935763D01*
X48611257Y20043982D01*
X48611257Y20156019D01*
X48611257Y23374999D01*
X57910757Y23374999D01*
X57910757Y22981933D01*
X57921370Y22893560D01*
X57921372Y22893553D01*
X57976836Y22752907D01*
X57976837Y22752905D01*
X58068190Y22632438D01*
X58068194Y22632434D01*
X58188661Y22541081D01*
X58188663Y22541080D01*
X58329309Y22485616D01*
X58329316Y22485614D01*
X58417689Y22475001D01*
X58417704Y22475000D01*
X58673256Y22475000D01*
X58673257Y22475001D01*
X58673257Y23374999D01*
X58923257Y23374999D01*
X58923257Y22475001D01*
X58923258Y22475000D01*
X59178810Y22475000D01*
X59178824Y22475001D01*
X59267197Y22485614D01*
X59267204Y22485616D01*
X59407850Y22541080D01*
X59407852Y22541081D01*
X59528319Y22632434D01*
X59528323Y22632438D01*
X59619676Y22752905D01*
X59619677Y22752907D01*
X59675141Y22893553D01*
X59675143Y22893560D01*
X59685756Y22981933D01*
X59685757Y22981948D01*
X59685757Y23374999D01*
X59685756Y23375000D01*
X58923258Y23375000D01*
X58923257Y23374999D01*
X58673257Y23374999D01*
X58673256Y23375000D01*
X57910758Y23375000D01*
X57910757Y23374999D01*
X48611257Y23374999D01*
X48611257Y24018068D01*
X57910757Y24018068D01*
X57910757Y23625001D01*
X57910758Y23625000D01*
X58673256Y23625000D01*
X58673257Y23625001D01*
X58673257Y24524999D01*
X58923257Y24524999D01*
X58923257Y23625001D01*
X58923258Y23625000D01*
X59685756Y23625000D01*
X59685757Y23625001D01*
X59685757Y24018061D01*
X59685751Y24018109D01*
X59985257Y24018109D01*
X59985257Y22981892D01*
X59992067Y22925187D01*
X59995880Y22893436D01*
X60051396Y22752658D01*
X60142835Y22632078D01*
X60263415Y22540639D01*
X60399956Y22486794D01*
X60438621Y22452559D01*
X60447757Y22416559D01*
X60447757Y22268519D01*
X60447757Y22268518D01*
X60447757Y22156482D01*
X60467443Y22083011D01*
X60476753Y22048266D01*
X60476753Y22048265D01*
X60532769Y21951241D01*
X60532770Y21951240D01*
X60532772Y21951237D01*
X60588144Y21895865D01*
X60609970Y21849059D01*
X60610257Y21842479D01*
X60610257Y21795941D01*
X60651177Y21643224D01*
X60651179Y21643218D01*
X60651180Y21643216D01*
X60730237Y21506284D01*
X60842041Y21394480D01*
X60978973Y21315423D01*
X61131700Y21274500D01*
X61131701Y21274500D01*
X61289813Y21274500D01*
X61289814Y21274500D01*
X61442541Y21315423D01*
X61579473Y21394480D01*
X61691277Y21506284D01*
X61770334Y21643216D01*
X61811257Y21795943D01*
X61811257Y21904060D01*
X64110257Y21904060D01*
X64110257Y21745941D01*
X64151177Y21593224D01*
X64151179Y21593218D01*
X64219719Y21474501D01*
X64230237Y21456284D01*
X64342041Y21344480D01*
X64478973Y21265423D01*
X64631700Y21224500D01*
X64631701Y21224500D01*
X64789813Y21224500D01*
X64789814Y21224500D01*
X64942541Y21265423D01*
X65079473Y21344480D01*
X65191277Y21456284D01*
X65270334Y21593216D01*
X65311257Y21745943D01*
X65311257Y21792479D01*
X65328921Y21841009D01*
X65333359Y21845855D01*
X65438742Y21951237D01*
X65493337Y22045800D01*
X65532897Y22078995D01*
X65549712Y22083009D01*
X65567321Y22085123D01*
X65708099Y22140639D01*
X65828679Y22232078D01*
X65920118Y22352658D01*
X65975634Y22493436D01*
X65986257Y22581898D01*
X65986257Y23618102D01*
X65975634Y23706564D01*
X65920118Y23847342D01*
X65828679Y23967922D01*
X65708099Y24059361D01*
X65567321Y24114877D01*
X65567318Y24114878D01*
X65567316Y24114878D01*
X65478865Y24125500D01*
X65478859Y24125500D01*
X64717655Y24125500D01*
X64717648Y24125500D01*
X64629197Y24114878D01*
X64629193Y24114878D01*
X64629193Y24114877D01*
X64629191Y24114877D01*
X64629190Y24114876D01*
X64607801Y24106441D01*
X64488415Y24059361D01*
X64488414Y24059361D01*
X64488413Y24059360D01*
X64367837Y23967924D01*
X64367833Y23967920D01*
X64276397Y23847344D01*
X64276396Y23847343D01*
X64276396Y23847342D01*
X64269185Y23829056D01*
X64220881Y23706567D01*
X64220879Y23706560D01*
X64210257Y23618109D01*
X64210257Y22581892D01*
X64215586Y22537519D01*
X64220880Y22493436D01*
X64276396Y22352658D01*
X64276397Y22352657D01*
X64276399Y22352653D01*
X64285258Y22340971D01*
X64300507Y22291629D01*
X64280472Y22244028D01*
X64278486Y22241966D01*
X64230237Y22193717D01*
X64151179Y22056783D01*
X64151177Y22056777D01*
X64110257Y21904060D01*
X61811257Y21904060D01*
X61811257Y21954057D01*
X61783731Y22056784D01*
X61770336Y22106777D01*
X61770334Y22106783D01*
X61770334Y22106784D01*
X61691277Y22243716D01*
X61579473Y22355520D01*
X61545732Y22375000D01*
X61484237Y22410504D01*
X61451040Y22450066D01*
X61451040Y22501711D01*
X61479981Y22536203D01*
X61478984Y22537519D01*
X61483097Y22540639D01*
X61483099Y22540639D01*
X61603679Y22632078D01*
X61695118Y22752658D01*
X61750634Y22893436D01*
X61760429Y22974999D01*
X62135757Y22974999D01*
X62135757Y22581933D01*
X62146370Y22493560D01*
X62146372Y22493553D01*
X62201836Y22352907D01*
X62201837Y22352905D01*
X62293190Y22232438D01*
X62293194Y22232434D01*
X62413661Y22141081D01*
X62413663Y22141080D01*
X62554309Y22085616D01*
X62554316Y22085614D01*
X62642689Y22075001D01*
X62642704Y22075000D01*
X62898256Y22075000D01*
X62898257Y22075001D01*
X62898257Y22974999D01*
X63148257Y22974999D01*
X63148257Y22075001D01*
X63148258Y22075000D01*
X63403810Y22075000D01*
X63403824Y22075001D01*
X63492197Y22085614D01*
X63492204Y22085616D01*
X63632850Y22141080D01*
X63632852Y22141081D01*
X63753319Y22232434D01*
X63753323Y22232438D01*
X63844676Y22352905D01*
X63844677Y22352907D01*
X63900141Y22493553D01*
X63900143Y22493560D01*
X63910756Y22581933D01*
X63910757Y22581948D01*
X63910757Y22974999D01*
X63910756Y22975000D01*
X63148258Y22975000D01*
X63148257Y22974999D01*
X62898257Y22974999D01*
X62898256Y22975000D01*
X62135758Y22975000D01*
X62135757Y22974999D01*
X61760429Y22974999D01*
X61761257Y22981898D01*
X61761257Y23618068D01*
X62135757Y23618068D01*
X62135757Y23225001D01*
X62135758Y23225000D01*
X62898256Y23225000D01*
X62898257Y23225001D01*
X62898257Y24124999D01*
X63148257Y24124999D01*
X63148257Y23225001D01*
X63148258Y23225000D01*
X63910756Y23225000D01*
X63910757Y23225001D01*
X63910757Y23618053D01*
X63910756Y23618068D01*
X63900143Y23706441D01*
X63900141Y23706448D01*
X63844677Y23847094D01*
X63844676Y23847096D01*
X63753323Y23967563D01*
X63753319Y23967567D01*
X63632852Y24058920D01*
X63632850Y24058921D01*
X63492204Y24114385D01*
X63492197Y24114387D01*
X63403824Y24125000D01*
X63148258Y24125000D01*
X63148257Y24124999D01*
X62898257Y24124999D01*
X62898256Y24125000D01*
X62642689Y24125000D01*
X62554316Y24114387D01*
X62554309Y24114385D01*
X62413663Y24058921D01*
X62413661Y24058920D01*
X62293194Y23967567D01*
X62293190Y23967563D01*
X62201837Y23847096D01*
X62201836Y23847094D01*
X62146372Y23706448D01*
X62146370Y23706441D01*
X62135757Y23618068D01*
X61761257Y23618068D01*
X61761257Y24018102D01*
X61750634Y24106564D01*
X61695118Y24247342D01*
X61603679Y24367922D01*
X61483099Y24459361D01*
X61342321Y24514877D01*
X61342318Y24514878D01*
X61342316Y24514878D01*
X61253865Y24525500D01*
X61253859Y24525500D01*
X60492655Y24525500D01*
X60492648Y24525500D01*
X60404197Y24514878D01*
X60404193Y24514878D01*
X60404193Y24514877D01*
X60263415Y24459361D01*
X60263414Y24459361D01*
X60263413Y24459360D01*
X60142837Y24367924D01*
X60142833Y24367920D01*
X60051397Y24247344D01*
X60051396Y24247343D01*
X60051396Y24247342D01*
X60013480Y24151197D01*
X59995881Y24106567D01*
X59995879Y24106560D01*
X59985257Y24018109D01*
X59685751Y24018109D01*
X59675143Y24106441D01*
X59675141Y24106448D01*
X59619677Y24247094D01*
X59619676Y24247096D01*
X59528323Y24367563D01*
X59528319Y24367567D01*
X59407852Y24458920D01*
X59407850Y24458921D01*
X59267204Y24514385D01*
X59267197Y24514387D01*
X59178824Y24525000D01*
X58923258Y24525000D01*
X58923257Y24524999D01*
X58673257Y24524999D01*
X58673256Y24525000D01*
X58417689Y24525000D01*
X58329316Y24514387D01*
X58329309Y24514385D01*
X58188663Y24458921D01*
X58188661Y24458920D01*
X58068194Y24367567D01*
X58068190Y24367563D01*
X57976837Y24247096D01*
X57976836Y24247094D01*
X57921372Y24106448D01*
X57921370Y24106441D01*
X57910757Y24018068D01*
X48611257Y24018068D01*
X48611257Y26079060D01*
X65235257Y26079060D01*
X65235257Y25920941D01*
X65276177Y25768224D01*
X65276179Y25768218D01*
X65276180Y25768216D01*
X65355237Y25631284D01*
X65467041Y25519480D01*
X65603973Y25440423D01*
X65603978Y25440422D01*
X65603980Y25440421D01*
X65637024Y25431567D01*
X65756700Y25399500D01*
X65756701Y25399500D01*
X65914813Y25399500D01*
X65914814Y25399500D01*
X66067541Y25440423D01*
X66204473Y25519480D01*
X66220927Y25535934D01*
X66237381Y25552387D01*
X66284188Y25574213D01*
X66290767Y25574500D01*
X69172226Y25574500D01*
X69220756Y25556836D01*
X69225613Y25552387D01*
X70960504Y23817496D01*
X70982330Y23770689D01*
X70968963Y23720804D01*
X70944870Y23698726D01*
X70922100Y23685579D01*
X70922097Y23685577D01*
X70810288Y23573768D01*
X70731232Y23436837D01*
X70731230Y23436831D01*
X70690310Y23284114D01*
X70690310Y23125995D01*
X70731230Y22973278D01*
X70731232Y22973272D01*
X70731233Y22973270D01*
X70810290Y22836338D01*
X70922094Y22724534D01*
X71059026Y22645477D01*
X71211753Y22604554D01*
X71211754Y22604554D01*
X71369866Y22604554D01*
X71369867Y22604554D01*
X71522594Y22645477D01*
X71659526Y22724534D01*
X71771330Y22836338D01*
X71784478Y22859113D01*
X71824038Y22892309D01*
X71875683Y22892311D01*
X71903250Y22874750D01*
X79868485Y14909515D01*
X79965511Y14853497D01*
X80073730Y14824500D01*
X80185767Y14824500D01*
X80338235Y14824500D01*
X80386765Y14806836D01*
X80391622Y14802387D01*
X80673144Y14520865D01*
X80694970Y14474058D01*
X80695257Y14467478D01*
X80695257Y14420941D01*
X80736177Y14268224D01*
X80736179Y14268218D01*
X80807384Y14144885D01*
X80815237Y14131284D01*
X80927041Y14019480D01*
X81063973Y13940423D01*
X81216700Y13899500D01*
X81216701Y13899500D01*
X81374813Y13899500D01*
X81374814Y13899500D01*
X81527541Y13940423D01*
X81664473Y14019480D01*
X81776277Y14131284D01*
X81855334Y14268216D01*
X81896257Y14420943D01*
X81896257Y14579057D01*
X81855334Y14731784D01*
X81776277Y14868716D01*
X81664473Y14980520D01*
X81527541Y15059577D01*
X81527540Y15059578D01*
X81527539Y15059578D01*
X81527533Y15059580D01*
X81374816Y15100500D01*
X81374814Y15100500D01*
X81328279Y15100500D01*
X81279749Y15118164D01*
X81274892Y15122613D01*
X81072952Y15324553D01*
X80807020Y15590485D01*
X80807017Y15590487D01*
X80807016Y15590488D01*
X80709992Y15646504D01*
X80659767Y15659962D01*
X80601775Y15675500D01*
X80601773Y15675500D01*
X80337270Y15675500D01*
X80288740Y15693164D01*
X80283883Y15697613D01*
X75104489Y20877007D01*
X69641011Y26340485D01*
X69641008Y26340487D01*
X69641007Y26340488D01*
X69543983Y26396504D01*
X69488911Y26411260D01*
X69435766Y26425500D01*
X69435764Y26425500D01*
X66290767Y26425500D01*
X66242237Y26443164D01*
X66237381Y26447613D01*
X66204473Y26480520D01*
X66067539Y26559578D01*
X66067533Y26559580D01*
X65914816Y26600500D01*
X65914814Y26600500D01*
X65756700Y26600500D01*
X65756697Y26600500D01*
X65603980Y26559580D01*
X65603974Y26559578D01*
X65467043Y26480522D01*
X65355235Y26368714D01*
X65276179Y26231783D01*
X65276177Y26231777D01*
X65235257Y26079060D01*
X48611257Y26079060D01*
X48611257Y26206018D01*
X48582260Y26314237D01*
X48526242Y26411263D01*
X48489892Y26447613D01*
X48447020Y26490486D01*
X48447020Y26490485D01*
X48342446Y26595059D01*
X48320620Y26641866D01*
X48333987Y26691751D01*
X48358081Y26713830D01*
X48454473Y26769480D01*
X48532371Y26847379D01*
X48579177Y26869204D01*
X48629062Y26855837D01*
X48639137Y26847384D01*
X48717041Y26769480D01*
X48853973Y26690423D01*
X49006700Y26649500D01*
X49006701Y26649500D01*
X49164813Y26649500D01*
X49164814Y26649500D01*
X49317541Y26690423D01*
X49454473Y26769480D01*
X49566277Y26881284D01*
X49645334Y27018216D01*
X49686257Y27170943D01*
X49686257Y27290008D01*
X70643636Y27290008D01*
X70643636Y27131889D01*
X70684556Y26979172D01*
X70684558Y26979166D01*
X70741069Y26881284D01*
X70763616Y26842232D01*
X70875420Y26730428D01*
X71012352Y26651371D01*
X71012357Y26651370D01*
X71012359Y26651369D01*
X71047825Y26641866D01*
X71165079Y26610448D01*
X71165080Y26610448D01*
X71323192Y26610448D01*
X71323193Y26610448D01*
X71475920Y26651371D01*
X71612852Y26730428D01*
X71724656Y26842232D01*
X71803713Y26979164D01*
X71844636Y27131891D01*
X71844636Y27290005D01*
X71803713Y27442732D01*
X71724656Y27579664D01*
X71612852Y27691468D01*
X71589396Y27705010D01*
X71475918Y27770526D01*
X71475912Y27770528D01*
X71323195Y27811448D01*
X71323193Y27811448D01*
X71165079Y27811448D01*
X71165076Y27811448D01*
X71012359Y27770528D01*
X71012353Y27770526D01*
X70875422Y27691470D01*
X70763614Y27579662D01*
X70684558Y27442731D01*
X70684556Y27442725D01*
X70643636Y27290008D01*
X49686257Y27290008D01*
X49686257Y27329057D01*
X49645334Y27481784D01*
X49566277Y27618716D01*
X49552337Y27632656D01*
X49533370Y27651624D01*
X49511544Y27698431D01*
X49511257Y27705010D01*
X49511257Y31329060D01*
X70735257Y31329060D01*
X70735257Y31170941D01*
X70776177Y31018224D01*
X70776179Y31018218D01*
X70849960Y30890423D01*
X70855237Y30881284D01*
X70967041Y30769480D01*
X71103973Y30690423D01*
X71256700Y30649500D01*
X71256701Y30649500D01*
X71414813Y30649500D01*
X71414814Y30649500D01*
X71567541Y30690423D01*
X71704473Y30769480D01*
X71816277Y30881284D01*
X71895334Y31018216D01*
X71936257Y31170943D01*
X71936257Y31329057D01*
X71895334Y31481784D01*
X71816277Y31618716D01*
X71704473Y31730520D01*
X71567541Y31809577D01*
X71567540Y31809578D01*
X71567539Y31809578D01*
X71567533Y31809580D01*
X71414816Y31850500D01*
X71414814Y31850500D01*
X71256700Y31850500D01*
X71256697Y31850500D01*
X71103980Y31809580D01*
X71103974Y31809578D01*
X70967043Y31730522D01*
X70855235Y31618714D01*
X70776179Y31481783D01*
X70776177Y31481777D01*
X70735257Y31329060D01*
X49511257Y31329060D01*
X49511257Y33056017D01*
X49511257Y33056018D01*
X49482260Y33164237D01*
X49426242Y33261263D01*
X49426241Y33261264D01*
X49347020Y33340486D01*
X49347020Y33340485D01*
X47597020Y35090485D01*
X47597017Y35090487D01*
X47597016Y35090488D01*
X47499992Y35146504D01*
X47449767Y35159962D01*
X47391775Y35175500D01*
X47391773Y35175500D01*
X33292279Y35175500D01*
X33276790Y35181138D01*
X33260371Y35182574D01*
X33246867Y35192030D01*
X33243749Y35193164D01*
X33238892Y35197613D01*
X33132445Y35304060D01*
X63410257Y35304060D01*
X63410257Y35145941D01*
X63451177Y34993224D01*
X63451179Y34993218D01*
X63515801Y34881287D01*
X63530237Y34856284D01*
X63642041Y34744480D01*
X63778973Y34665423D01*
X63778978Y34665422D01*
X63778980Y34665421D01*
X63838234Y34649545D01*
X63931700Y34624500D01*
X63931701Y34624500D01*
X64089813Y34624500D01*
X64089814Y34624500D01*
X64242541Y34665423D01*
X64255556Y34672937D01*
X64306417Y34681906D01*
X64351143Y34656084D01*
X64363542Y34635253D01*
X64376396Y34602658D01*
X64467835Y34482078D01*
X64588415Y34390639D01*
X64729193Y34335123D01*
X64817655Y34324500D01*
X64817663Y34324500D01*
X65853851Y34324500D01*
X65853859Y34324500D01*
X65942321Y34335123D01*
X66083099Y34390639D01*
X66203679Y34482078D01*
X66295118Y34602658D01*
X66350634Y34743436D01*
X66361257Y34831898D01*
X66361257Y35329060D01*
X70735257Y35329060D01*
X70735257Y35170941D01*
X70776177Y35018224D01*
X70776179Y35018218D01*
X70776180Y35018216D01*
X70790614Y34993216D01*
X70844719Y34899501D01*
X70855237Y34881284D01*
X70967041Y34769480D01*
X71103973Y34690423D01*
X71256700Y34649500D01*
X71256701Y34649500D01*
X71414813Y34649500D01*
X71414814Y34649500D01*
X71567541Y34690423D01*
X71704473Y34769480D01*
X71816277Y34881284D01*
X71895334Y35018216D01*
X71936257Y35170943D01*
X71936257Y35329057D01*
X71895334Y35481784D01*
X71816277Y35618716D01*
X71704473Y35730520D01*
X71702285Y35731783D01*
X71567539Y35809578D01*
X71567533Y35809580D01*
X71414816Y35850500D01*
X71414814Y35850500D01*
X71256700Y35850500D01*
X71256697Y35850500D01*
X71103980Y35809580D01*
X71103974Y35809578D01*
X70967043Y35730522D01*
X70855235Y35618714D01*
X70776179Y35481783D01*
X70776177Y35481777D01*
X70735257Y35329060D01*
X66361257Y35329060D01*
X66361257Y35593102D01*
X66350634Y35681564D01*
X66295118Y35822342D01*
X66203679Y35942922D01*
X66083099Y36034361D01*
X65942321Y36089877D01*
X65942318Y36089878D01*
X65942316Y36089878D01*
X65853865Y36100500D01*
X65853859Y36100500D01*
X64817655Y36100500D01*
X64817648Y36100500D01*
X64729197Y36089878D01*
X64729193Y36089878D01*
X64729193Y36089877D01*
X64729191Y36089877D01*
X64729190Y36089876D01*
X64691470Y36075001D01*
X64588415Y36034361D01*
X64588414Y36034361D01*
X64588413Y36034360D01*
X64467837Y35942924D01*
X64467833Y35942920D01*
X64376397Y35822344D01*
X64376395Y35822341D01*
X64371572Y35810110D01*
X64337334Y35771445D01*
X64286253Y35763833D01*
X64263588Y35772426D01*
X64242543Y35784576D01*
X64242533Y35784580D01*
X64089816Y35825500D01*
X64089814Y35825500D01*
X63931700Y35825500D01*
X63931697Y35825500D01*
X63778980Y35784580D01*
X63778974Y35784578D01*
X63642043Y35705522D01*
X63530235Y35593714D01*
X63451179Y35456783D01*
X63451177Y35456777D01*
X63410257Y35304060D01*
X33132445Y35304060D01*
X32957370Y35479135D01*
X32935544Y35525942D01*
X32935257Y35532522D01*
X32935257Y35579056D01*
X32935256Y35579060D01*
X32931493Y35593102D01*
X32894334Y35731784D01*
X32815277Y35868716D01*
X32703473Y35980520D01*
X32566541Y36059577D01*
X32566540Y36059578D01*
X32566539Y36059578D01*
X32566533Y36059580D01*
X32413816Y36100500D01*
X32413814Y36100500D01*
X32255700Y36100500D01*
X32255697Y36100500D01*
X32102980Y36059580D01*
X32102974Y36059578D01*
X31966043Y35980522D01*
X31854235Y35868714D01*
X31775179Y35731783D01*
X31775177Y35731777D01*
X31734257Y35579060D01*
X31734257Y35420941D01*
X31775177Y35268224D01*
X31775179Y35268218D01*
X31845773Y35145943D01*
X31854237Y35131284D01*
X31966041Y35019480D01*
X32102973Y34940423D01*
X32255700Y34899500D01*
X32302235Y34899500D01*
X32350765Y34881836D01*
X32355622Y34877387D01*
X32823494Y34409515D01*
X32920520Y34353497D01*
X33028738Y34324500D01*
X33028739Y34324500D01*
X47128235Y34324500D01*
X47176765Y34306836D01*
X47181622Y34302387D01*
X48638144Y32845865D01*
X48659970Y32799058D01*
X48660257Y32792478D01*
X48660257Y27707009D01*
X48642593Y27658479D01*
X48597867Y27632656D01*
X48547007Y27641624D01*
X48531374Y27653619D01*
X48454473Y27730520D01*
X48385176Y27770528D01*
X48317539Y27809578D01*
X48317533Y27809580D01*
X48164816Y27850500D01*
X48164814Y27850500D01*
X48118279Y27850500D01*
X48069749Y27868164D01*
X48064892Y27872613D01*
X47032563Y28904942D01*
X45298020Y30639485D01*
X45298017Y30639487D01*
X45298016Y30639488D01*
X45200992Y30695504D01*
X45150767Y30708962D01*
X45092775Y30724500D01*
X45092773Y30724500D01*
X38796788Y30724500D01*
X38748258Y30742164D01*
X38722435Y30786890D01*
X38731403Y30837750D01*
X38770965Y30870947D01*
X38777247Y30872927D01*
X38829172Y30886841D01*
X38842541Y30890423D01*
X38979473Y30969480D01*
X39091277Y31081284D01*
X39170334Y31218216D01*
X39211257Y31370943D01*
X39211257Y31529057D01*
X39170334Y31681784D01*
X39091277Y31818716D01*
X38979473Y31930520D01*
X38842541Y32009577D01*
X38842540Y32009578D01*
X38842539Y32009578D01*
X38842533Y32009580D01*
X38689816Y32050500D01*
X38689814Y32050500D01*
X38531700Y32050500D01*
X38531697Y32050500D01*
X38378980Y32009580D01*
X38378974Y32009578D01*
X38242043Y31930522D01*
X38130235Y31818714D01*
X38051179Y31681783D01*
X38051177Y31681777D01*
X38010257Y31529060D01*
X38010257Y31370941D01*
X38051177Y31218224D01*
X38051179Y31218218D01*
X38051180Y31218216D01*
X38130237Y31081284D01*
X38242041Y30969480D01*
X38378973Y30890423D01*
X38378978Y30890422D01*
X38378980Y30890421D01*
X38444267Y30872927D01*
X38486572Y30843305D01*
X38499939Y30793420D01*
X38478113Y30746614D01*
X38431307Y30724787D01*
X38424726Y30724500D01*
X32494279Y30724500D01*
X32445749Y30742164D01*
X32440892Y30746613D01*
X30783370Y32404135D01*
X30761544Y32450942D01*
X30761257Y32457522D01*
X30761257Y35044991D01*
X30778921Y35093521D01*
X30783359Y35098367D01*
X30816277Y35131284D01*
X30895334Y35268216D01*
X30936257Y35420943D01*
X30936257Y35579057D01*
X30895334Y35731784D01*
X30816277Y35868716D01*
X30704473Y35980520D01*
X30567541Y36059577D01*
X30567540Y36059578D01*
X30567539Y36059578D01*
X30567533Y36059580D01*
X30414816Y36100500D01*
X30414814Y36100500D01*
X30256700Y36100500D01*
X30256697Y36100500D01*
X30103980Y36059580D01*
X30103974Y36059578D01*
X29967043Y35980522D01*
X29855235Y35868714D01*
X29776179Y35731783D01*
X29776177Y35731777D01*
X29735257Y35579060D01*
X298212Y35579060D01*
X298007Y38579060D01*
X13485257Y38579060D01*
X13485257Y38420941D01*
X13526177Y38268224D01*
X13526179Y38268218D01*
X13526180Y38268216D01*
X13538232Y38247341D01*
X13594719Y38149501D01*
X13605237Y38131284D01*
X13717041Y38019480D01*
X13853973Y37940423D01*
X14006700Y37899500D01*
X14006701Y37899500D01*
X14164813Y37899500D01*
X14164814Y37899500D01*
X14317541Y37940423D01*
X14454473Y38019480D01*
X14514053Y38079060D01*
X22485257Y38079060D01*
X22485257Y37920941D01*
X22526177Y37768224D01*
X22526179Y37768218D01*
X22584008Y37668053D01*
X22605237Y37631284D01*
X22717041Y37519480D01*
X22853973Y37440423D01*
X23006700Y37399500D01*
X23006701Y37399500D01*
X23164813Y37399500D01*
X23164814Y37399500D01*
X23317541Y37440423D01*
X23454473Y37519480D01*
X23566277Y37631284D01*
X23645334Y37768216D01*
X23686257Y37920943D01*
X23686257Y38079057D01*
X23649660Y38215640D01*
X23645336Y38231777D01*
X23645334Y38231783D01*
X23645334Y38231784D01*
X23566277Y38368716D01*
X23454473Y38480520D01*
X23394964Y38514877D01*
X23360262Y38534912D01*
X23317541Y38559577D01*
X23317540Y38559578D01*
X23317539Y38559578D01*
X23317533Y38559580D01*
X23164816Y38600500D01*
X23164814Y38600500D01*
X23006700Y38600500D01*
X23006697Y38600500D01*
X22853980Y38559580D01*
X22853974Y38559578D01*
X22717043Y38480522D01*
X22605235Y38368714D01*
X22526179Y38231783D01*
X22526177Y38231777D01*
X22485257Y38079060D01*
X14514053Y38079060D01*
X14566277Y38131284D01*
X14645334Y38268216D01*
X14686257Y38420943D01*
X14686257Y38579057D01*
X14647286Y38724500D01*
X14645336Y38731777D01*
X14645334Y38731783D01*
X14645334Y38731784D01*
X14566277Y38868716D01*
X14454473Y38980520D01*
X14432479Y38993218D01*
X14317539Y39059578D01*
X14317533Y39059580D01*
X14164816Y39100500D01*
X14164814Y39100500D01*
X14006700Y39100500D01*
X14006697Y39100500D01*
X13853980Y39059580D01*
X13853974Y39059578D01*
X13717043Y38980522D01*
X13605235Y38868714D01*
X13526179Y38731783D01*
X13526177Y38731777D01*
X13485257Y38579060D01*
X298007Y38579060D01*
X297922Y39829060D01*
X26735257Y39829060D01*
X26735257Y39670941D01*
X26776177Y39518224D01*
X26776179Y39518218D01*
X26776180Y39518216D01*
X26855237Y39381284D01*
X26967041Y39269480D01*
X27103973Y39190423D01*
X27256700Y39149500D01*
X27256701Y39149500D01*
X27414813Y39149500D01*
X27414814Y39149500D01*
X27567541Y39190423D01*
X27704473Y39269480D01*
X27720927Y39285934D01*
X27737381Y39302387D01*
X27752317Y39309352D01*
X27764944Y39319947D01*
X27781177Y39322810D01*
X27784188Y39324213D01*
X27790767Y39324500D01*
X27834757Y39324500D01*
X27883287Y39306836D01*
X27909110Y39262110D01*
X27910257Y39249000D01*
X27910257Y39231892D01*
X27920579Y39145943D01*
X27920880Y39143436D01*
X27976396Y39002658D01*
X28067835Y38882078D01*
X28188415Y38790639D01*
X28324956Y38736794D01*
X28329296Y38732951D01*
X28335007Y38731944D01*
X28348226Y38716190D01*
X28363621Y38702559D01*
X28365336Y38695800D01*
X28368204Y38692382D01*
X28372757Y38666559D01*
X28372757Y38583442D01*
X28355093Y38534912D01*
X28324955Y38513206D01*
X28270553Y38491753D01*
X28188415Y38459361D01*
X28188414Y38459361D01*
X28188413Y38459360D01*
X28067837Y38367924D01*
X28067833Y38367920D01*
X27976397Y38247344D01*
X27976396Y38247343D01*
X27976396Y38247342D01*
X27943683Y38164387D01*
X27920881Y38106567D01*
X27920879Y38106560D01*
X27910257Y38018109D01*
X27910257Y36981892D01*
X27919257Y36906948D01*
X27920880Y36893436D01*
X27976396Y36752658D01*
X28067835Y36632078D01*
X28188415Y36540639D01*
X28329193Y36485123D01*
X28417655Y36474500D01*
X28417663Y36474500D01*
X29178851Y36474500D01*
X29178859Y36474500D01*
X29267321Y36485123D01*
X29408099Y36540639D01*
X29528679Y36632078D01*
X29620118Y36752658D01*
X29675634Y36893436D01*
X29686257Y36981898D01*
X29686257Y37374999D01*
X29985757Y37374999D01*
X29985757Y36981933D01*
X29996370Y36893560D01*
X29996372Y36893553D01*
X30051836Y36752907D01*
X30051837Y36752905D01*
X30143190Y36632438D01*
X30143194Y36632434D01*
X30263661Y36541081D01*
X30263663Y36541080D01*
X30404309Y36485616D01*
X30404316Y36485614D01*
X30492689Y36475001D01*
X30492704Y36475000D01*
X30748256Y36475000D01*
X30748257Y36475001D01*
X30748257Y37374999D01*
X30998257Y37374999D01*
X30998257Y36475001D01*
X30998258Y36475000D01*
X31253810Y36475000D01*
X31253824Y36475001D01*
X31342197Y36485614D01*
X31342204Y36485616D01*
X31482850Y36541080D01*
X31482852Y36541081D01*
X31603319Y36632434D01*
X31603323Y36632438D01*
X31694676Y36752905D01*
X31694677Y36752907D01*
X31728036Y36837499D01*
X43810757Y36837499D01*
X43810757Y36581933D01*
X43821370Y36493560D01*
X43821372Y36493553D01*
X43876836Y36352907D01*
X43876837Y36352905D01*
X43968190Y36232438D01*
X43968194Y36232434D01*
X44088661Y36141081D01*
X44088663Y36141080D01*
X44229309Y36085616D01*
X44229316Y36085614D01*
X44317689Y36075001D01*
X44317704Y36075000D01*
X44710756Y36075000D01*
X44710757Y36075001D01*
X44710757Y36837499D01*
X44960757Y36837499D01*
X44960757Y36075001D01*
X44960758Y36075000D01*
X45353810Y36075000D01*
X45353824Y36075001D01*
X45442197Y36085614D01*
X45442204Y36085616D01*
X45582850Y36141080D01*
X45582852Y36141081D01*
X45703319Y36232434D01*
X45703323Y36232438D01*
X45794676Y36352905D01*
X45794677Y36352907D01*
X45850141Y36493553D01*
X45850143Y36493560D01*
X45860756Y36581933D01*
X45860757Y36581948D01*
X45860757Y36837499D01*
X45860756Y36837500D01*
X44960758Y36837500D01*
X44960757Y36837499D01*
X44710757Y36837499D01*
X44710756Y36837500D01*
X43810758Y36837500D01*
X43810757Y36837499D01*
X31728036Y36837499D01*
X31750141Y36893552D01*
X31750143Y36893560D01*
X31760756Y36981933D01*
X31760757Y36981948D01*
X31760757Y37343068D01*
X43810757Y37343068D01*
X43810757Y37087501D01*
X43810758Y37087500D01*
X44710756Y37087500D01*
X44710757Y37087501D01*
X44710757Y37849999D01*
X44960757Y37849999D01*
X44960757Y37087501D01*
X44960758Y37087500D01*
X45860756Y37087500D01*
X45860757Y37087501D01*
X45860757Y37162499D01*
X64310757Y37162499D01*
X64310757Y36906933D01*
X64321370Y36818560D01*
X64321372Y36818553D01*
X64376836Y36677907D01*
X64376837Y36677905D01*
X64468190Y36557438D01*
X64468194Y36557434D01*
X64588661Y36466081D01*
X64588663Y36466080D01*
X64729309Y36410616D01*
X64729316Y36410614D01*
X64817689Y36400001D01*
X64817704Y36400000D01*
X65210756Y36400000D01*
X65210757Y36400001D01*
X65210757Y37162499D01*
X65460757Y37162499D01*
X65460757Y36400001D01*
X65460758Y36400000D01*
X65853810Y36400000D01*
X65853824Y36400001D01*
X65942197Y36410614D01*
X65942204Y36410616D01*
X66082850Y36466080D01*
X66082852Y36466081D01*
X66203319Y36557434D01*
X66203323Y36557438D01*
X66294676Y36677905D01*
X66294677Y36677907D01*
X66350141Y36818553D01*
X66350143Y36818560D01*
X66360756Y36906933D01*
X66360757Y36906948D01*
X66360757Y37162499D01*
X66360756Y37162500D01*
X65460758Y37162500D01*
X65460757Y37162499D01*
X65210757Y37162499D01*
X65210756Y37162500D01*
X64310758Y37162500D01*
X64310757Y37162499D01*
X45860757Y37162499D01*
X45860757Y37343053D01*
X45860756Y37343068D01*
X45850143Y37431441D01*
X45850141Y37431448D01*
X45794677Y37572094D01*
X45794676Y37572097D01*
X45754788Y37624697D01*
X45721898Y37668068D01*
X64310757Y37668068D01*
X64310757Y37412501D01*
X64310758Y37412500D01*
X65210756Y37412500D01*
X65210757Y37412501D01*
X65210757Y38174999D01*
X65460757Y38174999D01*
X65460757Y37412501D01*
X65460758Y37412500D01*
X66360756Y37412500D01*
X66360757Y37412501D01*
X66360757Y37668053D01*
X66360756Y37668068D01*
X66350143Y37756441D01*
X66350141Y37756448D01*
X66294677Y37897094D01*
X66294676Y37897096D01*
X66203323Y38017563D01*
X66203319Y38017567D01*
X66082852Y38108920D01*
X66082850Y38108921D01*
X65942204Y38164385D01*
X65942197Y38164387D01*
X65853824Y38175000D01*
X65460758Y38175000D01*
X65460757Y38174999D01*
X65210757Y38174999D01*
X65210756Y38175000D01*
X64817689Y38175000D01*
X64729316Y38164387D01*
X64729309Y38164385D01*
X64588663Y38108921D01*
X64588661Y38108920D01*
X64468194Y38017567D01*
X64468190Y38017563D01*
X64376837Y37897096D01*
X64376836Y37897094D01*
X64321372Y37756448D01*
X64321370Y37756441D01*
X64310757Y37668068D01*
X45721898Y37668068D01*
X45703323Y37692563D01*
X45703319Y37692567D01*
X45582852Y37783920D01*
X45582850Y37783921D01*
X45442204Y37839385D01*
X45442197Y37839387D01*
X45353824Y37850000D01*
X44960758Y37850000D01*
X44960757Y37849999D01*
X44710757Y37849999D01*
X44710756Y37850000D01*
X44317689Y37850000D01*
X44229316Y37839387D01*
X44229309Y37839385D01*
X44088663Y37783921D01*
X44088661Y37783920D01*
X43968194Y37692567D01*
X43968190Y37692563D01*
X43876837Y37572096D01*
X43876836Y37572094D01*
X43821372Y37431448D01*
X43821370Y37431441D01*
X43810757Y37343068D01*
X31760757Y37343068D01*
X31760757Y37374999D01*
X31760756Y37375000D01*
X30998258Y37375000D01*
X30998257Y37374999D01*
X30748257Y37374999D01*
X30748256Y37375000D01*
X29985758Y37375000D01*
X29985757Y37374999D01*
X29686257Y37374999D01*
X29686257Y38018068D01*
X29985757Y38018068D01*
X29985757Y37625001D01*
X29985758Y37625000D01*
X30748256Y37625000D01*
X30748257Y37625001D01*
X30748257Y38524999D01*
X30998257Y38524999D01*
X30998257Y37625001D01*
X30998258Y37625000D01*
X31760756Y37625000D01*
X31760757Y37625001D01*
X31760757Y38018053D01*
X31760756Y38018068D01*
X31750143Y38106441D01*
X31750141Y38106448D01*
X31694677Y38247094D01*
X31694676Y38247096D01*
X31603323Y38367563D01*
X31603319Y38367567D01*
X31482852Y38458920D01*
X31482850Y38458921D01*
X31342204Y38514385D01*
X31342197Y38514387D01*
X31253824Y38525000D01*
X30998258Y38525000D01*
X30998257Y38524999D01*
X30748257Y38524999D01*
X30748256Y38525000D01*
X30492689Y38525000D01*
X30404316Y38514387D01*
X30404309Y38514385D01*
X30263663Y38458921D01*
X30263661Y38458920D01*
X30143194Y38367567D01*
X30143190Y38367563D01*
X30051837Y38247096D01*
X30051836Y38247094D01*
X29996372Y38106448D01*
X29996370Y38106441D01*
X29985757Y38018068D01*
X29686257Y38018068D01*
X29686257Y38018102D01*
X29675634Y38106564D01*
X29620118Y38247342D01*
X29528679Y38367922D01*
X29408099Y38459361D01*
X29305526Y38499811D01*
X29271559Y38513206D01*
X29267217Y38517051D01*
X29261507Y38518057D01*
X29248288Y38533810D01*
X29232892Y38547442D01*
X29231176Y38554204D01*
X29228310Y38557619D01*
X29223757Y38583442D01*
X29223757Y38666559D01*
X29241421Y38715089D01*
X29271556Y38736794D01*
X29408099Y38790639D01*
X29528679Y38882078D01*
X29620118Y39002658D01*
X29675634Y39143436D01*
X29686257Y39231898D01*
X29686257Y39624999D01*
X29985757Y39624999D01*
X29985757Y39231933D01*
X29996370Y39143560D01*
X29996372Y39143553D01*
X30051836Y39002907D01*
X30051837Y39002905D01*
X30143190Y38882438D01*
X30143194Y38882434D01*
X30263661Y38791081D01*
X30263663Y38791080D01*
X30404309Y38735616D01*
X30404316Y38735614D01*
X30492689Y38725001D01*
X30492704Y38725000D01*
X30748256Y38725000D01*
X30748257Y38725001D01*
X30748257Y39624999D01*
X30998257Y39624999D01*
X30998257Y38725001D01*
X30998258Y38725000D01*
X31253810Y38725000D01*
X31253824Y38725001D01*
X31342197Y38735614D01*
X31342204Y38735616D01*
X31482850Y38791080D01*
X31482852Y38791081D01*
X31603319Y38882434D01*
X31603323Y38882438D01*
X31694676Y39002905D01*
X31694677Y39002907D01*
X31750141Y39143553D01*
X31750143Y39143560D01*
X31760756Y39231933D01*
X31760757Y39231948D01*
X31760757Y39304060D01*
X37585257Y39304060D01*
X37585257Y39145941D01*
X37626177Y38993224D01*
X37626179Y38993218D01*
X37698060Y38868714D01*
X37705237Y38856284D01*
X37817041Y38744480D01*
X37953973Y38665423D01*
X38106700Y38624500D01*
X38106701Y38624500D01*
X38264813Y38624500D01*
X38264814Y38624500D01*
X38417541Y38665423D01*
X38554473Y38744480D01*
X38666277Y38856284D01*
X38745334Y38993216D01*
X38786257Y39145943D01*
X38786257Y39304057D01*
X38745334Y39456784D01*
X38666277Y39593716D01*
X38554473Y39705520D01*
X38417541Y39784577D01*
X38417540Y39784578D01*
X38417539Y39784578D01*
X38417533Y39784580D01*
X38264816Y39825500D01*
X38264814Y39825500D01*
X38106700Y39825500D01*
X38106697Y39825500D01*
X37953980Y39784580D01*
X37953974Y39784578D01*
X37817043Y39705522D01*
X37705235Y39593714D01*
X37626179Y39456783D01*
X37626177Y39456777D01*
X37585257Y39304060D01*
X31760757Y39304060D01*
X31760757Y39624999D01*
X31760756Y39625000D01*
X30998258Y39625000D01*
X30998257Y39624999D01*
X30748257Y39624999D01*
X30748256Y39625000D01*
X29985758Y39625000D01*
X29985757Y39624999D01*
X29686257Y39624999D01*
X29686257Y40268068D01*
X29985757Y40268068D01*
X29985757Y39875001D01*
X29985758Y39875000D01*
X30748256Y39875000D01*
X30748257Y39875001D01*
X30748257Y40774999D01*
X30998257Y40774999D01*
X30998257Y39875001D01*
X30998258Y39875000D01*
X31760756Y39875000D01*
X31760757Y39875001D01*
X31760757Y40268053D01*
X31760756Y40268068D01*
X31750143Y40356441D01*
X31750141Y40356448D01*
X31694677Y40497094D01*
X31694676Y40497096D01*
X31603323Y40617563D01*
X31603319Y40617567D01*
X31482852Y40708920D01*
X31482850Y40708921D01*
X31342204Y40764385D01*
X31342197Y40764387D01*
X31253824Y40775000D01*
X30998258Y40775000D01*
X30998257Y40774999D01*
X30748257Y40774999D01*
X30748256Y40775000D01*
X30492689Y40775000D01*
X30404316Y40764387D01*
X30404309Y40764385D01*
X30263663Y40708921D01*
X30263661Y40708920D01*
X30143194Y40617567D01*
X30143190Y40617563D01*
X30051837Y40497096D01*
X30051836Y40497094D01*
X29996372Y40356448D01*
X29996370Y40356441D01*
X29985757Y40268068D01*
X29686257Y40268068D01*
X29686257Y40268102D01*
X29675634Y40356564D01*
X29620118Y40497342D01*
X29528679Y40617922D01*
X29408099Y40709361D01*
X29267321Y40764877D01*
X29267318Y40764878D01*
X29267316Y40764878D01*
X29178865Y40775500D01*
X29178859Y40775500D01*
X28417655Y40775500D01*
X28417648Y40775500D01*
X28329197Y40764878D01*
X28329193Y40764878D01*
X28329193Y40764877D01*
X28188415Y40709361D01*
X28188414Y40709361D01*
X28188413Y40709360D01*
X28067837Y40617924D01*
X28067833Y40617920D01*
X27976397Y40497344D01*
X27976396Y40497343D01*
X27976396Y40497342D01*
X27953950Y40440423D01*
X27920881Y40356567D01*
X27920879Y40356560D01*
X27910257Y40268109D01*
X27910257Y40251000D01*
X27903548Y40232569D01*
X27900142Y40213250D01*
X27894922Y40208871D01*
X27892593Y40202470D01*
X27875609Y40192665D01*
X27860580Y40180053D01*
X27850770Y40178324D01*
X27847867Y40176647D01*
X27834757Y40175500D01*
X27790767Y40175500D01*
X27742237Y40193164D01*
X27737381Y40197613D01*
X27704473Y40230520D01*
X27567539Y40309578D01*
X27567533Y40309580D01*
X27414816Y40350500D01*
X27414814Y40350500D01*
X27256700Y40350500D01*
X27256697Y40350500D01*
X27103980Y40309580D01*
X27103974Y40309578D01*
X26967043Y40230522D01*
X26855235Y40118714D01*
X26776179Y39981783D01*
X26776177Y39981777D01*
X26735257Y39829060D01*
X297922Y39829060D01*
X297840Y41029060D01*
X36635257Y41029060D01*
X36635257Y40870941D01*
X36676177Y40718224D01*
X36676179Y40718218D01*
X36676180Y40718216D01*
X36681547Y40708920D01*
X36754882Y40581898D01*
X36755237Y40581284D01*
X36867041Y40469480D01*
X37003973Y40390423D01*
X37156700Y40349500D01*
X37156701Y40349500D01*
X37314813Y40349500D01*
X37314814Y40349500D01*
X37467541Y40390423D01*
X37604473Y40469480D01*
X37716277Y40581284D01*
X37795334Y40718216D01*
X37836257Y40870943D01*
X37836257Y41029057D01*
X37826769Y41064467D01*
X37826769Y41064469D01*
X37822859Y41079060D01*
X42985257Y41079060D01*
X42985257Y40920941D01*
X43026177Y40768224D01*
X43026179Y40768218D01*
X43105234Y40631288D01*
X43105237Y40631284D01*
X43217041Y40519480D01*
X43353973Y40440423D01*
X43506700Y40399500D01*
X43506701Y40399500D01*
X43664813Y40399500D01*
X43664814Y40399500D01*
X43738164Y40419155D01*
X43774403Y40428864D01*
X43825852Y40424363D01*
X43862370Y40387845D01*
X43864179Y40383636D01*
X43876393Y40352664D01*
X43876395Y40352661D01*
X43876396Y40352658D01*
X43967835Y40232078D01*
X44088415Y40140639D01*
X44229193Y40085123D01*
X44312415Y40075130D01*
X44313816Y40074961D01*
X44359894Y40051638D01*
X44380200Y40004152D01*
X44365232Y39954724D01*
X44321994Y39926481D01*
X44313816Y39925039D01*
X44229197Y39914878D01*
X44229193Y39914878D01*
X44229193Y39914877D01*
X44088415Y39859361D01*
X44088414Y39859361D01*
X44088413Y39859360D01*
X43967837Y39767924D01*
X43967833Y39767920D01*
X43876397Y39647344D01*
X43876394Y39647339D01*
X43864179Y39616364D01*
X43829942Y39577699D01*
X43778862Y39570086D01*
X43774404Y39571136D01*
X43721658Y39585269D01*
X43664814Y39600500D01*
X43506700Y39600500D01*
X43506697Y39600500D01*
X43353980Y39559580D01*
X43353974Y39559578D01*
X43217043Y39480522D01*
X43105235Y39368714D01*
X43026179Y39231783D01*
X43026177Y39231777D01*
X42985257Y39079060D01*
X42985257Y38920941D01*
X43026177Y38768224D01*
X43026179Y38768218D01*
X43026180Y38768216D01*
X43105237Y38631284D01*
X43217041Y38519480D01*
X43353973Y38440423D01*
X43506700Y38399500D01*
X43506701Y38399500D01*
X43664813Y38399500D01*
X43664814Y38399500D01*
X43809382Y38438237D01*
X43860831Y38433736D01*
X43889080Y38410932D01*
X43967835Y38307078D01*
X44088415Y38215639D01*
X44229193Y38160123D01*
X44317655Y38149500D01*
X44317663Y38149500D01*
X45353851Y38149500D01*
X45353859Y38149500D01*
X45442321Y38160123D01*
X45583099Y38215639D01*
X45703679Y38307078D01*
X45795118Y38427658D01*
X45850634Y38568436D01*
X45861257Y38656898D01*
X45861257Y39418102D01*
X45850634Y39506564D01*
X45803929Y39624999D01*
X62048257Y39624999D01*
X62048257Y39231933D01*
X62058870Y39143560D01*
X62058872Y39143553D01*
X62114336Y39002907D01*
X62114337Y39002905D01*
X62205690Y38882438D01*
X62205694Y38882434D01*
X62326161Y38791081D01*
X62326163Y38791080D01*
X62466809Y38735616D01*
X62466816Y38735614D01*
X62555189Y38725001D01*
X62555204Y38725000D01*
X62810756Y38725000D01*
X62810757Y38725001D01*
X62810757Y39624999D01*
X63060757Y39624999D01*
X63060757Y38725001D01*
X63060758Y38725000D01*
X63316310Y38725000D01*
X63316324Y38725001D01*
X63404697Y38735614D01*
X63404704Y38735616D01*
X63545350Y38791080D01*
X63545352Y38791081D01*
X63665819Y38882434D01*
X63665823Y38882438D01*
X63757176Y39002905D01*
X63757177Y39002907D01*
X63812641Y39143553D01*
X63812643Y39143560D01*
X63823256Y39231933D01*
X63823257Y39231948D01*
X63823257Y39624999D01*
X63823256Y39625000D01*
X63060758Y39625000D01*
X63060757Y39624999D01*
X62810757Y39624999D01*
X62810756Y39625000D01*
X62048258Y39625000D01*
X62048257Y39624999D01*
X45803929Y39624999D01*
X45795118Y39647342D01*
X45703679Y39767922D01*
X45583099Y39859361D01*
X45442321Y39914877D01*
X45442318Y39914878D01*
X45442316Y39914878D01*
X45376223Y39922815D01*
X45357696Y39925040D01*
X45311619Y39948362D01*
X45291313Y39995848D01*
X45306281Y40045276D01*
X45349519Y40073519D01*
X45357695Y40074961D01*
X45442321Y40085123D01*
X45583099Y40140639D01*
X45703679Y40232078D01*
X45730971Y40268068D01*
X62048257Y40268068D01*
X62048257Y39875001D01*
X62048258Y39875000D01*
X62810756Y39875000D01*
X62810757Y39875001D01*
X62810757Y40774999D01*
X63060757Y40774999D01*
X63060757Y39875001D01*
X63060758Y39875000D01*
X63823256Y39875000D01*
X63823257Y39875001D01*
X63823257Y40268061D01*
X63823251Y40268109D01*
X64122757Y40268109D01*
X64122757Y39231892D01*
X64133079Y39145943D01*
X64133380Y39143436D01*
X64188896Y39002658D01*
X64280335Y38882078D01*
X64400915Y38790639D01*
X64541693Y38735123D01*
X64630155Y38724500D01*
X64630163Y38724500D01*
X65391351Y38724500D01*
X65391359Y38724500D01*
X65479821Y38735123D01*
X65620599Y38790639D01*
X65741179Y38882078D01*
X65832618Y39002658D01*
X65888134Y39143436D01*
X65898757Y39231898D01*
X65898757Y39954978D01*
X65916421Y40003508D01*
X65920870Y40008365D01*
X66289892Y40377387D01*
X66336699Y40399213D01*
X66343279Y40399500D01*
X66389813Y40399500D01*
X66389814Y40399500D01*
X66542541Y40440423D01*
X66679473Y40519480D01*
X66791277Y40631284D01*
X66800374Y40647041D01*
X69199097Y40647041D01*
X69199097Y40488922D01*
X69240017Y40336205D01*
X69240019Y40336199D01*
X69317226Y40202470D01*
X69319077Y40199265D01*
X69430881Y40087461D01*
X69567813Y40008404D01*
X69567818Y40008403D01*
X69567820Y40008402D01*
X69586085Y40003508D01*
X69720540Y39967481D01*
X69720541Y39967481D01*
X69878653Y39967481D01*
X69878654Y39967481D01*
X70031381Y40008404D01*
X70168313Y40087461D01*
X70280117Y40199265D01*
X70359174Y40336197D01*
X70400097Y40488924D01*
X70400097Y40647038D01*
X70368654Y40764385D01*
X70359176Y40799758D01*
X70359174Y40799764D01*
X70359174Y40799765D01*
X70280117Y40936697D01*
X70168313Y41048501D01*
X70140655Y41064469D01*
X70031379Y41127559D01*
X70031373Y41127561D01*
X69878656Y41168481D01*
X69878654Y41168481D01*
X69720540Y41168481D01*
X69720537Y41168481D01*
X69567820Y41127561D01*
X69567814Y41127559D01*
X69430883Y41048503D01*
X69319075Y40936695D01*
X69240019Y40799764D01*
X69240017Y40799758D01*
X69199097Y40647041D01*
X66800374Y40647041D01*
X66870334Y40768216D01*
X66911257Y40920943D01*
X66911257Y41079057D01*
X66870334Y41231784D01*
X66791277Y41368716D01*
X66679473Y41480520D01*
X66629144Y41509577D01*
X66542539Y41559578D01*
X66542533Y41559580D01*
X66389816Y41600500D01*
X66389814Y41600500D01*
X66231700Y41600500D01*
X66231697Y41600500D01*
X66078980Y41559580D01*
X66078974Y41559578D01*
X65942043Y41480522D01*
X65830235Y41368714D01*
X65751179Y41231783D01*
X65751177Y41231777D01*
X65710257Y41079060D01*
X65710257Y41032522D01*
X65692593Y40983992D01*
X65688143Y40979135D01*
X65500472Y40791465D01*
X65453666Y40769639D01*
X65438086Y40769890D01*
X65391361Y40775500D01*
X65391359Y40775500D01*
X64630155Y40775500D01*
X64630148Y40775500D01*
X64541697Y40764878D01*
X64541693Y40764878D01*
X64541693Y40764877D01*
X64400915Y40709361D01*
X64400914Y40709361D01*
X64400913Y40709360D01*
X64280337Y40617924D01*
X64280333Y40617920D01*
X64188897Y40497344D01*
X64188896Y40497343D01*
X64188896Y40497342D01*
X64166450Y40440423D01*
X64133381Y40356567D01*
X64133379Y40356560D01*
X64122757Y40268109D01*
X63823251Y40268109D01*
X63812643Y40356441D01*
X63812641Y40356448D01*
X63757177Y40497094D01*
X63757176Y40497096D01*
X63665823Y40617563D01*
X63665819Y40617567D01*
X63545352Y40708920D01*
X63545350Y40708921D01*
X63404704Y40764385D01*
X63404697Y40764387D01*
X63316324Y40775000D01*
X63060758Y40775000D01*
X63060757Y40774999D01*
X62810757Y40774999D01*
X62810756Y40775000D01*
X62555189Y40775000D01*
X62466816Y40764387D01*
X62466809Y40764385D01*
X62326163Y40708921D01*
X62326161Y40708920D01*
X62205694Y40617567D01*
X62205690Y40617563D01*
X62114337Y40497096D01*
X62114336Y40497094D01*
X62058872Y40356448D01*
X62058870Y40356441D01*
X62048257Y40268068D01*
X45730971Y40268068D01*
X45795118Y40352658D01*
X45850634Y40493436D01*
X45861257Y40581898D01*
X45861257Y41343102D01*
X45850634Y41431564D01*
X45795118Y41572342D01*
X45703679Y41692922D01*
X45583099Y41784361D01*
X45442321Y41839877D01*
X45442318Y41839878D01*
X45442316Y41839878D01*
X45353865Y41850500D01*
X45353859Y41850500D01*
X44317655Y41850500D01*
X44317648Y41850500D01*
X44229197Y41839878D01*
X44229193Y41839878D01*
X44229193Y41839877D01*
X44088415Y41784361D01*
X44088414Y41784361D01*
X44088413Y41784360D01*
X43967837Y41692924D01*
X43967833Y41692920D01*
X43889082Y41589071D01*
X43845683Y41561075D01*
X43809382Y41561764D01*
X43664816Y41600500D01*
X43664814Y41600500D01*
X43506700Y41600500D01*
X43506697Y41600500D01*
X43353980Y41559580D01*
X43353974Y41559578D01*
X43217043Y41480522D01*
X43105235Y41368714D01*
X43026179Y41231783D01*
X43026177Y41231777D01*
X42985257Y41079060D01*
X37822859Y41079060D01*
X37795336Y41181777D01*
X37795334Y41181783D01*
X37795334Y41181784D01*
X37716277Y41318716D01*
X37604473Y41430520D01*
X37467541Y41509577D01*
X37467540Y41509578D01*
X37467539Y41509578D01*
X37467533Y41509580D01*
X37314816Y41550500D01*
X37314814Y41550500D01*
X37156700Y41550500D01*
X37156697Y41550500D01*
X37003980Y41509580D01*
X37003974Y41509578D01*
X36867043Y41430522D01*
X36755235Y41318714D01*
X36676179Y41181783D01*
X36676177Y41181777D01*
X36635257Y41029060D01*
X297840Y41029060D01*
X297688Y43262118D01*
X32418315Y43262118D01*
X32418315Y43103999D01*
X32459235Y42951282D01*
X32459237Y42951276D01*
X32459238Y42951274D01*
X32481624Y42912500D01*
X32516163Y42852675D01*
X32538295Y42814342D01*
X32650099Y42702538D01*
X32787031Y42623481D01*
X32787036Y42623480D01*
X32787038Y42623479D01*
X32823038Y42613833D01*
X32939758Y42582558D01*
X32939759Y42582558D01*
X33097871Y42582558D01*
X33097872Y42582558D01*
X33250599Y42623481D01*
X33387531Y42702538D01*
X33403985Y42718992D01*
X33420439Y42735445D01*
X33435375Y42742410D01*
X33448002Y42753005D01*
X33464235Y42755868D01*
X33467246Y42757271D01*
X33473825Y42757558D01*
X33487198Y42757558D01*
X33535728Y42739894D01*
X33561551Y42695168D01*
X33562159Y42691060D01*
X33570867Y42618540D01*
X33570880Y42618436D01*
X33626396Y42477658D01*
X33717835Y42357078D01*
X33838415Y42265639D01*
X33979193Y42210123D01*
X34067655Y42199500D01*
X34067663Y42199500D01*
X35103851Y42199500D01*
X35103859Y42199500D01*
X35192321Y42210123D01*
X35333099Y42265639D01*
X35453679Y42357078D01*
X35545118Y42477658D01*
X35598963Y42614198D01*
X35602807Y42618540D01*
X35603814Y42624250D01*
X35619566Y42637469D01*
X35633199Y42652865D01*
X35639960Y42654581D01*
X35643376Y42657447D01*
X35669199Y42662000D01*
X35752315Y42662000D01*
X35800845Y42644336D01*
X35822551Y42614198D01*
X35876396Y42477658D01*
X35967835Y42357078D01*
X36088415Y42265639D01*
X36229193Y42210123D01*
X36317655Y42199500D01*
X36317663Y42199500D01*
X37353851Y42199500D01*
X37353859Y42199500D01*
X37442321Y42210123D01*
X37583099Y42265639D01*
X37703679Y42357078D01*
X37795118Y42477658D01*
X37848819Y42613835D01*
X37883054Y42652500D01*
X37934134Y42660115D01*
X37965015Y42646035D01*
X37967037Y42644484D01*
X37967041Y42644480D01*
X38103973Y42565423D01*
X38256700Y42524500D01*
X38256701Y42524500D01*
X38414813Y42524500D01*
X38414814Y42524500D01*
X38567541Y42565423D01*
X38704473Y42644480D01*
X38816277Y42756284D01*
X38816280Y42756290D01*
X38819291Y42760212D01*
X38819581Y42759990D01*
X38828682Y42771530D01*
X38835152Y42777664D01*
X38847020Y42784515D01*
X38931557Y42869053D01*
X38932259Y42869718D01*
X38955079Y42879627D01*
X38977620Y42890138D01*
X38978651Y42889862D01*
X38979631Y42890287D01*
X39003493Y42883206D01*
X39027505Y42876771D01*
X39028376Y42875821D01*
X39029142Y42875593D01*
X39030586Y42873409D01*
X39049586Y42852675D01*
X39105234Y42756288D01*
X39105237Y42756284D01*
X39217041Y42644480D01*
X39353973Y42565423D01*
X39506700Y42524500D01*
X39506701Y42524500D01*
X39664813Y42524500D01*
X39664814Y42524500D01*
X39817541Y42565423D01*
X39954473Y42644480D01*
X40066277Y42756284D01*
X40145334Y42893216D01*
X40150501Y42912499D01*
X43810757Y42912499D01*
X43810757Y42656933D01*
X43821370Y42568560D01*
X43821372Y42568553D01*
X43876836Y42427907D01*
X43876837Y42427905D01*
X43968190Y42307438D01*
X43968194Y42307434D01*
X44088661Y42216081D01*
X44088663Y42216080D01*
X44229309Y42160616D01*
X44229316Y42160614D01*
X44317689Y42150001D01*
X44317704Y42150000D01*
X44710756Y42150000D01*
X44710757Y42150001D01*
X44710757Y42912499D01*
X44960757Y42912499D01*
X44960757Y42150001D01*
X44960758Y42150000D01*
X45353810Y42150000D01*
X45353824Y42150001D01*
X45384925Y42153736D01*
X61910757Y42153736D01*
X61910757Y41760670D01*
X61921370Y41672297D01*
X61921372Y41672290D01*
X61976836Y41531644D01*
X61976837Y41531642D01*
X62068190Y41411175D01*
X62068194Y41411171D01*
X62188661Y41319818D01*
X62188663Y41319817D01*
X62329309Y41264353D01*
X62329316Y41264351D01*
X62417689Y41253738D01*
X62417704Y41253737D01*
X62673256Y41253737D01*
X62673257Y41253738D01*
X62673257Y42153736D01*
X62923257Y42153736D01*
X62923257Y41253738D01*
X62923258Y41253737D01*
X63178810Y41253737D01*
X63178824Y41253738D01*
X63267197Y41264351D01*
X63267204Y41264353D01*
X63407850Y41319817D01*
X63407852Y41319818D01*
X63528319Y41411171D01*
X63528323Y41411175D01*
X63619676Y41531642D01*
X63619677Y41531644D01*
X63675141Y41672290D01*
X63675143Y41672297D01*
X63685756Y41760670D01*
X63685757Y41760685D01*
X63685757Y42153736D01*
X63685756Y42153737D01*
X62923258Y42153737D01*
X62923257Y42153736D01*
X62673257Y42153736D01*
X62673256Y42153737D01*
X61910758Y42153737D01*
X61910757Y42153736D01*
X45384925Y42153736D01*
X45442197Y42160614D01*
X45442204Y42160616D01*
X45582850Y42216080D01*
X45582853Y42216081D01*
X45621212Y42245169D01*
X45703319Y42307434D01*
X45703323Y42307438D01*
X45794676Y42427905D01*
X45794677Y42427907D01*
X45850141Y42568553D01*
X45850143Y42568560D01*
X45860756Y42656933D01*
X45860757Y42656948D01*
X45860757Y42796805D01*
X61910757Y42796805D01*
X61910757Y42403738D01*
X61910758Y42403737D01*
X62673256Y42403737D01*
X62673257Y42403738D01*
X62673257Y43303736D01*
X62923257Y43303736D01*
X62923257Y42403738D01*
X62923258Y42403737D01*
X63685756Y42403737D01*
X63685757Y42403738D01*
X63685757Y42796790D01*
X63685756Y42796805D01*
X63675143Y42885178D01*
X63675141Y42885185D01*
X63619677Y43025831D01*
X63619676Y43025833D01*
X63528323Y43146300D01*
X63528319Y43146304D01*
X63407852Y43237657D01*
X63407850Y43237658D01*
X63267204Y43293122D01*
X63267197Y43293124D01*
X63178824Y43303737D01*
X62923258Y43303737D01*
X62923257Y43303736D01*
X62673257Y43303736D01*
X62673256Y43303737D01*
X62417689Y43303737D01*
X62329316Y43293124D01*
X62329309Y43293122D01*
X62188663Y43237658D01*
X62188661Y43237657D01*
X62068194Y43146304D01*
X62068190Y43146300D01*
X61976837Y43025833D01*
X61976836Y43025831D01*
X61921372Y42885185D01*
X61921370Y42885178D01*
X61910757Y42796805D01*
X45860757Y42796805D01*
X45860757Y42912499D01*
X45860756Y42912500D01*
X44960758Y42912500D01*
X44960757Y42912499D01*
X44710757Y42912499D01*
X44710756Y42912500D01*
X43810758Y42912500D01*
X43810757Y42912499D01*
X40150501Y42912499D01*
X40186257Y43045943D01*
X40186257Y43204057D01*
X40145334Y43356784D01*
X40109952Y43418068D01*
X43810757Y43418068D01*
X43810757Y43162501D01*
X43810758Y43162500D01*
X45860756Y43162500D01*
X45860757Y43162501D01*
X45860757Y43418053D01*
X45860756Y43418068D01*
X45850143Y43506441D01*
X45850141Y43506448D01*
X45794677Y43647094D01*
X45794676Y43647096D01*
X45703323Y43767563D01*
X45703319Y43767567D01*
X45582852Y43858920D01*
X45582850Y43858921D01*
X45442204Y43914385D01*
X45442197Y43914387D01*
X45375489Y43922398D01*
X45329411Y43945722D01*
X45309106Y43993208D01*
X45324075Y44042636D01*
X45346736Y44062740D01*
X45415764Y44102592D01*
X45527568Y44214396D01*
X45606625Y44351328D01*
X45647548Y44504055D01*
X45647548Y44579060D01*
X63985257Y44579060D01*
X63985257Y44420941D01*
X64026177Y44268224D01*
X64026179Y44268218D01*
X64076405Y44181222D01*
X64105237Y44131284D01*
X64217041Y44019480D01*
X64338603Y43949297D01*
X64371799Y43909736D01*
X64371799Y43858091D01*
X64366237Y43846164D01*
X64316012Y43759171D01*
X64316008Y43759161D01*
X64275088Y43606444D01*
X64275088Y43448325D01*
X64307485Y43327418D01*
X64302984Y43275969D01*
X64267817Y43240803D01*
X64267916Y43240628D01*
X64267292Y43240278D01*
X64266466Y43239451D01*
X64263733Y43238277D01*
X64263413Y43238097D01*
X64142837Y43146661D01*
X64142833Y43146657D01*
X64051397Y43026081D01*
X64051396Y43026080D01*
X64051396Y43026079D01*
X64026645Y42963315D01*
X63995881Y42885304D01*
X63995879Y42885297D01*
X63985257Y42796846D01*
X63985257Y41760629D01*
X63995865Y41672297D01*
X63995880Y41672173D01*
X64051396Y41531395D01*
X64142835Y41410815D01*
X64263415Y41319376D01*
X64404193Y41263860D01*
X64492655Y41253237D01*
X64492663Y41253237D01*
X65253851Y41253237D01*
X65253859Y41253237D01*
X65342321Y41263860D01*
X65483099Y41319376D01*
X65603679Y41410815D01*
X65695118Y41531395D01*
X65750634Y41672173D01*
X65761257Y41760635D01*
X65761257Y42796839D01*
X65750634Y42885301D01*
X65695118Y43026079D01*
X65603679Y43146659D01*
X65483099Y43238098D01*
X65479143Y43240322D01*
X65445500Y43279506D01*
X65443223Y43325672D01*
X65467115Y43414841D01*
X65476088Y43448327D01*
X65476088Y43606441D01*
X65435165Y43759168D01*
X65356108Y43896100D01*
X65244304Y44007904D01*
X65244301Y44007906D01*
X65122743Y44078087D01*
X65089546Y44117649D01*
X65089546Y44169294D01*
X65095108Y44181222D01*
X65145334Y44268216D01*
X65186257Y44420943D01*
X65186257Y44579057D01*
X65145334Y44731784D01*
X65066277Y44868716D01*
X64954473Y44980520D01*
X64817541Y45059577D01*
X64817540Y45059578D01*
X64817539Y45059578D01*
X64817533Y45059580D01*
X64664816Y45100500D01*
X64664814Y45100500D01*
X64506700Y45100500D01*
X64506697Y45100500D01*
X64353980Y45059580D01*
X64353974Y45059578D01*
X64217043Y44980522D01*
X64105235Y44868714D01*
X64026179Y44731783D01*
X64026177Y44731777D01*
X63985257Y44579060D01*
X45647548Y44579060D01*
X45647548Y44662169D01*
X45606625Y44814896D01*
X45527568Y44951828D01*
X45415764Y45063632D01*
X45406868Y45068768D01*
X45278830Y45142690D01*
X45278824Y45142692D01*
X45126107Y45183612D01*
X45126105Y45183612D01*
X44967991Y45183612D01*
X44967988Y45183612D01*
X44815271Y45142692D01*
X44815265Y45142690D01*
X44678334Y45063634D01*
X44566526Y44951826D01*
X44487470Y44814895D01*
X44487468Y44814889D01*
X44446548Y44662172D01*
X44446548Y44504053D01*
X44487468Y44351336D01*
X44487470Y44351330D01*
X44487471Y44351328D01*
X44566528Y44214396D01*
X44678332Y44102592D01*
X44678334Y44102591D01*
X44741911Y44065885D01*
X44775108Y44026323D01*
X44775108Y43974678D01*
X44741911Y43935115D01*
X44704161Y43925000D01*
X44317689Y43925000D01*
X44229316Y43914387D01*
X44229309Y43914385D01*
X44088663Y43858921D01*
X44088661Y43858920D01*
X43968194Y43767567D01*
X43968190Y43767563D01*
X43876837Y43647096D01*
X43876836Y43647094D01*
X43821372Y43506448D01*
X43821370Y43506441D01*
X43810757Y43418068D01*
X40109952Y43418068D01*
X40066277Y43493716D01*
X40053545Y43506448D01*
X40033370Y43526624D01*
X40011544Y43573431D01*
X40011257Y43580010D01*
X40011257Y45056020D01*
X40011256Y45056021D01*
X40010303Y45059580D01*
X40010301Y45059583D01*
X39982260Y45164237D01*
X39970515Y45184580D01*
X39946372Y45226397D01*
X39936257Y45264147D01*
X39936257Y45329056D01*
X39936256Y45329060D01*
X39895336Y45481777D01*
X39895334Y45481783D01*
X39895334Y45481784D01*
X39816277Y45618716D01*
X39704473Y45730520D01*
X39567541Y45809577D01*
X39567540Y45809578D01*
X39567539Y45809578D01*
X39567533Y45809580D01*
X39414816Y45850500D01*
X39414814Y45850500D01*
X39256700Y45850500D01*
X39256697Y45850500D01*
X39103980Y45809580D01*
X39103974Y45809578D01*
X38967043Y45730522D01*
X38855235Y45618714D01*
X38776179Y45481783D01*
X38776177Y45481777D01*
X38735257Y45329060D01*
X38735257Y45277688D01*
X38717593Y45229158D01*
X38679298Y45204761D01*
X38603980Y45184580D01*
X38603974Y45184578D01*
X38467043Y45105522D01*
X38355235Y44993714D01*
X38276179Y44856783D01*
X38276177Y44856777D01*
X38235257Y44704060D01*
X38235257Y44545941D01*
X38276177Y44393224D01*
X38276179Y44393218D01*
X38348343Y44268224D01*
X38355237Y44256284D01*
X38388144Y44223377D01*
X38409970Y44176571D01*
X38410257Y44169991D01*
X38410257Y43801000D01*
X38392593Y43752470D01*
X38347867Y43726647D01*
X38334757Y43725500D01*
X38256697Y43725500D01*
X38103980Y43684580D01*
X38103974Y43684578D01*
X37967040Y43605520D01*
X37951103Y43589583D01*
X37904296Y43567758D01*
X37854411Y43581126D01*
X37827482Y43615273D01*
X37820456Y43633090D01*
X37795118Y43697342D01*
X37703679Y43817922D01*
X37583099Y43909361D01*
X37442321Y43964877D01*
X37442318Y43964878D01*
X37442316Y43964878D01*
X37353865Y43975500D01*
X37353859Y43975500D01*
X36317655Y43975500D01*
X36317648Y43975500D01*
X36229197Y43964878D01*
X36229193Y43964878D01*
X36229193Y43964877D01*
X36088415Y43909361D01*
X36088414Y43909361D01*
X36088413Y43909360D01*
X35967837Y43817924D01*
X35967833Y43817920D01*
X35876397Y43697344D01*
X35876396Y43697343D01*
X35876396Y43697342D01*
X35851058Y43633090D01*
X35822551Y43560802D01*
X35818706Y43556461D01*
X35817700Y43550750D01*
X35801947Y43537532D01*
X35788315Y43522135D01*
X35781553Y43520420D01*
X35778138Y43517553D01*
X35752315Y43513000D01*
X35669199Y43513000D01*
X35620669Y43530664D01*
X35598963Y43560802D01*
X35580965Y43606441D01*
X35545118Y43697342D01*
X35453679Y43817922D01*
X35333099Y43909361D01*
X35192321Y43964877D01*
X35192318Y43964878D01*
X35192316Y43964878D01*
X35103865Y43975500D01*
X35103859Y43975500D01*
X34067655Y43975500D01*
X34067648Y43975500D01*
X33979197Y43964878D01*
X33979193Y43964878D01*
X33979193Y43964877D01*
X33838415Y43909361D01*
X33838414Y43909361D01*
X33838413Y43909360D01*
X33717837Y43817924D01*
X33717833Y43817920D01*
X33626397Y43697344D01*
X33626396Y43697343D01*
X33626396Y43697342D01*
X33621363Y43684578D01*
X33610235Y43656360D01*
X33606390Y43652019D01*
X33605384Y43646308D01*
X33589631Y43633090D01*
X33575999Y43617693D01*
X33569237Y43615978D01*
X33565822Y43613111D01*
X33539999Y43608558D01*
X33473825Y43608558D01*
X33425295Y43626222D01*
X33420439Y43630671D01*
X33387531Y43663578D01*
X33250597Y43742636D01*
X33250591Y43742638D01*
X33097874Y43783558D01*
X33097872Y43783558D01*
X32939758Y43783558D01*
X32939755Y43783558D01*
X32787038Y43742638D01*
X32787032Y43742636D01*
X32650101Y43663580D01*
X32538293Y43551772D01*
X32459237Y43414841D01*
X32459235Y43414835D01*
X32418315Y43262118D01*
X297688Y43262118D01*
X297624Y44204060D01*
X1110257Y44204060D01*
X1110257Y44045941D01*
X1151177Y43893224D01*
X1151179Y43893218D01*
X1228572Y43759167D01*
X1230237Y43756284D01*
X1342041Y43644480D01*
X1478973Y43565423D01*
X1478978Y43565422D01*
X1478980Y43565421D01*
X1529912Y43551774D01*
X1631700Y43524500D01*
X1631701Y43524500D01*
X1789813Y43524500D01*
X1789814Y43524500D01*
X1942541Y43565423D01*
X2079473Y43644480D01*
X2191277Y43756284D01*
X2270334Y43893216D01*
X2311257Y44045943D01*
X2311257Y44204057D01*
X2271796Y44351328D01*
X2270336Y44356777D01*
X2270334Y44356783D01*
X2270334Y44356784D01*
X2191277Y44493716D01*
X2079473Y44605520D01*
X1942541Y44684577D01*
X1942540Y44684578D01*
X1942539Y44684578D01*
X1942533Y44684580D01*
X1789816Y44725500D01*
X1789814Y44725500D01*
X1631700Y44725500D01*
X1631697Y44725500D01*
X1478980Y44684580D01*
X1478974Y44684578D01*
X1342043Y44605522D01*
X1230235Y44493714D01*
X1151179Y44356783D01*
X1151177Y44356777D01*
X1110257Y44204060D01*
X297624Y44204060D01*
X297567Y45037499D01*
X33560757Y45037499D01*
X33560757Y44781933D01*
X33571370Y44693560D01*
X33571372Y44693553D01*
X33626836Y44552907D01*
X33626837Y44552905D01*
X33718190Y44432438D01*
X33718194Y44432434D01*
X33838661Y44341081D01*
X33838663Y44341080D01*
X33979309Y44285616D01*
X33979316Y44285614D01*
X34067689Y44275001D01*
X34067704Y44275000D01*
X34460756Y44275000D01*
X34460757Y44275001D01*
X34460757Y45037499D01*
X34710757Y45037499D01*
X34710757Y44275001D01*
X34710758Y44275000D01*
X35103810Y44275000D01*
X35103824Y44275001D01*
X35192197Y44285614D01*
X35192204Y44285616D01*
X35332850Y44341080D01*
X35332852Y44341081D01*
X35453319Y44432434D01*
X35453323Y44432438D01*
X35544676Y44552905D01*
X35544677Y44552907D01*
X35600141Y44693553D01*
X35600143Y44693560D01*
X35610756Y44781933D01*
X35610757Y44781948D01*
X35610757Y45037499D01*
X35810757Y45037499D01*
X35810757Y44781933D01*
X35821370Y44693560D01*
X35821372Y44693553D01*
X35876836Y44552907D01*
X35876837Y44552905D01*
X35968190Y44432438D01*
X35968194Y44432434D01*
X36088661Y44341081D01*
X36088663Y44341080D01*
X36229309Y44285616D01*
X36229316Y44285614D01*
X36317689Y44275001D01*
X36317704Y44275000D01*
X36710756Y44275000D01*
X36710757Y44275001D01*
X36710757Y45037499D01*
X36960757Y45037499D01*
X36960757Y44275001D01*
X36960758Y44275000D01*
X37353810Y44275000D01*
X37353824Y44275001D01*
X37442197Y44285614D01*
X37442204Y44285616D01*
X37582850Y44341080D01*
X37582852Y44341081D01*
X37703319Y44432434D01*
X37703323Y44432438D01*
X37794676Y44552905D01*
X37794677Y44552907D01*
X37850141Y44693553D01*
X37850143Y44693560D01*
X37860756Y44781933D01*
X37860757Y44781948D01*
X37860757Y45037499D01*
X37860756Y45037500D01*
X36960758Y45037500D01*
X36960757Y45037499D01*
X36710757Y45037499D01*
X36710756Y45037500D01*
X35810758Y45037500D01*
X35810757Y45037499D01*
X35610757Y45037499D01*
X35610756Y45037500D01*
X34710758Y45037500D01*
X34710757Y45037499D01*
X34460757Y45037499D01*
X34460756Y45037500D01*
X33560758Y45037500D01*
X33560757Y45037499D01*
X297567Y45037499D01*
X297533Y45543068D01*
X33560757Y45543068D01*
X33560757Y45287501D01*
X33560758Y45287500D01*
X34460756Y45287500D01*
X34460757Y45287501D01*
X34460757Y46049999D01*
X34710757Y46049999D01*
X34710757Y45287501D01*
X34710758Y45287500D01*
X35610756Y45287500D01*
X35610757Y45287501D01*
X35610757Y45543053D01*
X35610756Y45543068D01*
X35810757Y45543068D01*
X35810757Y45287501D01*
X35810758Y45287500D01*
X36710756Y45287500D01*
X36710757Y45287501D01*
X36710757Y46049999D01*
X36960757Y46049999D01*
X36960757Y45287501D01*
X36960758Y45287500D01*
X37860756Y45287500D01*
X37860757Y45287501D01*
X37860757Y45543053D01*
X37860756Y45543068D01*
X37850143Y45631441D01*
X37850141Y45631448D01*
X37794677Y45772094D01*
X37794676Y45772096D01*
X37703323Y45892563D01*
X37703319Y45892567D01*
X37582852Y45983920D01*
X37582850Y45983921D01*
X37442204Y46039385D01*
X37442197Y46039387D01*
X37353824Y46050000D01*
X36960758Y46050000D01*
X36960757Y46049999D01*
X36710757Y46049999D01*
X36710756Y46050000D01*
X36317689Y46050000D01*
X36229316Y46039387D01*
X36229309Y46039385D01*
X36088663Y45983921D01*
X36088661Y45983920D01*
X35968194Y45892567D01*
X35968190Y45892563D01*
X35876837Y45772096D01*
X35876836Y45772094D01*
X35821372Y45631448D01*
X35821370Y45631441D01*
X35810757Y45543068D01*
X35610756Y45543068D01*
X35600143Y45631441D01*
X35600141Y45631448D01*
X35544677Y45772094D01*
X35544676Y45772096D01*
X35453323Y45892563D01*
X35453319Y45892567D01*
X35332852Y45983920D01*
X35332850Y45983921D01*
X35192204Y46039385D01*
X35192197Y46039387D01*
X35103824Y46050000D01*
X34710758Y46050000D01*
X34710757Y46049999D01*
X34460757Y46049999D01*
X34460756Y46050000D01*
X34067689Y46050000D01*
X33979316Y46039387D01*
X33979309Y46039385D01*
X33838663Y45983921D01*
X33838661Y45983920D01*
X33718194Y45892567D01*
X33718190Y45892563D01*
X33626837Y45772096D01*
X33626836Y45772094D01*
X33571372Y45631448D01*
X33571370Y45631441D01*
X33560757Y45543068D01*
X297533Y45543068D01*
X297440Y46904060D01*
X13110257Y46904060D01*
X13110257Y46745941D01*
X13151177Y46593224D01*
X13151179Y46593218D01*
X13230234Y46456288D01*
X13230237Y46456284D01*
X13342041Y46344480D01*
X13478973Y46265423D01*
X13631700Y46224500D01*
X13631701Y46224500D01*
X13789813Y46224500D01*
X13789814Y46224500D01*
X13942541Y46265423D01*
X14079473Y46344480D01*
X14191277Y46456284D01*
X14247727Y46554060D01*
X20135257Y46554060D01*
X20135257Y46395941D01*
X20176177Y46243224D01*
X20176179Y46243218D01*
X20176180Y46243216D01*
X20255237Y46106284D01*
X20367041Y45994480D01*
X20503973Y45915423D01*
X20656700Y45874500D01*
X20656701Y45874500D01*
X20814813Y45874500D01*
X20814814Y45874500D01*
X20967541Y45915423D01*
X21104473Y45994480D01*
X21216277Y46106284D01*
X21295334Y46243216D01*
X21336257Y46395943D01*
X21336257Y46554057D01*
X21310683Y46649501D01*
X21295336Y46706777D01*
X21295334Y46706783D01*
X21295334Y46706784D01*
X21216277Y46843716D01*
X21104473Y46955520D01*
X20967541Y47034577D01*
X20967540Y47034578D01*
X20967539Y47034578D01*
X20967533Y47034580D01*
X20814816Y47075500D01*
X20814814Y47075500D01*
X20656700Y47075500D01*
X20656697Y47075500D01*
X20503980Y47034580D01*
X20503974Y47034578D01*
X20367043Y46955522D01*
X20255235Y46843714D01*
X20176179Y46706783D01*
X20176177Y46706777D01*
X20135257Y46554060D01*
X14247727Y46554060D01*
X14270334Y46593216D01*
X14311257Y46745943D01*
X14311257Y46904057D01*
X14270334Y47056784D01*
X14191277Y47193716D01*
X14079473Y47305520D01*
X14065235Y47313740D01*
X13953318Y47378355D01*
X13942541Y47384577D01*
X13942540Y47384578D01*
X13942539Y47384578D01*
X13942533Y47384580D01*
X13789816Y47425500D01*
X13789814Y47425500D01*
X13631700Y47425500D01*
X13631697Y47425500D01*
X13478980Y47384580D01*
X13478974Y47384578D01*
X13342043Y47305522D01*
X13230235Y47193714D01*
X13151179Y47056783D01*
X13151177Y47056777D01*
X13110257Y46904060D01*
X297440Y46904060D01*
X297363Y48029060D01*
X39660257Y48029060D01*
X39660257Y47870941D01*
X39701177Y47718224D01*
X39701179Y47718218D01*
X39701180Y47718216D01*
X39780237Y47581284D01*
X39892041Y47469480D01*
X40028973Y47390423D01*
X40028978Y47390422D01*
X40028980Y47390421D01*
X40063069Y47381287D01*
X40181700Y47349500D01*
X40181701Y47349500D01*
X40339813Y47349500D01*
X40339814Y47349500D01*
X40492541Y47390423D01*
X40629473Y47469480D01*
X40741277Y47581284D01*
X40820334Y47718216D01*
X40861257Y47870943D01*
X40861257Y48029057D01*
X40824660Y48165640D01*
X40820336Y48181777D01*
X40820334Y48181783D01*
X40820334Y48181784D01*
X40741277Y48318716D01*
X40629473Y48430520D01*
X40492541Y48509577D01*
X40492540Y48509578D01*
X40492539Y48509578D01*
X40492533Y48509580D01*
X40339816Y48550500D01*
X40339814Y48550500D01*
X40181700Y48550500D01*
X40181697Y48550500D01*
X40028980Y48509580D01*
X40028974Y48509578D01*
X39892043Y48430522D01*
X39780235Y48318714D01*
X39701179Y48181783D01*
X39701177Y48181777D01*
X39660257Y48029060D01*
X297363Y48029060D01*
X297270Y49393109D01*
X47585257Y49393109D01*
X47585257Y48606892D01*
X47595879Y48518441D01*
X47595880Y48518436D01*
X47651396Y48377658D01*
X47742835Y48257078D01*
X47863415Y48165639D01*
X47899158Y48151544D01*
X47937824Y48117310D01*
X47945439Y48066230D01*
X47936845Y48043560D01*
X47901181Y47981787D01*
X47901177Y47981777D01*
X47860257Y47829060D01*
X47860257Y47670941D01*
X47901177Y47518224D01*
X47901179Y47518218D01*
X47978020Y47385123D01*
X47980237Y47381284D01*
X48092041Y47269480D01*
X48228973Y47190423D01*
X48381700Y47149500D01*
X48381701Y47149500D01*
X48539813Y47149500D01*
X48539814Y47149500D01*
X48692541Y47190423D01*
X48829473Y47269480D01*
X48941277Y47381284D01*
X49020334Y47518216D01*
X49061257Y47670943D01*
X49061257Y47829057D01*
X49050034Y47870943D01*
X49020804Y47980033D01*
X49020802Y47980037D01*
X49020334Y47981784D01*
X49016706Y47988067D01*
X49015814Y47989817D01*
X49014060Y48004060D01*
X49910257Y48004060D01*
X49910257Y47845941D01*
X49951177Y47693224D01*
X49951179Y47693218D01*
X50015801Y47581287D01*
X50030237Y47556284D01*
X50142041Y47444480D01*
X50278973Y47365423D01*
X50278978Y47365422D01*
X50278980Y47365421D01*
X50338234Y47349545D01*
X50431700Y47324500D01*
X50431701Y47324500D01*
X50589813Y47324500D01*
X50589814Y47324500D01*
X50742541Y47365423D01*
X50879473Y47444480D01*
X50991277Y47556284D01*
X51070334Y47693216D01*
X51111257Y47845943D01*
X51111257Y48004057D01*
X51070334Y48156784D01*
X50991277Y48293716D01*
X50879473Y48405520D01*
X50836171Y48430520D01*
X50742539Y48484578D01*
X50742533Y48484580D01*
X50589816Y48525500D01*
X50589814Y48525500D01*
X50431700Y48525500D01*
X50431697Y48525500D01*
X50278980Y48484580D01*
X50278974Y48484578D01*
X50142043Y48405522D01*
X50030235Y48293714D01*
X49951179Y48156783D01*
X49951177Y48156777D01*
X49910257Y48004060D01*
X49014060Y48004060D01*
X49012883Y48013611D01*
X49008719Y48037229D01*
X49009753Y48039022D01*
X49009501Y48041075D01*
X49022550Y48061185D01*
X49034542Y48081955D01*
X49036545Y48082753D01*
X49037613Y48084398D01*
X49050888Y48088463D01*
X49076678Y48098729D01*
X49076618Y48099231D01*
X49078511Y48099459D01*
X49078576Y48099484D01*
X49078838Y48099500D01*
X49078859Y48099500D01*
X49167321Y48110123D01*
X49308099Y48165639D01*
X49428679Y48257078D01*
X49520118Y48377658D01*
X49575634Y48518436D01*
X49586257Y48606898D01*
X49586257Y48918109D01*
X62122757Y48918109D01*
X62122757Y47881892D01*
X62133365Y47793560D01*
X62133380Y47793436D01*
X62188896Y47652658D01*
X62280335Y47532078D01*
X62400915Y47440639D01*
X62541693Y47385123D01*
X62598068Y47378354D01*
X62644143Y47355031D01*
X62654448Y47341144D01*
X62670272Y47313737D01*
X63099494Y46884515D01*
X63196520Y46828497D01*
X63304739Y46799500D01*
X63416776Y46799500D01*
X63655748Y46799500D01*
X63704278Y46781836D01*
X63709123Y46777398D01*
X63717041Y46769480D01*
X63853973Y46690423D01*
X64006700Y46649500D01*
X64006701Y46649500D01*
X64164813Y46649500D01*
X64164814Y46649500D01*
X64317541Y46690423D01*
X64454473Y46769480D01*
X64566277Y46881284D01*
X64645334Y47018216D01*
X64686257Y47170943D01*
X64686257Y47299500D01*
X64703921Y47348030D01*
X64748647Y47373853D01*
X64761757Y47375000D01*
X64960756Y47375000D01*
X64960757Y47375001D01*
X64960757Y48274999D01*
X65210757Y48274999D01*
X65210757Y47375001D01*
X65210758Y47375000D01*
X65466310Y47375000D01*
X65466324Y47375001D01*
X65554697Y47385614D01*
X65554704Y47385616D01*
X65695350Y47441080D01*
X65695352Y47441081D01*
X65815819Y47532434D01*
X65815823Y47532438D01*
X65907176Y47652905D01*
X65907177Y47652907D01*
X65962641Y47793553D01*
X65962643Y47793560D01*
X65973256Y47881933D01*
X65973257Y47881948D01*
X65973257Y48274999D01*
X65973256Y48275000D01*
X65210758Y48275000D01*
X65210757Y48274999D01*
X64960757Y48274999D01*
X64960756Y48275000D01*
X64198258Y48275000D01*
X64198257Y48274999D01*
X64198257Y47926000D01*
X64192044Y47908933D01*
X64189619Y47890933D01*
X64183447Y47885313D01*
X64180593Y47877470D01*
X64164865Y47868390D01*
X64151436Y47856159D01*
X64139655Y47853835D01*
X64135867Y47851647D01*
X64125820Y47850562D01*
X64124293Y47850500D01*
X64006700Y47850500D01*
X63985700Y47844874D01*
X63977320Y47844533D01*
X63960223Y47849982D01*
X63942346Y47851546D01*
X63936281Y47857611D01*
X63928113Y47860214D01*
X63918519Y47875375D01*
X63905829Y47888066D01*
X63903317Y47899399D01*
X63900497Y47903855D01*
X63901189Y47908996D01*
X63898757Y47919971D01*
X63898757Y48918068D01*
X64198257Y48918068D01*
X64198257Y48525001D01*
X64198258Y48525000D01*
X64960756Y48525000D01*
X64960757Y48525001D01*
X64960757Y49424999D01*
X65210757Y49424999D01*
X65210757Y48525001D01*
X65210758Y48525000D01*
X65973256Y48525000D01*
X65973257Y48525001D01*
X65973257Y48918053D01*
X65973256Y48918068D01*
X65962643Y49006441D01*
X65962641Y49006448D01*
X65907177Y49147094D01*
X65907176Y49147096D01*
X65815823Y49267563D01*
X65815819Y49267567D01*
X65695352Y49358920D01*
X65695350Y49358921D01*
X65554704Y49414385D01*
X65554697Y49414387D01*
X65466324Y49425000D01*
X65210758Y49425000D01*
X65210757Y49424999D01*
X64960757Y49424999D01*
X64960756Y49425000D01*
X64705189Y49425000D01*
X64616816Y49414387D01*
X64616809Y49414385D01*
X64476163Y49358921D01*
X64476161Y49358920D01*
X64355694Y49267567D01*
X64355690Y49267563D01*
X64264337Y49147096D01*
X64264336Y49147094D01*
X64208872Y49006448D01*
X64208870Y49006441D01*
X64198257Y48918068D01*
X63898757Y48918068D01*
X63898757Y48918094D01*
X63898757Y48918102D01*
X63888134Y49006564D01*
X63832618Y49147342D01*
X63741179Y49267922D01*
X63620599Y49359361D01*
X63479821Y49414877D01*
X63479818Y49414878D01*
X63479816Y49414878D01*
X63391365Y49425500D01*
X63391359Y49425500D01*
X62630155Y49425500D01*
X62630148Y49425500D01*
X62541697Y49414878D01*
X62541693Y49414878D01*
X62541693Y49414877D01*
X62400915Y49359361D01*
X62400914Y49359361D01*
X62400913Y49359360D01*
X62280337Y49267924D01*
X62280333Y49267920D01*
X62188897Y49147344D01*
X62188896Y49147343D01*
X62188896Y49147342D01*
X62150980Y49051197D01*
X62133381Y49006567D01*
X62133379Y49006560D01*
X62122757Y48918109D01*
X49586257Y48918109D01*
X49586257Y49393102D01*
X49575634Y49481564D01*
X49520118Y49622342D01*
X49496065Y49654060D01*
X53460257Y49654060D01*
X53460257Y49495941D01*
X53501177Y49343224D01*
X53501179Y49343218D01*
X53544855Y49267567D01*
X53580237Y49206284D01*
X53692041Y49094480D01*
X53828973Y49015423D01*
X53981700Y48974500D01*
X53981701Y48974500D01*
X54139813Y48974500D01*
X54139814Y48974500D01*
X54292541Y49015423D01*
X54429473Y49094480D01*
X54541277Y49206284D01*
X54620334Y49343216D01*
X54661257Y49495943D01*
X54661257Y49654057D01*
X54620334Y49806784D01*
X54541277Y49943716D01*
X54429473Y50055520D01*
X54292541Y50134577D01*
X54292540Y50134578D01*
X54292539Y50134578D01*
X54292533Y50134580D01*
X54139816Y50175500D01*
X54139814Y50175500D01*
X53981700Y50175500D01*
X53981697Y50175500D01*
X53828980Y50134580D01*
X53828974Y50134578D01*
X53692043Y50055522D01*
X53580235Y49943714D01*
X53501179Y49806783D01*
X53501177Y49806777D01*
X53460257Y49654060D01*
X49496065Y49654060D01*
X49428679Y49742922D01*
X49308099Y49834361D01*
X49167321Y49889877D01*
X49167318Y49889878D01*
X49167316Y49889878D01*
X49078865Y49900500D01*
X49078859Y49900500D01*
X48092655Y49900500D01*
X48092648Y49900500D01*
X48004197Y49889878D01*
X48004193Y49889878D01*
X48004193Y49889877D01*
X47863415Y49834361D01*
X47863414Y49834361D01*
X47863413Y49834360D01*
X47742837Y49742924D01*
X47742833Y49742920D01*
X47651397Y49622344D01*
X47651396Y49622341D01*
X47595881Y49481567D01*
X47595879Y49481560D01*
X47585257Y49393109D01*
X297270Y49393109D01*
X297170Y50874999D01*
X47585757Y50874999D01*
X47585757Y50606933D01*
X47596370Y50518560D01*
X47596372Y50518553D01*
X47651836Y50377907D01*
X47651837Y50377905D01*
X47743190Y50257438D01*
X47743194Y50257434D01*
X47863661Y50166081D01*
X47863663Y50166080D01*
X48004309Y50110616D01*
X48004316Y50110614D01*
X48092689Y50100001D01*
X48092704Y50100000D01*
X48460756Y50100000D01*
X48460757Y50100001D01*
X48460757Y50874999D01*
X48710757Y50874999D01*
X48710757Y50100001D01*
X48710758Y50100000D01*
X49078810Y50100000D01*
X49078824Y50100001D01*
X49167197Y50110614D01*
X49167204Y50110616D01*
X49307850Y50166080D01*
X49307852Y50166081D01*
X49428319Y50257434D01*
X49428323Y50257438D01*
X49519676Y50377905D01*
X49519677Y50377907D01*
X49575141Y50518553D01*
X49575143Y50518560D01*
X49585756Y50606933D01*
X49585757Y50606948D01*
X49585757Y50874999D01*
X49585756Y50875000D01*
X48710758Y50875000D01*
X48710757Y50874999D01*
X48460757Y50874999D01*
X48460756Y50875000D01*
X47585758Y50875000D01*
X47585757Y50874999D01*
X297170Y50874999D01*
X297135Y51393068D01*
X47585757Y51393068D01*
X47585757Y51125001D01*
X47585758Y51125000D01*
X48460756Y51125000D01*
X48460757Y51125001D01*
X48460757Y51899999D01*
X48710757Y51899999D01*
X48710757Y51125001D01*
X48710758Y51125000D01*
X49585756Y51125000D01*
X49585757Y51125001D01*
X49585757Y51393053D01*
X49585756Y51393068D01*
X49575143Y51481441D01*
X49575141Y51481448D01*
X49519677Y51622094D01*
X49519676Y51622096D01*
X49428323Y51742563D01*
X49428319Y51742567D01*
X49307852Y51833920D01*
X49307850Y51833921D01*
X49167204Y51889385D01*
X49167197Y51889387D01*
X49078824Y51900000D01*
X48710758Y51900000D01*
X48710757Y51899999D01*
X48460757Y51899999D01*
X48460756Y51900000D01*
X48092689Y51900000D01*
X48004316Y51889387D01*
X48004309Y51889385D01*
X47863663Y51833921D01*
X47863661Y51833920D01*
X47743194Y51742567D01*
X47743190Y51742563D01*
X47651837Y51622096D01*
X47651836Y51622094D01*
X47596372Y51481448D01*
X47596370Y51481441D01*
X47585757Y51393068D01*
X297135Y51393068D01*
X297119Y51622094D01*
X297071Y52329060D01*
X35685257Y52329060D01*
X35685257Y52170941D01*
X35726177Y52018224D01*
X35726179Y52018218D01*
X35726180Y52018216D01*
X35805237Y51881284D01*
X35917041Y51769480D01*
X36053973Y51690423D01*
X36206700Y51649500D01*
X36206701Y51649500D01*
X36364813Y51649500D01*
X36364814Y51649500D01*
X36517541Y51690423D01*
X36654473Y51769480D01*
X36766277Y51881284D01*
X36845334Y52018216D01*
X36886257Y52170943D01*
X36886257Y52329057D01*
X36845334Y52481784D01*
X36766277Y52618716D01*
X36654473Y52730520D01*
X36605566Y52758756D01*
X36517539Y52809578D01*
X36517533Y52809580D01*
X36364816Y52850500D01*
X36364814Y52850500D01*
X36206700Y52850500D01*
X36206697Y52850500D01*
X36053980Y52809580D01*
X36053974Y52809578D01*
X35917043Y52730522D01*
X35805235Y52618714D01*
X35726179Y52481783D01*
X35726177Y52481777D01*
X35685257Y52329060D01*
X297071Y52329060D01*
X297071Y52334001D01*
X297061Y52481784D01*
X297042Y52755824D01*
X297271Y52761695D01*
X315622Y52996936D01*
X317199Y53007473D01*
X368044Y53235540D01*
X371098Y53245765D01*
X373829Y53253000D01*
X453595Y53464363D01*
X458061Y53474057D01*
X488279Y53529060D01*
X31235257Y53529060D01*
X31235257Y53370941D01*
X31276177Y53218224D01*
X31276179Y53218218D01*
X31276180Y53218216D01*
X31355237Y53081284D01*
X31467041Y52969480D01*
X31603973Y52890423D01*
X31756700Y52849500D01*
X31756701Y52849500D01*
X31914813Y52849500D01*
X31914814Y52849500D01*
X32067541Y52890423D01*
X32204473Y52969480D01*
X32316277Y53081284D01*
X32395334Y53218216D01*
X32436257Y53370943D01*
X32436257Y53529057D01*
X32395334Y53681784D01*
X32316277Y53818716D01*
X32204473Y53930520D01*
X32067541Y54009577D01*
X32067540Y54009578D01*
X32067539Y54009578D01*
X32067533Y54009580D01*
X31914816Y54050500D01*
X31914814Y54050500D01*
X31756700Y54050500D01*
X31756697Y54050500D01*
X31603980Y54009580D01*
X31603974Y54009578D01*
X31467043Y53930522D01*
X31355235Y53818714D01*
X31276179Y53681783D01*
X31276177Y53681777D01*
X31235257Y53529060D01*
X488279Y53529060D01*
X510969Y53570360D01*
X525883Y53597509D01*
X570564Y53678838D01*
X576349Y53687800D01*
X583076Y53696762D01*
X716617Y53874675D01*
X723600Y53882723D01*
X888825Y54047949D01*
X896873Y54054932D01*
X1083753Y54195206D01*
X1092706Y54200984D01*
X1297502Y54313499D01*
X1307171Y54317952D01*
X1525793Y54400460D01*
X1535997Y54403507D01*
X1764072Y54454356D01*
X1774609Y54455933D01*
X2009685Y54474272D01*
X2015557Y54474500D01*
X86582181Y54474500D01*
X86587756Y54474295D01*
G37*
%TD.AperFunction*%
%TD*%
M02*
